<?xml version="1.0" encoding="UTF-8"?>
<svg id="Layer_1" data-name="Layer 1" xmlns="http://www.w3.org/2000/svg" viewBox="0 0 238.08 119.52">
  <defs>
    <style>
      .cls-1 {
        fill: #010101;
      }

      .cls-2 {
        fill: #030303;
      }

      .cls-3 {
        fill: #f2f2f3;
      }

      .cls-4 {
        fill: #060606;
      }

      .cls-5 {
        fill: #f4f5f5;
      }

      .cls-6 {
        fill: #040404;
      }

      .cls-7 {
        fill: #080808;
      }

      .cls-8 {
        fill: #f2f2f2;
      }

      .cls-9 {
        fill: #fbfbfb;
      }

      .cls-10 {
        fill: #fcfcfc;
      }
    </style>
  </defs>
  <path class="cls-9" d="M210.35,116.32l-9.28.56H33.89c-3.17-.43-6.07-.31-9.19-.55l-2.64-.2-4.26-.72c-2.49-.42-4.67-1.38-6.53-3.1l-2.74-2.54c-1.1-1.02-1.98-2.28-2.53-3.71-1.74-4.5-2.45-9.15-2.78-13.96-.07-1.09-.33-2.18-.33-3.34V31.36c.19-1.08.26-1.93.34-2.96.36-4.77,1.07-9.44,2.84-13.91,1.24-3.12,6.48-7.83,9.8-8.69,3.03-.79,5.72-1.27,8.83-1.4l6.79-.3h171.74s7.04.3,7.04.3l2.84.21,6.52,1.39c2.34.5,4.17,2.35,5.81,3.97l1.23,1.22c3.75,3.7,4.53,11.98,5.07,17.42l.33,3.34v57.4s-.34,2.96-.34,2.96c-.61,5.35-1.26,13.46-5.06,17.21l-1.23,1.22c-1.64,1.62-3.47,3.47-5.81,3.97l-6.52,1.4-2.75.2ZM200.54,116.16c2.52-.62,4.68-.47,7-.6,3.9.04,7.52-.59,11.23-1.88,3-1.93,6.09-4.06,7.82-7.3,1.85-3.48,2.67-7.44,3-11.35l.75-8.89v-51.3s-.75-8.89-.75-8.89c-.33-3.91-1.15-7.87-3-11.35-1.73-3.25-4.82-5.37-7.82-7.31-3.65-1.23-7.22-1.68-11.04-1.88l-6.93-.36H34.38s-7.15.36-7.15.36c-3.63.19-7.37.37-10.76,2.01-3.14,1.52-6.15,4.08-7.86,7.16-1.93,3.48-2.6,7.46-3.03,11.36-.33,3.01-.75,5.81-.75,8.89v51.3c0,3.08.43,5.88.76,8.89.43,3.9,1.09,7.88,3.02,11.36,1.74,3.13,4.81,5.72,8.01,7.23,3.55,1.68,7.41,1.8,11.21,1.97,2.36.1,4.53,0,6.89.58h165.81Z"/>
  <path class="cls-1" d="M200.54,116.16H34.73c-2.36-.58-4.52-.47-6.89-.58-3.8-.17-7.66-.29-11.21-1.97-3.2-1.51-6.27-4.1-8.01-7.23-1.93-3.48-2.6-7.46-3.02-11.36-.33-3.01-.76-5.81-.76-8.89v-51.3c0-3.08.43-5.88.75-8.89.42-3.9,1.1-7.88,3.03-11.36,1.71-3.08,4.71-5.64,7.86-7.16,3.39-1.64,7.13-1.82,10.76-2.01l7.15-.37h166.43s6.93.36,6.93.36c3.82.2,7.38.64,11.04,1.88,3,1.94,6.09,4.06,7.82,7.31,1.85,3.47,2.67,7.44,3,11.35l.75,8.89v51.3s-.75,8.89-.75,8.89c-.33,3.91-1.15,7.87-3,11.35-1.73,3.25-4.82,5.38-7.82,7.3-3.71,1.29-7.33,1.91-11.23,1.88-2.32.13-4.48-.02-7,.6ZM204.17,111.93c3.28-.12,6.23-.75,9.25-1.68,1.41-.44,2.42-1.29,3.56-2.29s2.69-1.91,3.58-3.41c2.18-3.65,3.25-8,3.62-12.35l.6-7.27.04-45.77-.33-6.32c-.24-4.49-.79-8.91-2.67-13.03l-1.05-2.28c-.85-1.25-2.1-2.24-3.2-3.24-3.63-3.3-8.2-4.34-13.09-4.52l-6.83-.26-9.04-.11-30.62-.1-48.74-.25-48.94-.22-22.6-.07-9.58.5c-5.37.28-8.01,1.78-11.79,5.17-1.14,1.02-1.97,2-2.61,3.45-1.93,4.37-2.7,9.01-3.02,13.81-.15,2.23-.34,4.23-.34,6.53l.04,45.53c0,2.53.36,4.8.59,7.26.41,4.38,1.41,8.72,3.57,12.45.85,1.47,2.25,2.35,3.42,3.35,1.3,1.11,2.45,2.18,4.1,2.65,3.43.99,6.72,1.56,10.31,1.58,2.23.01,4.37.07,6.56.54l16.43.1,48.73.25,48.95.23,43.34.07,7.77-.29Z"/>
  <path class="cls-10" d="M204.17,111.93l-7.77.29-43.34-.07-48.95-.23-48.73-.25-16.43-.1c-2.19-.47-4.33-.53-6.56-.54-3.59-.02-6.88-.6-10.31-1.58-1.65-.47-2.8-1.54-4.1-2.65-1.17-1-2.57-1.88-3.42-3.35-2.16-3.73-3.15-8.07-3.57-12.45-.23-2.46-.59-4.74-.59-7.26l-.04-45.53c0-2.3.19-4.3.34-6.53.32-4.8,1.09-9.44,3.02-13.81.64-1.44,1.47-2.42,2.61-3.45,3.77-3.39,6.42-4.89,11.79-5.17l9.58-.5,22.6.07,48.94.22,48.74.25,30.62.1,9.04.11,6.83.26c4.9.19,9.46,1.22,13.09,4.52,1.1,1,2.35,1.99,3.2,3.24l1.05,2.28c1.89,4.12,2.44,8.54,2.67,13.03l.33,6.32-.04,45.77-.6,7.27c-.36,4.36-1.44,8.7-3.62,12.35-.9,1.5-2.44,2.4-3.58,3.41s-2.15,1.85-3.56,2.29c-3.02.94-5.97,1.56-9.25,1.68ZM98.96,45.91c1.17-2.36,2.59-4.12,4.22-6.05l-17.82-10.53c-8.39-4.97-16.69-9.74-25.26-14.26-1.24-.65-2.62-.04-3.18.9-.61,1.03-.36,2.19.64,3.06,1.31,1.14,2.72,2.21,4.2,3.19l9.71,6.41,27.49,17.27ZM56.48,42.89c.25.55.75,1.09,1.23,1.32.33-2.73.9-5.01,1.98-7.48l-13.2-9.77-9.31-6.75-4.6-3.12c-1.74-1.18-3.88-2.04-5.38-.9-.88.67-1.05,1.89-.3,2.79,2.85,3.43,6.19,6.24,9.72,8.96l5.01,3.87c2.92.18,5.71.48,8.48,1.07,2.12.45,3.39,1.66,4.21,3.57.91,2.11,1.79,4.12,2.15,6.45ZM51.88,64.97c-1.68,1.24-3.28,2.4-4.46,4.04-1.03,1.44-2.09,2.75-3.83,3.38-2.28,1.32-4.76,1.69-7.43,1.12-3.17-2.18-5.1-6.44-3.53-10.21.93-2.23,3.46-3.93,5.71-4.49,2.58-.64,5.1-.05,7.5.7,2.14.66,4.25.52,6.43.02.75-1.8,1.3-3.48,1.4-5.4.19-3.66.09-7.38-.61-10.99-.38-1.95-1.11-3.78-1.78-5.61-.44-1.22-1.5-2.29-2.81-2.48l-9.58-1.43c-5.19-.77-10.75,4.83-14.49,8.55-2.58,2.56-4.94,5.12-6.37,8.52-1.77,4.19-2.98,8.56-2.62,13.16.17,2.12.95,4.14,1.41,6.18.76,3.41,2.38,6.22,4.75,8.71,2.79,2.93,3.72,4.19,8.09,5.59l6,1.92c5.61,1.79,14.35-.58,19.45-4l1.42-1.18,4.88-4.86c-.58-6.17-3.39-10-9.55-11.23ZM94.48,69.22c-.57-1.36-1.03-2.66-2.08-3.77-.96-1.02-3.68-1.67-4.66-.68l-4.54,4.57c-.84.85-2.67,1.46-3.82.76-1.33-.8-1.94-2.67-1.95-4.28-.03-5.43.92-10.68,1.49-16.12l.78-7.45c.22-2.12-.46-4.05-1.82-5.69-1.47-1.78-3.82-2.34-6.11-2.32l-2.19.02c-4.71.04-5.8,3.41-7.4,7.29-.94,2.27-1.25,4.26-1.27,6.7-.05,5.27.66,10.19,2.05,15.23.86,3.11,1.68,5.99,3.15,8.88l2.19,4.31c1.84,3.62,3.12,2.6,5.03,3.11,3.26.89,6.37,1.07,9.71.71l6.15-.66c1.48-.16,3.24-.3,4.41-1.37,2.12-1.95,2.13-6.27.88-9.24ZM211.22,82.15l3.55-.86c1.13-.28,2.36-1.01,3.32-1.69,1.15-.82,1.66-2.62,1.77-4.16l-.82-2.85c-.53-2.7-1.82-4.91-3.81-6.77l-1.85-1.73c-1.14-1.07-2.1-2.24-3.56-2.92-.18-.08-.66-.4-.57-.56l.43-.69c2.72-1.31,4.53-3.31,5.72-6.07,1.19-2.26,1.82-5.2,1.05-7.76-1.01-3.36-3.56-6-6.5-7.61l-3.62-1.98c-8.35-3.92-15.02-1.77-22.31,3.3l-1.59,1.99c-2.52,7.92-1.3,18.07-.09,26.42.52,3.61,1.12,7.15,2.52,10.39,1.27,2.93,4.14,4.41,7.13,4.16,1.77-.15,3.72.48,5.3-.23l2.47-1.13c1.25-2.02.35-4.46-1.04-6.29l-1.27-1.67c-.61-.8-1-2.02-.51-3.05,1.06-2.24,7.09.08,7.91,3.81.31,1.44.23,2.92.78,4.37.79,2.12,3.18,4.15,5.6,3.56ZM123.56,69.7c-1.8.57-3.38.82-5.14,1.03-2.24.28-4.39.69-6.4-.61-.85-.55-1.6-1.82-1.02-2.81.92-1.56,2.9-1.63,4.37-.75,2,1.19,4.21,1.67,6.56,1.07,2.9-.75,5.65-2.12,8.06-3.84,3.32-2.36,4.99-5.79,5.38-9.81.22-2.22.09-5.9-.68-7.24-1.84-3.22-4.45-5.78-7.75-7.64-5-2.82-11.15-2.78-16.48-.62-6.74,2.72-10.98,12.09-11.93,19.18-.28,2.09-.14,4.24-.01,6.32.17,2.61.86,5.05,2.45,7.17,5.15,6.88,10.86,9.95,19.5,10.22,3.88.12,7.6-.62,10.89-2.53,1.62-.94,2.56-2.33,3.22-4.04.79-2.05.11-4.12-1.14-5.94-.42-.62-1.08-1.15-1.93-.98-2.69.51-5.28.98-7.95,1.83ZM154.19,68.21c2.1-1.98,6.09-.8,7.01,1.24,1.12,2.48,1.29,5.1.79,7.83-.09.5.05,1.48.27,1.9,2.36,1.9,5.49,1.96,8.28,1.18,4.63-1.28,7.31-5.05,7.36-9.83.06-5.3-.44-10.43-2.83-15.24l-3.34-6.7c-1.36-2.73-3.5-4.78-5.9-6.57l-3.25-1.87c-5.34-3.07-10.46-.53-14.96,3.27-2.32,1.96-4.09,4.1-5.51,6.78s-2.52,5.51-2.92,8.59c-.28,2.13-.74,4.18-.83,6.32-.18,3.9-.22,7.69.05,11.63.13,1.83,2.52,3.33,4.2,3.53,1.21.14,2.38-.23,3.56-.3,2.93-.15,6.01-1.3,5.53-3.66-.42-2.06-.53-4.26.61-6.15.38-.63,1.29-1.4,1.89-1.96ZM91.48,60.17l-9.54-7.08c-.39,3.24-.79,5.83-1.4,8.88l2.78,2.19c2.15-2.92,4.43-4.51,8.16-3.99ZM175,82.84c-1.05.35-1.58.28-2.2.18-3.46.84-6.84.78-10.29.03-1.64-.36-2.56-1.11-3.02-2.82-.41-1.5-.61-2.92.52-4.43l-1.69-2.33c-.28-.39-1.5-.34-1.97-.14-.4.17-1.07.85-1.02,1.29l.4,3.21c.12,1.01.17,1.98.03,3.08l39.09,24.21c2.29,1.42,4.81,2.34,7.49,1.82,2.38-.47,3.71-3.43,2.48-5.53-.77-1.31-2.07-2.07-3.4-2.86l-26.4-15.71ZM147.67,102.15l-4.46-3.47-17.28-12.91c-4.79-.36-9.33-.93-13.95-2.1-1.83-.48-3.26-1.49-5.47-1.59l26.34,20.22,4.32,3.19c1.85,1.36,3.59,2.55,5.91,3.03,2.19.45,4.82-.11,5.91-2.29.01-1.13-.34-3.31-1.32-4.07Z"/>
  <path class="cls-2" d="M51.88,64.97c6.16,1.23,8.97,5.06,9.55,11.23l-4.88,4.86-1.42,1.18c-5.1,3.42-13.84,5.79-19.45,4l-6-1.92c-4.37-1.4-5.3-2.66-8.09-5.59-2.37-2.48-3.99-5.3-4.75-8.71-.46-2.05-1.24-4.06-1.41-6.18-.37-4.6.85-8.97,2.62-13.16,1.43-3.4,3.79-5.95,6.37-8.52,3.74-3.71,9.3-9.32,14.49-8.55l9.58,1.43c1.3.19,2.37,1.25,2.81,2.48.66,1.83,1.4,3.67,1.78,5.61.7,3.61.8,7.33.61,10.99-.1,1.91-.65,3.6-1.4,5.4-2.19.49-4.29.64-6.43-.02-2.4-.74-4.93-1.34-7.5-.7-2.26.56-4.78,2.26-5.71,4.49-1.57,3.77.36,8.03,3.53,10.21,2.67.56,5.15.2,7.43-1.12,1.74-.63,2.8-1.93,3.83-3.38,1.17-1.64,2.77-2.8,4.46-4.04Z"/>
  <path class="cls-2" d="M211.22,82.15c-2.42.59-4.81-1.45-5.6-3.56-.54-1.45-.46-2.94-.78-4.37-.81-3.72-6.85-6.05-7.91-3.81-.49,1.03-.1,2.25.51,3.05l1.27,1.67c1.39,1.83,2.29,4.27,1.04,6.29l-2.47,1.13c-1.58.72-3.54.09-5.3.23-3,.25-5.86-1.23-7.13-4.16-1.4-3.24-2-6.78-2.52-10.39-1.21-8.35-2.43-18.5.09-26.42l1.59-1.99c7.29-5.08,13.96-7.22,22.31-3.3l3.62,1.98c2.94,1.61,5.49,4.25,6.5,7.61.77,2.56.14,5.5-1.05,7.76-1.19,2.76-3,4.76-5.72,6.07l-.43.69c-.1.15.39.47.57.56,1.46.68,2.42,1.85,3.56,2.92l1.85,1.73c1.99,1.87,3.29,4.08,3.81,6.77l.82,2.85c-.11,1.54-.62,3.34-1.77,4.16-.95.68-2.18,1.42-3.32,1.69l-3.55.86ZM201.14,56.76c1.58-.98,2.5-2.61,1.56-4.39-1.84-1.52-2.84-1.74-5.32-1.38l-1.95,1.37-.23,2.63c-.05.53.93,1.27,1.34,1.67,1.34,1.28,2.95,1.12,4.59.1Z"/>
  <path class="cls-2" d="M123.56,69.7c2.67-.85,5.27-1.32,7.95-1.83.86-.16,1.51.37,1.93.98,1.25,1.82,1.93,3.89,1.14,5.94-.66,1.72-1.61,3.1-3.22,4.04-3.29,1.92-7.01,2.66-10.89,2.53-8.64-.28-14.35-3.34-19.5-10.22-1.59-2.12-2.28-4.56-2.45-7.17-.13-2.08-.27-4.23.01-6.32.95-7.09,5.19-16.46,11.93-19.18,5.33-2.15,11.48-2.19,16.48.62,3.3,1.86,5.9,4.42,7.75,7.64.77,1.34.89,5.02.68,7.24-.39,4.02-2.06,7.44-5.38,9.81-2.41,1.72-5.16,3.09-8.06,3.84-2.35.61-4.55.12-6.56-1.07-1.47-.87-3.46-.81-4.37.75-.58.99.17,2.26,1.02,2.81,2.01,1.3,4.16.89,6.4.61,1.75-.22,3.34-.46,5.14-1.03ZM122.04,58.84c.28-1.44-.39-3.14-1.53-3.89s-2.88-1.24-4.26-1.06c-2.51.33-3.75,2.87-3.22,5.1.35,1.45,1.03,2.68,2.11,3.18,2.99,1.38,6.4-.72,6.9-3.33Z"/>
  <path class="cls-2" d="M154.19,68.21c-.59.56-1.51,1.33-1.89,1.96-1.14,1.89-1.03,4.09-.61,6.15.48,2.36-2.6,3.51-5.53,3.66-1.18.06-2.36.44-3.56.3-1.68-.2-4.08-1.7-4.2-3.53-.27-3.94-.22-7.73-.05-11.63.1-2.14.55-4.2.83-6.32.4-3.08,1.49-5.88,2.92-8.59s3.2-4.81,5.51-6.78c4.49-3.8,9.62-6.35,14.96-3.27l3.25,1.87c2.41,1.8,4.54,3.84,5.9,6.57l3.34,6.7c2.39,4.81,2.89,9.94,2.83,15.24-.05,4.78-2.73,8.54-7.36,9.83-2.79.77-5.92.72-8.28-1.18-.23-.41-.37-1.4-.27-1.9.51-2.73.34-5.35-.79-7.83-.92-2.04-4.91-3.22-7.01-1.24ZM159.03,60.68c.73-.26,1.21-.75,1.47-1.42.56-1.45.15-2.24-.66-3.33-.86-1.16-1.75-1.76-3.24-1.34-1.37.38-1.86,1.31-2.24,2.58s-.21,1.93.8,2.75c1.15.93,2.12,1.38,3.87.76Z"/>
  <path class="cls-2" d="M94.48,69.22c1.25,2.97,1.23,7.29-.88,9.24-1.16,1.07-2.92,1.21-4.41,1.37l-6.15.66c-3.33.36-6.45.18-9.71-.71-1.91-.52-3.19.51-5.03-3.11l-2.19-4.31c-1.47-2.89-2.29-5.77-3.15-8.88-1.39-5.04-2.1-9.96-2.05-15.23.02-2.44.33-4.43,1.27-6.7,1.61-3.87,2.69-7.25,7.4-7.29l2.19-.02c2.29-.02,4.63.54,6.11,2.32,1.35,1.64,2.04,3.56,1.82,5.69l-.78,7.45c-.57,5.44-1.52,10.69-1.49,16.12,0,1.61.63,3.48,1.95,4.28,1.15.69,2.98.08,3.82-.76l4.54-4.57c.98-.98,3.69-.33,4.66.68,1.05,1.11,1.51,2.41,2.08,3.77Z"/>
  <path class="cls-6" d="M175,82.84l26.4,15.71c1.33.79,2.63,1.55,3.4,2.86,1.23,2.1-.1,5.06-2.48,5.53-2.67.52-5.2-.4-7.49-1.82l-39.09-24.21c.14-1.1.09-2.08-.03-3.08l-.4-3.21c-.05-.44.62-1.12,1.02-1.29.47-.2,1.69-.26,1.97.14l1.69,2.33c-1.13,1.51-.92,2.93-.52,4.43.46,1.71,1.38,2.47,3.02,2.82,3.45.75,6.83.81,10.29-.03.63.1,1.15.17,2.2-.18Z"/>
  <path class="cls-6" d="M147.67,102.15c.97.76,1.33,2.93,1.32,4.07-1.09,2.19-3.73,2.75-5.91,2.29-2.32-.48-4.06-1.67-5.91-3.03l-4.32-3.19-26.34-20.22c2.22.1,3.64,1.11,5.47,1.59,4.62,1.18,9.16,1.74,13.95,2.1l17.28,12.91,4.46,3.47Z"/>
  <path class="cls-6" d="M98.96,45.91l-27.49-17.27-9.71-6.41c-1.49-.98-2.89-2.05-4.2-3.19-1-.87-1.25-2.03-.64-3.06.56-.93,1.94-1.55,3.18-.9,8.58,4.52,16.88,9.28,25.26,14.26l17.82,10.53c-1.64,1.92-3.06,3.69-4.22,6.05Z"/>
  <path class="cls-4" d="M56.48,42.89c-.36-2.34-1.24-4.34-2.15-6.45-.82-1.91-2.1-3.12-4.21-3.57-2.77-.59-5.56-.89-8.48-1.07l-5.01-3.87c-3.53-2.72-6.87-5.53-9.72-8.96-.74-.89-.58-2.11.3-2.79,1.5-1.14,3.64-.28,5.38.9l4.6,3.12,9.31,6.75,13.2,9.77c-1.08,2.47-1.65,4.75-1.98,7.48-.48-.22-.98-.77-1.23-1.32Z"/>
  <path class="cls-7" d="M91.48,60.17c-3.73-.53-6.01,1.06-8.16,3.99l-2.78-2.19c.61-3.05,1.01-5.64,1.4-8.88l9.54,7.08Z"/>
  <path class="cls-8" d="M201.14,56.76c-1.64,1.02-3.26,1.17-4.59-.1-.42-.4-1.39-1.13-1.34-1.67l.23-2.63,1.95-1.37c2.48-.36,3.48-.14,5.32,1.38.94,1.78.02,3.41-1.56,4.39Z"/>
  <path class="cls-5" d="M122.04,58.84c-.5,2.61-3.91,4.7-6.9,3.33-1.08-.5-1.77-1.73-2.11-3.18-.53-2.23.71-4.77,3.22-5.1,1.37-.18,3.09.3,4.26,1.06s1.81,2.45,1.53,3.89Z"/>
  <path class="cls-3" d="M159.03,60.68c-1.75.63-2.72.18-3.87-.76-1.02-.83-1.19-1.48-.8-2.75s.87-2.2,2.24-2.58c1.48-.42,2.37.18,3.24,1.34.81,1.09,1.23,1.88.66,3.33-.26.67-.74,1.16-1.47,1.42Z"/>
</svg>