<?xml version="1.0" encoding="UTF-8"?>
<svg id="Layer_1" data-name="Layer 1" xmlns="http://www.w3.org/2000/svg" viewBox="0 0 487.28 584.91">
  <defs>
    <style>
      .cls-1 {
        fill: #53e688;
      }

      .cls-2 {
        fill: #49ea55;
      }

      .cls-3 {
        fill: #f9265f;
      }

      .cls-4 {
        fill: #fc2709;
      }

      .cls-5 {
        fill: #fb320d;
      }

      .cls-6 {
        fill: #a1fcfc;
      }

      .cls-7 {
        fill: #44ee1b;
      }

      .cls-8 {
        fill: #ee35e8;
      }

      .cls-9 {
        fill: #2c48f9;
      }

      .cls-10 {
        fill: #2002fd;
      }

      .cls-11 {
        fill: #be27e7;
      }

      .cls-12 {
        fill: #53b5f7;
      }

      .cls-13 {
        fill: #43f619;
      }

      .cls-14 {
        fill: #c7f632;
      }

      .cls-15 {
        fill: #f9f9f9;
      }

      .cls-16 {
        fill: #95f828;
      }

      .cls-17 {
        fill: #76f820;
      }

      .cls-18 {
        fill: #9015ec;
      }

      .cls-19 {
        fill: #5404fb;
      }

      .cls-20 {
        fill: #4158c9;
      }

      .cls-21 {
        fill: #f535ef;
      }

      .cls-22 {
        fill: #5de6b7;
      }

      .cls-23 {
        fill: #040304;
      }

      .cls-24 {
        fill: #fcfcfc;
      }

      .cls-25 {
        fill: #e3d335;
      }

      .cls-26 {
        fill: #ecf43a;
      }

      .cls-27 {
        fill: #fc378c;
      }

      .cls-28 {
        fill: #67ecf4;
      }

      .cls-29 {
        fill: #fdfdfd;
      }
    </style>
  </defs>
  <path class="cls-15" d="M290.98,111.31c-.81,1.45-.93,4.81-1.93,6.39-31.19-6.29-61.82-6.03-92.73-.79-8.59,1.46-16.36,3.58-24.67,5.74-20.08,5.22-30.75,11.88-47.78,21.1-5.19,2.81-9.77,5.49-14.79,8.93-23.38,15.99-43.59,34.95-60.44,57.82l-5.01,7.29-9.93,16.12c-4.69,7.61-7.81,15.35-11.3,23.55-24.56,57.72-24.38,121.77.39,179.31,2.69,6.24,4.67,12.14,8.22,17.96,9.17,15.05,18.14,29.8,29.9,43.11l6.18,6.99c4.99,5.65,10.49,10.95,16.27,15.79l6.23,5.21c6.48,5.43,12.94,10.98,20.38,15.28l22.59,13.04c7.91,4.57,16.17,7.86,24.88,10.92,23.66,8.31,47.08,13.92,72.27,15.05,33.14,1.49,64.97-3.27,95.9-14.98l7.35-2.19,20.52-10.02,15.54-8.82,8.6-5.32,22.37-17.67c6.84-5.4,12.75-11.56,18.47-18.1l4.49-5.13,15.81-19.89,4.01-6.43,9.97-16.99c4.65-7.93,7.81-15.95,11.16-24.6,20.63-53.33,21.29-111.6.43-164.98l-3.52-10.39c-5.09-11.04-10.48-21.36-17.21-31.49l-8.73-13.14c-11.21-14.43-22.98-27.7-37-39.74-2.04-2.49,2.26-5.07,3.59-6.62l14.39,14.94,7.26,6.7c9.23,8.52,17.14,18.64,23.28,29.66l5.6,10.06,4.69,7.54,4.62,7.58c3.46,5.68,6.13,12.3,8.23,18.5l5.6,16.47,4.87,17.89c2.8,10.3,4.75,20.49,5.19,31.23l.71,17.64v8.31s-.68,16.13-.68,16.13c-2,22.89-7.07,44.8-15.49,66.07l-6.72,16.96-3.86,5.58-12.82,21.52-7.18,10.83-9.6,12.06-6.29,6.92-8.88,8.43c-10.73,10.18-20.83,20.64-33.62,28.3l-7.06,4.22-27.75,15.66-10.92,4.86-5.25,1.68c-23.06,8.41-46.5,13.53-70.47,15.57h-33.07l-4.4-.8c-23.14-1.67-45.06-7.34-66.79-14.94-5.21-1.82-10.36-3.46-14.87-6.03l-32.21-18.34c-9.49-5.41-17.93-11.82-25.76-19.42l-17.76-17.23-8.46-8.85c-4.23-4.43-8.18-9.44-11.35-14.59l-15.32-24.85-4.77-7.4c-3.69-5.72-5.18-12.2-7.76-18.5-8.21-19.97-13.51-40.64-15.94-62.23l-.85-4.41.09-44.3c2.65-15.83,4.84-31.76,10.15-47.28,4.17-12.18,8.09-23.74,13.55-35.33.92-1.95,3.23-4.78,4.42-6.74l13.15-21.82c4.59-7.62,10.32-14.3,16.03-21.24,3.97-4.83,10.63-10.61,15.73-15.64l9.15-9c5.57-5.47,11.49-10.16,18.04-14.31l6.33-4.01c5.18-3.28,9.57-5.9,14.89-8.88l7.14-4,9.84-5.92c5.81-3.49,19.26-9.14,26.1-10.92l16.57-4.33c25.72-6.72,55.74-7.58,82.2-6.15,9.49.51,18.56,2.36,27.6,3.85Z"/>
  <path class="cls-23" d="M401.44,163.61c-1.32,1.55-5.62,4.13-3.59,6.62,14.02,12.04,25.79,25.31,37,39.74l8.73,13.14c6.74,10.13,12.12,20.45,17.21,31.49l3.52,10.39c20.85,53.38,20.2,111.65-.43,164.98-3.35,8.66-6.51,16.67-11.16,24.6l-9.97,16.99-4.01,6.43-15.81,19.89-4.49,5.13c-5.72,6.54-11.63,12.7-18.47,18.1l-22.37,17.67-8.6,5.32-15.54,8.82-20.52,10.02-7.35,2.19c-30.93,11.71-62.76,16.47-95.9,14.98-25.19-1.13-48.61-6.74-72.27-15.05-8.71-3.06-16.97-6.35-24.88-10.92l-22.59-13.04c-7.45-4.3-13.9-9.85-20.38-15.28l-6.23-5.21c-5.78-4.84-11.28-10.14-16.27-15.79l-6.18-6.99c-11.76-13.31-20.72-28.06-29.9-43.11-3.55-5.82-5.53-11.72-8.22-17.96-24.78-57.54-24.96-121.59-.39-179.31,3.49-8.2,6.62-15.94,11.3-23.55l9.93-16.12,5.01-7.29c16.85-22.87,37.05-41.83,60.44-57.82,5.03-3.44,9.6-6.12,14.79-8.93,17.03-9.22,27.7-15.88,47.78-21.1,8.31-2.16,16.08-4.29,24.67-5.74,30.91-5.24,61.54-5.5,92.73.79,1-1.58,1.12-4.94,1.93-6.39l12.35-22.12,12.09-18.27,4.97-7.22c3.1-4.5,6.21-8.55,10.48-12.09l3.59-4.19c4.76-5.55,18.24-14.13,24.21-16.01,8.39-2.65,16.95-4.97,25.65-4.22l6.06,2.24,6.86,3.42c2.05,1.02,4.46,1.5,6.76,1.85l5.57,4.7,6.45,5.5,3.38,6.29,2.74,6.44,4.49,13.55,1.27,4.33.61,4.54c1.71,12.72-3.22,31.51-7.78,44.71l-2.22,6.44-2.45,8.05c-2.39,7.84-9,17.78-14.6,24.35ZM373.97,259.73l8.41,2.95,8.9,3.16c1.6.57,4.37,2.26,5.36.95l9.25-12.21c-7.08-10-15.61-17.39-26.02-22.77l-12.12-8.41-7.05-3.55c-1.44-.72-3.12-1.28-3.69-2.18-.47-.75-.35-3.4.07-4.2l6.82-13.23,6.79-11.27,10.56-19.13,3.91-6.55,8.8-14.61,9.57-16.83,3.39-7.84,2.93-6.67,2.66-6.97,2.9-10.14,1.96-7.78c1.1-4.38,2.21-8.58,2.07-13.3l-.17-5.92c-.05-1.72-.51-3.25-1.29-4.81-6.54-13.16-6.75-20.37-23.26-26.93l-7.64-3.04c-3.51-1.39-8.69-1.51-11.52-.25l-12.57,5.61-11.81,7.2-7.75,5.84-6.15,7.33c-4.42,5.27-7.38,11.6-11.17,17.54l-17.62,27.6-21.17,38.89c-3.56,6.54-8.22,12.24-11.48,18.71l-3.79,7.5c-2.16.68-5.74-1.06-8.33-1.91l-7.09-2.33-11.96-3.31-11.88-5.24-5.51-2.36-3.19,6.56-1.72,3.53c-.39.81,1.22,2.45,1.91,3.14l5.64,5.74c16.4,14.45,33.78,26.73,52.76,37.63l27.16,15.61,13.52,7.22,6.7,2.85,5.22,2.5,8.7,3.64,14.75,6.32,8.93,3.4,6.33,2.32ZM377.04,204.74l-6.59,9.48c-.3.43-.5,2.23-.06,2.4l2.1.83,8.83,3.49,5.62,2.91,4.82,3.21,5.67,3.77,4.52,2.24c.89,1.22,3.05,2.81,4.09,3.88l9.98,10.33c2.5,2.59,3.03,7.64.57,10.27-1.67,1.78-3.02,3.78-4.13,6.36l-3.4,7.9c-.6,1.4-2.68,4.47-3.89,5.49-2.51,2.1-8.69,2.64-11.45,1.64-3.44-1.24-5.51-1.27-9.27-2.26l-8.14-2.14-9.07-3.1-22.46-10.19-3.89,6.71-6.52,13.39-7.78,16.67-5.82,12.59-3.4,7.91-2.7,6-2.73,5.85-13.98,26.85-5.44,9.38-31.96,53.17-10.78,17.21-7.82,13.11-11.33,15.47-4.19,4.66c-7.8,8.68-18.07,4.14-33.14,11.38l-4.63,3.24c-6.47,4.54-11.02,12.76-15.28,20.21l-3.02,4.14c-1.99,1.61-7.63,2.61-9.94,1.43l-5.24-2.67-8.73-5.4-15.99-7.89-3.01-6.49c-.18-1.67.19-5.68.89-7.28l3.23-7.45,3.16-7.26c2.37-5.44,1.85-12.52-.5-17.27l-1.58-3.41-2.61-5.5c-2.14-4.52-3.28-10.85-3.55-15.72l2.67-6.19,2.66-7.02,5.53-11.83,3.4-8.05,5.1-10.45,10.71-19.55,3.31-6.49,5.91-11.3,4.79-9.24,12.32-22.46,12.84-21.14,6.51-10.13c7.14-11.12,14.15-21.9,19.86-33.82l3.44-7.18,14.25-29.21,1.66-2.71c.48-.78-1.13-2.53-1.92-3.14l-3.46-2.67-8.18-6.9-4.79-4.43-11.06-10.05c-1.37-1.24-3.35-4.9-5.16-5.49l-1.02-5.14c.38-.05,1.45.24,1.54-.07l.7-2.47,4.15-8.03c1.46-2.83,4.37-5.25,6.2-7.54l3.83-4.79c2.95-3.68,6.4-1.59,9.48-.08l7.54,3.7,14.7,8.1,6.53,3.13,4.14,1.99,3.83-6.41,2.92-4.89,4.45-7.83,6.64-12.65-19-1.87c-13.8-1.36-27.73-1.52-41.61-.19l-21.62,2.08c-12.9,1.24-29.15,7.49-41.83,12.84-4.54,1.91-9.16,5.54-13.98,6.45-5.06.95-8,3.03-11.99,5.69-7.46,4.97-15.12,9.45-21.69,15.92-7.45,2.58-13.56,7.3-18.29,13.79-6.76,9.28-17.03,12.74-20.46,20.05-2.37,5.05-5.24,7.87-8.49,11.93l-6.56,8.18c-8.53,10.65-9.58,17.83-12.43,23.19l-5.51,10.38c-4.24,7.99-8.34,16.8-10.34,25.79l-3.94,17.7c-4.62,20.77-4.18,67.59.57,88.68l3.23,14.34c1.71,7.57,4.92,15.01,8.42,21.9l7.06,13.89,3.25,7.19c9.82,21.73,19.19,25.11,23.96,35.97,3,6.83,12.87,10.1,22.86,23.22,3.24,4.26,7.14,6.84,11.94,9,6.49,2.93,12.96,12.68,36.66,22.99l15.39,6.69,16.19,6.57c5.28,2.14,10.44,3.15,16.04,4.23,11.04,2.13,21.78,5.09,33.25,5.09h36.56c11.46,0,22.2-2.96,33.24-5.11,5.36-1.04,10.33-1.96,15.4-4.01l16.82-6.8,15.37-6.69c23.71-10.33,30.4-20.21,36.67-22.99,4.81-2.13,8.71-4.72,11.95-9,9.87-13.04,19.72-16.27,22.87-23.22.99-2.18,2.54-5.62,3.99-7.11,8.92-9.15,15.85-18.54,20.73-30.4,5.63-13.7,13.89-26.09,17.55-40.92l3.67-14.87c4.92-29.43,5.06-58.89.49-88.6l-5.01-20.89c-1.94-8.11-5.77-16.02-9.52-23.14l-5.2-9.88-3.02-7.59c-2.15-5.4-5.71-10.91-9.41-15.55l-7.34-9.21c-1.77-2.22-4.25-3.96-5.47-6.72-2.11-4.79-4.83-8.71-9.03-11.87l-6-4.52c-3.94-2.97-6.57-6.8-10.42-11.09-1.35,1.04-2.72,3.25-3.58,4.97l-1.99,3.96-3.29,7.14-2.6,5.3ZM161.97,380.68c-1.51.3-2.82,3.28-3.64,4.72l-7.89,13.9-7.81,17.5c-1.09,2.45-1.6,7.31-1.84,10.08l5.12,10.29c3.08,6.17,5.77,11.29,4.28,18.03.67,4.16-.02,11.88-1.96,15.68l-3.05,6c-3.03,5.95-11.1,7.61-4.36,9.8l8.1,2.63c3.2,1.04,6.93,2.82,9.97,4.39l3.42,1.77c.91.47,2.34-2.02,2.92-2.87l7.62-11.36c4.7-7,11.27-10.93,18.81-13.63l19.02-6.81c9.4-3.37,15.2-7.8,20.64-16.49l6.87-10.99,24.1-36.85,6.12-10.26,3.41-6.32,18.09-35.1,4.18-8.76,8.32-17.11,5.62-10.85,6.21-12.09,5.88-11.44,6.26-12.15,8.93-16.12-10.68-3.94-36.62-18.35c-7.66-3.84-14.67-8.27-22.08-12.59l-6.11-3.56-8.48-5.19-15.86,28.24-18.94,31.37-4.03,7.94-13.72,24.88-3.17,8.25-20.92,42.53-6.68,11.95-3.44,6.55-2.61,6.35Z"/>
  <path class="cls-24" d="M271.43,152.35c-10.66-1.02-21.4-1.73-32.12-1.92l-7.54-3.7c-3.07-1.51-6.52-3.6-9.48.08l-3.83,4.79-7.76,1.15-8.07,1.93c-8.48,2.02-17.56,3.07-25.86,6.4-6.15,2.47-12.36,4.36-18.1,7.14l-10.67,5.17-6.45,3.75-8.6,5.14-4.9,3.27-10.08,7.37-7.58,6.31c-6.96,5.79-13.27,12.09-19.12,19.03l-5.27,6.25-4.09,5.19-5.58,7.69-5.74,9.15c-2,3.19-3.57,6.17-5.05,9.12l-3.44,6.88-4.1,8.78-4.38,11.39c-3.65,9.51-5.23,19.62-7.57,29.89-3.79,16.69-3.95,34.18-2.27,50.99l1.26,12.65,1.75,5.94,3.64,16.55,3.14,9.86,4.75,12.09,3.19,7.7,3.68,7.07,3.88,7.22,4.7,7.5,4.3,6.18,6.2,8.65,8,9.38,6.25,6.98c.88.98,2.26,2.02,3.11,2.63l5.73,5.64,10.37,8.79,8.13,5.85,8.9,5.98,8.71,5.26,5.29,2.54,5.27,3.1,14.93,6.26,7.32,2.91,22.86,6.16c25.15,5.37,51.2,5.12,76.53,1.48l8.93-2.25,20.39-5.21,5.73-2.6,16.43-6.66,10.19-5.26,9.09-5.75,7.06-4.2,6.08-4.53,12.59-9.99,4.88-4.66,8.77-8.63,11.59-13.64,6.65-9.12c1.98-2.71,4.35-4.91,4.05-8.03,1.64-.88,3.04-2.59,4.13-4.67l7.49-14.33,4.66-10.56,3.62-9.96,2.99-8.2,3.6-17.59.58-3.57,1.71-8.84c3.02-15.59,2.71-32.59-.06-48.25l-1.74-9.82-.81-2.81-.11-.98-.46-4.13-.41-2.57-1.88-5.31s.37-.91.31-1.09l-3.96-12.06-4.04-11.2-3.28-6.79-3.87-7.12c2.46-2.63,1.93-7.68-.57-10.27l-9.98-10.33c-1.03-1.07-3.2-2.66-4.09-3.88l-5.38-7.37-7.54-8.95-8.12-8.42-3.88-3.59,2.6-5.3,3.29-7.14,1.99-3.96c.86-1.72,2.24-3.93,3.58-4.97,3.85,4.3,6.47,8.12,10.42,11.09l6,4.52c4.2,3.16,6.91,7.09,9.03,11.87,1.22,2.76,3.7,4.5,5.47,6.72l7.34,9.21c3.7,4.64,7.26,10.14,9.41,15.55l3.02,7.59,5.2,9.88c3.75,7.12,7.58,15.03,9.52,23.14l5.01,20.89c4.57,29.71,4.44,59.17-.49,88.6l-3.67,14.87c-3.66,14.83-11.91,27.22-17.55,40.92-4.88,11.86-11.81,21.25-20.73,30.4-1.45,1.49-3,4.93-3.99,7.11-3.15,6.95-13,10.17-22.87,23.22-3.24,4.28-7.14,6.87-11.95,9-6.27,2.78-12.96,12.66-36.67,22.99l-15.37,6.69-16.82,6.8c-5.06,2.05-10.04,2.96-15.4,4.01-11.03,2.14-21.78,5.1-33.24,5.1h-36.56c-11.47,0-22.21-2.95-33.25-5.09-5.6-1.08-10.76-2.09-16.04-4.23l-16.19-6.57-15.39-6.69c-23.7-10.31-30.17-20.06-36.66-22.99-4.8-2.16-8.7-4.74-11.94-9-9.99-13.13-19.86-16.4-22.86-23.22-4.77-10.86-14.14-14.24-23.96-35.97l-3.25-7.19-7.06-13.89c-3.5-6.88-6.71-14.32-8.42-21.9l-3.23-14.34c-4.75-21.09-5.19-67.9-.57-88.68l3.94-17.7c2-8.99,6.1-17.81,10.34-25.79l5.51-10.38c2.84-5.36,3.9-12.54,12.43-23.19l6.56-8.18c3.25-4.05,6.12-6.88,8.49-11.93,3.43-7.3,13.7-10.77,20.46-20.05,4.73-6.49,10.83-11.21,18.29-13.79,6.57-6.48,14.23-10.95,21.69-15.92,3.99-2.66,6.93-4.74,11.99-5.69s9.44-4.54,13.98-6.45c12.67-5.34,28.93-11.6,41.83-12.84l21.62-2.08c13.88-1.33,27.81-1.17,41.61.19l19,1.87-6.64,12.65-4.45,7.83Z"/>
  <path class="cls-27" d="M373.97,259.73l-6.33-2.32-8.93-3.4-14.75-6.32-8.7-3.64-5.22-2.5-6.7-2.85-13.52-7.22-27.16-15.61c-18.97-10.9-36.36-23.18-52.76-37.63l-5.64-5.74c-.68-.69-2.3-2.33-1.91-3.14l1.72-3.53,3.19-6.56,5.51,2.36,11.88,5.24,11.96,3.31,7.09,2.33c2.59.85,6.17,2.58,8.33,1.91l3.79-7.5c3.27-6.47,7.92-12.17,11.48-18.71l21.17-38.89,17.62-27.6c3.79-5.94,6.75-12.27,11.17-17.54l6.15-7.33,7.75-5.84,11.81-7.2,12.57-5.61c2.83-1.26,8.01-1.15,11.52.25l7.64,3.04c16.51,6.56,16.72,13.77,23.26,26.93.78,1.56,1.24,3.1,1.29,4.81l.17,5.92c.14,4.72-.97,8.91-2.07,13.3l-1.96,7.78-2.9,10.14-2.66,6.97-2.93,6.67-3.39,7.84-9.57,16.83-8.8,14.61-3.91,6.55-10.56,19.13-6.79,11.27-6.82,13.23c-.41.8-.54,3.45-.07,4.2.56.91,2.25,1.46,3.69,2.18l7.05,3.55,12.12,8.41c10.41,5.38,18.94,12.77,26.02,22.77l-9.25,12.21c-.99,1.31-3.76-.38-5.36-.95l-8.9-3.16-8.41-2.95Z"/>
  <path class="cls-29" d="M367.23,271.44l3.11,5.8,5.54,10.99,6.75,17.6,2.37,9.95c4.77,20.04,5.21,40.15.97,59.99l-.74,3.46-2.61,10.61-3.27,8.81-2.98,8.2-5.73,10.91-2.78,4.94-2.32,3.79-6.03,8.12-4.57,5.73-10.85,11.77-10.21,8.9-5.39,4.29-7.64,5.27-5.5,3.19-8.56,4.79-13.2,5.47-13.34,4.38-15.09,3.83-10.19.66c-13.49.87-32.33,1.04-44.29-2.07l-18.07-4.71-3.92-1.25,4.63-3.24c15.07-7.24,25.34-2.7,33.14-11.38l4.19-4.66,11.33-15.47,7.82-13.11,10.78-17.21,31.96-53.17,5.44-9.38,13.98-26.85,2.73-5.85,2.7-6,3.4-7.91,5.82-12.59,7.78-16.67,6.52-13.39,3.89-6.71,22.46,10.19Z"/>
  <path class="cls-29" d="M236.07,201.7l3.46,2.67c.79.61,2.4,2.36,1.92,3.14l-1.66,2.71-14.25,29.21-3.44,7.18c-5.71,11.92-12.72,22.7-19.86,33.82l-6.51,10.13-12.84,21.14-12.32,22.46-4.79,9.24-5.91,11.3-3.31,6.49-10.71,19.55-5.1,10.45-3.4,8.05-5.53,11.83-2.66,7.02-2.67,6.19c.27,4.87,1.41,11.2,3.55,15.72l2.61,5.5c-.61.14-2.63-.84-3.17-1.52l-7.19-9.11-5.57-7.62-3.67-5.87-6.7-12.65-3.24-7.49-2.43-6.54-2.87-9.23-2.72-13.03-1.97-13.81c-2.21-15.49.47-30.71,4.23-46.19l3.62-12.17,5.22-13.18,3.68-7.49,8.36-13.39c1.23-1.97,3.48-4.57,3.89-6.56l4.75-4.87,3.82-4.71,13.11-12.33,7.59-6.19,9.73-6.73,8.82-5.09,11.61-5.84,6.83-2.51,6.58-2.41,11.58-3.1,5.8-1.03,5.4-1.63,18.34-1.52Z"/>
  <path class="cls-6" d="M289.91,344.79l-6.75-3.25c-2.34-1.17-7.65-.13-10.89-.68-22.49-3.81-23.72,2.36-34.32,15.52-7.79,9.68-11.6,17.44-4.38,27.51-2.1,4.74-5.94,8.37-10.41,12.49l-9.09-1.37c-1.65-.25-4.89-2.21-6.38-3.08l-8.13-4.77-7.34-3.05-8.74-2.39-8.89-1.97c-3.36-.74-9.26.24-12.64.91l2.61-6.35,3.44-6.55,6.68-11.95,20.92-42.53,3.17-8.25,13.72-24.88,4.03-7.94,18.94-31.37,15.86-28.24,8.48,5.19,6.11,3.56c7.41,4.32,14.42,8.75,22.08,12.59l36.62,18.35,10.68,3.94-8.93,16.12-6.26,12.15-5.88,11.44-6.21,12.09-5.62,10.85-8.32,17.11-4.18,8.76ZM276.74,320.44l1.75-8.17c.44-2.07-1.54-4.08-3.06-5.5-1.05-.98-2.42-4.2-3.61-4.93l-5.2-3.19c-6.15,4.58-12.76,3.74-12.73,13.91,0,3.75-.37,8.49,3.34,10.66,7.27,4.24,11.03,5.22,19.52-2.77Z"/>
  <path class="cls-20" d="M289.91,344.79l-18.09,35.1-3.41,6.32-6.12,10.26-24.1,36.85-6.87,10.99c-5.43,8.69-11.24,13.12-20.64,16.49l-19.02,6.81c-7.55,2.7-14.12,6.63-18.81,13.63l-7.62,11.36c-.57.86-2.01,3.34-2.92,2.87l-3.42-1.77c-3.04-1.57-6.77-3.35-9.97-4.39l-8.1-2.63c-6.74-2.19,1.33-3.86,4.36-9.8l3.05-6c1.94-3.81,2.63-11.52,1.96-15.68,1.49-6.74-1.21-11.85-4.28-18.03l-5.12-10.29c.24-2.77.74-7.63,1.84-10.08l7.81-17.5,7.89-13.9c.82-1.44,2.13-4.42,3.64-4.72,3.39-.68,9.29-1.66,12.64-.91l8.89,1.97,8.74,2.39,7.34,3.05,8.13,4.77c1.48.87,4.73,2.83,6.38,3.08l9.09,1.37c4.47-4.12,8.31-7.75,10.41-12.49-7.22-10.07-3.42-17.83,4.38-27.51,10.6-13.17,11.83-19.33,34.32-15.52,3.24.55,8.55-.49,10.89.68l6.75,3.25Z"/>
  <path class="cls-26" d="M202.62,154.67c0,5.18.36,10.99,3.26,15.02l1.02,5.14c-.4,2.69-.13,5.26.5,8.33l1.92,9.4,3.02,12.29-5.8,1.03-11.58,3.1-6.58,2.41-6.83,2.51-11.61,5.84-8.82,5.09c-.42-4.1-4.61-6.51-6.42-9.44l-6.36-10.3-9.73-14.69-5.67-8.13,8.6-5.14,6.45-3.75,10.67-5.17c5.74-2.78,11.95-4.67,18.1-7.14,8.31-3.33,17.38-4.37,25.86-6.4Z"/>
  <path class="cls-28" d="M132.65,445.51l1.58,3.41c-.22,1.17-1.06,2.67-2.03,3.64l-22.96,22.98-6.02,5.46c-.61.55-1.54,2.09-1.57,2.99-.85-.62-2.23-1.65-3.11-2.63l-6.25-6.98-8-9.38-6.2-8.65-4.3-6.18-4.7-7.5-3.88-7.22-3.68-7.07-3.19-7.7,10.14-3.97,34.63-15.45,3.24,7.49,6.7,12.65,3.67,5.87,5.57,7.62,7.19,9.11c.54.68,2.56,1.66,3.17,1.52Z"/>
  <path class="cls-5" d="M431.74,294.72l-7.53,2.74c-5.81,2.04-6.28-.49-14.55-.17-2.92.11-7.89-2.71-10.71-1.76l-7.77,2.64c-3.93,1.34-7.4,3.89-8.56,7.67l-6.75-17.6-5.54-10.99-3.11-5.8,9.07,3.1,8.14,2.14c3.76.99,5.83,1.02,9.27,2.26,2.76,1,8.94.46,11.45-1.64,1.22-1.02,3.29-4.08,3.89-5.49l3.4-7.9c1.11-2.59,2.46-4.58,4.13-6.36l3.87,7.12,3.28,6.79,4.04,11.2,3.96,12.06Z"/>
  <path class="cls-12" d="M146.46,502.56c1.76,7.37-4.99,8.47-2.98,12.94l-8.71-5.26-8.9-5.98-8.13-5.85-10.37-8.79-5.73-5.64c.03-.89.96-2.44,1.57-2.99l6.02-5.46,22.96-22.98c.97-.97,1.81-2.47,2.03-3.64,2.36,4.75,2.87,11.82.5,17.27l-3.16,7.26-3.23,7.45c-.69,1.6-1.07,5.61-.89,7.28l3.01,6.49,15.99,7.89Z"/>
  <path class="cls-9" d="M192.6,486.1l-2.82,5.92-3.13,9.08-3.55,9.78c-1.5,7.02-3.76,13.3-6.81,19.43l-7.32-2.91-14.93-6.26-5.27-3.1-5.29-2.54c-2.01-4.48,4.74-5.57,2.98-12.94l8.73,5.4,5.24,2.67c2.31,1.18,7.95.18,9.94-1.43l3.02-4.14c4.26-7.46,8.81-15.67,15.28-20.21l3.92,1.25Z"/>
  <path class="cls-25" d="M236.07,201.7l-18.34,1.52-5.4,1.63-3.02-12.29-1.92-9.4c-.63-3.07-.9-5.64-.5-8.33,1.81.58,3.79,4.25,5.16,5.49l11.06,10.05,4.79,4.43,8.18,6.9Z"/>
  <path class="cls-5" d="M401.96,233.07l-4.52-2.24-5.67-3.77-4.82-3.21-5.62-2.91-8.83-3.49-2.1-.83c-.44-.17-.24-1.98.06-2.4l6.59-9.48,3.88,3.59,8.12,8.42,7.54,8.95,5.38,7.37Z"/>
  <path class="cls-25" d="M271.43,152.35l-2.92,4.89-3.83,6.41-4.14-1.99-6.53-3.13-14.7-8.1c10.72.19,21.46.9,32.12,1.92Z"/>
  <path class="cls-25" d="M218.45,151.59c-1.83,2.29-4.74,4.71-6.2,7.54l-4.15,8.03-.7,2.47c-.09.31-1.16.02-1.54.07-2.89-4.03-3.26-9.84-3.26-15.02l8.07-1.93,7.76-1.15Z"/>
  <path class="cls-7" d="M109.87,279.61l-3.68,7.49-5.22,13.18-3.62,12.17c-3.76,15.48-6.44,30.7-4.23,46.19l-12.48,1.36-13.53.72-13.89,1.99-9.44.88c-1.68-16.81-1.52-34.3,2.27-50.99,2.33-10.27,3.91-20.38,7.57-29.89l4.38-11.39,4.1-8.78,3.44-6.88c.43,4.28,5.16,6.82,8.96,6.44l3.63,3.72,7.28,1.05,1.56,3.57c.74,1.7,5.64-.3,8.24,3.52l7.51,1.83c1.64,2.79,4.13,3.83,7.15,3.81Z"/>
  <path class="cls-4" d="M431.74,294.72c.06.18-.31,1.11-.31,1.09l-.38,2.84c-.12.9,1.53,2.65,2.26,2.47l.41,2.57c-1.26-.32-2.29,1.71-2.11,3.1.11.82,1.57,1.42,2.57,1.04l.11.98.81,2.81,1.74,9.82c2.77,15.66,3.08,32.66.06,48.25l-1.71,8.84-2.73.55c-.65.18-.95,1.84-.88,2.53-.69-.11-2.15.09-2.83.29-15.54,4.63-32.43,7.35-42.78-6.11,4.23-19.84,3.8-39.95-.97-59.99l-2.37-9.95c1.17-3.78,4.63-6.33,8.56-7.67l7.77-2.64c2.82-.96,7.79,1.87,10.71,1.76,8.27-.32,8.74,2.21,14.55.17l7.53-2.74Z"/>
  <path class="cls-10" d="M265.15,492.23c.58.01,2.74,1.48,2.94,2.36l3.26,14.62,2.98,15.32,1.35,13.41c-25.33,3.65-51.38,3.9-76.53-1.48l-22.86-6.16c3.05-6.13,5.31-12.41,6.81-19.43l3.55-9.78,3.13-9.08,2.82-5.92,18.07,4.71c11.96,3.12,30.8,2.94,44.29,2.07l10.19-.66Z"/>
  <path class="cls-8" d="M408.11,447.41c.3,3.12-2.07,5.31-4.05,8.03l-6.65,9.12-11.59,13.64-8.77,8.63-27.26-28.06-5.69-6.65,10.85-11.77,4.57-5.73,6.03-8.12,2.32-3.79,5.31,4.75c5.64,2,10.21,5.03,14.36,9.31,5.19.8,9.52,3.74,12.92,7.88,3.59.74,4.9,2.78,4.42,6.64,1.4-1.94,2.24-3.35,3.24-3.88Z"/>
  <path class="cls-18" d="M346.44,510.2l-9.09,5.75-10.19,5.26-16.43,6.66-2.84-9.05-11.26-27.05-3.04-7.76,13.2-5.47,8.56-4.79,5.5-3.19c5.56,5.41,9.23,12.31,12.28,19.62,4.52,4.71,7.99,10.06,11.16,15.78l2.15,4.23Z"/>
  <path class="cls-11" d="M344.09,452.12l5.69,6.65,27.26,28.06-4.88,4.66-12.59,9.99-6.08,4.53-7.06,4.2-2.15-4.23c-3.17-5.72-6.64-11.07-11.16-15.78-3.05-7.32-6.72-14.21-12.28-19.62l7.64-5.27,5.39-4.29,10.21-8.9Z"/>
  <path class="cls-13" d="M122.12,259.65c-.41,1.99-2.66,4.59-3.89,6.56l-8.36,13.39c-3.02.02-5.5-1.02-7.15-3.81l-7.51-1.83c-2.6-3.83-7.5-1.83-8.24-3.52l-1.56-3.57-7.28-1.05-3.63-3.72c-3.8.37-8.53-2.16-8.96-6.44,1.48-2.96,3.04-5.93,5.05-9.12l5.74-9.15,5.58-7.69c3.36-.31,4.53,1.89,7.61,3.85l8.34,5.3,8.69,7.2c2.29,1.9,4.61,4.07,7.27,5.64,3.51,2.08,7.07,4.23,8.29,7.98Z"/>
  <path class="cls-19" d="M310.72,527.88l-5.73,2.6-20.39,5.21-8.93,2.25-1.35-13.41-2.98-15.32-3.26-14.62c-.2-.89-2.36-2.35-2.94-2.36l15.09-3.83,13.34-4.38,3.04,7.76,11.26,27.05,2.84,9.05Z"/>
  <path class="cls-14" d="M132.94,182.27l5.67,8.13,9.73,14.69,6.36,10.3c1.81,2.93,6,5.34,6.42,9.44l-9.73,6.73-7.59,6.19c-.42-2.5-2.62-4.31-4.41-6.34l-16.72-18.99-4.9-5.57-7.4-7.65,7.58-6.31,10.08-7.37,4.9-3.27Z"/>
  <path class="cls-16" d="M143.81,237.75l-13.11,12.33-4.55-3.68c-2.77-2.27-5.51-4.22-8.02-6.86-2.2-2.32-4.7-4.04-7.5-5.49l-8.54-8.93c-3.01-3.15-6.87-5.59-10.82-6.88,5.85-6.94,12.16-13.24,19.12-19.03l7.4,7.65,4.9,5.57,16.72,18.99c1.79,2.03,3.99,3.84,4.41,6.34Z"/>
  <path class="cls-21" d="M376.36,406.85l9.59,5.08,6.58,3.13,8.64,4.17c5.32.15,10.26,2.06,11.4,7.59,1.96-1.36,3.36-1.96,3.88-1.3l3.27,2.88-7.49,14.33c-1.09,2.09-2.48,3.79-4.13,4.67-1,.53-1.84,1.94-3.24,3.88.47-3.87-.84-5.91-4.42-6.64-3.4-4.14-7.73-7.08-12.92-7.88-4.15-4.28-8.72-7.31-14.36-9.31l-5.31-4.75,2.78-4.94,5.73-10.91Z"/>
  <polygon class="cls-22" points="97.82 385.47 100.68 394.7 103.12 401.24 68.48 416.7 58.34 420.66 53.59 408.57 50.44 398.71 65.27 394.39 78.76 389.78 89.5 387.26 97.82 385.47"/>
  <polygon class="cls-2" points="93.13 358.63 95.09 372.44 89.22 374.73 71.05 377.18 54.67 380.96 46.8 382.16 45.05 376.22 43.79 363.57 53.23 362.7 67.13 360.71 80.65 359.99 93.13 358.63"/>
  <polygon class="cls-1" points="95.09 372.44 97.82 385.47 89.5 387.26 78.76 389.78 65.27 394.39 50.44 398.71 46.8 382.16 54.67 380.96 71.05 377.18 89.22 374.73 95.09 372.44"/>
  <path class="cls-17" d="M130.7,250.08l-3.82,4.71-4.75,4.87c-1.22-3.75-4.78-5.91-8.29-7.98-2.66-1.57-4.98-3.74-7.27-5.64l-8.69-7.2-8.34-5.3c-3.08-1.96-4.25-4.16-7.61-3.85l4.09-5.19,5.27-6.25c3.94,1.29,7.8,3.72,10.82,6.88l8.54,8.93c2.8,1.46,5.3,3.17,7.5,5.49,2.5,2.64,5.25,4.59,8.02,6.86l4.55,3.68Z"/>
  <path class="cls-27" d="M431,399.68l-2.99,8.2-3.62,9.96c-1.89-2.11-3.56-3.36-5.91-4.34l-8.61-3.62-6.51-3.13c-5.32-2.56-10.7-4.27-16.36-5.33l-7.66-2.76,3.27-8.81,8.2,4.48h22.75c4.38,0,8.61,6.43,17.43,5.36Z"/>
  <path class="cls-8" d="M424.39,417.84l-4.66,10.56-3.27-2.88c-.52-.66-1.92-.05-3.88,1.3-1.15-5.52-6.08-7.44-11.4-7.59l-8.64-4.17-6.58-3.13-9.59-5.08,2.98-8.2,7.66,2.76c5.66,1.06,11.04,2.78,16.36,5.33l6.51,3.13,8.61,3.62c2.35.99,4.01,2.23,5.91,4.34Z"/>
  <path class="cls-3" d="M428.75,381.88c.67-.2,2.14-.4,2.83-.29l3.03.49-3.6,17.59c-8.82,1.07-13.05-5.37-17.43-5.37h-22.75s-8.2-4.47-8.2-4.47l2.61-10.61c.02.43.98,2.25,1.55,2.57l6.01,3.41c10.98,3.09,22.15,2.99,33.05.14l2.9-3.47Z"/>
  <path class="cls-5" d="M433.72,303.69l.46,4.13c-1,.39-2.46-.21-2.57-1.04-.18-1.39.85-3.41,2.11-3.1Z"/>
  <path class="cls-5" d="M435.19,378.51l-.58,3.57-3.03-.49c-.07-.69.23-2.36.88-2.53l2.73-.55Z"/>
  <path class="cls-5" d="M433.31,301.12c-.73.18-2.38-1.57-2.26-2.47l.38-2.84,1.88,5.31Z"/>
  <path class="cls-5" d="M435.1,311.61l-.81-2.81.81,2.81Z"/>
  <path class="cls-5" d="M428.75,381.88l-2.9,3.47c-10.91,2.86-22.07,2.95-33.05-.14l-6.01-3.41c-.57-.33-1.53-2.14-1.55-2.57l.74-3.46c10.35,13.46,27.24,10.74,42.78,6.11Z"/>
  <path class="cls-20" d="M276.74,320.44c-8.49,7.99-12.25,7.01-19.52,2.77-3.71-2.16-3.33-6.9-3.34-10.66-.03-10.16,6.59-9.33,12.73-13.91l5.2,3.19c1.19.73,2.56,3.95,3.61,4.93,1.52,1.43,3.51,3.43,3.06,5.5l-1.75,8.17Z"/>
</svg>