<?xml version="1.0" encoding="UTF-8"?>
<svg xmlns="http://www.w3.org/2000/svg" viewBox="0 0 133.93 293.03">
  <defs>
    <style>
      .cls-1, .cls-2 {
        fill: #fff;
      }

      .cls-1, .cls-3, .cls-4 {
        stroke: #231f20;
        stroke-miterlimit: 10;
        stroke-width: 5px;
      }

      .cls-3 {
        fill: #231f20;
      }

      .cls-5 {
        fill: #999a99;
      }

      .cls-4 {
        fill: none;
      }
    </style>
  </defs>
  <g id="Layer_24" data-name="Layer 24">
    <path class="cls-2" d="M114.51,118.34v.63c0,.09,0,.18,0,.27,0,.26.04.52.1.76.11.48.36.83.68,1.19.16.18.36.33.57.45.43.25.83.34,1.32.36.57.02.93-.15,1.43-.37.07-.03.13-.07.2-.12.23-.17.49-.36.71-.56.28-.26.5-.58.72-.88.18-.24.28-.51.38-.8.08-.24.11-.51.11-.77,0-.52-.14-.88-.37-1.33-.17-.34-.62-.76-.94-.94-.21-.12-.44-.22-.68-.28-.28-.07-.57-.09-.86-.12-.13-.01-.26,0-.39,0-.21.03-.6.05-.86.13-.01,0-.03,0-.04.02-.2.07-.43.18-.62.26-.03.01-.06.03-.09.05-.5.33-.68.52-1.02,1.01-.16.23-.27.5-.33.77-.1.33-.12.66-.04,1,.02.33.11.64.3.93.16.29.37.53.64.7.24.22.52.37.85.45l.66.09c.45,0,.87-.12,1.26-.34l.51-.39c.31-.31.52-.68.64-1.1,0-.03.02-.06.03-.08l-.25.6s.03-.06.05-.08l-.39.51s.05-.06.09-.09l-.51.39s.09-.06.14-.08l-.6.25c.08-.03.17-.05.25-.07l-.66.09c.17-.02.33-.02.5,0l-.66-.09s.09.02.14.03l-.6-.25s.03.02.04.02l-.51-.39s.02.02.03.04l-.39-.51s.01.02.02.03l-.25-.6v.02c-.02-.22-.05-.44-.08-.66,0,.02,0,.04,0,.06l.09-.66s0,.04-.02.06l.25-.6c-.04.09-.1.17-.17.25l.39-.51c-.14.18-.3.34-.48.47l.51-.39c-.07.05-.14.1-.21.13l.6-.25s-.07.02-.1.03l.66-.09s-.04,0-.07,0l.66.09s-.03,0-.05-.01l.6.25s-.03-.01-.04-.02l.51.39s-.02-.02-.04-.04l.39.51s-.01-.02-.02-.03l.25.6s-.02-.05-.02-.08l.09.66c-.02-.16,0-.32,0-.48v-.5c.01-.34-.06-.67-.22-.96-.1-.31-.27-.58-.52-.8-.23-.24-.49-.42-.8-.52-.3-.16-.62-.23-.96-.22l-.66.09c-.42.12-.79.33-1.1.64l-.39.51c-.23.39-.34.81-.34,1.26h0Z"/>
    <path class="cls-2" d="M114.15,148.89c.25.8.58,1.59.95,2.34.16.29.37.53.64.7.24.22.52.37.85.45.33.1.66.12,1,.04.33-.02.64-.11.93-.3l.51-.39c.31-.31.52-.68.64-1.1l.09-.66c0-.45-.12-.87-.34-1.26-.1-.21-.2-.42-.29-.63l.25.6c-.15-.36-.29-.74-.41-1.11-.08-.33-.23-.61-.45-.85-.18-.27-.41-.49-.7-.64-.29-.18-.6-.28-.93-.3-.33-.07-.66-.06-1,.04l-.6.25c-.38.22-.67.52-.9.9l-.25.6c-.12.44-.12.89,0,1.33h0Z"/>
  </g>
  <g id="Layer_17" data-name="Layer 17">
    <path class="cls-1" d="M114.73,104.7H19.49V24.39c20.67-3.77,41.34-7.54,62-11.31,7.31,2.49,14.62,4.97,21.92,7.46.64.22,1.24.49,1.8.78,8.1,4.29,9.28,16.23,9.52,20,0,21.13,0,42.25,0,63.38Z"/>
    <rect class="cls-1" x="19.49" y="99.63" width="95.24" height="72.98"/>
  </g>
  <g id="Layer_23" data-name="Layer 23">
    <path class="cls-5" d="M114.79,35.48c-.21-.88-.36-1.64-.6-3.17-.1-.64-.19-1.21-.1-1.07-.59-1.52-1.53-3.02-2.18-4.47-.16-.35-.37-.72-.57-1.08-1.44-1.22-2.54-2.74-3.33-4.43-2.67-.28-5.34-.57-8.01-.85-1.57,4.84-1.28,8.6-.93,10.69,1.49,8.98,8.66,14.66,12.34,17.57,1.46,1.15,2.74,2.01,3.65,2.57.2-11.12,0-14.7-.27-15.76Z"/>
    <path class="cls-5" d="M103.05,46.81c1.49,1.27,3.26,2.14,3.21,3.6-.03.91-.81,1.59-.93,1.69-1.02.91-2.41.83-3.18.76-4.01-.32-7.35-4-7.99-4.72-2.96-3.36-3.97-7.04-3.63-8.94.19-1.08.78-1.89.78-1.89.22-.3.87-1.24,1.91-1.44.9-.18,1.75.18,2.49.66,3.71,2.39,3.24,6.78,7.35,10.28Z"/>
    <ellipse class="cls-5" cx="110.85" cy="54.54" rx="2.89" ry="3.45" transform="translate(12.27 129) rotate(-63.26)"/>
  </g>
  <g id="Layer_22" data-name="Layer 22">
    <path class="cls-4" d="M114.73,104.7H19.49V24.39c20.67-3.77,41.34-7.54,62-11.31,7.31,2.49,14.62,4.97,21.92,7.46.64.22,1.24.49,1.8.78,8.1,4.29,9.28,16.23,9.52,20,0,21.13,0,42.25,0,63.38Z"/>
  </g>
  <g id="Layer_19" data-name="Layer 19">
    <path class="cls-3" d="M58.65,26.29c3.37.59,5.73,1.99,5.28,3.13s-3.55,1.58-6.92.99c-3.37-.59-5.73-1.99-5.28-3.13s3.55-1.58,6.92-.99Z"/>
    <path class="cls-3" d="M80.04,21.34c3.37.57,5.77,1.96,5.37,3.11s-3.46,1.62-6.82,1.05-5.77-1.96-5.37-3.11,3.46-1.62,6.82-1.05Z"/>
  </g>
  <g id="Layer_16" data-name="Layer 16">
    <line class="cls-4" x1="114.45" y1="124.15" x2="120.82" y2="119.24"/>
    <line class="cls-4" x1="115.5" y1="145.07" x2="120.82" y2="149.34"/>
    <path class="cls-1" d="M120.05,150.94c-3.87,2.05-7.75,4.1-11.62,6.14.23-4.1.36-6.3.36-6.3,0,0-2.36-2.83-7.09-8.49,1.56-4.31,3.12-8.62,4.68-12.93-2.28-4.46-4.55-8.92-6.83-13.38,3.16.37,6.32.75,9.48,1.12,1.55-1.51,3.09-3.01,4.64-4.52,2.13,1.5,4.25,2.99,6.38,4.49v-37.98c-1.77-.68-3.55-1.37-5.32-2.05-.01,1.03-.02,2.07-.03,3.1-23.37,4.59-46.73,9.18-70.1,13.77-9.11-5.23-18.21-10.46-27.32-15.7-1.16.29-2.33.59-3.49.88v203.33h106.27v-92.74h0c0-12.92,0-25.83,0-38.75Z"/>
  </g>
  <g id="Layer_18" data-name="Layer 18">
    <line class="cls-4" x1="44.6" y1="107.86" x2="44.6" y2="273.16"/>
  </g>
  <g id="Layer_20" data-name="Layer 20">
    <path class="cls-4" d="M28.5,29.98c6.62,3.52,13.23,7.04,19.85,10.55,13.57-2.84,27.15-5.67,40.72-8.51.29-.06.81-.17,1.52-.24,5.86-.63,10.89,2.17,14.36,4.81"/>
  </g>
</svg>