<?xml version="1.0" encoding="UTF-8"?>
<svg xmlns="http://www.w3.org/2000/svg" viewBox="0 0 164.58 366.29">
  <defs>
    <style>
      .cls-1, .cls-2 {
        fill: #fff;
      }

      .cls-1, .cls-3, .cls-4 {
        stroke: #231f20;
        stroke-miterlimit: 10;
        stroke-width: 5px;
      }

      .cls-3 {
        fill: #231f20;
      }

      .cls-5 {
        fill: #999a99;
      }

      .cls-4 {
        fill: none;
      }
    </style>
  </defs>
  <g id="Layer_24" data-name="Layer 24">
    <path class="cls-2" d="M145.29,147.72v.82c0,.12,0,.24,0,.35,0,.27.04.54.1.8.11.49.36.85.69,1.22.16.19.37.34.59.46.44.25.84.34,1.34.36.58.03.97-.15,1.48-.38.09-.04.17-.1.26-.16.25-.19.53-.39.77-.61.32-.29.57-.65.82-.99.19-.26.31-.54.42-.86.08-.25.11-.53.11-.8,0-.52-.14-.9-.37-1.36-.18-.35-.62-.77-.96-.96-.22-.12-.46-.23-.7-.29-.3-.08-.61-.1-.92-.13-.17-.01-.34-.01-.51,0-.26.03-.64.05-.92.15-.02,0-.04.01-.06.02-.2.08-.43.18-.63.27-.04.02-.08.04-.12.06-.51.33-.71.55-1.05,1.04-.17.24-.28.53-.35.82-.1.33-.12.66-.04,1,.02.33.11.64.3.93.16.29.37.53.64.7.24.22.52.37.85.45l.66.09c.45,0,.87-.12,1.26-.34l.51-.39c.31-.31.52-.68.64-1.1,0-.04.02-.07.03-.11l-.25.6s.04-.07.06-.11l-.39.51s.07-.08.11-.11l-.51.39c.06-.04.11-.07.18-.1l-.6.25c.11-.04.22-.07.33-.09l-.66.09c.22-.03.44-.02.65,0l-.66-.09c.06,0,.12.02.18.04l-.6-.25s.04.02.06.03l-.51-.39s.03.03.04.05l-.39-.51s.02.03.02.04l-.25-.6v.03c-.02-.22-.05-.44-.08-.66,0,.03,0,.05,0,.08l.09-.66s-.01.05-.02.08l.25-.6c-.05.12-.14.23-.22.33l.39-.51c-.18.23-.39.44-.62.62l.51-.39c-.09.07-.18.13-.28.17l.6-.25s-.09.03-.13.04l.66-.09s-.06,0-.09,0l.66.09s-.04,0-.06-.01l.6.25s-.04-.02-.05-.03l.51.39s-.03-.03-.05-.05l.39.51s-.02-.03-.02-.04l.25.6s-.02-.06-.03-.1l.09.66c-.02-.2,0-.42,0-.62v-.66c.01-.34-.06-.67-.22-.96-.1-.31-.27-.58-.52-.8-.23-.24-.49-.42-.8-.52-.3-.16-.62-.23-.96-.22l-.66.09c-.42.12-.79.33-1.1.64l-.39.51c-.23.39-.34.81-.34,1.26h0Z"/>
    <path class="cls-2" d="M144.79,187.38c.31.98.7,1.94,1.16,2.87.16.29.37.53.64.7.24.22.52.37.85.45.33.1.66.12,1,.04.33-.02.64-.11.93-.3l.51-.39c.31-.31.52-.68.64-1.1l.09-.66c0-.45-.12-.87-.34-1.26-.13-.27-.26-.54-.37-.82l.25.6c-.2-.48-.38-.96-.53-1.45-.08-.33-.23-.61-.45-.85-.18-.27-.41-.49-.7-.64-.29-.18-.6-.28-.93-.3-.33-.07-.66-.06-1,.04l-.6.25c-.38.22-.67.52-.9.9l-.25.6c-.12.44-.12.89,0,1.33h0Z"/>
  </g>
  <g id="Layer_17" data-name="Layer 17">
    <path class="cls-1" d="M144.81,129.92H20.56V25.15c26.96-4.92,53.93-9.84,80.89-14.76,9.53,3.24,19.07,6.49,28.6,9.73.84.29,1.62.63,2.35,1.02,10.57,5.59,12.11,21.18,12.41,26.09,0,27.56,0,55.12,0,82.68Z"/>
    <rect class="cls-1" x="20.56" y="123.31" width="124.26" height="95.21"/>
  </g>
  <g id="Layer_23" data-name="Layer 23">
    <path class="cls-5" d="M144.89,39.62c-.28-1.15-.46-2.14-.78-4.14-.13-.84-.25-1.58-.13-1.4-.77-1.98-1.99-3.94-2.85-5.83-.21-.46-.48-.94-.74-1.42-1.88-1.59-3.32-3.58-4.34-5.77-3.49-.37-6.97-.74-10.46-1.11-2.05,6.32-1.67,11.22-1.21,13.95,1.95,11.71,11.3,19.12,16.09,22.92,1.9,1.51,3.58,2.62,4.76,3.35.27-14.51-.01-19.18-.35-20.56Z"/>
    <path class="cls-5" d="M129.57,54.4c1.94,1.65,4.25,2.8,4.18,4.7-.04,1.18-1.06,2.07-1.21,2.21-1.34,1.19-3.14,1.08-4.15,1-5.23-.41-9.59-5.21-10.43-6.16-3.86-4.38-5.18-9.18-4.74-11.66.25-1.41,1.01-2.47,1.01-2.47.28-.39,1.13-1.61,2.49-1.88,1.18-.23,2.28.23,3.25.86,4.85,3.11,4.23,8.85,9.59,13.41Z"/>
    <ellipse class="cls-5" cx="139.75" cy="64.49" rx="3.78" ry="4.5" transform="translate(19.28 160.29) rotate(-63.26)"/>
  </g>
  <g id="Layer_22" data-name="Layer 22">
    <path class="cls-4" d="M144.81,129.92H20.56V25.15c26.96-4.92,53.93-9.84,80.89-14.76,9.53,3.24,19.07,6.49,28.6,9.73.84.29,1.62.63,2.35,1.02,10.57,5.59,12.11,21.18,12.41,26.09,0,27.56,0,55.12,0,82.68Z"/>
  </g>
  <g id="Layer_19" data-name="Layer 19">
    <path class="cls-3" d="M71.66,27.63c4.39.77,7.48,2.59,6.89,4.08s-4.63,2.06-9.03,1.29-7.48-2.59-6.89-4.08,4.63-2.06,9.03-1.29Z"/>
    <path class="cls-3" d="M99.55,21.17c4.39.74,7.53,2.56,7.01,4.06s-4.51,2.11-8.9,1.37-7.53-2.56-7.01-4.06,4.51-2.11,8.9-1.37Z"/>
  </g>
  <g id="Layer_16" data-name="Layer 16">
    <line class="cls-4" x1="144.44" y1="155.3" x2="152.75" y2="148.9"/>
    <line class="cls-4" x1="145.81" y1="182.59" x2="152.75" y2="188.16"/>
    <path class="cls-1" d="M151.76,190.25c-5.05,2.67-10.11,5.34-15.16,8.02.3-5.35.47-8.22.47-8.22,0,0-3.08-3.69-9.25-11.07l6.11-16.87c-2.97-5.82-5.94-11.64-8.91-17.46,4.12.49,8.24.98,12.37,1.47,2.02-1.97,4.04-3.93,6.05-5.9,2.77,1.95,5.55,3.9,8.32,5.86v-49.55c-2.31-.89-4.63-1.78-6.94-2.68-.01,1.35-.03,2.7-.04,4.05-30.49,5.99-60.97,11.97-91.46,17.96-11.88-6.83-23.76-13.65-35.65-20.48-1.52.38-3.03.76-4.55,1.15v265.27h138.64v-120.98h0c0-16.85,0-33.7,0-50.55Z"/>
  </g>
  <g id="Layer_18" data-name="Layer 18">
    <line class="cls-4" x1="53.32" y1="134.05" x2="53.32" y2="349.71"/>
  </g>
  <g id="Layer_20" data-name="Layer 20">
    <path class="cls-4" d="M28.81,30.59c9.8,5.21,19.59,10.42,29.39,15.63,17.71-3.7,35.42-7.4,53.13-11.1.64-.14,1.31-.24,1.99-.32,8.02-.87,14.83,3.27,18.73,6.28"/>
  </g>
</svg>