<?xml version="1.0" encoding="UTF-8"?>
<svg id="Layer_1" data-name="Layer 1" xmlns="http://www.w3.org/2000/svg" viewBox="0 0 349.92 349.92">
  <defs>
    <style>
      .cls-1 {
        fill: #070707;
      }

      .cls-2 {
        fill: #343636;
      }

      .cls-3 {
        fill: #eaebeb;
      }

      .cls-4 {
        fill: #f2f3f3;
      }

      .cls-5 {
        fill: #020202;
      }

      .cls-6 {
        fill: #040404;
      }

      .cls-7 {
        fill: #f8f8f8;
      }

      .cls-8 {
        fill: #f5f5f5;
      }

      .cls-9 {
        fill: #fdfdfd;
      }
    </style>
  </defs>
  <path class="cls-7" d="M.34,176.34l-.03-2.11.59-14.51.41-6.18c.05-.79.87-2.58,1.02-3.41,1.24-6.97,2.11-14.39,4.27-21l2.32-7.1c1.98-1.92,1.93-3.51,2.58-6.27,1.43-6.01,3.85-11.84,6.28-17.5,4.57-4.72,5.13-9.65,7.7-12.91,1.12-1.42,1.89-2.47,2.77-4.03l5-8.87c4.3-2.2,3.64-5.78,9.04-9.83,1.26-.94,2.75-3.89,3.9-5.13,3.86-3.8,7.22-7.17,10.7-11.34l4.99-2.77c1.65-2.24,3.18-3.46,5.32-4.92l3.89-2.65c.82-2.98,2.75-3.53,5.28-4.82l6.99-3.57c2.79-2.3,5.88-4.26,9.31-5.36,6.6-5.11,15.9-8.89,24.26-10.47l4.37-1.91,6.42-2.23c6.17-2.15,12.84-2.73,19.32-4.07l5.27-1.1c4.68-.97,9.35-.84,13.89-1.27,6.11-.58,11.98-.31,18.05.1l10.12.68,4.36.93,19.59,3.75c2,.38,4,1.34,5.92,2.06l7.1,2.64,9.35,2.78c5.65,1.68,10.92,4.14,15.62,8.11,3.22,1.02,6.35,2.84,8.87,5.23l10.53,5.21c1.48,2.72,3.9,4.89,6.74,6.36l8.61,6.95,6.93,7.21c2.87,2.1,4.65,3.32,5.95,6.44l5.52,5.71c1.09,1.13,2.3,4.05,3.47,4.88,3.72,1.67,3.8,6.35,8.54,12.21,5.1,6.32,4.88,11.14,9.65,15.31l6.12,17.53c.76,2.17.4,4.24,2.63,5.39.51,2.47,1.1,4.83,2.45,6.98l4.26,20.97c.88,4.33.88,8.77,1.49,13.22l.54,3.94v18.69s-.54,3.94-.54,3.94c.01,4.52-.45,8.93-1.5,13.23-2.06,8.45-2.49,18.61-6.55,26.09-1.6,2.95-2.11,5.36-3.13,8.39l-5.31,15.76c-2.76,2.83-5.07,5.91-5.96,9.91l-4.1,5.75-3.64,6.36c-1.4,2.45-2.11,4.14-4.48,5.87-1.29.94-2.32,2.96-3.39,4.58-1.29,1.96-4.5,3.96-5.72,6.04-1.76,3-3.11,4.52-6.32,6.66-2.08,1.39-4.17,4.96-6.21,6.62l-6.34,5.16-6.96,5.44c-2.04,4.41-6.63,4.91-13.17,8.84l-8.09,4.86c-5.61,3.37-10.97,6.54-17.37,8.51l-6.8,2.1-8.76,3.08-6.48,2.08-18.7,3.71-8.7,1.25-8.73.53h-14.61s-9.38-.64-9.38-.64l-7.09-.88-3.49-.91c-7.01-1.18-13.93-1.78-20.44-4.37l-5.7-2.27c-2.45-.98-4.55-1.33-7.13-2.19l-6.3-2.12c-5.31-1.79-10.32-3.72-14.53-7.76-3.33-.95-6.6-2.58-9.3-5.3-3.56-1.9-8.54-3.36-11.1-6.28-2.18-2.49-4.48-4.2-6.98-6.13l-8.68-6.7-5.92-6.35c-2.19-2.35-4.27-3.56-6.04-6.26l-2.3-3.53c-1.36-.82-3.33-1.94-3.87-3.33-1.26-3.2-4.12-4.42-5.66-7.05l-4.17-7.13-4.69-6.71c-1.47-4.29-3.32-8.16-6.63-11.46-2.06-5.69-4.75-11.53-6.1-17.52-.63-2.79-.64-4.33-2.58-6.28l-2.31-7.02c-1.89-5.74-2.29-11.56-3.65-17.61l-1.29-5.75-.79-7.27-.54-13.89ZM344.71,175.03c0-94.02-76.21-170.23-170.23-170.23S4.24,81.01,4.24,175.03s76.21,170.23,170.23,170.23,170.23-76.21,170.23-170.23Z"/>
  <path class="cls-5" d="M344.71,175.03c0,94.02-76.21,170.23-170.23,170.23S4.24,269.04,4.24,175.03,80.46,4.8,174.48,4.8s170.23,76.21,170.23,170.23ZM187.7,235.09l-.86,2.62.42,11.85c.17,4.84-.2,10.2-1.82,15.17l-1.61,4.95c-.8,2.47-1.61,4.86-2.78,7.05l-2.8,5.25c-.73,1.36-1.73,3.56-2.68,4.56-1.12,1.19-2.21,2.64-1.52,3.46l10.8,4.05,5.39,2.02,7.05,2.33,5.01,2.42,6.04,3.21,4.79,2.67,3.73,2.54,5.85,6.76,4.16,6.11c2.88-.29,5.76-2.19,8.16-2.89,5.21-1.52,9.01-3.99,13.48-6.66l12.16-7.26c2.77-1.65,5.53-2.58,7.9-4.76l5.89-5.42,6.35-5.74,10.41-10.8c3.45-3.58,8.01-7.15,10.26-11.46,2.28-4.36,3.97-8.02,7.04-11.92l3.77-6.77c3.28-3.8,4.56-8.11,6.16-12.67l3.96-11.27c3.01-8.55,5.87-16.38,7.04-25.57,2.7-21.11,2.41-47.9-4.82-67.7l-2.66-7.27-3.52-9.57c-1.84-4.99-3.18-9.12-6.53-13.25l-4.34-8.09c-1.69-3.14-3.93-5.02-5.1-8.44-.65-1.91-1.95-3.64-3.4-5.1l-6.29-6.29c-5.96-5.96-11.3-11.59-17.38-17.31l-7.23-6.8c-2.11-1.99-4.71-2.73-7.18-4.2l-12.53-7.44c-4.73-2.81-8.95-5.78-14.53-6.71-1.16-.71-3.46-2.07-4.84-2.36-4.31-.91-7.63-2.57-11.78-3.83-27.57-8.39-57.83-8.29-85.42-.13l-8.55,3.08c-3.49.55-6.64,1.86-9.45,3.72-5.24.44-8.97,3.68-13.11,6.13l-12.98,7.67c-1.64.97-3.74,1.72-5.21,2.83-3.63,2.76-6.58,5.82-9.93,8.75-5.82,5.09-11.03,10.18-15.95,16.07l-7.26,7.4c-.8.81-2.14,2.39-2.51,3.4-1.61,4.38-4.32,8.01-6.63,11.85l-6.6,10.94c-1.42,2.35-2.23,5.99-3.39,8.74-1.44,3.41-2.59,6.66-3.81,10.25l-2.84,8.33c-.97,2.85-1.95,5.55-2.57,8.64-4.4,21.9-4.37,44.11.1,66,.59,2.89,1.55,5.43,2.46,8.08l2.85,8.34,3.58,9.8c1.73,4.73,2.85,9.42,6.19,13.36,1.9,2.24,2.84,5.77,4.48,8.06,2.37,3.29,4.37,5.87,5.76,9.71.48,1.33,1.57,2.88,2.61,3.96l7.16,7.39c5.27,5.45,9.7,10.99,15.56,15.75,4.05,3.29,7.57,7.87,12.1,10.31l8.04,4.32,5.92-4.01c1.07-.72,4.16-1.2,3.72-3.35-.27-1.33-3.29-2.48-4.28-3.41l-6.5-6.09-7.95-6.32c-6.62-5.27-10.46-12.92-13.73-20.7-1.45-3.46-1.92-7.49-2.97-11.1l-1-3.46c-.02-3.76-.58-7.86.3-11.4l1.39-5.63c.95-3.86,1.43-7.37,3.13-10.74l2.48-4.93c1.28-2.54,2.49-4.8,4.14-7.21l3.51-5.12c2.41-3.52,9.57-8.87,14.46-11.55l5.11-2.8c1.86-1.02,2.91-2.22,4.94-2.91l7.08-2.41,5.58-2.28c10.54-2.58,21.3-2.72,31.99-1.26,2.49.34,4.94,1.4,7.08,2.03,4.3,1.27,7.62,2.58,10.33,6.09s6.57,6.6,9.19,10.65c2.36,3.65,4.24,7.63,6.14,11.82,1.23,2.7,1.72,6.41,2.57,9.31l1.89,6.41,1.21,8.13ZM169.42,242.65c1.79-2.71,1.74-6.58-1.55-8.46l-7.43-4.24-5.67,3.52c-3.33,2.07-3.35,8.41-1.31,11.27l2.84,1.48c4.73,2.46,10.85-.13,13.12-3.57ZM104.41,248.38c2.59-3.91.76-8.95-3.52-10.69l-8.48.96c-3.63,2.98-4.47,8.34-1.89,12.19,1.49,2.23,5.35,3.06,8.07,2.49,1.87-.39,4.27-2.6,5.81-4.94ZM153.95,268.69c1.16-.11,1.8-2.17,1.51-3.52-.68-3.12-5.65-2.04-10.08-.7-5.51,1.66-11.83,1.12-17.59,2.17-2.96.54-5.44.91-8.84.96v-4.73c-2.59-1.47-5.03-1.17-6.76,1.05-2.79,3.58-6.14,7.51-4.6,12.53.46,1.51,5.14,2.29,5.72.79s1.55-4.67,3.09-4.68l11.99-.13,15.85-1.5c3.15-.3,5.95-1.9,9.71-2.24Z"/>
  <path class="cls-9" d="M187.26,249.56l1.79-1.29-.02-11.56-1.33-1.62-1.21-8.13-1.89-6.41c-.85-2.89-1.35-6.6-2.57-9.31-1.9-4.19-3.78-8.17-6.14-11.82-2.62-4.05-6.44-7.08-9.19-10.65s-6.03-4.82-10.33-6.09c-2.13-.63-4.59-1.69-7.08-2.03-10.69-1.46-21.45-1.32-31.99,1.26l-5.58,2.28-7.08,2.41c-2.03.69-3.08,1.89-4.94,2.91l-5.11,2.8c-4.9,2.68-12.06,8.03-14.46,11.55l-3.51,5.12c-1.65,2.42-2.86,4.67-4.14,7.21l-2.48,4.93c-1.7,3.37-2.18,6.89-3.13,10.74l-1.39,5.63c-.87,3.54-.31,7.64-.3,11.4l1,3.46c1.05,3.61,1.51,7.65,2.97,11.1,3.27,7.78,7.11,15.44,13.73,20.7l7.95,6.32,6.5,6.09c.99.93,4,2.08,4.28,3.41.45,2.15-2.65,2.63-3.72,3.35l-5.92,4.01-8.04-4.32c-4.54-2.44-8.05-7.02-12.1-10.31-5.87-4.76-10.29-10.31-15.56-15.75l-7.16-7.39c-1.04-1.08-2.13-2.63-2.61-3.96-1.39-3.83-3.4-6.42-5.76-9.71-1.65-2.29-2.59-5.83-4.48-8.06-3.34-3.94-4.46-8.63-6.19-13.36l-3.58-9.8-2.85-8.34c-.91-2.66-1.87-5.2-2.46-8.08-4.47-21.89-4.49-44.1-.1-66,.62-3.09,1.6-5.79,2.57-8.64l2.84-8.33c1.22-3.59,2.37-6.84,3.81-10.25,1.16-2.75,1.98-6.4,3.39-8.74l6.6-10.94c2.31-3.83,5.02-7.47,6.63-11.85.37-1.01,1.71-2.59,2.51-3.4l7.26-7.4c4.92-5.89,10.13-10.99,15.95-16.07,3.35-2.93,6.29-5.99,9.93-8.75,1.47-1.11,3.57-1.87,5.21-2.83l12.98-7.67c4.14-2.45,7.87-5.68,13.11-6.13,2.81-1.86,5.95-3.16,9.45-3.72l8.55-3.08c27.59-8.17,57.86-8.26,85.42.13,4.15,1.26,7.47,2.92,11.78,3.83,1.38.29,3.68,1.65,4.84,2.36,5.58.93,9.8,3.9,14.53,6.71l12.53,7.44c2.48,1.47,5.07,2.21,7.18,4.2l7.23,6.8c6.09,5.72,11.42,11.35,17.38,17.31l6.29,6.29c1.46,1.46,2.75,3.19,3.4,5.1,1.17,3.43,3.41,5.3,5.1,8.44l4.34,8.09c3.35,4.13,4.69,8.26,6.53,13.25l3.52,9.57,2.66,7.27c7.24,19.8,7.52,46.59,4.82,67.7-1.18,9.19-4.03,17.02-7.04,25.57l-3.96,11.27c-1.61,4.57-2.88,8.88-6.16,12.67l-3.77,6.77c-3.07,3.9-4.76,7.55-7.04,11.92-2.25,4.3-6.82,7.88-10.26,11.46l-10.41,10.8-6.35,5.74-5.89,5.42c-2.37,2.18-5.13,3.1-7.9,4.76l-12.16,7.26c-4.47,2.67-8.27,5.14-13.48,6.66-2.4.7-5.28,2.6-8.16,2.89l-4.16-6.11-5.85-6.76-3.73-2.54-4.79-2.67-6.04-3.21-5.01-2.42-7.05-2.33-5.39-2.02-10.8-4.05c-.68-.81.4-2.27,1.52-3.46.95-1,1.95-3.2,2.68-4.56l2.8-5.25c1.17-2.2,1.98-4.59,2.78-7.05l1.61-4.95c1.62-4.97,1.99-10.33,1.82-15.17ZM186.24,109.35c-5.39,3.98-4.86,21.95-.18,27.36,3.28,3.79,6.87,7,10.82,10.43l4.93,2.82c2.72,2.3,5.16,2.63,8.64,2.03l7.38-1.28c6.37-10.51,3.53-13.83-4.2-23.36,8.74-4.02,16.9-9.73,24.81-15.94l4.13-3.24c4.85-3.81,8.11-9.25,8.05-15.85-.08-8.35-.55-16.71-1.93-25.11-2.07-12.61-17.37-21.82-30.07-25.08l-20.5-5.26c-12.87-3.3-33.31,1.88-43.73,9.77-6.53,4.95-15.47,11.15-20.02,17.12-3.74,4.92-3.75,11.72-2.95,17.39l1.75,12.35,18.18,8.6c2.83,1.34,5.24-.14,7.5-1.79l9.56-6.96c-.7-8.95-2.94-13.48,4.93-18.4,10.59-3.21,20.97-4.99,31.88-1.87,4.78,1.37,4.97,12.9,4.23,20.32-2.19,1.31-4.54,2.11-6.24,3.37l-16.99,12.56ZM233.24,192.28c2.81.63,4.88-2.48,6.25-3.86l6.73-6.72c.84-.84,1.05-3.64.56-4.62-1.96-3.88-2.87-8.7-5.68-11.74l-4.46-4.81-13.41-3.41c-1.25-.32-3.15,1.19-4.14,2.05-2.13,1.84-4.14,2.77-6.82,4.2-1.39.74-2.07,4.14-2.58,5.68-1.14,3.44-.24,5.16.72,8.36l1.98,6.58,3.54,1.21,3.93,4.08,13.37,3ZM203.01,203.5c1.2-1.77,1.27-5.57.37-6.87-1.37-1.18-3.38-2.52-4.6-3.1l-4.48-1.1-8.15,3.72-.59,8.07c3.09,1.26,5.55,2.73,8.78,3.41,2.6.55,7.13-1.84,8.67-4.12Z"/>
  <path class="cls-3" d="M153.95,268.69c-3.76.34-6.55,1.94-9.71,2.24l-15.85,1.5-11.99.13c-1.54.02-2.52,3.19-3.09,4.68s-5.26.73-5.72-.79c-1.54-5.03,1.81-8.96,4.6-12.53,1.73-2.22,4.18-2.52,6.77-1.05v4.73c3.39-.05,5.87-.43,8.83-.96,5.76-1.04,12.08-.51,17.59-2.17,4.43-1.34,9.4-2.42,10.08.7.3,1.35-.34,3.42-1.51,3.52Z"/>
  <path class="cls-4" d="M169.42,242.65c-2.27,3.44-8.39,6.03-13.12,3.57l-2.84-1.48c-2.03-2.87-2.02-9.21,1.31-11.27l5.67-3.52,7.43,4.24c3.3,1.88,3.34,5.75,1.55,8.46Z"/>
  <path class="cls-8" d="M104.41,248.38c-1.55,2.34-3.94,4.55-5.81,4.94-2.72.57-6.58-.26-8.07-2.49-2.58-3.85-1.74-9.21,1.89-12.19l8.48-.96c4.28,1.74,6.11,6.78,3.52,10.69Z"/>
  <polygon class="cls-2" points="187.26 249.56 186.84 237.71 187.7 235.09 189.03 236.71 189.05 248.27 187.26 249.56"/>
  <path class="cls-5" d="M186.24,109.35l16.99-12.56c1.7-1.26,4.04-2.06,6.24-3.37.74-7.42.55-18.96-4.23-20.32-10.92-3.12-21.29-1.34-31.88,1.87-7.87,4.92-5.63,9.46-4.93,18.4l-9.56,6.96c-2.26,1.65-4.67,3.13-7.5,1.79l-18.18-8.6-1.75-12.35c-.8-5.67-.79-12.48,2.95-17.39,4.55-5.97,13.49-12.18,20.02-17.12,10.42-7.89,30.86-13.07,43.73-9.77l20.5,5.26c12.7,3.26,28,12.47,30.07,25.08,1.38,8.4,1.85,16.76,1.93,25.11.06,6.6-3.2,12.04-8.05,15.85l-4.13,3.24c-7.92,6.21-16.07,11.92-24.81,15.94,7.72,9.54,10.56,12.85,4.2,23.36l-7.38,1.28c-3.47.6-5.91.27-8.64-2.03l-4.93-2.82c-3.95-3.42-7.55-6.64-10.82-10.43-4.68-5.42-5.21-23.38.18-27.36Z"/>
  <path class="cls-6" d="M233.24,192.28l-13.37-3-3.93-4.08-3.54-1.21-1.98-6.58c-.97-3.2-1.87-4.92-.72-8.36.51-1.54,1.19-4.94,2.58-5.68,2.68-1.42,4.69-2.36,6.82-4.2.99-.86,2.89-2.37,4.14-2.05l13.41,3.41,4.46,4.81c2.81,3.03,3.73,7.86,5.68,11.74.49.97.28,3.78-.56,4.62l-6.73,6.72c-1.38,1.37-3.44,4.49-6.25,3.86Z"/>
  <path class="cls-1" d="M203.01,203.5c-1.54,2.27-6.07,4.66-8.67,4.12-3.23-.68-5.69-2.15-8.78-3.41l.59-8.07,8.15-3.72,4.48,1.1c1.22.59,3.23,1.92,4.6,3.1.9,1.3.84,5.1-.37,6.87Z"/>
</svg>