<?xml version="1.0" encoding="UTF-8"?>
<svg xmlns="http://www.w3.org/2000/svg" viewBox="0 0 70.77 456.18">
  <defs>
    <style>
      .cls-1, .cls-2 {
        fill: #231f20;
      }

      .cls-3 {
        fill: #fff;
      }

      .cls-3, .cls-2, .cls-4, .cls-5 {
        stroke: #231f20;
        stroke-miterlimit: 10;
      }

      .cls-3, .cls-2, .cls-5 {
        stroke-width: 5px;
      }

      .cls-4 {
        stroke-width: 2px;
      }

      .cls-4, .cls-5 {
        fill: none;
      }
    </style>
  </defs>
  <g id="Layer_2" data-name="Layer 2">
    <path class="cls-3" d="M62.43,153.82c-1.71-2.06-3.82-4.98-5.65-8.78-2.03-4.23-3-8.06-3.56-11.12-1.49-8.08-5.41-38.86-9.85-80.93.06-9.84.12-19.68.18-29.52-.61-2.56-1.21-5.13-1.82-7.69-1.04,2.76-2.08,5.52-3.13,8.28-.67,16.61-1.34,33.23-2.02,49.84-5.48,29-9.84,50.5-11.46,58.88-.45,2.31-1.47,7.67-4.71,13.83-1.43,2.71-2.84,4.74-3.65,5.84v301.99h43.32v-133.55c.78-55.69,1.56-111.38,2.34-167.08Z"/>
    <path class="cls-5" d="M35.11,74.83c1.75,1.11,3.51,2.23,5.26,3.34,1.42-.72,2.83-1.44,4.25-2.16"/>
    <path class="cls-1" d="M38.84,29.87c-.46,4.53-.76,9.06-.9,13.61-.07,2.2-.18,4.44-.06,6.64s.64,4.18.71,6.29c.07,1.87-.56,3.65-1.09,5.43-.61,2.04-1.04,4.11-1.16,6.25-.11,1.94-.21,4.4,1.16,5.94,1.27,1.43,4.01,2.18,5.76,1.16,2.16-1.26,1.56-4.98,1.51-7.08-.07-2.63-.34-5.24-.72-7.84-.19-1.34-1.89-2.07-3.08-1.75-1.44.39-1.94,1.73-1.75,3.08.26,1.76.41,3.53.49,5.31.04.88.06,1.76.06,2.64,0,.48,0,.96-.02,1.44,0,.22-.24,1.23.07.78l1.49-1.15c.61-.21-.16.16-.21-.03-.03-.12.21.36.24.34.05-.04-.06-1.2-.06-1.26,0-.45,0-.9.02-1.36.08-1.7.45-3.31.93-4.93s.99-3.26,1.21-4.96c.25-1.88-.02-3.71-.29-5.58-.52-3.67-.33-7.4-.19-11.1.15-3.97.44-7.93.84-11.88.14-1.35-1.25-2.5-2.5-2.5-1.47,0-2.36,1.15-2.5,2.5h0Z"/>
    <path class="cls-1" d="M44.23,28.78v-2.18c.01-.34-.06-.67-.22-.96-.1-.31-.27-.58-.52-.8-.23-.24-.49-.42-.8-.52-.3-.16-.62-.23-.96-.22l-.66.09c-.42.12-.79.33-1.1.64l-.39.51c-.23.39-.34.81-.34,1.26v2.18c-.01.34.06.67.22.96.1.31.27.58.52.8.23.24.49.42.8.52.3.16.62.23.96.22l.66-.09c.42-.12.79-.33,1.1-.64l.39-.51c.23-.39.34-.81.34-1.26h0Z"/>
  </g>
  <g id="Layer_5" data-name="Layer 5">
    <path class="cls-4" d="M27.09,159.66c2.08,98.26,4.16,196.52,6.24,294.78"/>
    <path class="cls-4" d="M47.11,153.5c-.64,100.32-1.29,200.63-1.93,300.95"/>
  </g>
  <g id="Layer_3" data-name="Layer 3">
    <path class="cls-5" d="M18,152.91c2.69,2.25,5.39,4.5,8.08,6.75,2.41-3.37,4.82-6.75,7.22-10.12,2.56,4.03,5.11,8.06,7.67,12.09,2.37-3.56,4.73-7.13,7.1-10.69,2.37,2.37,4.73,4.73,7.1,7.1,2.2-1.68,4.4-3.35,6.6-5.03"/>
  </g>
  <g id="Layer_4" data-name="Layer 4">
    <ellipse class="cls-2" cx="38.04" cy="190.39" rx="3.8" ry="7.05" transform="translate(-34.68 10.37) rotate(-10.7)"/>
    <path class="cls-2" d="M49.96,180.44c-.78-3.69-2.97-6.34-4.99-5.96-2.06.39-3.15,3.81-2.43,7.64.52,2.75,1.83,4.95,3.29,5.83.72-2.8,2.18-5.37,4.13-7.51Z"/>
    <path class="cls-3" d="M29.83,227.22c-1.72-.46-16.71-4.77-22.65-19.79-4.37-11.05-1.09-20.93-.13-23.53,2.37,5,7.34,13.71,16.87,21.14,6.28,4.89,12.43,7.59,16.87,9.12-3.65,4.36-7.3,8.71-10.95,13.07Z"/>
    <line class="cls-5" x1="16.27" y1="197.85" x2="6.13" y2="204.29"/>
    <line class="cls-5" x1="26.15" y1="206.93" x2="16.46" y2="220.48"/>
    <line class="cls-5" x1="28.87" y1="208.6" x2="18.6" y2="222.02"/>
    <line class="cls-5" x1="21.1" y1="214.18" x2="11.26" y2="214.7"/>
  </g>
</svg>