<?xml version="1.0" encoding="UTF-8"?>
<svg xmlns="http://www.w3.org/2000/svg" viewBox="0 0 153.32 422.64">
  <defs>
    <style>
      .cls-1, .cls-2 {
        fill: #fff;
      }

      .cls-1, .cls-2, .cls-3, .cls-4, .cls-5, .cls-6 {
        stroke: #231f20;
        stroke-miterlimit: 10;
      }

      .cls-1, .cls-3, .cls-5 {
        stroke-width: 5px;
      }

      .cls-2, .cls-6 {
        stroke-width: 7px;
      }

      .cls-3 {
        fill: #231f20;
      }

      .cls-4 {
        stroke-width: 11px;
      }

      .cls-4, .cls-5, .cls-6 {
        fill: none;
      }

      .cls-4, .cls-6 {
        stroke-linecap: round;
      }
    </style>
  </defs>
  <g id="Layer_9" data-name="Layer 9">
    <rect class="cls-1" x="14.2" y="157.11" width="126.16" height="263.78"/>
  </g>
  <g id="Layer_13" data-name="Layer 13">
    <path class="cls-1" d="M48.44,197.94c-13.08-2.49-23.29-14.66-23.93-29.37,19.42,1.74,38.84,3.49,58.26,5.23-3.76,16.61-19.38,27-34.33,24.15Z"/>
    <ellipse class="cls-2" cx="49.87" cy="179.54" rx="5.44" ry="6.55"/>
    <path class="cls-5" d="M71.08,192.23c-.06,2.05-.48,3.76-1.02,5.16-4.75,12.28-24.25,13.68-25.64,13.76"/>
    <path class="cls-1" d="M110.21,197.71c13.08-2.49,23.29-14.66,23.93-29.37-19.42,1.74-38.84,3.49-58.26,5.23,3.76,16.61,19.38,27,34.33,24.15Z"/>
    <ellipse class="cls-2" cx="96.31" cy="179.54" rx="5.44" ry="6.55"/>
    <path class="cls-5" d="M93,195.53c.58,1.97,1.42,3.51,2.3,4.73,7.72,10.66,26.93,7.06,28.3,6.79"/>
    <path class="cls-1" d="M30.43,236.16c16-3.8,34.69-7.19,55.67-9.08,21.98-1.98,41.8-1.9,58.81-.88-1.2-1.68-2.8-4.33-3.75-7.9-.61-2.29-.79-4.33-.8-5.93"/>
  </g>
  <g id="Layer_10" data-name="Layer 10">
    <path class="cls-1" d="M144.91,170.1c-17.31,3.99-40.42,7.69-67.77,7.69-17.83,0-41.22-1.57-67.77-7.69,0-2.42,0-4.83,0-7.25,0-3.69,0-7.38,0-11.07,16.41-4.23,38.86-8.36,65.7-8.56,28.79-.22,52.74,4.16,69.84,8.56v18.31Z"/>
  </g>
  <g id="Layer_11" data-name="Layer 11">
    <path class="cls-1" d="M134.14,149.73c-12.14,3.69-31.19,7.37-56.68,7.38-25.67.02-44.85-3.68-57.04-7.38,2.97-4.48,7.12-9.86,12.8-15.34,5.06-4.87,10.06-8.58,14.35-11.35-.02-14.94-.03-29.87-.05-44.81,4.46-2.61,13.87-7.33,26.8-8.01,16.57-.86,28.72,5.45,33.11,8.01-.15,14.94-.3,29.87-.46,44.81,4.14,2.91,8.71,6.51,13.36,10.92,5.84,5.55,10.36,11,13.8,15.77Z"/>
  </g>
  <g id="Layer_12" data-name="Layer 12">
    <path class="cls-3" d="M98.68,80.58c-4.55,1.26-10.1,2.43-16.47,3-7.38.67-13.85.37-19.06-.23-2.25-.92-4.5-1.85-6.75-2.77-.88-13.19-1.84-27.48-2.88-43,14.01-9.58,28.01-19.16,42.02-28.75,3.32.81,6.64,1.62,9.96,2.43-2.27,23.11-4.54,46.21-6.81,69.32Z"/>
  </g>
  <g id="Layer_14" data-name="Layer 14">
    <line class="cls-4" x1="79.5" y1="76.74" x2="79.5" y2="108.84"/>
    <line class="cls-6" x1="93" y1="78.03" x2="93" y2="98.23"/>
    <circle class="cls-4" cx="79.76" cy="124.06" r=".48"/>
  </g>
</svg>