<?xml version="1.0" encoding="UTF-8"?>
<svg id="Layer_1" data-name="Layer 1" xmlns="http://www.w3.org/2000/svg" viewBox="0 0 1076.18 772.36">
  <defs>
    <style>
      .cls-1 {
        fill: #fefefe;
      }

      .cls-2 {
        fill: #fcfcfc;
      }

      .cls-3 {
        fill: #0e0c0b;
      }
    </style>
  </defs>
  <path class="cls-2" d="M591.88,586.88l.61,7.8.06,35.94-.48,4.4c-1.86,9.37-3.78,18.43-6.97,27.42-2.9,8.15-7.12,15.45-11.3,22.94-1.14,2.04-2.81,3.81-4.42,5.42l-8.17,8.24-4.89,3.76-11.17,8.42-9.88,4.82c-3.53,1.72-7.76,2.81-11.69,3.54l-27.21,5.1-29.19,6.85c-19.3,4.53-38.54,7.68-58.34,9.03l-8.64.59-8.4.45-22.73.08-11.34-.59c-22.84-1.19-52.5-7.67-74.19-15.08l-8.23-2.81c-17.76-6.07-34.22-14.12-51.1-22.26-8.48-4.09-16.39-7.83-24.4-12.79l-6.4-3.97-24.22-13.93-23.79-14.87-21.3-14.69-12.36-10.51-9.18-8.86c-13.94-11.64-32.72-32.79-41.47-48.51l-10.14-18.22-5.1-10.23c-4.89-9.81-9.56-19.56-12.67-30.16l-2.85-9.73-2.05-12.81-1.21-14.74-3.03-23.37c.04-.86.55-2.91.39-3.76-.54-2.8-.07-5.56-.08-8.33l-.05-9.56c-.01-2.76-.68-6.14-.17-8.91,1.26-6.84,1.5-13.14,1.78-20.01.69-17.06,5.1-32.9,11.93-48.37l3.84-10.92c2.62-7.46,5.86-14.03,9.59-20.98,6.13-11.42,12.61-22.1,20.19-32.65l11.65-16.2,7.28-8.65c11.13-13.23,22.5-26,36.69-36.18l19.21-12.97c5.73-3.87,11.76-6.39,17.97-9.38,10.85-5.21,22.13-8.06,33.61-11.55l18.37-5.59,35.3-7.74,18.21-3.11,16.03-2.09,66.34-7.75,7.56-.67,15.58-1.19,18.89-.34h4.95s17.92.31,17.92.31l6.06.32,8.14.41,10.35.61,6.04.51,6.54.52,7.64.55,7.63.55,7.63.62,35.42,3.96,29.41,3.9,57.19,10.3,8.27.46,7.09.36,9.24.59,6.63.61,22.59.13,2.1.48c.54.12.95-1.45,1.02-2.21l8.04-78.36,1.63-17,1.54-16.45c1.58-7.85,6.02-14.18,11.03-19.98l4.6-5.32c1.33-1.54,3.52-2.49,5.15-2.91,1.83-2.2,2.59-2.72,5.53-2.97l13.41-1.18c4.08-.36,6.64.12,10.14,2.42l7.87,5.18,23.25,16.97,29.59,17.84,11.07,7.02,21.99,15.05,30.32,20.39,28.3,20.76,27.05,20.94,31.76,25.42,4.05,3.58,5.17,4.73,8.39,7.88,6.02,5.47,7.66,7.09,15.54,14.97,19.6,19.56,6.03,6.03,8.43,8.49,15.23,15.74,7.66,8.23c3.74,4.02,7.05,8.27,9.96,12.86,2.14.8,3.29,2.41,4.34,4.56l2.96,12.1c1.69,6.91-1.82,16.64-5.13,23.64l-2.97,4.57-16.32,23.97-7.49,10.03-30.8,38.29-20.25,26.18-23.3,28.42-3.35,3.75-5.85,6.24-20.07,20.12-12.35,10.64-6.73,6.32-3.75,3.37-29.48,23.37-7.18,5.38-4.55,3.14c-17,11.72-34.66,21.69-53.4,30.38l-8.7,5.06c-10.11,7.17-20.67,12.86-31.79,18.34l-6.04,3.3c-11.73,6.41-22.94,13.17-35.59,17.71-7.35,2.64-14.56,3.92-22.06,5.84l-12.8,3.28-9.33.44c-5.65.27-14.14-1.85-19.31-4.72-2.66-1.47-5.66-6.39-6.35-9.41-1.22-5.32-1.69-10.27-2.03-15.56l-.48-7.65-.49-8.99-.45-14.4.04-14.26.04-26.12-.43-8.73-.2-24.95-.49-16.51-.32-11.11-25.95-13.68c-14.37-7.58-29.08-13.33-44.47-18.76l-54.43-16.94c-11.81-3.68-23.77-5.12-36.02-6.55l-19.6-2.29-30.77-3.97-6.94-.38-9.26-.54c-5-.29-9.84-.71-14.85-.07l-10.73.32-15.61,2.83c-6.61,1.2-13.39,2.47-19.03,5.98l-11.77,7.35c-2.28,1.42-4.23,3.47-6.05,5.38,5.08,6.76,11.69,10.28,19.16,13.35,10.46,4.3,22.93,5.93,34.29,6.65l7.12.45,33.86,4.72,5.43.44c8.48.69,16.37,2.49,24.6,4.43l20.36,4.8,21.64,5.05c6.95,1.62,13.43,3.89,19.95,6.74,9.57,4.18,18.97,8.02,27.69,13.71,5.84,3.81,11.34,7.85,15.8,13.05,8.57,9.96,21.2,30.26,23.58,42.44l3.92,20.06.4,4.18ZM563.24,540.66l-15.45-17.29c-3.67-4.11-7.68-7.56-12.34-10.61-9.91-6.48-19.84-12.49-30.87-16.98-19.64-8-46.62-11.19-68.12-13.16l-51-4.69c-10.36-.95-19.96-3.26-29.97-6.04-11.3-3.13-21.81-8.08-31.32-14.96-3.02-4.43-4.7-10.43-4.68-15.73,7.35-11.96,24.79-22.27,38.01-25.74,8.13-2.13,16.46-2.8,24.81-3.54,8.78-.78,17.16-.3,26.09.17,20.7,1.09,40.88,3.15,61.36,6.25l28.96,5.32c15.52,2.85,30.26,6.79,45.58,10.55l35.08,8.6,18.15,4.79c13.41,3.54,26.47,7.32,39.36,12.32l13.15,5.1.64,5.11,2.37,9.84c1.14,4.71,2.81,9.11,3.14,14.11.65,10.05.25,19.83-.08,29.94l-.93,28.14-1.38,23.44.12,37.01-.2,15.47,22.3,11.27,5.73-3.46c.57-.34,2.21-.13,2.89.02l26.28-9.62,20.36-9.16,41.16-21.98,30.25-16.78c17.3-10.45,33.59-21.87,49.61-34.25,22.94-17.72,44.52-36.52,64.64-57.39l28.94-30.02,31.72-34.77,30.65-37.47,15.41-20.58c3.48-4.64,6.26-10.06,7.57-15.76l4.49-19.63c.27-1.16.36-3.45-.13-4.43l-15.94-14.28-21-22.52-63.63-59.46-40.31-36.04-45.39-36.35-42.62-29.89-42.9-28.49-27.26-16.51-10.38-11.82-11.37-11.13-17.25.85-6.03.69-8.94,15.52c-.99,1.71-.98,3.07-.96,4.97l.17,17.47.51,6.9-3.03,28.44-.62,13.67-2.33,34.69c-.16,2.42.07,4.36.11,6.8l.14,9.68c.03,2.13-4.2,2.25-4.62,5.2l-9.84,6.09c-1.09.68-3.74,1.12-5.16,1.21-12.47.73-24.2-1-36.38-3.3l-37.98-7.16-30.83-5.36c-12.19-2.12-24-3-36.29-3.53l-24.46-1.06-26.48-1.15-22.44-.63c-37.48-1.05-74.36.66-111.61,4.84-10.65,1.19-20.59,1.05-31.05,2.87l-54.35,9.41-39.92,8.55c-10.64,2.28-20.1,5.75-29.75,10.61-12.11,6.1-23.96,11.93-35.66,18.77-7.08,4.14-13.17,8.7-19.48,13.82-10.77,8.74-21.52,18.42-30.53,28.93-9.7,11.31-25.46,41.08-30.89,55.21l-5.61,14.6c-3.65,9.5-3.85,19.36-6.43,29.17l-9.71,36.9c-1.97,7.5-4.04,15.11-3.81,22.94.28,9.47,1.44,18.85,3.76,27.96l7.3,28.62,13.43,39.4c8.36,15.26,18.41,28.95,30.51,41.39l18.86,19.38c12.77,13.12,26.02,25.07,40.43,36.44,18.96,14.96,38.18,29.1,59.37,40.86,18.2,10.1,36.81,18.84,56.12,26.7,22.33,9.09,45.26,15.5,68.92,19.98,15.13,2.86,29.61,3.84,44.92,4.18,26.6.58,52.65-2.28,78.85-6.91l28.86-6.05c20.75-4.35,37.21-10.58,54.5-22.93,6.2-4.42,11.19-9.73,16.24-15.4,7.09-7.95,12.69-16.52,15.62-26.91l8.72-30.98c4.32-15.36,3.48-28.93,1.01-44.49-1.86-11.68-9.75-26.19-17.44-34.81Z"/>
  <path class="cls-3" d="M563.24,540.66c7.7,8.61,15.59,23.13,17.44,34.81,2.47,15.56,3.31,29.13-1.01,44.49l-8.72,30.98c-2.92,10.39-8.53,18.96-15.62,26.91-5.05,5.67-10.05,10.98-16.24,15.4-17.29,12.34-33.75,18.57-54.5,22.93l-28.86,6.05c-26.2,4.63-52.25,7.49-78.85,6.91-15.31-.34-29.8-1.31-44.92-4.18-23.65-4.48-46.59-10.88-68.92-19.98-19.31-7.86-37.92-16.6-56.12-26.7-21.19-11.76-40.41-25.9-59.37-40.86-14.41-11.37-27.66-23.33-40.43-36.44l-18.86-19.38c-12.1-12.44-22.15-26.12-30.51-41.39l-13.43-39.4-7.3-28.62c-2.32-9.11-3.48-18.49-3.76-27.96-.24-7.83,1.83-15.44,3.81-22.94l9.71-36.9c2.58-9.81,2.79-19.68,6.43-29.17l5.61-14.6c5.43-14.13,21.19-43.9,30.89-55.21,9.01-10.51,19.75-20.19,30.53-28.93,6.31-5.12,12.4-9.68,19.48-13.82,11.7-6.85,23.55-12.67,35.66-18.77,9.65-4.86,19.11-8.33,29.75-10.61l39.92-8.55,54.35-9.41c10.46-1.81,20.4-1.67,31.05-2.87,37.25-4.18,74.12-5.89,111.61-4.84l22.44.63,26.48,1.15,24.46,1.06c12.29.53,24.11,1.41,36.29,3.53l30.83,5.36,37.98,7.16c12.18,2.29,23.91,4.03,36.38,3.3,1.43-.08,4.07-.53,5.16-1.21l9.84-6.09c.42-2.94,4.65-3.07,4.62-5.2l-.14-9.68c-.03-2.44-.27-4.39-.11-6.8l2.33-34.69.62-13.67,3.03-28.44-.51-6.9-.17-17.47c-.02-1.9-.02-3.25.96-4.97l8.94-15.52,6.03-.69,17.25-.85,11.37,11.13,10.38,11.82,27.26,16.51,42.9,28.49,42.62,29.89,45.39,36.35,40.31,36.04,63.63,59.46,21,22.52,15.94,14.28c.49.97.39,3.27.13,4.43l-4.49,19.63c-1.3,5.7-4.09,11.11-7.57,15.76l-15.41,20.58-30.65,37.47-31.72,34.77-28.94,30.02c-20.12,20.87-41.7,39.67-64.64,57.39-16.02,12.38-32.32,23.79-49.61,34.25l-30.25,16.78-41.16,21.98-20.36,9.16-26.28,9.62c-.68-.15-2.32-.36-2.89-.02l-5.73,3.46-22.3-11.27.2-15.47-.12-37.01,1.38-23.44.93-28.14c.34-10.1.73-19.89.08-29.94-.32-5-2-9.41-3.14-14.11l-2.37-9.84-.64-5.11-13.15-5.1c-12.89-5-25.95-8.78-39.36-12.32l-18.15-4.79-35.08-8.6c-15.32-3.76-30.06-7.7-45.58-10.55l-28.96-5.32c-20.48-3.1-40.65-5.16-61.36-6.25-8.92-.47-17.31-.95-26.09-.17s-16.68,1.41-24.81,3.54c-13.22,3.47-30.65,13.78-38.01,25.74-.02,5.3,1.66,11.3,4.68,15.73,9.51,6.87,20.02,11.82,31.32,14.96,10.01,2.78,19.6,5.09,29.97,6.04l51,4.69c21.5,1.98,48.48,5.16,68.12,13.16,11.03,4.5,20.96,10.51,30.87,16.98,4.66,3.05,8.67,6.5,12.34,10.61l15.45,17.29ZM344.48,525.52c-13.43-2.61-34.89-11.51-44.17-20.79l-22.28-22.29c-7.51-7.51-12.12-16.33-13.67-26.84-.9-6.12-.67-11.79,2.04-17.61l12.79-27.51,6.01-10.37c9.63-13.87,31.13-24.51,47.6-28.07l32.26-6.96,28.02-4.21c9.55-1.43,18.69-1,28.37-.7,16.86.52,33.08,2.27,49.79,4.19l30.32,4.69,23.95,4.48,26.52,6.14,44.11,11.06,30.93,8.19c13.96,3.69,27.07,8.58,40.44,13.96l18.82,6.43,17.13,18.89c1.07,4.19,1.21,8.57,1.53,13.1l1.31,18.81c.7,10.1.43,20.33-1.4,30.3-.62,3.36-1.05,6.06-.9,9.47l.85,18.86-1.68,41.91c-.02.41.02,1.82.35,1.66l1-.5,30.11-16.12c21.56-11.55,42.02-24.04,61.81-38.48l47.72-38.43,34.88-33.77,16.7-17.22,24.31-26.36,26.49-30.12c5.9-6.7,11.43-13.05,17.82-19.27l15.2-14.82c.14-.13.67-.66.68-.69.01-.02-.55-.67-.74-.84l-9.86-8.88-11.71-11.86-25.95-25.85-61.99-56.22c-14.89-12.79-30.44-24.04-46.47-35.3l-26.91-18.91-27.12-18.15-37.42-23.22c-.98,23.49-2.4,45.53-5.33,68.16l-5.59,43.02-1.47,19.34c-12.07-3.27-23.64-4.77-35.86-5.95l-15.42-2.46-19.41-2.93-43.79-6.32-30.5-4.46-40.39-5.91-34.26-.83-56.27-2.11h-41.95s-28.37,1.83-28.37,1.83l-27.48,2.49c-9.23.84-18.02,1.89-27.21,3.36l-43.38,6.91-47.53,9.61c-7.74,1.56-14.54,4.62-21.68,7.78-18.37,8.11-43.1,18.76-58.74,30.01l-15.58,11.21c-7.54,6.07-19.36,15-23.18,22.71-12.71,25.68-20.81,53.2-21.27,81.97l-.43,27.31c-.16,9.77,1.01,18.93,2.72,28.44,3.34,18.62,8.38,29.44,17.18,45.72,7.17,13.27,14.32,26.35,24.44,37.61s20.8,20.18,32.27,29.44c16.86,13.61,33.87,26.19,52.29,37.57l27.89,15.27,28.21,13.2c18.45,8.63,37.63,14.29,57.41,19.45,44.82,11.7,89.53,10.59,135.16,3.38,16-4.25,30.69-11.41,43.52-21.87,6.4-5.22,11.53-11.35,16.7-17.71,3.49-10.7,3.4-21.24,2.63-32.42-.95-13.71-4.64-26.36-13.05-37.3l-12.32-7.32c-9.58-5.69-19.44-9.97-30.29-12.76l-30.12-5.85-28.14-2.99-51.11-4.91-17.87-3.47Z"/>
  <path class="cls-1" d="M344.48,525.52l17.87,3.47,51.11,4.91,28.14,2.99,30.12,5.85c10.85,2.79,20.71,7.08,30.29,12.76l12.32,7.32c8.41,10.95,12.11,23.59,13.05,37.3.77,11.17.86,21.72-2.63,32.42-5.17,6.35-10.3,12.49-16.7,17.71-12.83,10.46-27.52,17.62-43.52,21.87-45.63,7.22-90.34,8.32-135.16-3.38-19.78-5.16-38.96-10.82-57.41-19.45l-28.21-13.2-27.89-15.27c-18.42-11.38-35.44-23.96-52.29-37.57-11.47-9.26-22.36-18.41-32.27-29.44s-17.27-24.34-24.44-37.61c-8.8-16.28-13.84-27.09-17.18-45.72-1.71-9.51-2.87-18.67-2.72-28.44l.43-27.31c.46-28.77,8.56-56.29,21.27-81.97,3.82-7.71,15.64-16.64,23.18-22.71l15.58-11.21c15.63-11.25,40.37-21.9,58.74-30.01,7.14-3.15,13.94-6.21,21.68-7.78l47.53-9.61,43.38-6.91c9.19-1.46,17.98-2.52,27.21-3.36l27.48-2.49,28.37-1.82h41.95s56.27,2.1,56.27,2.1l34.26.83,40.39,5.91,30.5,4.46,43.79,6.32,19.41,2.93,15.42,2.46c12.22,1.18,23.78,2.68,35.86,5.95l1.47-19.34,5.59-43.02c2.93-22.63,4.35-44.68,5.33-68.16l37.42,23.22,27.12,18.15,26.91,18.91c16.03,11.26,31.58,22.51,46.47,35.3l61.99,56.22,25.95,25.85,11.71,11.86,9.86,8.88c.19.17.75.82.74.84-.01.02-.55.56-.68.69l-15.2,14.82c-6.39,6.23-11.92,12.57-17.82,19.27l-26.49,30.12-24.31,26.36-16.7,17.22-34.88,33.77-47.72,38.43c-19.79,14.44-40.25,26.93-61.81,38.48l-30.11,16.12-1,.5c-.33.16-.37-1.25-.35-1.66l1.68-41.91-.85-18.86c-.15-3.41.28-6.11.9-9.47,1.83-9.97,2.1-20.2,1.4-30.3l-1.31-18.81c-.31-4.53-.46-8.91-1.53-13.1l-17.13-18.89-18.82-6.43c-13.37-5.38-26.47-10.26-40.44-13.96l-30.93-8.19-44.11-11.06-26.52-6.14-23.95-4.48-30.32-4.69c-16.7-1.92-32.93-3.67-49.79-4.19-9.69-.3-18.82-.73-28.37.7l-28.02,4.21-32.26,6.96c-16.47,3.55-37.97,14.2-47.6,28.07l-6.01,10.37-12.79,27.51c-2.71,5.82-2.94,11.49-2.04,17.61,1.55,10.5,6.16,19.32,13.67,26.84l22.28,22.29c9.27,9.28,30.73,18.18,44.17,20.79Z"/>
</svg>