<?xml version="1.0" encoding="UTF-8"?>
<svg xmlns="http://www.w3.org/2000/svg" viewBox="0 0 97.16 364.34">
  <defs>
    <style>
      .cls-1 {
        fill: #fff;
      }

      .cls-1, .cls-2, .cls-3 {
        stroke: #231f20;
        stroke-miterlimit: 10;
        stroke-width: 5px;
      }

      .cls-2 {
        fill: #231f20;
      }

      .cls-3 {
        fill: none;
      }
    </style>
  </defs>
  <g id="Layer_6" data-name="Layer 6">
    <path class="cls-1" d="M82.42,80.91c-4.06-8.48-9.88-13.6-13.1-16.05-.16-5.34-.32-10.68-.49-16.02-2.39-1.72-9.72-6.53-20.23-6.43-9.99.1-16.96,4.57-19.4,6.31,0,5.55-.02,11.11-.03,16.66-2.86,2.06-8.12,6.44-11.98,13.85-4,7.67-4.49,14.73-4.5,18.28v265.1h73.99V97.78c-.19-3.81-.98-10.03-4.26-16.87Z"/>
    <path class="cls-3" d="M5.32,167.92c5.57,3.86,21.56,13.87,44.36,13.87s38.79-10.01,44.36-13.87"/>
    <line class="cls-3" x1="33.24" y1="172.18" x2="26.27" y2="193.57"/>
    <line class="cls-3" x1="46.94" y1="170.5" x2="61.6" y2="193.57"/>
    <line class="cls-3" x1="49.04" y1="190.69" x2="59.7" y2="167.92"/>
    <line class="cls-3" x1="71.94" y1="166.42" x2="79.15" y2="187.08"/>
    <line class="cls-3" x1="19.79" y1="166.42" x2="20.03" y2="182.88"/>
  </g>
  <g id="Layer_8" data-name="Layer 8">
    <ellipse class="cls-2" cx="37.8" cy="147.66" rx="4.09" ry="7.22"/>
    <ellipse class="cls-2" cx="60.28" cy="147.66" rx="4.09" ry="7.22"/>
  </g>
  <g id="Layer_7" data-name="Layer 7">
    <path class="cls-2" d="M59.7,50.5c-1.27.91-5.11,3.45-10.66,3.45s-9.39-2.53-10.66-3.45c.57-10.8,1.14-21.6,1.71-32.4.56-4.49,3.68-8.01,7.45-8.65,4.65-.79,9.6,2.92,10.47,8.65l1.69,32.4Z"/>
  </g>
</svg>