<?xml version="1.0" encoding="UTF-8"?>
<svg id="Layer_1" data-name="Layer 1" xmlns="http://www.w3.org/2000/svg" viewBox="0 0 1076.18 772.36">
  <defs>
    <style>
      .cls-1 {
        fill: #fefefe;
      }

      .cls-2 {
        fill: #fcfcfc;
      }

      .cls-3 {
        fill: #0e0c0b;
      }
    </style>
  </defs>
  <path class="cls-2" d="M483.73,587.35l.45-4.65,3.91-20.05c2.38-12.17,15.01-32.48,23.58-42.44,4.47-5.19,9.96-9.23,15.8-13.05,8.72-5.69,18.12-9.53,27.69-13.71,6.52-2.85,13-5.12,19.95-6.74l21.64-5.05,20.36-4.8c8.23-1.94,16.12-3.74,24.6-4.43l5.43-.44,33.86-4.72,7.12-.45c11.59-.73,24-2.37,34.68-6.8,7.32-3.04,13.78-6.57,18.77-13.19l-5.74-5.16-12.09-7.58c-5.76-3.62-12.71-4.85-19.48-6.07l-15.16-2.74-10.73-.32c-5.02-.15-9.85-.22-14.85.07l-9.26.55-6.94.38-30.77,3.97-19.6,2.29c-12.11,1.42-23.93,2.81-35.61,6.44l-54.84,17.05c-15.57,4.84-30.09,11.2-44.46,18.76l-25.84,13.6-.41,11.19-.51,16.51-.2,24.95-.43,8.73.04,26.12.04,14.26-.45,14.4-.49,8.99-.48,7.65c-.34,5.29-.81,10.24-2.03,15.56-.69,3.01-3.69,7.93-6.35,9.4-5.17,2.86-13.66,4.99-19.31,4.72l-9.33-.44-12.8-3.28c-7.5-1.92-14.71-3.2-22.06-5.84-12.65-4.54-24.11-10.84-35.59-17.71l-6.04-3.3c-10.87-5.94-21.68-11.16-31.79-18.34l-8.7-5.06c-18.73-8.68-36.4-18.65-53.4-30.38l-4.55-3.14-7.18-5.38-29.48-23.37-4.03-3.62-6.46-6.07-12.35-10.64-20.07-20.12-6.1-6.51-3.1-3.47-23.28-28.45-20.88-27.08-7.39-8.52c-10.98-12.65-21.16-25.63-30.67-39.5l-15.76-23-2.97-4.61c-3.27-5.09-6.83-17.72-5.31-23.93l2.96-12.1c1.05-2.15,2.2-3.76,4.34-4.56,2.91-4.59,6.22-8.84,9.96-12.86l7.66-8.23,15.23-15.74,8.43-8.49,6.03-6.03,19.6-19.56,15.54-14.97,7.66-7.09,6.02-5.47,8.39-7.88,5.17-4.73,4.05-3.58,31.76-25.41,27.37-21.17c9.78-7.56,19.38-14.66,29.63-21.63l46.7-31.74,15.03-9.6,29.58-17.86,23.25-16.97,7.88-5.18c3.49-2.29,6.06-2.78,10.14-2.42l13.42,1.19c2.72.24,3.79.55,5.26,2.89,2.1.48,4.09,1.46,5.66,3.28l4.1,4.74c5.71,6.6,11.04,14.14,11.76,23.04l.7,8.73.43,5.5,1.56,16.44,8.04,78.36c.07.71.37,1.7.68,2.03.38.41,1.76.05,2.43-.3l22.62-.12,6.63-.62,9.24-.59,7.09-.36,8.27-.46,57.19-10.3,29.41-3.9,35.42-3.96,7.63-.62,7.63-.55,7.64-.55,6.54-.52,6.04-.51,10.35-.61,8.14-.41,6.06-.32,17.92-.32h4.95s18.89.35,18.89.35l15.58,1.19,7.56.67,66.34,7.75,16.03,2.09,18.21,3.11,35.3,7.74,18.37,5.59c11.48,3.49,22.94,5.98,33.61,11.55l17.97,9.38,19.21,12.97c14.47,9.77,25.56,22.95,36.69,36.18l7.28,8.65,11.65,16.2c7.5,10.44,13.93,20.99,20.01,32.31,3.86,7.18,7.19,14,9.91,21.71l3.85,10.91c6.78,15.34,11.09,31.08,11.78,47.99.28,6.87.51,13.16,1.78,20.01.51,2.76-.15,6.15-.17,8.91l-.08,9.55c-.02,2.17.2,4.35.19,6.47v5.63s-2.9,23.36-2.9,23.36l-1.2,14.74-2.04,12.81-2.85,9.73c-3.07,10.47-7.66,20.1-12.49,29.8l-5.46,10.94-9.96,17.87c-8.81,15.81-27.46,36.79-41.46,48.52l-9.47,9.12-11.77,10.01-20.95,14.51-24.44,15.29-24.22,13.93-6.4,3.97c-8.01,4.97-15.92,8.71-24.4,12.79-16.89,8.14-33.33,16.21-51.11,22.26l-9.42,3.2c-21.2,7.21-50.72,13.53-72.99,14.69l-11.34.59-22.73-.08-8.4-.45-8.64-.59c-19.8-1.35-39.04-4.5-58.34-9.03l-28.77-6.75-27.64-5.2c-3.93-.74-8.17-1.82-11.69-3.54l-9.88-4.82-11.17-8.42-4.89-3.76-8.17-8.24c-1.6-1.61-3.28-3.39-4.42-5.42-4.18-7.49-8.4-14.79-11.3-22.94-3.2-8.99-5.11-18.06-6.97-27.42l-.48-4.4.05-35.94.58-7.33ZM494.95,575.47c-2.47,15.55-3.31,29.14,1.01,44.49l8.72,30.98c2.92,10.39,8.53,18.95,15.61,26.91,5.06,5.67,10.05,10.98,16.25,15.41,17.29,12.34,33.75,18.57,54.5,22.92l28.87,6.05c26.2,4.63,52.25,7.49,78.85,6.91,15.31-.34,29.8-1.31,44.92-4.17,23.65-4.48,46.59-10.89,68.92-19.98,19.43-7.91,38.16-16.71,56.46-26.89,20.95-11.67,39.96-25.63,58.73-40.43,14.51-11.45,27.87-23.47,40.73-36.68l18.86-19.38c12.1-12.44,22.16-26.12,30.51-41.39l13.56-39.83,7.07-27.76c2.36-9.25,3.56-18.77,3.86-28.39.24-7.84-1.83-15.45-3.81-22.94l-9.72-36.9c-2.08-9.95-2.78-19.68-6.43-29.18l-5.61-14.6c-6.35-14.6-21.26-45.11-30.9-55.21l-12.78-13.4-17.74-15.53c-6.11-5.35-12.23-10-19.49-13.82l-36.71-19.29c-8.96-4.71-17.86-7.78-27.8-9.91l-40.8-8.74-39.93-7.06-29.28-3.92-37.46-3.37c-35.53-3.19-70.57-3.81-106.17-2.35l-33.1,1.36-24.46,1.07c-12.3.54-24.1,1.39-36.3,3.53l-34.41,6.03-34.86,6.57c-12.01,2.26-23.59,3.91-35.9,3.21-1.42-.08-4.08-.53-5.16-1.2l-9.83-6.09c-.54-3.23-4.82-2.57-4.72-6.16l.25-8.74.09-6.77-2.33-34.69-.62-13.67-3.03-28.44.52-6.89.16-17.83c.01-1.56.03-2.88-.75-4.24l-9.13-15.88-6.03-.68-17.25-.86c-8.49,6.8-14.54,15.42-21.76,22.95l-26.92,16.31-43.55,28.92-42.62,29.91c-16.26,11.41-31.47,23.83-46.25,37.15l-66.48,59.92-39.3,37.55c-6.57,6.28-12.17,12.85-17.99,19.5l-14.83,13.19c-1.01.9-1.85,2.6-1.52,4.03l4.79,21.14c2.51,11.08,14.97,26.36,22.72,36.03,10.26,12.8,19.81,25.62,30.89,37.77l31.72,34.77,28.94,30.02c18.31,18.99,37.78,36.27,58.5,52.6,18.04,14.23,36.43,27.41,56.09,39.24l29.91,16.57,41.16,21.97,19.97,9.01,26.34,9.67,2.73-.21,6.22,3.74,22.24-11.22-.12-17.66.11-34.87-1.38-23.44-.81-25.11c-.35-10.99-.94-21.61-.25-32.52.33-5.17,1.99-9.71,3.17-14.57l2.4-9.84.47-5.02,13.67-5.34c12.77-4.99,25.7-8.66,38.98-12.16l18.14-4.78,35.08-8.61c15.17-3.72,29.76-7.64,45.12-10.47l29.41-5.4c20.3-3.07,40.29-5.13,60.81-6.23l26.17-.22c8.51.71,16.99,1.43,25.27,3.58,13.54,3.52,30.06,13.64,38.22,25.67-.44,5.62-1.89,10.65-4.58,15.63-5.54,4.14-11.46,7.17-17.7,10.13l-10.24,3.92c-10.16,2.99-20.14,5.72-30.81,6.72l-58.42,5.47-32.13,4.32c-26.87,4.96-39.36,10.51-61.97,25.21-4.78,3.11-8.9,6.61-12.66,10.82l-15.44,17.29c-7.7,8.62-15.59,23.13-17.44,34.8Z"/>
  <path class="cls-3" d="M494.95,575.47c1.85-11.67,9.75-26.19,17.44-34.8l15.44-17.29c3.76-4.21,7.88-7.71,12.66-10.82,22.61-14.7,35.1-20.25,61.97-25.21l32.13-4.32,58.42-5.47c10.67-1,20.65-3.74,30.81-6.72l10.24-3.92c6.24-2.97,12.16-5.99,17.7-10.13,2.69-4.99,4.14-10.01,4.58-15.63-8.16-12.03-24.68-22.15-38.22-25.67-8.28-2.15-16.76-2.86-25.27-3.58l-26.17.22c-20.52,1.1-40.52,3.15-60.81,6.23l-29.41,5.4c-15.37,2.82-29.95,6.74-45.12,10.47l-35.08,8.61-18.14,4.78c-13.28,3.5-26.21,7.18-38.98,12.16l-13.67,5.34-.47,5.02-2.4,9.84c-1.18,4.86-2.84,9.41-3.17,14.57-.69,10.9-.11,21.52.25,32.52l.81,25.11,1.38,23.44-.11,34.87.12,17.66-22.24,11.22-6.22-3.74-2.73.21-26.34-9.67-19.97-9.01-41.16-21.97-29.91-16.57c-19.66-11.83-38.05-25.01-56.09-39.24-20.72-16.34-40.2-33.62-58.5-52.6l-28.94-30.02-31.72-34.77c-11.08-12.15-20.63-24.97-30.89-37.77-7.75-9.67-20.21-24.95-22.72-36.03l-4.79-21.14c-.32-1.42.51-3.12,1.52-4.03l14.83-13.19c5.82-6.65,11.42-13.22,17.99-19.5l39.3-37.55,66.48-59.92c14.78-13.32,29.99-25.74,46.25-37.15l42.62-29.91,43.55-28.92,26.92-16.31c7.22-7.52,13.26-16.15,21.76-22.95l17.25.86,6.03.68,9.13,15.88c.78,1.36.77,2.69.75,4.24l-.16,17.83-.52,6.89,3.03,28.44.62,13.67,2.33,34.69-.09,6.77-.25,8.74c-.1,3.59,4.19,2.94,4.72,6.16l9.83,6.09c1.09.67,3.75,1.12,5.16,1.2,12.31.7,23.89-.94,35.9-3.21l34.86-6.57,34.41-6.03c12.2-2.14,24-3,36.3-3.53l24.46-1.07,33.1-1.36c35.6-1.46,70.65-.84,106.17,2.35l37.46,3.37,29.28,3.92,39.93,7.06,40.8,8.74c9.94,2.13,18.85,5.2,27.8,9.91l36.71,19.29c7.26,3.81,13.38,8.47,19.49,13.82l17.74,15.53,12.78,13.4c9.64,10.1,24.54,40.61,30.9,55.21l5.61,14.6c3.65,9.5,4.35,19.23,6.43,29.18l9.72,36.9c1.97,7.5,4.05,15.11,3.81,22.94-.3,9.62-1.5,19.15-3.86,28.39l-7.07,27.76-13.56,39.83c-8.36,15.26-18.41,28.95-30.51,41.39l-18.86,19.38c-12.86,13.21-26.21,25.24-40.73,36.68-18.76,14.8-37.77,28.76-58.73,40.43-18.29,10.18-37.03,18.98-56.46,26.89-22.33,9.1-45.26,15.5-68.92,19.98-15.13,2.86-29.61,3.84-44.92,4.17-26.6.58-52.64-2.28-78.85-6.91l-28.87-6.05c-20.75-4.35-37.21-10.58-54.5-22.92-6.2-4.43-11.19-9.73-16.25-15.41-7.09-7.95-12.69-16.52-15.61-26.91l-8.72-30.98c-4.32-15.35-3.48-28.94-1.01-44.49ZM712.83,529.06l-50.65,4.83-23.28,2.35c-11.99,1.21-23.38,3.49-34.99,6.49-10.86,2.81-20.71,7.07-30.3,12.77l-12.32,7.32c-8.4,10.95-12.12,23.59-13.06,37.3-.77,11.17-.85,21.71,2.63,32.42,5.17,6.36,10.3,12.49,16.7,17.71,12.83,10.45,27.52,17.62,43.51,21.87,45.78,7.24,90.66,8.32,135.6-3.49,19.62-5.15,38.66-10.78,56.97-19.34l28.21-13.19,27.89-15.28c18.42-11.38,35.43-23.95,52.29-37.56,11.46-9.26,22.35-18.42,32.27-29.44,10.12-11.26,17.27-24.34,24.44-37.61l11.04-22.93c2.94-7.52,4.71-14.84,6.14-22.79,1.71-9.51,2.87-18.68,2.72-28.44l-.42-26.78c-.45-29.1-8.57-56.94-21.48-82.89-3.17-6.38-16.35-17.54-22.99-22.32l-15.58-11.23-17.28-10.52-41.11-19.32c-7.03-3.3-13.87-6.25-21.58-7.81l-48.43-9.8-42-6.66-21.52-2.96-43.92-3.9c-20.32-1.81-40.1-1.74-60.48-.97l-56.31,2.14-34.23,1.03c-13.56,1.12-26.49,3.66-39.92,5.62l-30.49,4.44-46.2,6.7-22.24,3.36-15.66,2.3c-10.53.8-20.44,2.72-30.84,5.31-1.09-6.59-.84-12.81-1.65-19.28l-5.51-43.54c-2.85-22.47-4.29-44.35-5.25-67.66-13.08,7.2-24.98,14.89-37.1,23l-27.45,18.37-26.6,18.69c-16.02,11.26-31.6,22.49-46.5,35.27-21.38,18.34-42.33,36.62-62.29,56.47l-27.06,26.91-10.28,10.48-10.96,9.96,15.64,15.33c5.6,5.49,10.95,10.69,15.88,16.84,9.19,11.47,18.74,22,28.71,32.81l24.32,26.36,16.69,17.21c11,11.34,21.8,22.28,33.73,32.76,15.83,13.91,31.85,27,48.87,39.46,19.59,14.25,39.76,26.65,61.08,38.08l32.31,17.31c-1.08-15.18-2.46-29.6-1.78-44.41l.81-17.87c.16-3.58-.2-6.41-.86-9.93-1.86-9.96-2.11-20.19-1.41-30.29l1.3-18.8,1.22-12.72,17.43-19.28,18.83-6.42c13.36-5.39,26.47-10.27,40.43-13.96l30.51-8.08,46.17-11.61,22.67-5.25,37.17-6.89c18.63-3.45,37.12-4.77,55.98-6.31l15.34-.69c11.63-.53,22.76.1,34.24,1.89l21.75,3.4,29.56,6.43c16.83,3.66,38.25,13.92,48.24,27.98l6.4,11.04,12.61,27.14c2.7,5.82,2.94,11.49,2.04,17.61-1.55,10.51-6.15,19.33-13.67,26.84l-22.56,22.55c-3.14,3.13-6.79,5.34-10.54,7.56-11.08,6.58-22.89,11.07-35.56,13.47l-16.11,3.04Z"/>
  <path class="cls-1" d="M712.83,529.06l16.11-3.04c12.67-2.39,24.48-6.88,35.56-13.47,3.75-2.23,7.4-4.43,10.54-7.56l22.56-22.55c7.51-7.51,12.12-16.33,13.67-26.84.9-6.12.67-11.79-2.04-17.61l-12.61-27.14-6.4-11.04c-9.98-14.06-31.41-24.32-48.24-27.98l-29.56-6.43-21.75-3.4c-11.48-1.79-22.61-2.42-34.24-1.89l-15.34.69c-18.86,1.54-37.35,2.86-55.98,6.31l-37.17,6.89-22.67,5.25-46.17,11.61-30.51,8.08c-13.97,3.7-27.07,8.57-40.43,13.96l-18.83,6.42-17.43,19.28-1.22,12.72-1.3,18.8c-.7,10.1-.45,20.33,1.41,30.29.66,3.52,1.03,6.35.86,9.93l-.81,17.87c-.67,14.81.7,29.23,1.78,44.41l-32.31-17.31c-21.33-11.43-41.49-23.84-61.08-38.08-17.02-12.46-33.03-25.55-48.87-39.46-11.93-10.48-22.73-21.42-33.73-32.76l-16.69-17.21-24.32-26.36c-9.97-10.81-19.52-21.34-28.71-32.81-4.93-6.15-10.28-11.35-15.88-16.84l-15.64-15.33,10.96-9.96,10.28-10.48,27.06-26.91c19.96-19.85,40.91-38.13,62.29-56.47,14.9-12.78,30.47-24.01,46.5-35.27l26.6-18.69,27.45-18.37c12.12-8.11,24.01-15.8,37.1-23,.96,23.31,2.4,45.19,5.25,67.66l5.51,43.54c.82,6.46.56,12.69,1.65,19.28,10.4-2.59,20.32-4.51,30.84-5.31l15.66-2.3,22.24-3.36,46.2-6.7,30.49-4.44c13.44-1.96,26.37-4.49,39.92-5.62l34.23-1.03,56.31-2.14c20.37-.77,40.16-.83,60.48.97l43.92,3.9,21.52,2.96,42,6.66,48.43,9.8c7.71,1.56,14.55,4.51,21.58,7.81l41.11,19.32,17.28,10.52,15.58,11.23c6.64,4.78,19.81,15.94,22.99,22.32,12.91,25.95,21.03,53.79,21.48,82.89l.42,26.78c.15,9.76-1.01,18.93-2.72,28.44-1.43,7.95-3.19,15.27-6.14,22.79l-11.04,22.93c-7.18,13.27-14.32,26.35-24.44,37.61-9.91,11.02-20.8,20.19-32.27,29.44-16.86,13.61-33.87,26.18-52.29,37.56l-27.89,15.28-28.21,13.19c-18.32,8.56-37.35,14.19-56.97,19.34-44.94,11.81-89.82,10.73-135.6,3.49-15.99-4.25-30.68-11.42-43.51-21.87-6.4-5.22-11.53-11.35-16.7-17.71-3.49-10.7-3.4-21.24-2.63-32.42.94-13.71,4.66-26.36,13.06-37.3l12.32-7.32c9.59-5.7,19.44-9.95,30.3-12.77,11.61-3.01,23-5.29,34.99-6.49l23.28-2.35,50.65-4.83Z"/>
</svg>