<?xml version="1.0" encoding="UTF-8"?>
<svg id="Layer_1" data-name="Layer 1" xmlns="http://www.w3.org/2000/svg" viewBox="0 0 1126.47 556.87">
  <defs>
    <style>
      .cls-1 {
        fill: #050505;
      }

      .cls-2 {
        fill: #010101;
      }

      .cls-3 {
        fill: #030303;
      }

      .cls-4 {
        fill: #f2f2f3;
      }

      .cls-5 {
        fill: #f7f8f8;
      }

      .cls-6 {
        fill: #f2f3f3;
      }

      .cls-7 {
        fill: #020202;
      }

      .cls-8 {
        fill: #f1f1f2;
      }

      .cls-9 {
        fill: #f7f7f7;
      }

      .cls-10 {
        fill: #030404;
      }

      .cls-11 {
        fill: #f3f3f4;
      }

      .cls-12 {
        fill: #fbfbfb;
      }

      .cls-13 {
        fill: #fdfdfd;
      }
    </style>
  </defs>
  <path class="cls-12" d="M1012.52,549.54l-44.73,2.71H162.15c-15.27-2.06-29.24-1.5-44.28-2.64l-12.71-.96-20.52-3.44c-11.98-2.01-22.52-6.64-31.48-14.93l-13.2-12.21c-5.29-4.9-9.53-10.99-12.19-17.87-8.37-21.66-11.82-44.03-13.4-67.2-.36-5.27-1.58-10.51-1.58-16.1V140.58c.89-5.22,1.25-9.31,1.62-14.27,1.73-22.96,5.14-45.44,13.68-66.94,5.96-15.01,31.24-37.67,47.22-41.84,14.62-3.82,27.54-6.09,42.53-6.75l32.74-1.45h827.59s33.92,1.44,33.92,1.44l13.7,1.02,31.41,6.71c11.29,2.41,20.1,11.32,28,19.13l5.93,5.86c18.05,17.83,21.85,57.66,24.42,83.86l1.58,16.1v276.32s-1.62,14.27-1.62,14.27c-2.95,25.77-6.08,64.77-24.38,82.83l-5.93,5.85c-7.91,7.81-16.71,16.71-28,19.13l-31.42,6.73-13.27.97ZM965.23,548.76c12.15-2.97,22.55-2.26,33.75-2.89,18.79.17,36.25-2.84,54.14-9.05,14.45-9.28,29.35-19.54,37.68-35.16,8.92-16.73,12.89-35.8,14.48-54.64l3.62-42.81v-246.94s-3.62-42.81-3.62-42.81c-1.59-18.83-5.56-37.91-14.48-54.64-8.33-15.64-23.23-25.85-37.69-35.18-17.6-5.93-34.78-8.08-53.18-9.03l-33.38-1.71-802.02-.03-34.43,1.78c-17.47.9-35.51,1.79-51.84,9.66-15.14,7.3-29.63,19.64-37.86,34.46-9.3,16.75-12.54,35.91-14.58,54.68-1.58,14.49-3.64,27.97-3.64,42.81v246.94c0,14.84,2.05,28.33,3.64,42.81,2.06,18.77,5.25,37.94,14.57,54.68,8.39,15.07,23.16,27.55,38.59,34.82,17.13,8.07,35.72,8.66,54.02,9.46,11.38.5,21.81-.04,33.18,2.78h799.03Z"/>
  <path class="cls-2" d="M965.23,548.76H166.21c-11.38-2.81-21.8-2.28-33.18-2.77-18.3-.8-36.89-1.4-54.02-9.46-15.43-7.27-30.2-19.75-38.59-34.82-9.32-16.74-12.51-35.91-14.57-54.68-1.59-14.48-3.64-27.97-3.64-42.81v-246.94c0-14.84,2.06-28.32,3.64-42.81,2.04-18.77,5.28-37.93,14.58-54.68,8.23-14.83,22.72-27.16,37.86-34.46,16.33-7.88,34.36-8.76,51.84-9.66l34.43-1.78,802.02.03,33.38,1.71c18.4.94,35.58,3.1,53.18,9.03,14.46,9.33,29.36,19.55,37.69,35.18,8.91,16.73,12.89,35.8,14.48,54.64l3.62,42.81v246.94s-3.62,42.81-3.62,42.81c-1.59,18.83-5.56,37.91-14.48,54.64-8.33,15.63-23.23,25.88-37.68,35.16-17.89,6.2-35.34,9.22-54.14,9.05-11.2.63-21.6-.08-33.75,2.89ZM945.76,529.75l52.81-2.62c10.16-.5,19.85-4.47,29.62-7.16,6.8-1.87,11.4-6.69,16.79-11.16s12.15-8.59,16.32-15.32c10.28-16.59,15.71-36.76,17.44-56.87l3.29-38.21.02-230.7-3.22-38.15c-1.43-16.92-6.05-33.01-12.58-48.41-2.54-5.99-5.13-10.3-9.88-14.64-8.8-8.02-17.44-16.21-28.58-21.04-15.52-6.74-31.88-8.45-48.62-9.07l-31.92-1.18-39.49-.42-147.98-.46-234.68-1.2-235.8-1.05-109.6-.33-45.3,2.35c-5.17.27-10.97,1.38-16.09,2.11-16.4,2.37-28.9,12.16-40.69,22.77-5.49,4.93-9.49,9.65-12.54,16.58-9.29,21.08-13.06,43.38-14.58,66.53-.7,10.74-1.67,20.33-1.66,31.39l.19,219.13c.01,12.16,1.72,23.15,2.86,35.02,2.01,21.07,6.78,41.92,17.19,59.91,4.09,7.07,10.77,11.33,16.5,16.13,6.17,5.17,11.71,10.79,19.72,12.72,10.06,2.42,19.86,6.01,30.13,6.47l28.84,1.3,23.2,2.19,78.73.7,234.59,1.27,235.9,1.11,209.09.3Z"/>
  <path class="cls-13" d="M945.76,529.75l-209.09-.3-235.9-1.11-234.59-1.27-78.73-.7-23.2-2.19-28.84-1.3c-10.27-.46-20.07-4.05-30.13-6.47-8.01-1.93-13.55-7.55-19.72-12.72-5.73-4.8-12.41-9.07-16.5-16.13-10.41-17.98-15.17-38.83-17.19-59.91-1.13-11.87-2.85-22.86-2.86-35.02l-.19-219.13c0-11.06.96-20.65,1.66-31.39,1.52-23.15,5.28-45.45,14.58-66.53,3.06-6.93,7.06-11.65,12.54-16.58,11.79-10.6,24.29-20.4,40.69-22.77,5.11-.74,10.91-1.85,16.09-2.11l45.3-2.35,109.6.33,235.8,1.05,234.68,1.2,147.98.46,39.49.42,31.92,1.18c16.74.62,33.11,2.33,48.62,9.07,11.13,4.83,19.78,13.02,28.58,21.04,4.76,4.34,7.35,8.64,9.88,14.64,6.52,15.39,11.15,31.49,12.58,48.41l3.22,38.15-.02,230.7-3.29,38.21c-1.73,20.11-7.16,40.29-17.44,56.87-4.17,6.73-11.01,10.92-16.32,15.32s-9.99,9.29-16.79,11.16c-9.77,2.69-19.46,6.65-29.62,7.16l-52.81,2.62ZM520.88,204.68c-2.16-2.37-3.53-4.53-4.43-7.11,12.27,2.39,22.54.89,32.59-5.01l13.58-7.96c9.62-5.64,10.64-15.32,11.22-24.97.99-16.27-5.38-28.71-18.62-37.54s-27.43-14.82-44.14-12.86c-20.48-2.58-44.18,8.24-42.74,29.54,2.42,35.79,8.24,53.61,22.76,86.09l6.49,8.24c3.51,4.46,8.66,9.08,14.69,8.97,4.86-.08,11.52-4.45,13.78-8.62,5.22-9.67,2.11-20.8-5.16-28.76ZM684.81,232.57c2.04-4.55,3.29-8.95.28-13.66s-7.75-10.31-12.48-13.81c-10.37-.81-21.6-1.35-30.88,2.76l-15.53,6.88c-1.34-5.28-1.79-9.87-.93-15.05l8.28-49.51c1.99-11.91.28-25.92-7.12-35.19-4.86-6.08-14.9-4.8-21.3-5.24-10.27-.71-16.41,7.25-17.67,17.34-1.91,15.19-3.16,29.72-3.27,45.04-.11,14.65-1.27,28.77.64,43.25.92,6.95,4.66,13.91,7.13,20.33,9.46,6.12,19.44,6.25,30.47,4.89l9.4-1.16c7.82-2.05,14.76-2.39,22.54-.04,6.09,1.84,12.42,1.53,18.58,1s9.11-1.73,11.85-7.84ZM979.07,220.87c11.16-4.62,17.62-12.35,20.32-23.33,4.64-18.83,7.63-28.96-1.76-46.68-10.08-19.03-27.16-36.16-49.36-37.79-17.83-1.31-24.66-3.49-41.88,5.87-3.69,2-6.44,9.53-5.18,13.53l8.63,27.39,11.46,47.36c2.08,8.6,3.75,16.71,7.92,24.31,7.48,4.39,14.86,3.82,22.63.6l27.21-11.27ZM326.32,139.09c-4.74,39.85-14.35,71.75,16.76,100.37,4.84,4.45,9.73,9.77,15.9,11.72,18.41,5.83,36.74,2.38,54.18-4.75,19.19-7.84,34.76-22.67,39.85-43.42,7.47-30.44,10.03-52.8-10.49-77.73-2.53-3.08-6.85-6.07-9.92-8.79-2.3-2.03-9.32-3.95-12.19-2.82-6.38,2.52-11.94,8.06-15.07,13.76-7.33,13.35,3.7,30.72-3.9,40.3-4.71,5.95-14.46,7.85-21.64,6.1-4.74-1.16-8.94-7.26-8.51-12,.75-8.2,2.18-16.62-.21-23.84-3.41-10.29-11.6-15.1-21.86-14.37-4.64.33-8.33,1.15-12.03,4.3-3.16,2.68-9.67,6.56-10.88,11.18ZM781.59,191.4l4.7-30.11c-1.49-8.94-4.51-15.4-9.37-22.18-3.33-4.65-6.27-9.09-10.79-12.5-18.15-13.69-42.56-12.88-62.93-2.81-8.13,4.02-16.46,8.79-20.63,17.24-9.53,19.36-5.18,40.88,8.09,57.52,7.8,9.78,17.66,18.53,29.41,23.4,18.93,7.86,57.96-7.77,61.51-30.57ZM854.29,202.75c6.44,3.67,10.06,8.24,9.53,15.87-.51,7.32,2.07,16.82,10.07,19.72,5.67,2.05,12.42-.62,18.32-2.32,9.08-21.72,7.46-30.46,4.05-51.04-2.67-16.16-9.61-30.03-20.24-42.25-13.19-15.16-17-15.78-36.16-13.24-14.27,1.89-26.37,8.38-33.9,20.69-16.56,27.07-27.67,61.06-4.36,85.49l4.17,4.37,11.88-.9c6.03-.46,11.46-2.52,13.61-8.59s.77-12.94,1.47-19.06c1.15-10.06,13.73-13.19,21.55-8.73ZM178.97,354.21c6.91,1.9,14.65,3.9,21.44.93,7.2-3.15,9.5-10.62,11.47-17.66,2.13-7.64,0-15.47-.92-23.37l-3.98-34.47c-1.47-12.7.64-25.07,3.98-37.57.44-1.63,1.18-3.58,1.92-4.44,3.34-3.93,29.3,17.28,41.47-2.32,1.53-2.47,6.87-6.92,6.38-9.73l-1.91-11.17-13.46-13.76-8.34-8.69-6.57-7.51-6.07-7.72-7.59-11.1-6.27-7.12c-9.17-8.34-22.92-5.87-31.53,1.87l-8.58,7.71-8.23,7.5-6.96,7.28-8.88,8.33-7,6.06c-3.21,2.78-6.56,7.55-9.62,10.74-4.12,4.29-4.38,8.41-2.56,13.88,1.61,4.84,3.66,8.59,9.2,10.85,13.24,5.39,20.75,5.14,34.72,4.97l.76,13.56c.5,8.85.21,17.76-1.36,26.67l-4.69,26.53-2.95,10.92c-4.9,18.16-2.05,33.86,16.12,38.85ZM404.06,447.21l14.55-11.97c.39-11.86-.94-22.34-4.06-33.71-4.15-15.08-7.44-29.77-10.25-45.22-2.65-14.6-6.48-28.44-12.18-41.92l-14.29-7.82-16.56,9.43c-3.69,13.29-3.61,25.75-3.36,39.38.42,23.18,4.12,45.55,14.32,66.56-.41,7.24,2.41,13.29,8.15,17.18,4.49,8.61,17.93,12.81,23.68,8.08ZM771.04,399.61c.3,7.63,4.31,11.09,11.48,12.4,6.64,1.21,13.82.92,17.13-6.99,3.91,5.26,2.17,11.41-2.11,16.58-6.71,8.1-19.29,8.1-27.82,1.87-5.74-4.2-12.38-8.14-14.82-15.34-1.74-5.15-1.33-13.84,1.66-18.65s8.65-10.2,13.26-12.97c11.77-3.58,22.98-3.08,35.18-3.81,6.61-.4,14.67-6.74,15.97-13.52.91-4.75-.33-12.89-2.22-17.1-5.66-7.96-14.16-12.3-22.66-16.72-11.63-6.05-24.88-10.36-38.39-8.27-12.51,1.93-25.08,8.66-33.15,18.41-13.69,16.54-12.39,38.7-11.29,59.61.89,16.82,4.12,34.23,19.47,42.06l21.5,10.97c8.17,4.17,19.36,5.5,28.64,4.44,13.94-1.58,26.2-8.28,37.52-15.09,6.5-8.89,7.35-18.11,5.37-28.4-1.34-6.95-3.42-12.76-9.66-17.32-3.7-2.71-9.29-6.33-14.12-7.26-8.09-1.56-17.71-.61-24.51,2.27-6.23,2.64-6.63,7.84-6.43,12.84ZM674.29,442.81l8.83.18,13.78-9.09c12.07-26.87,6.17-73.69-14.54-93.07-9.5-8.89-22.74-13.54-34.4-18.68-6.37-2.81-13.39-2.42-19.76-.83-18.17,12.98-31.44,30.86-38.32,52.14-.34,14.13,1.33,27.32,3.4,41.36.5,6.29-.04,14.06,3.87,19.3,4.11,5.51,12.22,9.42,19.18,9.33,5.37-.07,12.2-5.58,13.27-10.45,2.39-10.96,9.09-19.82,20.47-21.49,4.5-.66,8.19,2.24,9.8,6.15,5.11,12.36,0,24.87,14.42,25.16ZM912.53,410.27c-5.94,3.6-9.69,8.21-16.1,8.2s-12.28-1.88-14.95-6.72c-2.95-5.36-4.1-10.75.77-16.52l18.71,2.26c13.45,1.62,35.71-3.02,42.8-11.62,5.3-6.44,8.72-15.35,11.34-22.97,4.88-14.2-9.48-37.53-23.16-39.42l-21.44-2.96c-21.11-2.91-42.38,8.17-54.65,26.21-17.35,25.52-17.05,41.7-3.72,68.12,6.01,11.92,14.41,21.42,28.33,24.05,18.12,3.42,54.51,7.85,61.35-5.12l8.18-15.51-6.42-12.73-13.94-.29c-4.9-.1-12.89,2.47-17.11,5.03ZM524.53,393.81l6.39-14.46c.59-1.33,4.62-1.9,5.74-1.17,6.07,3.98,5.99,11.54,2.49,19.44-4.28,9.64-7.17,19.3-3.36,29.81,1.94,5.34,9.48,10.51,15.54,8.91,4.59-1.22,8.79-4.16,13.11-6.76,5.48-18.3,9.67-36.83,8.54-56.2-.66-11.24-6.08-22.21-11.66-31.77-18.94-16.9-37.06-11.78-58.61.76-18.85-12.15-34.92-27.53-55.25-15.41-3.31,1.98-10.17,3.69-11.31,7.98-5.93,22.25-2.34,42.26,1.11,64.68,1.5,9.71,1.87,19.79,8.05,28.02,6.58,8.77,23.48,14.3,30.42,8.3,14.3-12.35-11.31-22.81-9-43.97.32-2.9,3.94-7.82,6.61-9.14,3.66-1.82,8.88-.2,11.35,2.27,5.93,5.95.68,18.43,9.43,23.08,5.04,2.68,9.46,2.66,14.3.42,6.83-3.16,12.71-7.1,16.11-14.8ZM266.05,397.48l2.33-13.83c-1.25-2.23-5.09-5.68-7.34-6.2l-17.01-.39-37.53-.92-30.3-1.14c-18.71-.7-36.76.08-55.32,2.92-.85,4.3-1.71,8.67-1.55,12.59,1.3,3.27,7.49,9.34,11.07,9.15,18.3-.99,34.44.04,52.34.65l72.41,2.46c3.09.1,10.38-2.25,10.89-5.28Z"/>
  <path class="cls-7" d="M326.32,139.09c1.21-4.62,7.72-8.49,10.88-11.18,3.7-3.15,7.39-3.97,12.03-4.3,10.26-.73,18.45,4.07,21.86,14.37,2.39,7.23.96,15.65.21,23.84-.44,4.74,3.77,10.84,8.51,12,7.18,1.75,16.93-.15,21.64-6.1,7.6-9.59-3.43-26.96,3.9-40.3,3.13-5.7,8.69-11.24,15.07-13.76,2.87-1.13,9.89.79,12.19,2.82,3.07,2.72,7.38,5.71,9.92,8.79,20.52,24.93,17.95,47.29,10.49,77.73-5.09,20.76-20.66,35.58-39.85,43.42-17.44,7.13-35.77,10.58-54.18,4.75-6.18-1.96-11.06-7.27-15.9-11.72-31.12-28.62-21.51-60.52-16.76-100.37Z"/>
  <path class="cls-3" d="M178.97,354.21c-18.17-4.99-21.02-20.7-16.12-38.85l2.95-10.92,4.69-26.53c1.58-8.91,1.86-17.82,1.36-26.67l-.76-13.56c-13.97.17-21.48.42-34.72-4.97-5.54-2.25-7.59-6-9.2-10.85-1.82-5.47-1.56-9.59,2.56-13.88,3.06-3.19,6.41-7.96,9.62-10.74l7-6.06,8.88-8.33,6.96-7.28,8.23-7.5,8.58-7.71c8.6-7.73,22.36-10.2,31.53-1.87l6.27,7.12,7.59,11.1,6.07,7.72,6.57,7.51,8.34,8.69,13.46,13.76,1.91,11.17c.48,2.82-4.85,7.27-6.38,9.73-12.16,19.6-38.13-1.61-41.47,2.32-.74.87-1.48,2.81-1.92,4.44-3.34,12.5-5.45,24.87-3.98,37.57l3.98,34.47c.91,7.91,3.05,15.73.92,23.37-1.96,7.04-4.27,14.51-11.47,17.66-6.79,2.97-14.53.97-21.44-.93Z"/>
  <path class="cls-3" d="M524.53,393.81c-3.4,7.7-9.28,11.64-16.11,14.8-4.84,2.24-9.26,2.26-14.3-.42-8.75-4.65-3.5-17.13-9.43-23.08-2.47-2.48-7.69-4.1-11.35-2.27-2.67,1.33-6.3,6.24-6.61,9.14-2.31,21.17,23.3,31.63,9,43.97-6.95,6-23.84.47-30.42-8.3-6.18-8.24-6.55-18.31-8.05-28.02-3.46-22.42-7.05-42.43-1.11-64.68,1.14-4.29,8-6.01,11.31-7.98,20.34-12.13,36.4,3.26,55.25,15.41,21.55-12.54,39.68-17.66,58.61-.76,5.57,9.56,11,20.54,11.66,31.77,1.13,19.37-3.05,37.9-8.54,56.2-4.32,2.6-8.52,5.54-13.11,6.76-6.06,1.6-13.6-3.56-15.54-8.91-3.81-10.52-.92-20.17,3.36-29.81,3.5-7.9,3.58-15.45-2.49-19.44-1.11-.73-5.15-.16-5.74,1.17l-6.39,14.46Z"/>
  <path class="cls-3" d="M771.04,399.61c-.19-4.99.21-10.2,6.43-12.84,6.8-2.88,16.42-3.83,24.51-2.27,4.83.93,10.42,4.55,14.12,7.26,6.24,4.56,8.32,10.36,9.66,17.32,1.98,10.29,1.13,19.51-5.37,28.4-11.32,6.81-23.59,13.51-37.52,15.09-9.28,1.05-20.47-.28-28.64-4.44l-21.5-10.97c-15.34-7.83-18.58-25.24-19.47-42.06-1.1-20.91-2.4-43.07,11.29-59.61,8.07-9.75,20.64-16.48,33.15-18.41,13.5-2.09,26.75,2.22,38.39,8.27,8.51,4.42,17.01,8.76,22.66,16.72,1.89,4.21,3.14,12.35,2.22,17.1-1.31,6.78-9.36,13.13-15.97,13.52-12.19.73-23.41.23-35.18,3.81-4.61,2.77-10.24,8.1-13.26,12.97s-3.41,13.5-1.66,18.65c2.44,7.2,9.08,11.14,14.82,15.34,8.53,6.23,21.11,6.24,27.82-1.87,4.28-5.18,6.02-11.32,2.11-16.58-3.31,7.92-10.49,8.2-17.13,6.99-7.17-1.3-11.18-4.76-11.48-12.4Z"/>
  <path class="cls-3" d="M674.29,442.81c-14.41-.29-9.31-12.8-14.42-25.16-1.61-3.9-5.31-6.8-9.8-6.15-11.38,1.67-18.08,10.53-20.47,21.49-1.07,4.88-7.89,10.39-13.27,10.45-6.96.09-15.07-3.82-19.18-9.33s-3.37-13.01-3.87-19.3c-2.07-14.04-3.74-27.23-3.4-41.36,6.88-21.29,20.14-39.16,38.32-52.14,6.37-1.59,13.39-1.98,19.76.83,11.66,5.14,24.9,9.79,34.4,18.68,20.7,19.37,26.61,66.19,14.54,93.07l-13.78,9.09-8.83-.18ZM654.09,394.94c3.74-4.13,2.79-9.42-.06-12.48-3.56-3.82-7.01-3.66-12.17-2.15-4.29,1.25-8.26,5.13-7.51,10.9.46,3.01,5.64,6.23,8.72,6.84,3.31.66,8.81-.66,11.03-3.11Z"/>
  <path class="cls-3" d="M912.53,410.27c4.22-2.55,12.21-5.13,17.11-5.03l13.94.29,6.42,12.73-8.18,15.51c-6.83,12.96-43.22,8.54-61.35,5.12-13.92-2.63-22.32-12.13-28.33-24.05-13.32-26.42-13.62-42.6,3.72-68.12,12.27-18.04,33.54-29.13,54.65-26.21l21.44,2.96c13.68,1.89,28.04,25.22,23.16,39.42-2.62,7.62-6.03,16.53-11.34,22.97-7.09,8.6-29.35,13.25-42.8,11.62l-18.71-2.26c-4.87,5.77-3.72,11.15-.77,16.52,2.67,4.84,8.65,6.71,14.95,6.72s10.15-4.6,16.1-8.2ZM915.57,365.39c-3.73-3.36-9.25-3.48-13.46-.6-3.34,2.29-4.63,9.3-2.63,12.59,2.71,4.45,7.59,6.17,12.87,4.81,4.08-1.05,6.85-3.8,7.83-7.93.72-3.03-1.7-6.23-4.62-8.86Z"/>
  <path class="cls-3" d="M520.88,204.68c7.27,7.96,10.38,19.09,5.16,28.76-2.26,4.18-8.91,8.54-13.78,8.62-6.03.1-11.18-4.51-14.69-8.97l-6.49-8.24c-14.52-32.47-20.34-50.3-22.76-86.09-1.44-21.31,22.26-32.13,42.74-29.54,16.71-1.96,31.03,4.11,44.14,12.86s19.6,21.27,18.62,37.54c-.58,9.65-1.6,19.32-11.22,24.97l-13.58,7.96c-10.06,5.9-20.32,7.4-32.59,5.01.91,2.58,2.27,4.75,4.43,7.11ZM540.01,169.37c1.63-4.64,1.03-9.96-1.96-12.83-2.73-2.62-7.59-4.19-11.24-2.72-6.45,2.59-9.49,6.58-8.44,14.24.52,3.79,6.11,6.76,9.8,7.35,4.57.74,10.07-1.01,11.84-6.05Z"/>
  <path class="cls-3" d="M854.29,202.75c-7.82-4.46-20.4-1.33-21.55,8.73-.7,6.12.59,13.25-1.47,19.06s-7.57,8.14-13.61,8.59l-11.88.9-4.17-4.37c-23.31-24.43-12.2-58.42,4.36-85.49,7.53-12.31,19.63-18.8,33.9-20.69,19.16-2.53,22.97-1.92,36.16,13.24,10.63,12.22,17.57,26.09,20.24,42.25,3.41,20.58,5.03,29.32-4.05,51.04-5.9,1.7-12.65,4.37-18.32,2.32-8.01-2.9-10.58-12.4-10.07-19.72.53-7.63-3.09-12.2-9.53-15.87ZM856.69,172.01c-2.33-2.18-5.67-4.99-8.38-6.39s-10.04.77-11.27,3.49c-3.24,7.15-.2,15.83,5.43,16.27,7,.55,15.37-5.04,14.22-13.37Z"/>
  <path class="cls-3" d="M781.59,191.4c-3.56,22.8-42.59,38.43-61.51,30.57-11.75-4.88-21.61-13.62-29.41-23.4-13.27-16.64-17.62-38.17-8.09-57.52,4.16-8.45,12.5-13.23,20.63-17.24,20.38-10.07,44.78-10.88,62.93,2.81,4.52,3.41,7.46,7.86,10.79,12.5,4.86,6.78,7.88,13.24,9.37,22.18l-4.7,30.11ZM747.1,192.12c4.34-8.06,2.43-15.61-4.54-21.39-2.3-1.91-5-3.61-7.89-4.17-8.8-1.7-13.07,1.94-17.61,7.8-4.9,6.31-5.25,10.99-1.74,17.92,3.11,6.13,6.07,8.3,13.18,9.3,8.29,1.16,14.2-1.27,18.61-9.46Z"/>
  <path class="cls-10" d="M979.07,220.87l-27.21,11.27c-7.77,3.22-15.16,3.79-22.63-.6-4.17-7.61-5.84-15.72-7.92-24.31l-11.46-47.36-8.63-27.39c-1.26-4,1.49-11.53,5.18-13.53,17.22-9.36,24.05-7.18,41.88-5.87,22.2,1.63,39.27,18.76,49.36,37.79,9.39,17.73,6.4,27.86,1.76,46.68-2.71,10.98-9.16,18.71-20.32,23.33ZM955.42,201.02c4.48,3.16,11.27-.19,14.27-2.88,8.18-4.19,12.08-12.69,11.46-21.41-6.36-11.31-19.16-14.96-31.49-11.19-2.3,4.25-5.61,9.55-5.29,14.72.46,7.41,4.84,16.38,11.05,20.76Z"/>
  <path class="cls-10" d="M684.81,232.57c-2.74,6.12-5.56,7.3-11.85,7.84s-12.5.84-18.58-1c-7.79-2.35-14.72-2-22.54.04l-9.4,1.16c-11.03,1.36-21.01,1.23-30.47-4.89-2.46-6.43-6.21-13.38-7.13-20.33-1.91-14.48-.75-28.6-.64-43.25.11-15.32,1.36-29.86,3.27-45.04,1.27-10.09,7.4-18.04,17.67-17.34,6.4.44,16.44-.84,21.3,5.24,7.4,9.26,9.11,23.27,7.12,35.19l-8.28,49.51c-.87,5.17-.42,9.76.93,15.05l15.53-6.88c9.28-4.11,20.51-3.57,30.88-2.76,4.73,3.5,9.37,8.94,12.48,13.81s1.76,9.11-.28,13.66Z"/>
  <path class="cls-3" d="M404.06,447.21c-5.75,4.73-19.19.52-23.68-8.08-5.74-3.88-8.56-9.94-8.15-17.18-10.19-21.01-13.9-43.37-14.32-66.56-.24-13.63-.33-26.09,3.36-39.38l16.56-9.43,14.29,7.82c5.7,13.47,9.53,27.32,12.18,41.92,2.81,15.44,6.1,30.13,10.25,45.22,3.12,11.36,4.45,21.84,4.06,33.71l-14.55,11.97Z"/>
  <path class="cls-1" d="M266.05,397.48c-.51,3.03-7.81,5.39-10.89,5.28l-72.41-2.46c-17.9-.61-34.04-1.64-52.34-.65-3.58.19-9.77-5.88-11.07-9.15-.16-3.92.7-8.28,1.55-12.59,18.56-2.84,36.61-3.62,55.32-2.92l30.3,1.14,37.53.92,17.01.39c2.25.52,6.08,3.97,7.34,6.2l-2.33,13.83Z"/>
  <path class="cls-8" d="M654.09,394.94c-2.22,2.45-7.72,3.77-11.03,3.11-3.08-.61-8.26-3.83-8.72-6.84-.75-5.77,3.23-9.64,7.51-10.9,5.16-1.51,8.61-1.67,12.17,2.15,2.85,3.07,3.8,8.35.06,12.48Z"/>
  <path class="cls-11" d="M915.57,365.39c2.92,2.63,5.34,5.83,4.62,8.86-.98,4.13-3.75,6.89-7.83,7.93-5.28,1.35-10.16-.36-12.87-4.81-2-3.29-.71-10.3,2.63-12.59,4.2-2.88,9.72-2.75,13.46.6Z"/>
  <path class="cls-4" d="M540.01,169.37c-1.77,5.04-7.27,6.78-11.84,6.05-3.7-.59-9.28-3.56-9.8-7.35-1.05-7.66,2-11.65,8.44-14.24,3.66-1.47,8.52.1,11.24,2.72,2.99,2.86,3.58,8.18,1.96,12.83Z"/>
  <path class="cls-6" d="M856.69,172.01c1.15,8.32-7.22,13.92-14.22,13.37-5.63-.44-8.67-9.12-5.43-16.27,1.23-2.72,8.6-4.86,11.27-3.49s6.05,4.21,8.38,6.39Z"/>
  <path class="cls-9" d="M747.1,192.12c-4.42,8.19-10.33,10.63-18.61,9.46-7.1-1-10.07-3.17-13.18-9.3-3.51-6.93-3.15-11.61,1.74-17.92,4.55-5.86,8.81-9.51,17.61-7.8,2.89.56,5.59,2.26,7.89,4.17,6.97,5.78,8.89,13.33,4.54,21.39Z"/>
  <path class="cls-5" d="M955.42,201.02c-6.21-4.38-10.6-13.35-11.05-20.76-.32-5.17,2.99-10.47,5.29-14.72,12.33-3.76,25.13-.12,31.49,11.19.62,8.72-3.28,17.22-11.46,21.41-3,2.68-9.79,6.03-14.27,2.88Z"/>
</svg>