<?xml version="1.0" encoding="UTF-8"?><svg id="_01" xmlns="http://www.w3.org/2000/svg" viewBox="0 0 3050 1714"><defs><style>.cls-1{fill:#5dfdfe;}.cls-2{fill:#fe3465;}.cls-3{stroke:#5dfdfe;}.cls-3,.cls-4,.cls-5,.cls-6,.cls-7,.cls-8,.cls-9,.cls-10{stroke-miterlimit:10;}.cls-3,.cls-5,.cls-8{fill:none;}.cls-3,.cls-10{stroke-width:44px;}.cls-11,.cls-10{fill:#c4f200;}.cls-4{fill:#fd4c94;stroke:#fd4c94;}.cls-4,.cls-9{stroke-width:6px;}.cls-5{stroke-width:43px;}.cls-5,.cls-6{stroke:#44c4f5;}.cls-6{fill:#44c4f5;stroke-width:25px;}.cls-7{fill:#5d62fe;stroke:#5d62fe;stroke-width:11px;}.cls-8{stroke-width:10px;}.cls-8,.cls-9{stroke:#9980f5;}.cls-9{fill:#9980f5;}.cls-10{stroke:#c4f200;}</style></defs><rect class="cls-10" x="2412.81" y="-228.23" width="75.72" height="855.52" rx="37.86" ry="37.86" transform="translate(1087.99 -1847.1) rotate(51.69)"/><rect class="cls-10" x="2194.93" y="-220.05" width="75.72" height="855.52" rx="37.86" ry="37.86" transform="translate(1726.53 -1976.83) rotate(71.64)"/><rect class="cls-9" x="2450.51" y="24.4" width="167.7" height="571.27" rx="83.85" ry="83.85" transform="translate(295.59 -917.56) rotate(21.76)"/><rect class="cls-9" x="2587.71" y="226.34" width="167.7" height="571.27" rx="83.85" ry="83.85" transform="translate(380.24 -954.04) rotate(21.76)"/><path class="cls-2" d="M791.86-19.92c.94,16.17,62.3,33.58,103.01,38,42.72,4.64,80.27-3.11,109.05-12.8-6.54,14.44,6.25,30,18.74,39.76,41.99,32.84,93.61,53.22,146.71,57.9,36.72,3.24,79.71-4.37,98.01-36.36,96.55,80.74,225.27,121.87,350.75,112.06,18.54-1.45,37.13-3.96,55.65-2.32,17.42,1.54,34.43,6.74,51.9,7.35,23.79.83,47.79-7.22,66.26-22.25,35.71,19.61,82.01,18.24,116.5-3.45,14.98,20.74,43.54,30.55,68.1,23.41v2.34c30.14,30.02,77.94,30.34,120.44,28.71,13.37-.51,28.99-2.3,35.8-13.82l-3.22,1.61c182.16,159.7,440.57,228.19,677.91,179.69,31.86-6.51,63.94-15.05,96.38-12.78s66.25,17.85,80.11,47.27l-7.69,1.62c-34.92,56.92-23.59,137.92,25.62,183.07-38.09,9.89-55.33,57.83-45.74,95.99s37.96,68.34,65.28,96.67c15.5,16.08,31,32.15,46.51,48.23,115.26-290.91,109.96-525.83,95.38-656.23-14.11-126.32-28.4-240.25-113.34-319.36-140.7-131.03-382.04-79.66-502.96-56.03C1646.89-15.69,788.32-80.77,791.86-19.92Z"/><path class="cls-1" d="M766.86-19.92c1.66,17.18,12.72,28.47,27.54,36.19,14.15,7.36,29.62,12.49,44.99,16.59,35.75,9.55,73.31,14.27,110.19,9.85,20.8-2.49,41.1-6.68,60.98-13.32-10.25-10.25-20.5-20.5-30.75-30.75-5.94,14.49-1.55,32.47,7.3,44.84s19.61,21.04,31.78,29.79c20.93,15.04,43.89,26.72,67.9,36.02s48.71,14.74,74.12,17.78c21.64,2.59,43.83,2,65.06-3.31,25.77-6.45,49.36-21.34,63-44.55l-39.26,5.06c57.91,48.25,125.71,83.69,198.6,103.17,36.2,9.68,73.69,15.41,111.12,17.13,17.91.82,35.87.65,53.76-.56,20.47-1.38,41-4.55,61.54-2.59,1.24.12,2.48.28,3.72.41,3.21.34-4.99-.8-.15.02,3.08.53,6.17,1.04,9.24,1.6,5.53,1.01,11.06,2.05,16.63,2.89,12.16,1.82,24.18,3.12,36.45,1.72,25.96-2.96,48.65-12.66,69.02-28.94-10.1,1.3-20.2,2.61-30.3,3.91,43.85,23.65,99.15,22.88,141.74-3.45-11.4-2.99-22.8-5.98-34.2-8.97,11.68,15.73,26.19,26.81,44.72,33.41,16.31,5.81,34.99,6.09,51.62,1.49-10.55-8.04-21.1-16.07-31.65-24.11,0,5.16.77,10.44,3.41,14.96,2.42,4.14,6.28,7.51,9.98,10.52,6,4.88,12.17,9.49,19.01,13.12,12.28,6.52,25.66,11.12,39.32,13.67,26.39,4.94,54.5,5.77,81.24,3.31,20.01-1.84,38.57-7.89,49.88-25.73,5.7-8.99,4-23.04-3.91-30.3-8.58-7.88-19.96-9.08-30.3-3.91l-3.22,1.61c-13.83,6.92-16.71,29.07-5.06,39.26,45.93,40.18,96.37,75.24,150.24,103.95,53.84,28.69,111.05,51.58,169.83,67.9,58.87,16.35,119.76,26.16,180.77,29.38,61.08,3.22,122.41-.83,182.62-11.52,16.36-2.91,32.56-6.6,48.84-9.92,4.39-.89,8.79-1.75,13.2-2.54,1.89-.34,3.77-.66,5.67-.97.94-.15,7.11-.36,7.56-1.14-.14.25-6.18.72-.97.17.95-.1,1.89-.21,2.84-.31,2.21-.23,4.42-.43,6.64-.6,4.43-.33,8.87-.52,13.3-.53s8.59.13,12.87.48c1.43.12,2.88.39,4.3.43-.33,0-6.51-1.01-2.34-.31.95.16,1.91.31,2.86.48,6.69,1.19,13.28,2.95,19.66,5.29,1.08.4,6.29,2.48,2.4.89s1.48.76,2.26,1.15c3,1.49,5.92,3.12,8.75,4.91,1.4.89,2.78,1.82,4.13,2.78,4.49,3.21-3.12-2.75-.02-.02,2.47,2.17,4.9,4.36,7.14,6.77,1.12,1.2,2.14,2.48,3.21,3.72,1.69,1.95-1.81-2.41-1.77-2.28.18.62,1.31,1.86,1.61,2.31,1.84,2.76,3.44,5.66,4.89,8.65l14.94-36.72-5.7,1.2c-7.78,1.64-13.51,6.42-17.66,13.11-4.8,7.75-8.41,16.27-11.79,24.7-6.12,15.25-9.16,31.49-10.58,47.82-2.84,32.87,4.56,66.58,19.51,95.86,8.3,16.26,19.73,31.37,33.11,43.78,3.68-13.93,7.35-27.86,11.03-41.78-43.13,11.73-66.87,56.36-66.7,98.9.2,48.28,31.22,88.79,62.68,122.41,19.39,20.72,39.33,40.94,59.03,61.36,6.16,6.38,15.84,8.76,24.32,6.43,9.11-2.51,14.15-9.09,17.46-17.46,27.57-69.72,50.34-141.34,67.33-214.37,14.69-63.14,25.07-127.33,31.03-191.89,4.73-51.21,6.48-102.7,5.05-154.11-1.22-43.68-5.24-87.05-10.31-130.43-7.46-63.84-15.66-129.07-39.11-189.36-11.24-28.91-25.25-56.58-44.13-81.28-19.88-26.02-42.97-48.3-69.88-67.02-46.46-32.32-102.06-50.57-157.76-58.51-56.13-8-112.66-7.62-169-1.94-49.05,4.94-97.62,13.39-145.97,22.84-72.17,14.11-144.5,27.23-217.11,38.85-39.15,6.27-78.37,12.16-117.63,17.71-9.88,1.4-19.76,2.77-29.65,4.12-4.45.61-8.9,1.23-13.35,1.81,6.81-.89-1.53.2-2.88.38-2.54.34-5.07.67-7.61,1.01-19.24,2.54-38.49,5.01-57.75,7.39-74.97,9.28-150.09,17.38-225.3,24.46-71.12,6.69-142.33,12.46-213.59,17.45-66.11,4.63-132.27,8.57-198.46,11.98-60.17,3.09-120.37,5.73-180.58,8.06-52.59,2.04-105.19,3.84-157.79,5.62-44.12,1.49-88.24,2.96-132.34,4.76-34.5,1.41-69.02,2.97-103.46,5.43-25.85,1.85-51.79,4.1-77.36,8.45-16.13,2.75-33.83,6.43-46.47,17.54-6.78,5.96-11.56,15.31-11.12,24.51.62,13.04,11.05,25.62,25,25,13.01-.58,25.67-11.01,25-25-.2-4.23-1.63,7.98-.67,4.57.81-2.87-3.95,7.78-1.6,4,1.13-1.83-5.66,6.7-2.25,3.12,3.23-3.38-6.73,4.42-2.76,2.13.92-.53,1.81-1.1,2.76-1.59.53-.27,1.07-.5,1.6-.77,3.68-1.85-6.93,2.72-3.99,1.67s5.7-2.04,8.64-2.86c7.78-2.16,15.75-3.6,23.71-4.85,2.51-.39,5.02-.75,7.54-1.1,3.57-.51-7.54.99-4.35.58.61-.08,1.21-.16,1.82-.24,1.42-.18,2.84-.36,4.26-.53,5.76-.7,11.52-1.32,17.29-1.88,29.89-2.93,59.9-4.61,89.9-6.09,39.7-1.96,79.43-3.4,119.15-4.79,48.68-1.7,97.37-3.29,146.05-5.02,56.4-2,112.8-4.19,169.18-6.72,62.73-2.82,125.45-6.07,188.13-9.88,68.19-4.14,136.35-8.94,204.44-14.53,72.87-5.98,145.67-12.85,218.36-20.76,77.76-8.46,155.39-18.14,232.85-29.07,78.06-11.01,155.93-23.4,233.51-37.36,54.72-9.85,109.13-21.52,163.97-30.7,11.92-2,23.87-3.85,35.85-5.53,1.44-.2,2.88-.4,4.32-.6,3.97-.55-2.86.38-2.92.39.83-.13,1.66-.22,2.49-.33,3.14-.41,6.28-.81,9.42-1.19,6.59-.81,13.19-1.55,19.8-2.23,26.45-2.72,53.03-4.38,79.63-4.53,13.8-.08,27.6.25,41.38,1.07,6.79.4,13.57.93,20.34,1.58,3.16.3,6.31.64,9.47,1,1.58.18,3.15.37,4.72.56.9.11,1.8.23,2.7.34,4.97.62-4.9-.7-1.93-.26,26.99,3.99,53.62,9.79,79.39,18.87,2.96,1.04,5.9,2.12,8.83,3.25,1.67.64,3.34,1.3,5,1.96.62.25,1.25.5,1.87.76,3.76,1.54-.18-.03-1.63-.71,6.1,2.84,12.27,5.45,18.28,8.48,12.07,6.08,23.74,12.96,34.86,20.66,2.81,1.94,5.58,3.94,8.31,5.98.73.55,1.46,1.1,2.19,1.65,2.15,1.61-2.59-2.02-2.34-1.81,1.58,1.33,3.24,2.57,4.84,3.88,5.46,4.47,10.74,9.15,15.83,14.03,5.39,5.16,10.57,10.54,15.51,16.13,2.43,2.75,4.8,5.54,7.12,8.39,1.07,1.32,2.12,2.66,3.18,3.99,1.69,2.12-1.82-2.37-1.69-2.19.68.99,1.46,1.93,2.18,2.9,8.7,11.74,16.43,24.18,23.24,37.11,3.34,6.35,6.46,12.82,9.38,19.39.47,1.05,2.65,6.19,1.03,2.3-1.71-4.1.58,1.42.95,2.35,1.45,3.58,2.84,7.19,4.18,10.82,10.46,28.34,17.61,57.8,23.1,87.47,2.86,15.46,5.27,31,7.43,46.57.15,1.06.29,2.11.44,3.17.4,2.84-.38-2.84-.36-2.67.27,2.13.56,4.25.84,6.38.55,4.28,1.09,8.56,1.62,12.84,1,8.12,1.95,16.25,2.88,24.37,2.4,20.95,4.69,41.9,6.29,62.93,3.44,45.16,4.37,90.51,2.89,135.78-.88,27.11-2.62,54.19-5.19,81.19-1.37,14.45-2.99,28.88-4.83,43.28-.22,1.73-.45,3.45-.67,5.17-.55,4.24.24-1.83.3-2.19-.15.99-.27,1.99-.41,2.98-.52,3.75-1.05,7.5-1.6,11.25-1.15,7.88-2.37,15.76-3.66,23.62-11.07,67.51-27.18,134.16-47.73,199.4-11.26,35.75-23.86,71.07-37.65,105.93,13.93-3.68,27.86-7.35,41.78-11.03-16.64-17.26-33.32-34.49-49.92-51.78-7.26-7.56-14.47-15.19-21.35-23.11-3.08-3.54-6.09-7.13-9-10.8l-.51-.65c-1.65-2.11-1.36-1.73.88,1.15-.57-.34-1.68-2.23-1.97-2.63-1.62-2.2-3.21-4.42-4.74-6.68-2.75-4.04-5.35-8.17-7.76-12.42-1.2-2.11-2.35-4.25-3.45-6.42-.61-1.2-1.2-2.41-1.78-3.63l-.68-1.47c-1.09-2.47-.9-1.96.58,1.52.04-.03-4.27-11.95-4.57-13.01-.62-2.13-1.18-4.28-1.66-6.45-.18-.84-.35-1.68-.51-2.53-.16-.85-.3-1.7-.44-2.55l.53,4.08c-.91-3.64-.72-7.97-.71-11.71,0-1.97.08-3.93.2-5.89.07-1.09.19-2.18.27-3.27.31-4.29-.92,5.15-.32,2.09.76-3.86,1.38-7.69,2.45-11.49.52-1.87,1.11-3.73,1.75-5.56.29-.81.61-1.61.89-2.42,1.6-4.59-2.67,5.59-.53,1.24,1.96-3.99,3.98-7.88,6.49-11.57.58-.84,1.31-1.66,1.81-2.54-.68,1.19-3.92,4.64-1.2,1.67,1.53-1.67,3.01-3.36,4.65-4.92.59-.56,1.2-1.11,1.81-1.65,1.81-1.59,4.43-2.42-1.25.84,1.76-1.01,3.35-2.34,5.11-3.37s3.72-1.79,5.5-2.81c-5.86,3.35-3.99,1.53-1.9.92,1.42-.42,2.82-.9,4.25-1.29,17.66-4.8,24.95-28.88,11.03-41.78-4.61-4.28-8.94-8.83-12.92-13.7-.44-.53-.85-1.12-1.31-1.63-.19-.21,3.35,4.48,1.79,2.3-.95-1.32-1.93-2.61-2.85-3.94-1.86-2.66-3.62-5.39-5.28-8.17-3.23-5.39-5.97-11-8.58-16.71-1.13-2.47,1.26,3.05,1.16,2.76-.22-.66-.52-1.3-.78-1.94-.59-1.52-1.16-3.04-1.71-4.57-1.09-3.07-2.08-6.17-2.98-9.31-1.66-5.83-2.98-11.75-3.95-17.73-.15-.91-.24-1.86-.42-2.76-.07-.36.72,5.96.43,3.18-.14-1.39-.32-2.78-.45-4.17-.31-3.25-.51-6.5-.62-9.76-.2-6.28-.02-12.57.55-18.83.13-1.39.29-2.77.44-4.16.46-4.26-.93,6.03-.02.44.52-3.21,1.14-6.4,1.88-9.56,1.57-6.78,3.63-13.44,6.18-19.91,2.01-5.09-1.8,3.87-.09.2.78-1.68,1.56-3.37,2.39-5.03,1.67-3.33,3.5-6.58,5.43-9.77l-14.94,11.49,7.69-1.62c7.5-1.58,13.35-7.71,16.2-14.47,3.25-7.7,2.33-14.84-1.26-22.25-13.9-28.7-43.42-47.61-73.61-55.31-36.25-9.25-73.62-2.83-109.52,4.77-15.77,3.34-31.53,6.7-47.43,9.37-7.33,1.23-14.68,2.32-22.04,3.36-3.36.48,5.28-.68,1.91-.26-.79.1-1.58.21-2.37.31-1.84.24-3.69.46-5.53.69-3.69.44-7.38.86-11.07,1.25-29.81,3.15-59.79,4.54-89.76,4.22-29.72-.31-59.41-2.31-88.91-5.92-1.84-.23-3.69-.46-5.53-.7-5.91-.77,3.99.57-.46-.06-3.68-.52-7.36-1.05-11.03-1.61-7.35-1.12-14.68-2.35-21.99-3.67-14.63-2.65-29.19-5.7-43.65-9.14-29.19-6.95-57.99-15.51-86.24-25.63-7-2.51-13.96-5.11-20.89-7.81-3.22-1.25-6.42-2.53-9.62-3.82-1.72-.7-3.44-1.4-5.16-2.11-.74-.3-1.47-.61-2.21-.91-.43-.18-5.34-2.24-1.42-.59,3.6,1.51-1.81-.78-2.87-1.24-1.46-.63-2.92-1.27-4.38-1.91-3.64-1.6-7.28-3.23-10.9-4.88-6.76-3.09-13.47-6.27-20.14-9.55-26.9-13.21-53.06-27.94-78.29-44.14-12.5-8.02-24.77-16.41-36.78-25.14-2.79-2.03-5.56-4.08-8.33-6.14-1.49-1.11-2.97-2.23-4.45-3.35-.63-.48-1.27-.96-1.9-1.45-2.89-2.21-1.22-1.01.65.51-5.76-4.69-11.67-9.2-17.41-13.93s-11.39-9.55-16.99-14.45c-1.69,13.09-3.37,26.18-5.06,39.26l3.22-1.61-34.2-34.2c-1.42,2.17-.88,1.54,1.61-1.89-.56.64-1.16,1.25-1.79,1.81.47-1.51,5.29-3.46.94-.93-3.98,2.32-.86-.22,1.26-.31-1.55.06-3.59,1.19-5.14,1.57-1.34.33-2.69.55-4.04.82-4.81.98,6.54-.67.45-.11-3,.28-6.01.41-9.01.52-13.79.52-27.62.77-41.41-.07-3.57-.22-7.13-.51-10.69-.9-1.95-.21-6.54-1.55.61.14-1.45-.35-3-.44-4.48-.69-6.84-1.15-13.63-2.72-20.22-4.89-1.39-.46-2.77-.94-4.15-1.45-.91-.34-1.82-.69-2.72-1.06l3.29,1.39c-2.65-1.87-6.21-2.92-9.07-4.55-2.68-1.53-5.69-4.49-8.52-5.56,2.91,2.29,3.64,2.85,2.17,1.66-.57-.46-1.14-.93-1.7-1.42-1.51-1.29-2.95-2.65-4.37-4.04,2.44,5.89,4.88,11.79,7.32,17.68v-2.34c0-16.22-15.98-28.44-31.65-24.11-1.39.39-2.79.75-4.21,1.05-.94.2-1.89.37-2.84.52l3.79-.51c-2.85-.11-5.76.42-8.64.33-1.42-.05-2.91-.3-4.32-.29,6.59-.08,3.34.52.93.06-2.84-.54-5.64-1.28-8.39-2.18-1.31-.43-2.73-1.28-4.07-1.5l3.32,1.37c-.88-.4-1.74-.82-2.6-1.26-2.59-1.33-4.97-2.9-7.43-4.45-3.88-2.45,4.12,3.74.48.4-.88-.81-1.81-1.58-2.68-2.4-1.05-.99-2.06-2.02-3.03-3.09-1.19-1.3-4.67-6.01-.19.02-3.83-5.17-8.32-9.98-14.94-11.49s-13.48-1.06-19.26,2.52c-4.06,2.51-8.24,4.7-12.54,6.77s3.8-1.42.88-.34c-.99.37-1.97.77-2.96,1.13-2.23.82-4.48,1.57-6.76,2.25-4.55,1.36-9.19,2.44-13.88,3.23-.53.09-5.82.9-1.38.25s-.84.03-1.41.08c-2.37.21-4.75.35-7.12.42-4.76.14-9.52,0-14.26-.42-1.05-.09-2.1-.23-3.15-.32-3.2-.3,5.72.96,1.15.13-2.34-.43-4.67-.84-6.99-1.37-4.63-1.05-9.2-2.39-13.66-4.02-.99-.36-1.97-.77-2.96-1.13-2.93-1.06,4.97,2.31.87.35-2.39-1.14-4.76-2.3-7.09-3.55-10.76-5.8-21.25-3.32-30.3,3.91,5.52-4.41-.34.19-1.6,1.05-1.6,1.09-3.24,2.13-4.9,3.12-1.9,1.13-3.84,2.2-5.81,3.21-.74.38-1.48.75-2.23,1.11-.75.36-1.5.71-2.26,1.05-1.72.77-1,.47,2.15-.89-.64,1.64-10.16,3.47-11.82,3.91-1.87.5-3.76.94-5.66,1.33-1.08.22-2.18.39-3.26.61-4.61.95,4.08-.34.89-.09-4.15.33-8.26.65-12.43.58-2.42-.04-4.85-.18-7.26-.39-1.24-.11-2.48-.25-3.72-.38-3.79-.39.34-.54,1.08.16-1.04-.98-5.95-.96-7.4-1.21-2.46-.43-4.92-.89-7.38-1.34-4.92-.9-9.84-1.79-14.8-2.49-11.43-1.62-22.68-2.57-34.23-2.15-9.94.36-19.85,1.38-29.76,2.24-17.59,1.52-35.24,2.18-52.89,1.79-8.82-.19-17.64-.63-26.44-1.31-4.13-.32-8.25-.69-12.36-1.11-1.92-.2-3.84-.41-5.76-.63-1.69-.19-5.84-1.48-7.39-.9.35-.13,6.3.89,1.73.23-1.09-.16-2.18-.31-3.28-.47-1.91-.28-3.82-.57-5.73-.88-4.63-.74-9.25-1.54-13.86-2.41-8.41-1.58-16.77-3.39-25.08-5.4-16.9-4.1-33.58-9.08-49.95-14.92-8.06-2.87-16.01-6.01-23.94-9.23-3.13-1.27,4.49,1.94,1.4.59-.76-.33-1.52-.65-2.28-.98-2.03-.88-4.04-1.77-6.06-2.67-4.03-1.81-8.03-3.67-12.01-5.59-17.64-8.5-34.78-18.05-51.28-28.6-8.13-5.2-16.11-10.65-23.91-16.33-2.01-1.46-4-2.94-5.98-4.43-.66-.5-1.32-1-1.98-1.5-4.65-3.51,4.39,3.47-.18-.14-3.9-3.08-7.76-6.2-11.58-9.38-6.32-5.26-12.69-7.99-21-6.88-7.68,1.03-14.27,5.14-18.26,11.94-1.04,1.77-2.91,3.78-3.67,5.65.13-.31,4.07-4.81,1.46-1.93-.59.65-1.14,1.33-1.73,1.98-1.47,1.61-3.03,3.14-4.66,4.59-.56.5-1.48,1.1-1.99,1.7,4.1-4.85,2.9-2.16.89-.75-3.25,2.27-6.69,4.26-10.25,6-1,.49-2.02.94-3.03,1.4-3.03,1.4,6.2-2.39,1.61-.73-2.13.77-4.27,1.54-6.44,2.2-3.97,1.21-8.01,2.18-12.08,2.96-2.07.39-10.17.89-1.65.41-2.33.13-4.67.53-7,.71-8.82.69-17.7.61-26.52-.1-2.71-.22-5.43-.49-8.13-.8-1.12-.13-2.26-.34-3.38-.4,6.21.36,3.14.45,1.59.21-5.61-.87-11.19-1.8-16.75-2.96-10.55-2.2-20.96-5.02-31.18-8.42-4.84-1.61-9.64-3.36-14.39-5.23-1.32-.52-2.63-1.07-3.94-1.59-3.45-1.38,5.7,2.56.49.19-2.58-1.17-5.18-2.31-7.74-3.52-9.74-4.61-19.21-9.78-28.34-15.49-5.29-3.3-10.47-6.79-15.52-10.44-.92-.66-1.83-1.34-2.74-2.01-1.26-.94-4.91-4.62-.35-.22-1.88-1.82-4.08-3.34-5.98-5.15-.98-.93-1.93-1.88-2.85-2.86-.56-.58-1.11-1.18-1.64-1.79-1.37-1.65-1.4-1.63-.08.05l.97,1.27c-.63-.85-1.23-1.71-1.8-2.59-.49-.76-1.68-3.83-2.28-4.01,1.86.57,1.61,5.12.82,1.85-.3-.92-.55-1.85-.75-2.79l.48,3.83c.06-.12.53-6.13-.3-.92-.75,4.68.71-1.33,1.11-2.31,3.27-7.98-.7-18.6-6.43-24.32-6.05-6.05-15.99-9.21-24.32-6.43-14.47,4.83-29.27,8.61-44.34,11.03-1.74.28-9.04.7-1.66.3-1.98.11-3.98.48-5.96.68-4.67.48-9.34.82-14.03,1.03-9.25.42-18.52.3-27.75-.36-3.97-.28-7.93-.71-11.89-1.15-5.88-.66,5.01.75.66.1-2.06-.31-4.12-.62-6.18-.96-7.16-1.18-14.28-2.59-21.35-4.21-13.84-3.17-27.42-7.17-40.66-12.3-.84-.32-3.06-1.27.74.33,4.15,1.75.69.28-.26-.16-1.35-.62-2.7-1.26-4.03-1.93-2.5-1.27-4.96-2.63-7.29-4.2-.48-.32-.94-.71-1.44-1-1.84-1.08,5.11,4.59,2.81,2.14-.65-.69-1.4-1.39-2.1-2.03-2.36-2.13,3.86,6.23,2.02,2.52-1.34-2.7,2.11,5.31,1.81,4.45-.76-2.12-.48-5.2.47,4.62-.66-6.78-2.35-12.7-7.32-17.68-4.34-4.34-11.45-7.6-17.68-7.32-12.47.56-26.35,11.06-25,25Z"/><rect class="cls-4" x="1557.78" y="-100.37" width="224.02" height="378.19" transform="translate(543.17 1324.36) rotate(-50.68)"/><rect class="cls-4" x="1884.52" y="-236.85" width="224.02" height="567.72" transform="translate(289.14 1082.94) rotate(-32.6)"/><rect class="cls-4" x="2190.25" y="-159.54" width="85.09" height="407.8" transform="translate(528.21 1487.18) rotate(-41.38)"/><rect class="cls-4" x="2906.09" y="278.18" width="107.79" height="322.57" transform="translate(948.41 -1775.99) rotate(39.32)"/><rect class="cls-4" x="2946.78" y="356.82" width="206.44" height="613.61" transform="translate(1679.93 -2140.98) rotate(51.69)"/><path class="cls-8" d="M1588.4,26.19c34.26-9.88,68.52-19.77,102.78-29.65"/><path class="cls-8" d="M1595.23,55.81c40.7-8.83,81.4-17.65,122.09-26.48"/><path class="cls-8" d="M1583.98,98.07c51.84-20.84,106.23-35.31,161.57-42.99"/><path class="cls-8" d="M1605.73,141.28c48.72-11.63,97.44-23.26,146.16-34.89"/><path class="cls-8" d="M1625.52,174.64c38.09-15.76,77.55-28.18,117.8-37.06"/><path class="cls-8" d="M1662.67,188.01c44.37-10.86,88.74-21.72,133.1-32.58"/><path class="cls-8" d="M1629.77,228.51c41.41-6.77,82.82-13.53,124.23-20.3"/><path class="cls-8" d="M1730.09,241.46c17.45-2.94,34.89-5.89,52.34-8.83"/><path class="cls-8" d="M1655.97,259.14c14.56-2.08,29.11-4.17,43.67-6.25"/><path class="cls-8" d="M1771.44,197.94c18.96-6.37,37.93-12.74,56.89-19.11"/><path class="cls-8" d="M1671.3,282.94c39.27-1.45,78.53-2.9,117.8-4.35"/><path class="cls-6" d="M2989.07,873.6c-8.83,26.42-37.41,40.67-63.83,31.84-26.42-8.83-40.67-37.41-31.84-63.83l95.66,31.99Z"/><circle class="cls-6" cx="2982.16" cy="986.91" r="28.6"/><circle class="cls-5" cx="3050" cy="543.93" r="313.07"/><circle class="cls-5" cx="3050" cy="543.93" r="233.9"/><circle class="cls-5" cx="3050" cy="543.93" r="151.5"/><circle class="cls-5" cx="3050.08" cy="543.86" r="72.31"/><path class="cls-3" d="M2305.95-277.39c-45.05,19.85-78.54,61.2-95.54,107.4-17,46.2-18.75,96.9-12.46,145.73,7.7,59.73,34.27,125.46,91.28,144.85,31.13,10.59,65.26,4.98,97.3-2.43,31.46-7.28,59.27-28.48,75.33-56.41,2.24-3.89-3.06-7.76-6.07-4.43-46.42,51.15-43.59,140.17,3.02,193.2,50.97,57.99,140.06,72.94,213.04,47.75,72.98-25.19,130.33-84.6,167.6-152.21,31.37-56.91,50.09-126.68,25.06-186.65-16.11-38.59-77.62-37.96-104.32-5.77-26.7,32.19-24.85,79.84-11.55,119.49,24.2,72.15,82.81,131.9,154.48,157.47,71.67,25.58,154.86,16.44,219.27-24.09"/><circle class="cls-7" cx="2063.36" cy="15.51" r="11.68"/><circle class="cls-7" cx="2159.33" cy="15.51" r="11.68"/><circle class="cls-7" cx="2111.5" cy="15.51" r="11.68"/><circle class="cls-7" cx="2063.51" cy="64.28" r="11.68"/><circle class="cls-7" cx="2159.48" cy="64.28" r="11.68"/><circle class="cls-7" cx="2111.65" cy="64.28" r="11.68"/><circle class="cls-7" cx="2063.51" cy="113.06" r="11.68"/><circle class="cls-7" cx="2159.48" cy="113.06" r="11.68"/><circle class="cls-7" cx="2111.65" cy="113.06" r="11.68"/><circle class="cls-7" cx="2207.32" cy="15.51" r="11.68"/><circle class="cls-7" cx="2303.29" cy="15.51" r="11.68"/><circle class="cls-7" cx="2255.45" cy="15.51" r="11.68"/><circle class="cls-7" cx="2207.47" cy="64.28" r="11.68"/><circle class="cls-7" cx="2303.44" cy="64.28" r="11.68"/><circle class="cls-7" cx="2255.6" cy="64.28" r="11.68"/><circle class="cls-7" cx="2207.47" cy="113.06" r="11.68"/><circle class="cls-7" cx="2303.44" cy="113.06" r="11.68"/><circle class="cls-7" cx="2255.6" cy="113.06" r="11.68"/><circle class="cls-7" cx="2351.61" cy="15.54" r="11.68"/><circle class="cls-7" cx="2447.58" cy="15.54" r="11.68"/><circle class="cls-7" cx="2399.74" cy="15.54" r="11.68"/><circle class="cls-7" cx="2351.76" cy="64.32" r="11.68"/><circle class="cls-7" cx="2447.73" cy="64.32" r="11.68"/><circle class="cls-7" cx="2399.89" cy="64.32" r="11.68"/><circle class="cls-7" cx="2351.76" cy="113.09" r="11.68"/><circle class="cls-7" cx="2447.73" cy="113.09" r="11.68"/><circle class="cls-7" cx="2399.89" cy="113.09" r="11.68"/><circle class="cls-7" cx="2495.57" cy="15.54" r="11.68"/><circle class="cls-7" cx="2591.54" cy="15.54" r="11.68"/><circle class="cls-7" cx="2543.7" cy="15.54" r="11.68"/><circle class="cls-7" cx="2495.71" cy="64.32" r="11.68"/><circle class="cls-7" cx="2591.68" cy="64.32" r="11.68"/><circle class="cls-7" cx="2543.85" cy="64.32" r="11.68"/><circle class="cls-7" cx="2495.71" cy="113.09" r="11.68"/><circle class="cls-7" cx="2591.68" cy="113.09" r="11.68"/><circle class="cls-7" cx="2543.85" cy="113.09" r="11.68"/><circle class="cls-7" cx="2639.86" cy="15.51" r="11.68"/><circle class="cls-7" cx="2735.83" cy="15.51" r="11.68"/><circle class="cls-7" cx="2687.99" cy="15.51" r="11.68"/><circle class="cls-7" cx="2640.01" cy="64.28" r="11.68"/><circle class="cls-7" cx="2735.98" cy="64.28" r="11.68"/><circle class="cls-7" cx="2688.14" cy="64.28" r="11.68"/><circle class="cls-7" cx="2640.01" cy="113.06" r="11.68"/><circle class="cls-7" cx="2735.98" cy="113.06" r="11.68"/><circle class="cls-7" cx="2688.14" cy="113.06" r="11.68"/><circle class="cls-7" cx="2783.81" cy="15.51" r="11.68"/><circle class="cls-7" cx="2879.78" cy="15.51" r="11.68"/><circle class="cls-7" cx="2831.95" cy="15.51" r="11.68"/><circle class="cls-7" cx="2783.96" cy="64.28" r="11.68"/><circle class="cls-7" cx="2879.93" cy="64.28" r="11.68"/><circle class="cls-7" cx="2832.1" cy="64.28" r="11.68"/><circle class="cls-7" cx="2783.96" cy="113.06" r="11.68"/><circle class="cls-7" cx="2879.93" cy="113.06" r="11.68"/><circle class="cls-7" cx="2832.1" cy="113.06" r="11.68"/><circle class="cls-7" cx="2928.11" cy="15.54" r="11.68"/><circle class="cls-7" cx="3024.08" cy="15.54" r="11.68"/><circle class="cls-7" cx="2976.24" cy="15.54" r="11.68"/><circle class="cls-7" cx="2928.26" cy="64.32" r="11.68"/><circle class="cls-7" cx="3024.23" cy="64.32" r="11.68"/><circle class="cls-7" cx="2976.39" cy="64.32" r="11.68"/><circle class="cls-7" cx="2928.26" cy="113.09" r="11.68"/><circle class="cls-7" cx="3024.23" cy="113.09" r="11.68"/><circle class="cls-7" cx="2976.39" cy="113.09" r="11.68"/><circle class="cls-7" cx="1965.78" cy="15.51" r="11.68"/><circle class="cls-7" cx="2013.92" cy="15.51" r="11.68"/><circle class="cls-7" cx="1965.93" cy="64.28" r="11.68"/><circle class="cls-7" cx="2014.06" cy="64.28" r="11.68"/><circle class="cls-7" cx="2495.86" cy="161.9" r="11.68"/><circle class="cls-7" cx="2448.03" cy="161.9" r="11.68"/><circle class="cls-7" cx="2495.86" cy="210.67" r="11.68"/><circle class="cls-7" cx="2448.03" cy="210.67" r="11.68"/><circle class="cls-7" cx="2544.19" cy="161.86" r="11.68"/><circle class="cls-7" cx="2640.16" cy="161.86" r="11.68"/><circle class="cls-7" cx="2592.32" cy="161.86" r="11.68"/><circle class="cls-7" cx="2544.19" cy="210.64" r="11.68"/><circle class="cls-7" cx="2640.16" cy="210.64" r="11.68"/><circle class="cls-7" cx="2592.32" cy="210.64" r="11.68"/><circle class="cls-7" cx="2688.14" cy="161.86" r="11.68"/><circle class="cls-7" cx="2784.11" cy="161.86" r="11.68"/><circle class="cls-7" cx="2736.28" cy="161.86" r="11.68"/><circle class="cls-7" cx="2688.14" cy="210.64" r="11.68"/><circle class="cls-7" cx="2784.11" cy="210.64" r="11.68"/><circle class="cls-7" cx="2736.28" cy="210.64" r="11.68"/><circle class="cls-7" cx="2832.44" cy="161.9" r="11.68"/><circle class="cls-7" cx="2928.41" cy="161.9" r="11.68"/><circle class="cls-7" cx="2880.57" cy="161.9" r="11.68"/><circle class="cls-7" cx="2832.44" cy="210.67" r="11.68"/><circle class="cls-7" cx="2928.41" cy="210.67" r="11.68"/><circle class="cls-7" cx="2880.57" cy="210.67" r="11.68"/><circle class="cls-7" cx="2976.39" cy="161.9" r="11.68"/><circle class="cls-7" cx="3024.53" cy="161.9" r="11.68"/><circle class="cls-7" cx="2976.39" cy="210.67" r="11.68"/><circle class="cls-7" cx="3024.53" cy="210.67" r="11.68"/><circle class="cls-7" cx="2783.96" cy="259.48" r="11.68"/><circle class="cls-7" cx="2736.13" cy="259.48" r="11.68"/><circle class="cls-7" cx="2783.96" cy="308.25" r="11.68"/><circle class="cls-7" cx="2736.13" cy="308.25" r="11.68"/><circle class="cls-7" cx="2832.29" cy="259.45" r="11.68"/><circle class="cls-7" cx="2928.26" cy="259.45" r="11.68"/><circle class="cls-7" cx="2880.42" cy="259.45" r="11.68"/><circle class="cls-7" cx="2832.29" cy="308.22" r="11.68"/><circle class="cls-7" cx="2928.26" cy="308.22" r="11.68"/><circle class="cls-7" cx="2880.42" cy="308.22" r="11.68"/><circle class="cls-7" cx="2976.24" cy="259.45" r="11.68"/><circle class="cls-7" cx="3024.38" cy="259.45" r="11.68"/><circle class="cls-7" cx="2976.24" cy="308.22" r="11.68"/><circle class="cls-7" cx="3024.38" cy="308.22" r="11.68"/><circle class="cls-7" cx="1917.31" cy="15.51" r="11.68"/><circle class="cls-7" cx="3024.53" cy="360.71" r="11.68"/><path class="cls-11" d="M1368.16-128.28c-34.02-17.18-59.17,19.65-72.84,45.42-15.65,29.49-28.01,62.21-27.64,96.05.33,30.25,11.97,59.44,34.29,80.23,20.96,19.51,50.91,30.86,79.27,22.27,15.83-4.79,30.3-16.24,32.61-33.45s-9.95-34.33-27.41-35.38c-16.33-.98-29.51,13.56-37.5,26.19-7.11,11.26-10.83,24.05-12.41,37.17-3.05,25.43,5.25,52.45,22.84,71.18s44.1,26.92,69.12,24.15c26.45-2.93,51.13-15.89,65.97-38.43,7.55-11.47,10.59-25.51,8.19-39.03-2.67-15.07-15.92-26.86-31.5-26.28-17.3.65-31.22,14.36-38.83,28.92-6.6,12.63-9.91,27.01-9.39,41.27,1.06,28.97,16.55,56.79,42.86,70.05s57.22,13.13,82.4-1.14c25.47-14.44,40.54-42.33,42.71-71.01,1.04-13.77-1.16-29.6-8.25-41.64-8.62-14.63-27.37-26.55-43.84-16.3-14.28,8.89-15.71,27.31-16.72,42.49-.88,13.2.05,26.34,2.09,39.39,3.98,25.48,14.46,50.22,31.53,69.69,18.07,20.62,49.79,38.64,77.81,29.95,16.3-5.06,27-18.44,33.55-33.61,6.24-14.44,10.1-29.23,12.15-44.82,3.74-28.55-.07-58.57-11.03-85.21-5.54-13.45-12.31-26.08-21.17-37.66-4.92-6.42-12.91-9.83-20.52-5.38s-8.84,13.16-5.38,20.52c17.2,36.62,59.1,72.21,101.88,55.76,19.38-7.45,37.27-23.89,41.31-45.02,4.39-22.91-7.04-43.56-26.03-56.01-15.46-10.13-39.56-17.7-57.69-11.1-12.66,4.61-21.75,16.65-18.34,30.59,2.92,11.93,13.4,19.4,23.73,24.69,39.01,20.01,89.12,20.47,123.94-8.41,15.95-13.23,26.82-33.59,29.97-53.97,3.55-22.99-1.32-44.8-15.74-63.18-3.6-4.59-11.52-5.24-16.39-3.1-5.37,2.36-9.3,7.64-9.22,13.71.37,27.05,15.62,52.67,38.87,66.42,23.6,13.96,53.31,12.83,76.74-.92,12.67-7.44,23.57-18.57,29.98-31.84,3.23-6.69,2.11-12.54-2.35-18.18-7.74-9.79-21.27-9.88-31.55-4.5-8.94,4.67-16.15,13.41-20.08,22.57-9.42,21.94-13.13,48.13-1.75,70.05,10.12,19.48,31.92,31.49,53.71,26.07,20.83-5.18,35.03-24.45,41.93-43.69,8.52-23.75,4.51-48.65,12.81-71.59l-28.93-7.98c-13.33,41.81,42.7,74.9,76.45,52.47,16.9-11.23,25.55-29.76,27.28-49.56s-5.96-39.53-18.59-55.18c-15.05-18.66-37.05-30.35-59.13-38.61-7.36-2.75-16.76,3.06-18.45,10.48-1.94,8.52,2.59,15.5,10.48,18.45,1.9.71,3.79,1.44,5.67,2.2-2.15-.88,3.04,1.36,3.43,1.54,3.71,1.72,7.35,3.58,10.9,5.61,3.31,1.89,6.54,3.93,9.67,6.12.83.58,1.65,1.17,2.46,1.78,2.02,1.51-1.4-1.16.54.44,1.74,1.44,3.45,2.91,5.1,4.45,2.73,2.56,5.28,5.29,7.65,8.18,1.58,1.93-1.07-1.52.38.51.43.61.87,1.21,1.29,1.83,1.4,2.06,2.7,4.2,3.88,6.4.36.66.7,1.34,1.03,2.01.17.34,1.39,3.02.62,1.22-.62-1.44.83,2.35,1.03,3,.52,1.63.97,3.29,1.34,4.96.19.84.32,1.69.51,2.53.62,2.84.06-1.29.09.49.05,3.24.41,6.41.23,9.67-.05.97-.77,5.67-.16,2.39-.35,1.88-.71,3.75-1.2,5.6-.38,1.43-.89,2.81-1.31,4.22-.77,2.62-.13.5.13-.09-.33.76-.69,1.51-1.06,2.26-.74,1.48-1.55,2.92-2.44,4.31-.44.69-.92,1.36-1.38,2.04.74-1.08,1.13-1.27.08-.14-1.12,1.2-2.19,2.42-3.4,3.53-.6.55-1.23,1.09-1.86,1.61.53-.43,2.35-1.45.04-.14-1.44.82-2.95,1.64-4.36,2.51.23-.14,2.35-.69.77-.32-.97.23-1.91.65-2.89.9-.78.2-1.57.34-2.36.5.61-.12,3.15-.15.4-.13-1.59,0-3.23-.12-4.82-.07.19,0,2.66.57.98.15-.78-.19-1.6-.29-2.39-.48-1.8-.42-3.52-1-5.26-1.61.56.2,2.63,1.36.2.05-.9-.49-1.82-.93-2.71-1.44-.75-.43-5.07-3.57-2.5-1.43-1.23-1.03-2.44-2.08-3.56-3.24-.56-.57-1.06-1.17-1.6-1.75-2.38-2.53,1.15,2.32-.47-.71-.72-1.35-1.51-2.66-2.22-4.02,1.74,3.33.03-1.44-.44-2.31-.88-1.64-.13,2.51.07.64.09-.89,0-1.94-.04-2.85-.1-2.63.04-.11-.12.52.3-1.17.57-2.33.94-3.49,2.38-7.48-2.79-16.7-10.48-18.45-8.45-1.92-15.59,2.56-18.45,10.48-6.26,17.31-6.34,35.82-8.73,53.86-.1.73-.31,2.13-.63,3.95-.41,2.34-.86,4.67-1.42,6.97-.7,2.88-2.33,7.78-2.88,9.03-2.23,5.04-5.78,10.42-9.59,14.18-.47.47-4.41,3.72-2.2,2.12-1.28.92-2.61,1.74-3.97,2.53-.58.33-1.18.62-1.77.92.6-.3,2.6-.77-.08,0-.97.28-5.56,1.31-2.44.91-1.57.2-3.14.15-4.72.13-2.34-.03,2.15.53-.18.01-.69-.15-1.38-.29-2.06-.48-.88-.25-1.81-.53-2.66-.88.3.12,1.86.9.4.07-.81-.46-1.63-.9-2.42-1.4-.47-.3-2.77-2.2-.93-.58-1.25-1.1-2.44-2.24-3.56-3.48-.48-.53-.96-1.07-1.4-1.63,1.45,1.85,0-.12-.2-.46-.86-1.46-1.73-2.89-2.51-4.4s-.1-.02.03.29c-.47-1.1-.84-2.26-1.19-3.4-2.12-6.93-1.97-14.68-.54-21.71.98-4.82,2.36-9.54,3.98-14.19.4-1.16.84-2.3,1.26-3.45.95-2.68-1.64,2.47.45-.77.46-.71,3.18-4.58,1.48-2.54,1.16-1.4,2.46-2.63,3.77-3.88-1.99,1.91,1.4-.7,2.15-1.27-1.72,1.3-1.67.6-.4.24,2.41-.7-.84.09-1.89-.06s-1.8-.49-2.73-.97c-2.42-1.23-.93-.85.22.61l-2.35-18.18c-1.42,2.94-3.08,5.64-4.85,8.38-1.03,1.4-1.08,1.5-.14.28-.43.54-.88,1.07-1.33,1.59-1.06,1.22-2.16,2.4-3.31,3.53-.99.97-2,1.91-3.05,2.81-.7.6-1.41,1.19-2.14,1.76,1.2-.95,1.1-.91-.31.13-2.36,1.47-4.65,3-7.13,4.29-.51.26-5.56,2.44-2.73,1.36-1.3.49-2.6.97-3.92,1.4-3.08.99-6.23,1.72-9.42,2.26,3.18-.54-.8.05-1.5.1-1.84.13-3.68.18-5.52.13-1.38-.03-2.76-.15-4.14-.24-1.79-.19-1.83-.2-.13,0-.69-.11-1.37-.24-2.04-.39-2.99-.62-5.9-1.52-8.76-2.59,2.72,1.01-1.63-.8-2.18-1.09-1.46-.75-2.88-1.56-4.28-2.43-1.2-.74-2.35-1.54-3.5-2.35-1.41-1.03-1.51-1.11-.31-.24-.72-.6-1.44-1.21-2.13-1.84-2.28-2.05-4.36-4.27-6.36-6.6-.66-.81-.61-.72.15.28-.57-.75-1.12-1.52-1.65-2.29-.8-1.16-1.56-2.35-2.28-3.56-.97-1.62-1.78-3.31-2.68-4.96-1.48-2.73.42,1.61-.72-1.58s-2.08-6.2-2.73-9.44c-.07-.34-.6-4.74-.31-1.57-.17-1.88-.27-3.75-.29-5.63l-25.61,10.61c-1.77-2.26.93,1.49,1.42,2.27.91,1.45,1.75,2.95,2.52,4.48.38.76.74,1.53,1.1,2.31-.09-.19-.89-2.25-.29-.64.66,1.8,1.28,3.6,1.79,5.45.45,1.64.83,3.3,1.15,4.97.16.84.3,1.68.42,2.52-.09-.59-.26-3.05-.09-.17.21,3.45.35,6.86.14,10.32-.04.72-.67,5.94-.14,2.48-.27,1.72-.57,3.44-.94,5.15-.75,3.43-1.73,6.8-2.93,10.1-.3.83-.62,1.65-.94,2.46.23-.57,1.21-2.51-.06.05-.78,1.58-1.53,3.17-2.37,4.72-1.69,3.09-3.59,6.05-5.67,8.89,1.77-2.42-1.37,1.59-1.8,2.07-1.16,1.31-2.38,2.58-3.63,3.79-1.1,1.07-2.25,2.08-3.41,3.08-.31.27-2.48,1.96-1.04.88s-1.57,1.07-1.85,1.26c-3.36,2.26-6.9,4.16-10.51,5.97-.01,0-2.26,1.03-.96.47,1.47-.63-1.39.54-1.69.65-2.11.79-4.25,1.51-6.42,2.13-3.86,1.11-7.8,1.97-11.77,2.56,2.39-.35-2.1.18-2.78.23-2.27.18-4.55.28-6.83.31-4.08.05-8.15-.19-12.21-.58-.04,0-2.54-.3-1.05-.1,1.67.22-1.47-.24-1.81-.3-2.28-.38-4.54-.84-6.79-1.36-4-.93-7.95-2.08-11.83-3.44-1.69-.59-3.38-1.22-5.04-1.9-2.37-.97,1.67.77-.66-.31-1.16-.54-2.32-1.07-3.47-1.64-2.74-1.36-7.58-3.93-8.99-4.97,1.2.88-1.2-1.04-1.42-1.25-.66-.64-1.15-2.1-1.23-1.27-.03.31.64,1.42.69,2.01.1,1.25-.88,2.82-.03.99-.6,1.3-.79,1.83-1.76,3.05.86-1.08,1.54-.53-.6.31.62-.24,1.38-.77,1.95-1.07-.51.27-2.2.47-.87.49.65,0,1.73-.33,2.33-.59,1.85-.8-2.37-.09-.32.02,1.81.09,3.72-.06,5.55-.03.73.01,2.67.49-.24-.07.92.18,1.86.31,2.78.49,1.63.32,3.26.69,4.87,1.1,1.85.48,3.69,1.01,5.5,1.62.91.3,1.81.62,2.71.96.47.18,3.37,1.47,1.05.4,3.21,1.48,6.32,3.16,9.26,5.14.31.21,2.66,1.91,1.3.87s.87.76,1.15,1.01c1.55,1.36,2.94,2.83,4.33,4.34.37.41,1.62,2.24.17.15.52.74,1.02,1.49,1.49,2.26s.88,1.58,1.33,2.36c.08.13,1.03,2.17.39.69-.7-1.63.35,1.06.47,1.43.28.88.53,1.77.75,2.68.1.44.55,3.27.32,1.36s.03,2.03.03,2.01c0,.89-.07,1.76-.09,2.65s-.71,2.47.02-.07c-.43,1.48-.71,3-1.15,4.48-.12.4-1.1,3-.41,1.32s-.45.87-.64,1.25c-.94,1.82-2.02,3.52-3.15,5.21-.29.43-1.78,2.12-.16.23-.6.7-1.2,1.4-1.83,2.07-1.11,1.19-2.28,2.32-3.5,3.41-.27.24-2.5,2.1-1.19,1.06s-1.02.71-1.32.91c-1.75,1.19-3.57,2.29-5.45,3.27-.84.44-1.69.85-2.54,1.25,1.93-.9-.08,0-1,.33-2.01.7-4.05,1.17-6.1,1.71-.51.13-2.95.52-.16.15-.92.12-1.86.19-2.79.24-2.36.13-4.71.02-7.06-.18,2.69.24-2.34-.46-3.18-.65-2.35-.54-4.61-1.29-6.9-2.03-.08-.03-2.3-.86-.89-.29,1.54.62-1.85-.85-2.15-1-2.16-1.06-4.27-2.24-6.31-3.51-1.65-1.03-3.25-2.12-4.82-3.27,1.82,1.34-.15-.11-.43-.35-.94-.79-1.88-1.58-2.79-2.4-3.32-2.98-6.41-6.2-9.28-9.62-.2-.23-2.14-2.62-1.17-1.39.88,1.11-1.33-1.81-1.52-2.08-1.3-1.83-2.55-3.7-3.74-5.61-2.5-4-4.71-8.15-6.71-12.42l-25.9,15.14c7.24,9.45,13.25,19.66,18.14,30.52,2.05,4.55-.9-2.54.88,2.12.37.96.75,1.92,1.11,2.89,1.08,2.9,2.07,5.83,2.98,8.79,1.74,5.68,3.15,11.45,4.24,17.29.24,1.27.46,2.54.67,3.82,0,.05.69,5.08.33,2.15.31,2.56.56,5.13.75,7.71.45,6.18.54,12.38.26,18.57-.53,11.82-1.86,20.08-5.58,32.54-.74,2.47-1.54,4.92-2.41,7.35-.52,1.46-1.08,2.9-1.64,4.35-1.78,4.62.59-1.2-.62,1.47s-2.5,5.24-3.99,7.73c-2.04,3.39-1.97,3.35-4.22,5.65.03-.03-3.7,3.2-1.64,1.66-1.22.92-2.64,1.76-4.03,2.39.7-.32,1.95-.49-.79.22-1.51.39-3.01.87-4.56,1.06,2.87-.34-2.27-.07-2.29-.07-1.33,0-2.66-.08-3.98-.21-2.78-.29,3.13.92-1.58-.31-2.1-.55-4.19-1.01-6.26-1.68-3.48-1.13-7.32-2.92-11.82-5.6-1.86-1.11-3.68-2.29-5.45-3.54-.35-.24-3.71-2.87-1.09-.76-1-.81-1.99-1.63-2.96-2.48-3.55-3.1-6.86-6.49-9.9-10.1-.26-.31-2.91-3.68-.88-1-.78-1.03-1.54-2.08-2.29-3.15-1.49-2.14-2.9-4.33-4.24-6.57-2.48-4.16-4.64-8.48-6.62-12.9,1.13,2.52.16.41-.04-.1-.49-1.25-.98-2.49-1.44-3.74-1-2.74-1.92-5.51-2.75-8.3-1.35-4.56-2.47-9.18-3.37-13.84-.26-1.34-.5-2.68-.72-4.03-.07-.4-.72-4.89-.26-1.42-.36-2.71-.63-5.44-.85-8.17-.81-10.44-.48-20.84.61-31.25.06-.61.46-2.93-.01,0,.22-1.39.41-2.79.69-4.17s.67-2.84,1.07-4.25c.81-2.86.35-1,.14-.37.77-2.28.3-.73-.77.28l-1.23.36c1.72-.45,1.59-.48-.38-.1-3.72-.48.2.77-.99-.3-1.97-1.78,3.88,2.67.84.3,1.12.87,2.09,1.95,3.06,2.99,2.6,2.78-.61-1.76,1.13,1.65.44.85.97,1.69,1.42,2.53,1.93,3.58-.35-2.26.59,1.64.55,2.27,1.31,4.48,1.79,6.77.29,1.37.55,2.75.73,4.13-.45-3.31.11,2.38.14,2.97.11,2.33.11,4.67,0,7-.07,1.4-.2,2.79-.32,4.19-.37,4.44.35-1.77-.13.87-.97,5.32-2.38,10.46-4.32,15.51,1.12-2.92-.61,1.3-.73,1.55-.61,1.26-1.25,2.51-1.92,3.73-1.13,2.04-2.34,4.03-3.66,5.95-.13.19-2.87,3.85-.97,1.45-.72.91-1.48,1.79-2.25,2.66-2,2.26-4.15,4.39-6.44,6.37.18-.15-3.38,2.66-1.75,1.45s-2.12,1.41-1.91,1.27c-2.36,1.55-4.83,2.8-7.3,4.14s-.89.46-.25.19c-1.28.54-2.61,1.01-3.93,1.46-2.65.89-5.35,1.62-8.09,2.19-1.37.28-2.75.54-4.13.73,3.37-.47-1.23.04-1.58.07-2.33.16-4.67.22-7.01.16-1.4-.03-2.8-.11-4.2-.22-.37-.03-4.91-.67-1.58-.12-2.77-.45-5.51-1.02-8.21-1.77-2.25-.62-4.44-1.39-6.63-2.18-4.13-1.5,2.34,1.37-1.54-.69-1.23-.66-2.49-1.24-3.71-1.92-2.04-1.14-3.95-2.42-5.89-3.7-3.61-2.39,1.84,1.85-1.37-1.07-1.21-1.1-2.44-2.16-3.6-3.32-.83-.83-1.64-1.67-2.41-2.54-.15-.17-3.02-3.74-1.18-1.3-1.4-1.86-2.66-3.82-3.83-5.83-.7-1.2-1.37-2.43-1.99-3.68-.12-.24-1.96-4.43-.77-1.51-1.05-2.59-1.92-5.26-2.64-7.96-.66-2.48-1.19-5-1.58-7.54s.12,3.52-.05-.88c-.05-1.4-.2-2.8-.24-4.2-.06-2.33-.01-4.67.15-7,.03-.37.58-4.93.08-1.57.27-1.84.63-3.67,1.06-5.48.53-2.26,1.18-4.49,1.95-6.68.1-.28,1.87-4.45.55-1.58.48-1.06.99-2.1,1.53-3.12,1.19-2.28,2.56-4.42,3.97-6.56,2.26-3.42-1.85,1.58,1.3-1.6,1.11-1.13,2.16-2.29,3.36-3.33-1.83,1.59,2.11-1.43,2.02-1.37,3.57-2.63-1.96.81,1.94-.96.72-.33,2.12-1.34.34-.24l1.46-.02c-1.55-.29-1.42-.21.39.23l-1.5-.67c.65.32,1.27.68,1.86,1.08-2.11-1.02-1.66-1.16-.65-.32,2.64,2.19-1.87-2.51.1.32.73,1.47.66,1.24-.2-.66.25.69.46,1.39.64,2.1.07.27.54,3.78.33,1.35s-.02,1.33-.02,1.49c.01,1.2-.1,2.39-.14,3.59.14-3.72-.02,0-.19.83-.43,2-1.06,3.91-1.71,5.85,1.14-3.37-.09.11-.44.76-.57,1.09-1.21,2.15-1.86,3.19s-1.4,2.09-2.11,3.13c-2.26,3.35,2-2.05-.74.91-1.41,1.53-2.76,3.1-4.26,4.56-.89.87-1.81,1.72-2.75,2.53-.37.32-3.63,2.88-.84.79-2,1.5-4.08,2.9-6.22,4.18-1.79,1.07-3.63,2.07-5.51,2.99-1.13.55-2.27,1.09-3.42,1.58,3.27-1.39-.63.17-1.1.33-4.39,1.57-8.86,2.56-13.41,3.52-4.08.86,3.14-.19-1.01.16-1.26.11-2.51.24-3.77.32-2.1.13-4.2.17-6.29.13-2.52-.05-5.01-.27-7.51-.52,3.18.32.96.14.27,0-1.63-.34-3.27-.62-4.9-1.01-2.02-.49-4.02-1.07-5.99-1.75-1.18-.4-2.35-.84-3.51-1.31,3.32,1.34-.49-.3-.97-.54-1.87-.93-3.69-1.95-5.46-3.06-1.07-.67-2.09-1.4-3.14-2.1-1.36-1.01-1.36-1,0,.03-.66-.54-1.31-1.09-1.94-1.65-1.58-1.4-3.09-2.89-4.52-4.44-.86-.93-1.66-1.9-2.48-2.86,1.83,2.17.4.56.04.04-2.88-4.17-5.46-8.48-7.46-13.14,1.4,3.25-.18-.66-.34-1.13-.35-1-.68-2-1-3.01-.69-2.23-1.28-4.48-1.76-6.76-.27-1.25-.48-2.5-.71-3.76-.52-2.87-.05-.37,0,.2-.3-2.97-.52-5.93-.53-8.91,0-2.12.07-4.25.23-6.37.1-1.27.22-2.54.38-3.8-.42,3.3-.04.41.14-.41,1.05-4.78,2.24-9.4,3.99-13.98-1.26,3.29.29-.56.52-1.03.55-1.13,1.13-2.25,1.74-3.36,1.02-1.84,2.12-3.63,3.31-5.36.28-.4,2.86-3.63.68-1.01.68-.81,1.36-1.62,2.06-2.41s1.44-1.56,2.19-2.31c.46-.46,4.22-3.57,2.64-2.48-.23.16,3.94-2.07,2.25-1.33-1.06.46-2.37-.2-.2.26-.34-.07-5.07-1.65-2.11-.33-2.6-1.16-.49-.43.49.69-.78-.9-1.88-1.08-.31-.05l.55,1.09c-.72-1.69-.82-1.72-.29-.09l.26,1.21c-.25-1.94-.33-2.04-.25-.3.38-1.94.39-2.06.03-.35l-.35,1.17c.93-2.68-.86,1.2-1.08,1.51,1.68-2.37-1.23,1.08-1.41,1.26-2.99,3.03,1.11-.58-.99.76-1.04.66-2.12,1.23-3.18,1.86-3.56,2.14,2.09-.44-1.86.84-1.4.46-2.79.91-4.22,1.28-.92.23-1.85.44-2.78.63-.92.19-1.85.35-2.77.49,1.68-.23,1.62-.25-.16-.06-2.3.06-4.57.21-6.88.12-1.37-.05-2.73-.17-4.09-.31,3.46.36-.97-.22-1.41-.31-2.23-.45-4.45-1.02-6.62-1.71-1.31-.41-2.6-.89-3.89-1.36-1.63-.65-1.71-.67-.24-.08-.63-.28-1.26-.58-1.88-.88-4.43-2.15-8.61-4.74-12.59-7.64,2.41,1.75-1.29-1.07-1.43-1.19-1.09-.93-2.17-1.88-3.22-2.85-2.11-1.97-4.13-4.03-6.05-6.19-.97-1.08-1.89-2.2-2.82-3.31-2.95-3.56.84,1.23-.76-1s-3.05-4.38-4.44-6.66c-1.26-2.07-2.44-4.2-3.54-6.36-.66-1.3-1.28-2.61-1.88-3.93,1.13,2.48-1.02-2.64-1.2-3.14-8.23-23.06-5.29-47.27,2.07-70.58,3.93-12.45,8.56-23.02,14.56-34.73,3.02-5.89,6.22-11.69,9.56-17.4,1.43-2.44,2.9-4.85,4.52-7.17.29-.42,2.22-2.99.87-1.27,1.27-1.62,2.64-3.17,4.06-4.67,1.74-1.83,3.57-3.61,5.54-5.18-2.17,1.73,1.6-1,1.7-1.06,1.18-.73,2.41-1.44,3.68-1.99-2.48,1.08-.33.18.18.08.86-.16,4.47-.3,1.11-.36.97.02,4.23.8,1.15-.1.46.14,4.12,1.76,1.52.44,7.23,3.65,16.26,1.91,20.52-5.38,3.9-6.67,1.88-16.86-5.38-20.52h0Z"/><path class="cls-11" d="M3095.87,306.52c-13.09,2.99-26.45,6.13-39.31,7.1-6.3.48-12.65.56-18.95.03-3.78-.32-2.75-.19-5.93-.81-2.84-.56-5.65-1.28-8.41-2.14-1.15-.36-2.3-.75-3.43-1.17-.59-.22-3.48-1.4-1.13-.38-2.21-.96-4.36-2.06-6.46-3.24s-4.08-2.49-6.05-3.85c-3.66-2.54,1.82,1.84-1.44-1.17-1.04-.96-2.1-1.88-3.11-2.88s-1.91-2.06-2.87-3.09c-1.93-2.08-.67-.81-.27-.26-1.52-2.07-2.87-4.27-4.04-6.56-.31-.6-1.47-3.4-.51-.93-.44-1.13-.82-2.29-1.17-3.46s-.57-2.38-.91-3.56c-.31-1.8-.36-1.91-.17-.33-.09-.72-.15-1.44-.2-2.17-.19-2.67-.08-5.31.06-7.98.03-.5.44-2.9.01-.35.24-1.45.54-2.88.89-4.31.59-2.4,1.37-4.73,2.19-7.06.98-2.81.47-1.17.2-.55.82-1.82,1.73-3.61,2.71-5.35,4.43-7.9,10.99-15.2,18.36-20.31,18.67-12.96,40.92-19.12,64.07-23.2.28-.05,2.91-.33.81-.12,1.59-.15,3.18-.25,4.78-.24,1.01,0,2.11,0,3.13.14-2.87-.37,1.86.62,2.02.68-2.18-.79.73.55,1.24.81,2.53,1.25-3.04-1.11.34.44l.78.88c-1.16-1.49-1.29-1.54-.39-.14l.53,1.04c-.74-1.8-.83-1.89-.29-.29.03.17.55,3.91.4,1.51s-.05,1.51-.06,1.62c-.02.91-.84,4.35.02.9-.2.81-.35,1.61-.57,2.42-.18.65-1.79,4.14-.24,1.08-.38.74-.75,1.48-1.17,2.2-.38.64-2.81,3.36-.55.98-.85.89-1.68,1.81-2.63,2.59,2.03-1.66-1.88,1.08-1.91,1.1-.85.49-1.76.97-2.66,1.37,2.59-1.14-1.95.55-2.04.57-1.21.35-2.44.62-3.68.88-2.72.58,3.46-.13-1.3.21-1.54.11-3.08.2-4.62.21-1.03,0-2.07-.02-3.1-.06-.75-.03-5.04-.41-4.19-.3-9.12-1.2-18.48-4.76-26.14-9.07-2.11-1.19-4.17-2.45-6.19-3.79-1.01-.67-2-1.36-2.98-2.07-.49-.35-2.93-2.28-1-.73-4.14-3.33-8-7-11.52-10.97-.96-1.08-1.89-2.19-2.8-3.31.41.5,1.42,2.01-.29-.4-1.4-1.96-2.76-3.94-4.02-5.99-1.38-2.25-2.66-4.57-3.84-6.94-.53-1.08-1.05-2.16-1.53-3.26,1.1,2.53-.7-1.93-.88-2.46-3.84-10.93-4.55-16.67-3.85-28.1.06-.97.17-1.93.22-2.89.28-4.63-.59,2.81.2-1.77.41-2.38.87-4.75,1.46-7.1s1.26-4.66,2.04-6.95c.47-1.37.97-2.73,1.5-4.07-.94,2.37.58-1.25.8-1.71,2.08-4.35,4.58-8.44,7.34-12.39,2.61-3.74-1.82,1.91,1.19-1.51.64-.72,1.25-1.46,1.89-2.17,1.95-2.15,4.1-4.04,6.18-6.06,3.09-3-2.06.98,1.05-.88.85-.51,1.72-1.01,2.57-1.53.78-.48,3.27-1.26.29-.25.95-.32,1.95-.57,2.89-.91s3.57-.42.06-.21c1.13-.07,2.22-.04,3.34-.06-.31,0-3.58-.42-.9.01-2-.96-2.28-1.06-.87-.3-1.11-.61-1.96-1.48-2.55-2.6,1.1,1.31-.35.78-.04-.07l-.22-.69c-.16,2.07-.13,2.23.09.49-.29,1.86-.77,3.7-1.34,5.49-.23.71-.5,1.39-.75,2.09,1.28-3.62.07-.31-.31.43-1.02,1.95-2.21,3.78-3.5,5.55,2.33-3.2-1.34,1.29-1.98,1.93-.72.71-5.1,4.27-2,2-3.36,2.47-6.92,4.49-10.69,6.26,3.48-1.63-1.76.57-2.84.91-2.02.63-4.06,1.15-6.13,1.57-.94.19-1.89.34-2.84.51,3.57-.61.93-.11-.02-.06-2.31.11-4.59.26-6.91.18-.96-.03-1.91-.13-2.87-.17-3.83-.13,3.19.73-.56-.04-1.87-.38-3.73-.74-5.57-1.26-1.11-.32-6.31-2.45-2.84-.83-2.08-.98-4.1-2.02-6.04-3.26-.65-.42-1.27-.86-1.91-1.3,2.67,1.83-.72-.62-1.06-.91-1.62-1.42-3.15-2.94-4.6-4.54.05.05-2.67-3.15-1.3-1.44s-1.15-1.62-1.11-1.57c-1.45-2.12-2.76-4.33-3.93-6.61-.59-1.15-1.14-2.31-1.66-3.49.25.58.93,2.66.06,0-.67-2.06-1.41-4.09-1.97-6.18s-.95-4.25-1.41-6.38c-.89-4.18.15,3.05-.18-1.22-.1-1.32-.24-2.63-.31-3.95-.13-2.42-.14-4.85-.04-7.28.04-1.11.11-2.21.2-3.31.04-.49.62-4.84.08-1.29.74-4.82,1.89-9.56,3.5-14.16.29-.83.61-1.66.92-2.48-1.17,3.13.4-.88.59-1.27.95-1.98,1.98-3.93,3.11-5.82.62-1.03,1.26-2.06,1.96-3.04,1.54-2.15-2.23,2.05,1.08-1.26.93-.93,1.81-1.9,2.81-2.77.78-.68.78-.69,0-.05.83-.57,1.69-1.09,2.58-1.55-2.8,1.39,2.01-.59-.13-.05l-.6.03c1.79.04,1.89-.04.28-.22l1.43.41c-1.85-.85-2.06-.9-.64-.15-.39-.19-2.41-2.31-.69-.51,2.32,2.42-1.79-2.82-.08.03-1.69-2.81-.63-1.99-.41-.89.25,1.26.18,3.78.19.02,0,1.05,0,2.2.04,3.25.14,3.59.86-3.06-.02.55-.19.77-.32,1.55-.52,2.32-.3,1.18-.65,2.34-1.05,3.49,0,.03-1.51,3.75-.6,1.67s-.82,1.58-.83,1.58c-.57,1.1-1.18,2.17-1.82,3.22-.42.69-.9,1.35-1.32,2.04-.99,1.37-.92,1.31.22-.19-.41.5-.82.99-1.25,1.47-7.39,8.35-15.26,16.17-23.87,23.26-3.7,3.04-5.8,4.63-10.58,7.94s-9.49,6.29-14.42,9.14c-4.48,2.59-9.06,5.02-13.72,7.28-2.56,1.24-5.15,2.43-7.76,3.57s3.21-1.25-1.43.6c-1.44.58-2.88,1.15-4.34,1.71-10.64,4.06-21.61,7.26-32.76,9.56-2.53.52-5.08,1-7.63,1.43-1.02.17-2.04.32-3.06.49-4.98.82,2.85-.28-2.16.31-5.65.66-11.32,1.14-17.01,1.35-5.17.19-10.35.18-15.52-.03-2.59-.11-5.17-.26-7.75-.47-1.48-.12-2.96-.26-4.43-.42-.63-.07-4.45-.61-1.81-.21-5.1-.77-10.15-1.78-15.13-3.14-2.59-.71-5.16-1.5-7.7-2.4-.92-.33-1.82-.68-2.73-1.02-1.66-.67-1.8-.72-.44-.16-.88-.39-1.75-.8-2.62-1.22-4.24-2.06-8.44-4.46-12.17-7.37,1.93,1.51.05-.02-.26-.31-1.02-.97-2.1-1.87-3.1-2.87-.83-.83-1.64-1.69-2.42-2.56-.47-.52-.93-1.06-1.38-1.61.88,1.18.8,1.06-.23-.36-11.67-17.82-9.75-38.39-3.89-59.74,6.48-23.61,15.65-44.23,28.48-65.32,6.02-9.9,13.08-19.98,19.73-28.16,5.1-6.28,6.14-15.07,0-21.21-5.27-5.27-16.08-6.32-21.21,0-19.5,24-35.02,50.26-46.51,78.97-10.82,27.03-19.42,57.73-12.78,86.86,13.79,60.54,88.26,67.49,138.7,60.35,26.62-3.77,52.57-12.77,76.11-25.71,23.23-12.77,45.87-30.13,62.14-51.24,7.5-9.73,12.77-22.12,12.86-34.57.1-13.91-8.41-27.24-22.62-30.11-32.66-6.62-49.76,33.18-53.03,59.03-3.07,24.21,4.19,50.3,21.32,68.03,16.84,17.42,41.53,23.01,64.77,17.63,21.78-5.04,41.85-20.88,47.95-42.95,2.3-8.32,2.79-17.43-1.22-25.3-3.2-6.28-9.43-10.95-16.27-12.56-13.98-3.3-27.78,3.16-38.04,12.27-20.04,17.8-30.97,45.14-31.22,71.69s11.41,53.16,30.64,72.04c18.98,18.63,46.39,31.91,73.4,31.03,15.18-.5,30.9-5.83,40.48-18.16,8.22-10.57,11.9-25.57,7.57-38.55-5.24-15.73-19.71-24.37-35.94-24.45-14.36-.07-29.54,4.56-43.18,8.71-27.8,8.45-54.84,22.92-69.99,48.71-7.1,12.08-11.56,26.49-10.98,40.59.61,14.81,6.21,28.09,15.67,39.39,18.6,22.21,49.72,29.9,77.54,28.16,16.63-1.04,32.98-4.61,49.18-8.31,7.9-1.8,12.56-10.89,10.48-18.45-2.23-8.11-10.53-12.29-18.45-10.48h0Z"/></svg>