<?xml version="1.0" encoding="UTF-8"?><svg id="_01" xmlns="http://www.w3.org/2000/svg" viewBox="0 0 3050 1714"><defs><style>.cls-1{fill:#5dfdfe;}.cls-2{fill:#fe3465;}.cls-3{stroke:#5dfdfe;}.cls-3,.cls-4,.cls-5,.cls-6,.cls-7,.cls-8,.cls-9,.cls-10{stroke-miterlimit:10;}.cls-3,.cls-5,.cls-8{fill:none;}.cls-3,.cls-10{stroke-width:44px;}.cls-11,.cls-10{fill:#c4f200;}.cls-4{fill:#fd4c94;stroke:#fd4c94;}.cls-4,.cls-9{stroke-width:6px;}.cls-5{stroke-width:43px;}.cls-5,.cls-6{stroke:#44c4f5;}.cls-6{fill:#44c4f5;stroke-width:25px;}.cls-7{fill:#5d62fe;stroke:#5d62fe;stroke-width:11px;}.cls-8{stroke-width:10px;}.cls-8,.cls-9{stroke:#9980f5;}.cls-9{fill:#9980f5;}.cls-10{stroke:#c4f200;}</style></defs><rect class="cls-10" x="193.83" y="1055.94" width="75.72" height="855.52" rx="37.86" ry="37.86" transform="translate(1039.4 217.74) rotate(41.41)"/><rect class="cls-10" x="361.96" y="1073.69" width="75.72" height="855.52" rx="37.86" ry="37.86" transform="translate(1330.09 256.94) rotate(51.69)"/><rect class="cls-9" x="23.57" y="699.28" width="167.7" height="760.95" rx="83.85" ry="83.85" transform="translate(287.29 9.68) rotate(15.22)"/><rect class="cls-9" x="180.32" y="926.8" width="167.7" height="571.27" rx="83.85" ry="83.85" transform="translate(468.36 -11.53) rotate(21.76)"/><path class="cls-2" d="M-32.74,1154.66c2.55,1.51,3.34,2.72,81.15,67.1,19.36,16.02,23.91,19.77,26.79,22.15,43.63,36.08,88.7,74,111.96,125.61,60.35-10.11,125.32,14.87,163.35,62.82,11.08,13.97,20.69,30.28,36.6,38.33,11.25,5.7,24.25,6.49,36.8,7.79,55.7,5.78,110.08,23.96,158.05,52.85,8.7,5.24,17.63,10.98,27.75,11.81,10.22.84,20.06-3.44,29.75-6.82,77.36-26.98,161.51,1.74,240.68,22.83,16.01,4.27,32.43,8.25,48.97,7.12,14.98-1.03,29.31-6.2,43.8-10.13,57.26-15.54,119.66-11.47,174.42,11.37,13.65,5.69,27.33,12.63,42.12,12.95,12.31.26,24.18-4.12,36-7.56,109.41-31.89,224.71,14.44,329.21,59.91,61.91-35.86,138.75-44.91,207.3-24.42,71.64,21.42,157.4,79.76,159.89,134.18,6.75,147.38-589.01,388.82-1184.46,362.94-506.21-21.99-1149.27-243.13-1170.97-532.26-16.75-223.14,338.99-455.14,400.86-418.57Z"/><path class="cls-1" d="M-45.36,1176.25c2.84,1.68,2.64,2.21-3.2-2.6,1.55,1.28,3.12,2.53,4.66,3.81,9.99,8.29,19.94,16.62,29.92,24.91,21.4,17.79,42.84,35.53,64.29,53.26,18.61,15.38,37.33,30.69,54.92,47.24,12.82,12.06,24.93,24.81,35.94,38.55.43.54,2.21,2.82.06.05-2.26-2.92.08.13.52.72,1.3,1.74,2.58,3.51,3.84,5.28,2.51,3.55,4.92,7.18,7.23,10.87,4.77,7.65,9.02,15.59,12.77,23.8,4.9,10.74,18.01,13.15,28.23,11.49,1.84-.3,6.84-.4-.7.01,1.49-.08,2.99-.36,4.48-.51,2.49-.25,4.99-.44,7.48-.58,5.99-.33,12.01-.33,18,0,3,.16,5.99.4,8.98.71.73.08,5.72.8,1.15.09-4.58-.71.42.08,1.14.19,5.94.94,11.82,2.18,17.64,3.72,5.33,1.41,10.59,3.06,15.77,4.96,1.41.52,2.82,1.05,4.22,1.6.61.24,5.3,2.12,1.19.45s.55.27,1.15.54c1.83.83,3.64,1.69,5.44,2.57,4.94,2.44,9.77,5.11,14.46,8,2.13,1.31,4.24,2.67,6.31,4.07,1.24.84,2.48,1.7,3.7,2.57,1.66,1.19,5.99,5.73.95.58,3.8,3.88,8.54,7.02,12.49,10.79,4.35,4.14,8.47,8.53,12.34,13.12.64.77,1.28,1.54,1.91,2.32l.94,1.17c1.63,2.08,1.27,1.6-1.09-1.42,1.23,2.59,3.84,5.12,5.57,7.42,4.36,5.81,8.7,11.67,13.51,17.12,10.15,11.52,22.88,20.18,37.56,24.83,7.57,2.4,15.64,3.3,23.48,4.23,3.44.41,6.88.73,10.33,1.09s7.36.22,10.5,1.19c-6.3-1.95-1.48-.2.36.07s3.5.52,5.24.81c2.91.47,5.81.97,8.71,1.5,6.96,1.28,13.88,2.76,20.75,4.43,13.18,3.19,26.18,7.08,38.95,11.65,5.99,2.14,12.5,4.07,18.14,7.01-5.36-2.79-1.76-.74-.28-.1,1.35.59,2.7,1.18,4.04,1.78,3.76,1.69,7.5,3.43,11.21,5.24,11.88,5.8,23.24,12.39,34.62,19.11,16.06,9.49,32.2,14.08,50.83,10.83,13.66-2.39,26.47-8.79,40-11.94,3.5-.82,7.02-1.53,10.56-2.16,1.18-.21,2.36-.4,3.54-.59l1.77-.27c2.8-.4,2.36-.34-1.32.17,3-1.13,7.49-.81,10.69-1.04,3.57-.26,7.15-.44,10.74-.54,13.86-.38,27.74.41,41.52,2.01,1.8.21,3.66.34,5.44.67-.69-.13-5.78-.85-1.2-.14,3.64.56,7.28,1.11,10.91,1.73,7.31,1.25,14.58,2.68,21.83,4.24,13.7,2.95,27.3,6.35,40.84,9.94,27.35,7.24,54.77,16.86,82.84,20.79,17.93,2.51,34.95,1.64,52.57-2.82,13.67-3.46,27.01-7.93,40.85-10.7,2.91-.58,5.83-1.11,8.75-1.6,1.76-.29,3.52-.55,5.27-.82,6.14-.95-5.77.59.41-.03,7.09-.72,14.16-1.39,21.28-1.67,13.63-.53,27.31-.04,40.87,1.47,1.18.13,2.36.28,3.54.42,6.17.73-5.72-.95.41.08,3.22.54,6.44,1.03,9.65,1.63,6.7,1.26,13.36,2.77,19.95,4.53s12.55,3.6,18.71,5.74c3.36,1.17,6.7,2.4,10.01,3.71,1.63.64,3.38,1.21,4.95,2.01l-2.7-1.13c1.09.47,2.19.94,3.28,1.41,15.6,6.7,30.9,13.19,48.18,13.57,15.98.34,31.01-5.27,46.16-9.45,6.4-1.77,12.87-3.28,19.38-4.55,2.94-.57,5.89-1.09,8.85-1.56,1.74-.28,3.56-.68,5.32-.79-7.45.46.72-.03,2.23-.19,13.61-1.43,27.31-1.85,40.99-1.4,6.56.22,13.12.63,19.66,1.23,2.98.27,5.97.58,8.94.93,1.77.21,3.62.31,5.37.66-6.69-1.34-1.1-.13.51.11,13.81,2.06,27.51,4.84,41.08,8.15,27.63,6.75,54.67,15.74,81.26,25.78,13.36,5.05,26.62,10.38,39.81,15.86,1.71.71,3.43,1.43,5.14,2.15,1.14.48,4.42,1.82-.85-.36,3.41,1.42,6.81,2.89,10.21,4.35,2.82,1.21,5.64,2.42,8.46,3.64,5.15,2.23,10.7,5.42,16.06,6.9,11.73,3.23,21.2-3.91,31.04-8.93,2.49-1.27,5-2.5,7.52-3.68,1.52-.71,3.04-1.41,4.57-2.09,1.02-.45,2.04-.9,3.07-1.34-3.15,1.32-3.85,1.61-2.11.9,11.7-4.65,23.55-8.71,35.77-11.8,5.96-1.51,11.97-2.81,18.02-3.91.81-.15,9.92-1.67,9.93-1.61,0,.04-6.14.77-.83.13,1.94-.23,3.89-.45,5.83-.64,12.79-1.27,25.67-1.62,38.5-1.05,6.14.27,12.27.76,18.37,1.46,1.57.18,7.21,1.32,0-.04,1.09.21,2.22.32,3.31.49,3.86.59,7.71,1.28,11.55,2.05,11.98,2.4,23.75,5.7,35.28,9.73,5.23,1.83,10.38,3.85,15.52,5.9,3.93,1.57-1.33-.52-1.72-.74,1.3.75,2.88,1.24,4.25,1.85,3.08,1.36,6.15,2.77,9.19,4.23,10.62,5.08,20.99,10.68,31.04,16.81,4.87,2.97,9.66,6.06,14.36,9.29,2.53,1.73,5.03,3.51,7.51,5.32,1.23.9,2.43,1.81,3.65,2.72,3.82,2.84-4.26-3.44-.3-.22,8.57,6.96,16.84,14.21,24.36,22.31,1.69,1.82,3.33,3.67,4.94,5.56,1.44,1.7,5.91,8.63,1.42,1.6,2.69,4.21,5.76,8.1,8.24,12.47.98,1.72,1.9,3.47,2.77,5.24.51,1.04.94,2.13,1.46,3.15-3.57-6.99-1.53-3.68-.81-1.76,1.55,4.15,2.39,8.34,3.39,12.64-2.01-8.67-.36-2.95-.24-.35.04.92.06,1.84.06,2.76,0,1.87-.16,3.72-.3,5.58-.37,4.77,1.09-6.74.54-3.82-.16.86-.28,1.74-.45,2.6-.36,1.85-.79,3.68-1.3,5.5s-1.07,3.57-1.71,5.32c-.35.98-.74,1.95-1.12,2.93-1.57,4.08,3.29-7.34,1.05-2.54-1.83,3.92-3.83,7.74-6.07,11.44-2.44,4.03-5.15,7.86-7.94,11.65s4.47-5.61,1.54-1.99c-.83,1.03-1.65,2.06-2.5,3.08-1.74,2.1-3.53,4.17-5.36,6.2-7.55,8.39-15.76,16.19-24.31,23.56-4.87,4.2-9.9,8.17-14.92,12.19,7.61-6.09,2.02-1.56.2-.19-1.18.89-2.37,1.78-3.57,2.66-2.93,2.17-5.89,4.3-8.86,6.4-12.3,8.68-24.97,16.82-37.88,24.57-29.65,17.8-60.51,33.57-91.9,48.05-8.79,4.05-17.63,8-26.52,11.86-2.17.94-4.35,1.88-6.53,2.81-1.84.79-9.93,4.13-1.83.79-4.89,2.02-9.76,4.07-14.65,6.07-19.32,7.88-38.8,15.35-58.42,22.47-42.77,15.53-86.15,29.38-129.9,41.85-98.02,27.93-198.01,49.01-298.83,63.87-6.4.94-12.8,1.86-19.21,2.75-2.92.41-5.84.88-8.77,1.2,7.15-.79,1-.13-.38.05-1.76.23-3.52.46-5.28.69-13.57,1.77-27.15,3.41-40.74,4.95-27.49,3.1-55.04,5.72-82.63,7.85-55.44,4.28-111.04,6.58-166.64,6.71-96.56.23-193-6.58-288.71-19.19-1.5-.2-3-.41-4.5-.6,7.19.9,3.15.42,1.4.19-2.75-.37-5.5-.75-8.25-1.14-6.01-.84-12.02-1.7-18.03-2.58-11.55-1.7-23.08-3.47-34.6-5.33-22.63-3.65-45.2-7.61-67.72-11.88-46.02-8.72-91.81-18.71-137.27-30-87.27-21.68-173.48-48.05-257.37-80.49-9.86-3.81-19.69-7.71-29.48-11.7-4.74-1.93-9.46-3.88-14.18-5.86-1.28-.54-2.56-1.08-3.84-1.61,7.18,2.97,2.4,1.01.87.36-2.54-1.08-5.08-2.17-7.61-3.26-19.06-8.22-37.97-16.81-56.67-25.83-34.89-16.81-69.11-35.06-102.18-55.23-15.59-9.51-30.91-19.45-45.89-29.89-7.2-5.02-14.31-10.15-21.33-15.41-1.5-1.12-3-2.25-4.49-3.39-.89-.68-1.77-1.37-2.67-2.04,6.58,4.98,2.97,2.3,1.53,1.18-3.48-2.71-6.94-5.46-10.36-8.24-24.29-19.71-47.26-41.2-67.6-65-2.29-2.68-4.55-5.4-6.77-8.14-1-1.23-1.99-2.47-2.97-3.72-.59-.74-1.16-1.5-1.75-2.24,5.67,7,2.28,2.96,1.04,1.32-4.28-5.66-8.4-11.44-12.32-17.36-7.36-11.1-14.04-22.66-19.82-34.66-1.37-2.84-2.69-5.71-3.95-8.61-.34-.78-.67-1.58-1.01-2.36,3.64,8.19,1.96,4.68,1.21,2.82-.63-1.57-1.27-3.15-1.88-4.73-2.31-6.01-4.37-12.11-6.17-18.28s-3.29-12.27-4.52-18.49c-.58-2.96-1.11-5.93-1.56-8.92-.97-6.37.57,4.88.21,1.76-.22-1.9-.46-3.81-.65-5.71-1.52-15.25-1.27-30.65.52-45.87.12-1.05.27-2.1.39-3.15-1.06,8.83-.6,4.41-.3,2.45.26-1.75.55-3.5.85-5.24.73-4.21,1.57-8.39,2.51-12.56,1.83-8.08,4.05-16.07,6.61-23.94s5.66-15.89,8.81-23.72c-3.38,8.41-.75,1.8.12-.17s1.83-4.09,2.77-6.12c1.9-4.09,3.88-8.15,5.93-12.17,7.86-15.41,16.77-30.28,26.44-44.62,5.05-7.49,10.31-14.84,15.75-22.05.71-.95,1.44-1.89,2.15-2.83,2.83-3.73-3.9,4.99-1.01,1.3,1.22-1.56,2.44-3.12,3.68-4.67,2.97-3.73,5.99-7.43,9.05-11.09,11.79-14.09,24.23-27.63,37.17-40.66s25.61-24.81,39.08-36.49c6.75-5.86,13.6-11.59,20.55-17.21,3.27-2.64,6.57-5.26,9.89-7.85,1.42-1.11,5.07-3.86-1.46,1.12.9-.69,1.8-1.38,2.7-2.07,1.79-1.37,3.59-2.73,5.4-4.09,25.28-18.94,51.77-36.42,79.56-51.47,6.13-3.32,12.33-6.51,18.6-9.55,2.84-1.38,5.69-2.72,8.56-4.03,1.52-.69,3.04-1.37,4.57-2.04,2.13-.94,8.58-3.5-.74.27,10.3-4.17,20.67-8.11,31.43-10.91,4.27-1.11,8.58-2.01,12.93-2.73,5.2-.86-6.44.74-3.39.44,1.05-.1,2.09-.24,3.14-.32,1.81-.15,3.62-.25,5.43-.26,1.67-.01,3.33.08,4.99.19,2.52.15,5.92,1.48-4.12-.6.79.16,1.6.26,2.39.43,1.31.28,2.56.7,3.84,1.08,3.81,1.12-6.99-3.42-3.82-1.64.6.34,1.23.62,1.82.96,11.32,6.56,27.88,2.99,34.2-8.97s3.12-27.2-8.97-34.2c-15.14-8.78-32.74-7.89-49.36-5.23-18.34,2.94-35.8,10.03-52.76,17.34-46.2,19.9-88.46,48.45-128.06,79.18-45.17,35.05-86.88,75.03-122.04,120.2-35.77,45.95-66.61,97.59-79.84,154.88-11.06,47.93-8.78,98.12,9.41,144.01,17.89,45.14,46.39,84.66,80.22,119.27,38.67,39.56,83.77,72.98,130.54,102.32,53.05,33.28,109.23,61.47,166.65,86.36,65.46,28.36,132.51,52.82,200.67,73.86,69.89,21.58,140.84,39.72,212.41,54.79s148.63,27.77,223.69,36.75c74.74,8.94,149.9,14.33,225.17,15.41,88.39,1.27,176.84-3.04,264.75-12.22,85.54-8.93,170.67-22.18,254.81-39.99,75.21-15.92,149.72-35.43,222.83-59.21,64.11-20.85,127.33-44.98,188.31-73.79,46.17-21.81,91.7-46.4,132.53-77.26,16.78-12.68,33.13-26.03,47.38-41.56,11.32-12.33,22.16-26.03,29.22-41.31,6.99-15.1,11.97-31.67,10.05-48.5-4.19-36.63-28.66-66.48-56.33-89.22-63.03-51.8-145.57-82.98-227.68-75.39-42.4,3.92-83.45,16.19-120.45,37.45h25.24c-47.32-20.58-95.03-40.9-144.71-55.15-48.11-13.8-99.3-22.29-149.41-17.32-13.52,1.34-27.04,3.33-40.28,6.38-11.95,2.75-23.49,7.14-35.49,9.68l-1.8.37c-2.81.47-2.41.45,1.2-.06-.74.35-3.01.27-3.66.3-1.52.08-3.04.08-4.57.02-2.53-.1-4.41-1.54.51.3-2.63-.98-5.85-1.14-8.57-1.92-3.13-.9-6.2-1.98-9.23-3.15-1.35-.52-2.9-.94-4.15-1.66,4.72,2.69,2.41,1.03,1.03.43-4.17-1.8-8.35-3.58-12.54-5.33-6.02-2.52-12.1-4.88-18.28-6.98-48.42-16.45-101.01-19.16-151.13-9.67-12.29,2.33-24.2,5.85-36.22,9.25-5.41,1.53-10.86,2.97-16.4,4.01l-1.84.33c-2.82.44-2.46.41,1.09-.1-.84.35-2.96.29-3.73.34-3.8.26-7.62.25-11.42.03-1.27-.08-2.53-.23-3.8-.29-6.44-.33,5.44,1.05-.92-.07-2.83-.5-5.66-.98-8.47-1.57-6.55-1.37-13.02-3.07-19.48-4.8-11.94-3.19-23.85-6.51-35.77-9.76-49.14-13.39-100.21-26.41-151.57-24.24-13.53.57-27.13,2.23-40.4,4.93-11.97,2.44-23.22,6.54-34.78,10.36-2.89.95-5.81,1.63-8.73,2.41-5.5,1.46,5.19.48-.45-.04-.65-.06-3.24-.25-3.59-.09,2.72-1.19,4.8.9.87-.12-.52-.14-3.92-.85-3.99-1.26.01.07,4.77,2.35,1.32.53-1.76-.93-3.54-1.8-5.28-2.77-10.44-5.88-20.56-12.21-31.25-17.66-45.43-23.2-94.2-37.49-144.85-43.1-2.59-.29-5.19-.54-7.79-.8-1.72-.17-3.45-.38-5.17-.54-4.74-.46,1.16.34,1.49.24-2.03.58-6.31-1.05-8.46-1.55-1.39-.32-2.76-.69-4.13-1.1-.82-.24-1.63-.5-2.44-.78-2.55-.96-2.15-.76,1.22.61-.65.46-5.47-2.97-6.13-3.41-2.65-1.73-1.38-2.62.8.83-.56-.89-2.06-1.71-2.86-2.44-3.98-3.58-7.42-7.63-10.84-11.74-2.68-3.22.81.97,1.05,1.41-.71-1.29-1.92-2.52-2.8-3.71-1.55-2.06-3.08-4.14-4.64-6.19-4.03-5.33-8.08-10.66-12.47-15.7-6.58-7.54-13.86-14.46-21.69-20.7-35.91-28.6-79.95-45.46-126.11-45.88-11.77-.11-23.46,1.22-35.06,3.11,9.41,3.83,18.82,7.66,28.23,11.49-25.25-55.35-73.24-95.44-119.11-133.34-32.23-26.63-64.4-53.35-96.54-80.1-4.23-3.52-8.5-7.59-13.22-10.39-11.26-6.68-27.93-2.91-34.2,8.97-6.37,12.05-3.05,27.08,8.97,34.2Z"/><rect class="cls-4" x="-7.93" y="1011.27" width="174.92" height="455.62" transform="translate(-608.89 205.77) rotate(-30)"/><rect class="cls-4" x="241.93" y="1146.42" width="88.79" height="349.7" transform="translate(-257.81 83.67) rotate(-11.51)"/><rect class="cls-4" x="505.08" y="1312.36" width="224.02" height="378.19" transform="translate(-935.52 1027.54) rotate(-50.68)"/><rect class="cls-4" x="1137.4" y="1365.52" width="206.44" height="613.61" transform="translate(1783.72 -337.86) rotate(51.69)"/><rect class="cls-4" x="1013.77" y="1453.96" width="115.64" height="217.08" transform="translate(1633.31 -246.97) rotate(51.69)"/><path class="cls-8" d="M356.65,1347.05c25.17,19.21,50.35,38.42,75.52,57.63"/><path class="cls-8" d="M374.83,1305.62c32.5,23.28,65,46.56,97.5,69.84"/><path class="cls-8" d="M404.81,1268.68c29.58,17.9,59.16,35.8,88.74,53.69"/><path class="cls-8" d="M433.11,1229.85c37.05,20.83,74.11,41.65,111.16,62.48"/><path class="cls-8" d="M429.94,1257.63c27.36,17.06,54.71,34.13,82.07,51.19"/><path class="cls-8" d="M413.48,1308.28c33.97,18.05,67.94,36.1,101.92,54.15"/><path class="cls-8" d="M501.09,1325.23c24.48,16.96,48.95,33.91,73.43,50.87"/><path class="cls-8" d="M538.31,1325.46c12.45,7.11,24.9,14.23,37.35,21.34"/><path class="cls-8" d="M500.8,1240.33c40.42,24.14,80.84,48.29,121.25,72.43"/><path class="cls-8" d="M399.68,1193.63c6.52,2.37,13.04,4.74,19.57,7.12"/><path class="cls-8" d="M316.51,1372.83c10.01,9.56,20.01,19.13,30.02,28.69"/><path class="cls-8" d="M295.31,1401.07c17.59,15.06,35.17,30.12,52.76,45.17"/><path class="cls-8" d="M295.35,1459.72c17.06,14.39,34.11,28.79,51.17,43.18"/><path class="cls-6" d="M-72.23,961.53c67.65-18.21,137.26,21.87,155.47,89.52,18.21,67.65-21.87,137.26-89.52,155.47l-65.95-245Z"/><circle class="cls-6" cx="74.59" cy="855.62" r="38.91"/><circle class="cls-5" cx="465.59" cy="1714" r="313.07"/><circle class="cls-5" cx="465.59" cy="1714" r="233.9"/><circle class="cls-5" cx="465.59" cy="1714" r="151.5"/><circle class="cls-5" cx="465.67" cy="1713.92" r="72.31"/><path class="cls-3" d="M-144.81,1283.67c-29.85-53.47-21.61-122.51,9.63-175.17,31.24-52.66,82.35-90.86,136.57-119.32,41.48-21.77,86.23-38.84,132.93-42.55,46.7-3.71,95.68,6.97,132.52,35.9,20.85,16.37,37.08,37.83,51.86,59.84,27.61,41.14,51.49,86.8,55.17,136.21,3.86,51.8-15.27,103.58-45.91,145.53-30.63,41.94-72.13,74.86-116.13,102.46-38.95,24.43-81.13,45.4-126.59,52.28-45.46,6.89-94.84-1.8-130.15-31.25-35.31-29.45-52.77-81.68-34.63-123.94,15.59-36.32,49.34-64.29,87.92-72.86,38.58-8.57,81.01,2.48,110.5,28.79,21.74,19.39,36.03,45.71,47.74,72.39,17.16,39.1,29.86,81.61,25.33,124.06-6.38,59.85-46.71,111.87-95.92,146.52-49.22,34.65-107.03,54.57-163.98,74.05"/><circle class="cls-7" cx="1400.64" cy="1714.81" r="11.68"/><circle class="cls-7" cx="1304.67" cy="1714.81" r="11.68"/><circle class="cls-7" cx="1352.51" cy="1714.81" r="11.68"/><circle class="cls-7" cx="1256.68" cy="1714.81" r="11.68"/><circle class="cls-7" cx="1160.71" cy="1714.81" r="11.68"/><circle class="cls-7" cx="1208.55" cy="1714.81" r="11.68"/><circle class="cls-7" cx="1400.45" cy="1666.03" r="11.68"/><circle class="cls-7" cx="1304.48" cy="1666.03" r="11.68"/><circle class="cls-7" cx="1352.31" cy="1666.03" r="11.68"/><circle class="cls-7" cx="1400.3" cy="1617.26" r="11.68"/><circle class="cls-7" cx="1304.33" cy="1617.26" r="11.68"/><circle class="cls-7" cx="1352.16" cy="1617.26" r="11.68"/><circle class="cls-7" cx="1400.3" cy="1568.49" r="11.68"/><circle class="cls-7" cx="1304.33" cy="1568.49" r="11.68"/><circle class="cls-7" cx="1352.16" cy="1568.49" r="11.68"/><circle class="cls-7" cx="1256.49" cy="1666.03" r="11.68"/><circle class="cls-7" cx="1160.52" cy="1666.03" r="11.68"/><circle class="cls-7" cx="1208.36" cy="1666.03" r="11.68"/><circle class="cls-7" cx="1256.34" cy="1617.26" r="11.68"/><circle class="cls-7" cx="1160.37" cy="1617.26" r="11.68"/><circle class="cls-7" cx="1208.21" cy="1617.26" r="11.68"/><circle class="cls-7" cx="1256.34" cy="1568.49" r="11.68"/><circle class="cls-7" cx="1160.37" cy="1568.49" r="11.68"/><circle class="cls-7" cx="1208.21" cy="1568.49" r="11.68"/><circle class="cls-7" cx="1112.39" cy="1714.77" r="11.68"/><circle class="cls-7" cx="1016.42" cy="1714.77" r="11.68"/><circle class="cls-7" cx="1064.26" cy="1714.77" r="11.68"/><circle class="cls-7" cx="968.44" cy="1714.77" r="11.68"/><circle class="cls-7" cx="872.47" cy="1714.77" r="11.68"/><circle class="cls-7" cx="920.3" cy="1714.77" r="11.68"/><circle class="cls-7" cx="1112.2" cy="1666" r="11.68"/><circle class="cls-7" cx="1016.23" cy="1666" r="11.68"/><circle class="cls-7" cx="1064.07" cy="1666" r="11.68"/><circle class="cls-7" cx="1112.05" cy="1617.23" r="11.68"/><circle class="cls-7" cx="1016.08" cy="1617.23" r="11.68"/><circle class="cls-7" cx="1063.92" cy="1617.23" r="11.68"/><circle class="cls-7" cx="1112.05" cy="1568.45" r="11.68"/><circle class="cls-7" cx="1016.08" cy="1568.45" r="11.68"/><circle class="cls-7" cx="1063.92" cy="1568.45" r="11.68"/><circle class="cls-7" cx="968.24" cy="1666" r="11.68"/><circle class="cls-7" cx="872.28" cy="1666" r="11.68"/><circle class="cls-7" cx="920.11" cy="1666" r="11.68"/><circle class="cls-7" cx="968.1" cy="1617.23" r="11.68"/><circle class="cls-7" cx="872.13" cy="1617.23" r="11.68"/><circle class="cls-7" cx="919.96" cy="1617.23" r="11.68"/><circle class="cls-7" cx="968.1" cy="1568.45" r="11.68"/><circle class="cls-7" cx="872.13" cy="1568.45" r="11.68"/><circle class="cls-7" cx="919.96" cy="1568.45" r="11.68"/><circle class="cls-7" cx="1498.22" cy="1714.81" r="11.68"/><circle class="cls-7" cx="1450.09" cy="1714.81" r="11.68"/><circle class="cls-7" cx="1498.03" cy="1666.03" r="11.68"/><circle class="cls-7" cx="1449.89" cy="1666.03" r="11.68"/><circle class="cls-7" cx="1497.88" cy="1617.26" r="11.68"/><circle class="cls-7" cx="1449.75" cy="1617.26" r="11.68"/><circle class="cls-7" cx="967.95" cy="1519.65" r="11.68"/><circle class="cls-7" cx="1015.78" cy="1519.65" r="11.68"/><circle class="cls-7" cx="967.95" cy="1470.87" r="11.68"/><circle class="cls-7" cx="1015.78" cy="1470.87" r="11.68"/><circle class="cls-7" cx="919.62" cy="1519.68" r="11.68"/><circle class="cls-7" cx="871.49" cy="1519.68" r="11.68"/><circle class="cls-7" cx="919.62" cy="1470.91" r="11.68"/><circle class="cls-7" cx="871.49" cy="1470.91" r="11.68"/><circle class="cls-7" cx="826.2" cy="1714.81" r="11.68"/><circle class="cls-7" cx="778.06" cy="1714.81" r="11.68"/><circle class="cls-7" cx="826.01" cy="1666.03" r="11.68"/><circle class="cls-7" cx="777.87" cy="1666.03" r="11.68"/><circle class="cls-7" cx="825.86" cy="1617.26" r="11.68"/><circle class="cls-7" cx="777.72" cy="1617.26" r="11.68"/><circle class="cls-7" cx="1594.83" cy="1714.81" r="11.68"/><circle class="cls-7" cx="1546.69" cy="1714.81" r="11.68"/><circle class="cls-7" cx="1594.64" cy="1666.03" r="11.68"/><circle class="cls-7" cx="1546.5" cy="1666.03" r="11.68"/><circle class="cls-7" cx="1643.11" cy="1714.77" r="11.68"/><path class="cls-11" d="M531.38,1867.63c-15.58-3.58-31.11-7.42-46.34-12.29s-27.45-9.69-41.11-17.18c-6.65-3.64-13.12-7.67-19.24-12.15-.83-.6-1.65-1.21-2.46-1.84.27.21,1.33,1.04.01-.03-1.2-.97-2.39-1.95-3.56-2.96-2.93-2.52-5.76-5.15-8.48-7.89-2.36-2.38-4.63-4.84-6.81-7.37-1.01-1.17-1.99-2.36-2.96-3.56-1.07-1.33-.23-.27-.02,0-.78-1.02-1.53-2.06-2.27-3.1-3.98-5.6-7.52-11.51-10.49-17.71-.25-.53-1.79-3.89-.96-1.95-.69-1.62-1.31-3.28-1.9-4.93-1.18-3.31-2.19-6.68-3.02-10.1-.41-1.71-.78-3.43-1.1-5.15-.13-.68-.65-4.32-.36-1.98-.43-3.51-.62-7.07-.62-10.61.01-8.29.38-10.89,2.38-18.7.82-3.2,1.8-6.35,2.92-9.46.28-.76,1.43-3.73,1.2-3.18-.6,1.45.65-1.44.78-1.71.43-.93.87-1.85,1.32-2.77,6.54-13.21,13.03-21.79,23.22-31.85,2.41-2.37,4.89-4.67,7.46-6.87,1.38-1.18,2.78-2.34,4.19-3.47,1.33-1.06.3-.25.03-.04,1.02-.78,2.07-1.54,3.12-2.29,5.63-4.03,11.54-7.66,17.68-10.86,2.97-1.55,6-3,9.07-4.34,1.58-.69.3-.13-.02,0,.95-.39,1.92-.77,2.88-1.14,1.69-.65,3.39-1.26,5.09-1.85,6.57-2.26,13.3-4.06,20.13-5.35,1.76-.33,3.53-.63,5.3-.9s.14-.02-.19.02c1.01-.13,2.03-.23,3.04-.33,3.54-.35,7.09-.56,10.65-.62,3.28-.05,6.56.02,9.84.23,1.51.1,3.01.22,4.51.37.75.08,1.5.16,2.24.25-2.55-.31.75.14,1.22.22,6.65,1.12,13.2,2.84,19.52,5.2.7.26,1.4.54,2.1.81,2.34.93-1.73-.81.56.25,1.37.63,2.73,1.27,4.08,1.96,3.12,1.59,6.16,3.34,9.08,5.26,1.22.8,2.4,1.64,3.58,2.5-2.09-1.52.04.05.87.75,2.38,2.01,4.64,4.17,6.77,6.44.85.91,1.69,1.84,2.5,2.78.64.75,2.94,3.67,1.18,1.34,1.76,2.33,3.4,4.75,4.93,7.24,1.42,2.32,2.74,4.7,3.95,7.13.56,1.12,1.02,2.31,1.62,3.4,1.07,1.96-.81-2.21-.03-.12.29.78.62,1.55.91,2.34,1.98,5.27,3.51,10.71,4.54,16.24.15.79.72,4.64.51,2.91-.23-1.86.16,1.74.21,2.31.26,3.06.37,6.14.31,9.21-.05,2.65-.37,5.26-.53,7.9-.11,1.75.11-.84.14-.99-.11.59-.18,1.19-.3,1.79-.31,1.58-.61,3.15-.99,4.71-.61,2.52-1.35,5.01-2.23,7.46-.43,1.2-1.36,3.24-.26.86-.67,1.45-1.33,2.89-2.08,4.3-1.22,2.31-2.62,4.48-4.04,6.66-.33.51-.71.97-1.05,1.47,1.63-2.43.58-.7.11-.17-.94,1.07-1.86,2.16-2.84,3.2s-2.02,2.07-3.09,3.04c-.41.38-3.19,2.73-1.62,1.5-2.82,2.19-5.95,3.87-9.07,5.56-2.5,1.36-1.27.65-.58.36-.7.3-1.42.55-2.13.8-1.66.59-3.34,1.11-5.05,1.55-1.45.37-2.92.68-4.4.91,2.39-.37-2.41.08-3.4.09-5.54.01-8.89-.84-13.81-3.98-.56-.36-1.11-.74-1.66-1.12.55.38,1.92,1.8-.07-.12-.95-.91-1.93-1.78-2.84-2.74-.45-.48-.87-.99-1.32-1.47-1.56-1.67,1.22,1.8-.1-.07-.9-1.26-1.76-2.55-2.55-3.89s-1.54-2.74-2.22-4.15c-.3-.61-.58-1.23-.86-1.84.11.24.81,2.05.2.43-1.23-3.26-2.29-6.56-3.13-9.94-.74-2.97-1.29-5.97-1.8-8.98-.3-1.76,0,.23.04.5-.09-.7-.17-1.4-.25-2.09-.2-1.85-.37-3.7-.5-5.56-.5-7.24-.55-14.53-.28-21.79.14-3.62.36-7.24.69-10.85.17-1.94.38-3.88.61-5.82-.01.12.34-2.59.16-1.32-.12.85.29-1.82.34-2.14,1.18-7.4,2.79-14.73,4.9-21.91,1.09-3.71,2.3-7.38,3.66-11,1.52-4.07,1.77-4.64,3.66-8.57,3.23-6.71,6.98-13.17,11.27-19.26,2.27-3.21,2.08-2.96,4.76-6.06,2.35-2.71,4.82-5.32,7.4-7.8,2.4-2.31,4.91-4.51,7.5-6.62,1.32-1.07.26-.24-.01-.03.81-.63,1.64-1.23,2.48-1.82,1.46-1.04,2.94-2.05,4.44-3.03,2.79-1.81,5.65-3.5,8.58-5.05,1.57-.84,3.17-1.63,4.78-2.39.69-.32,1.38-.64,2.08-.95-1.84.82.66-.26,1.34-.52,6.37-2.45,12.95-4.23,19.67-5.37,2.74-.46-.78-.01,1.99-.24,1.76-.14,3.51-.28,5.27-.34,3.53-.13,7.07-.04,10.59.26.76.07,1.52.14,2.27.22-2.53-.29-.15-.01.32.08,1.39.27,2.78.52,4.15.84,3.23.75,6.34,1.79,9.47,2.86.42.14,2.68,1.05.36.08.65.28,1.3.58,1.94.88,1.29.6,2.56,1.23,3.81,1.9,3.14,1.66,6.17,3.52,9.07,5.57.58.41,3.26,2.54,1.49,1.08,1.28,1.05,2.54,2.12,3.76,3.23,2.44,2.22,4.74,4.58,6.89,7.08.46.53.91,1.07,1.36,1.61.07.08,1.48,1.91.56.69-1.01-1.34.69,1.01.9,1.31.4.57.79,1.15,1.18,1.74,1.78,2.72,3.4,5.54,4.81,8.47.3.62.59,1.25.88,1.89.98,2.17-.73-1.99.08.25.47,1.3.94,2.6,1.36,3.92.48,1.54.91,3.09,1.28,4.66.16.67.3,1.35.44,2.03.06.28.6,3.1.31,1.42-.32-1.85.11,1.02.14,1.45.06.69.11,1.39.15,2.08.08,1.4.1,2.8.08,4.19-.02,1.64-.13,3.26-.28,4.89-.17,1.78.02-.26.07-.52-.17.92-.34,1.85-.54,2.76-.36,1.61-.8,3.2-1.3,4.77-.23.71-1.88,4.66-.78,2.33-1.38,2.93-2.96,5.83-4.94,8.4,1.47-1.91-.64.57-1.19,1.14-.63.65-1.3,1.25-1.95,1.88-.12.12-1.85,1.48-.57.52,1-.75-1.83,1.12-2.39,1.43-.36.2-2.88,1.43-1.23.71,1.47-.64-1.1.34-1.39.43-.88.27-5.23,1.02-1.77.64-1.22.13-2.44.2-3.66.19-.56,0-1.24-.14-1.79-.07-2.02.26,2.4.73.48.09-1.24-.41-2.68-.71-3.96-1.01-.71-.17-2.59-1.12.32.25-.53-.25-1.08-.48-1.59-.77-1.04-.58-2.09-1.13-3.09-1.77s-3.5-2.72-1.38-.87c-1.26-1.1-2.51-2.19-3.68-3.38-.9-.91-1.77-1.85-2.61-2.82-.43-.49-.84-1-1.25-1.5-1.47-1.75,1.27,1.8-.06-.1-1.82-2.59-3.53-5.22-5.08-7.99-1.46-2.62-2.79-5.3-4-8.04,1,2.24-.31-.81-.59-1.56-.65-1.72-1.26-3.47-1.82-5.22-4.39-13.73-6.16-26.29-4.91-40.67.49-5.63,2.87-12.13,6-17.37,1.25-2.09-.43.12,1.25-1.65,1.19-1.26,2.35-2.51,3.64-3.67.55-.49,1.09-.99,1.68-1.44-.27.21-1.49,1.07-.09.18,1.64-1.04,3.27-2.04,5.03-2.86,1.6-.74-.02.06-.28.14.9-.3,1.79-.59,2.71-.83,1.01-.26,4.03-.42,1.57-.37.71-.02,1.41-.06,2.11-.05.42,0,3.32.29,1.54.02-1.64-.25.69.2.84.24.86.25,1.71.52,2.57.77-2.49-.73.76.39,1.74.97.54.32,3.29,2.29,2.2,1.41-1.31-1.06.34.36.47.5.59.64,1.27,1.21,1.87,1.84.46.48.89.98,1.33,1.47.19.21,1.85,2.33.93,1.09-1.05-1.42.58.91.8,1.24.38.57.75,1.15,1.12,1.73.73,1.18,1.43,2.38,2.09,3.6.78,1.44,1.52,2.9,2.23,4.38.3.64.59,1.28.89,1.92,1.16,2.46-.18-.55.43.96,1.13,2.8,2.19,5.64,3.19,8.49.55,1.57,1.11,3.14,1.59,4.73.35,1.16.71,2.33.96,3.51.06.28.17,2.58.17,1.32,0-1.11.96.35.03.37l-.22.86.64-1.5c-2.03,2.25.41-.33.46-.36-.94.53-1.02.43-.09.28,2.67-.45-4.56,1,.29-.02-.56.12-1.07.39-1.63.48s-2.73.15-.84.22c2.06.08-.02-.08-.33-.11-.76-.07-1.57-.06-2.34-.12,2.62.19.91-.06-.59-.45,3.37.86-1.21-.78-.14-.08,1.38.91-.43-.38-.61-.55-.68-.67-1.35-1.34-1.98-2.06,1.51,1.75-.89-1.58-1.27-2.27-.34-.63-.68-1.28-.98-1.93.14.3.7,1.84.14.21s-1.07-3.27-1.47-4.95c-.21-.87-1.05-5.76-.74-3.31-.37-2.98-.51-6.01-.49-9.02,0-1.37.05-2.73.12-4.1.04-.68.08-1.37.14-2.05,0,.06.44-4.01.19-2.1-.19,1.43.38-2.14.5-2.76.31-1.58.66-3.14,1.06-4.7.8-3.1,1.81-6.13,2.97-9.11-.96,2.49.61-1.25.98-1.99.6-1.2,1.24-2.39,1.91-3.56.78-1.35,1.6-2.67,2.47-3.96.37-.55.76-1.09,1.15-1.63,1.32-1.87-1.41,1.62.09-.09,1.89-2.15,3.88-4.09,5.92-6.09s.54-.51,0-.11c.52-.39,1.05-.77,1.59-1.13,1.46-.96,2.92-1.88,4.46-2.7.55-.29,3.69-1.69,2.39-1.18-1.58.62.52-.15.7-.19.84-.22,1.65-.54,2.49-.76,1.28-.34,3.63-.58.94-.37,1.66-.13,3.31-.22,4.98-.16,1.38.05,3.52.62.98,0,1.42.35,2.87.59,4.28.99,1.22.35,2.4.77,3.59,1.21,2.11.78-2.07-1.07-.1,0,.74.41,1.51.76,2.25,1.17,1.3.72,2.51,1.55,3.77,2.33,2.33,1.44-1.02-1.14.96.73,1.06,1,2.16,1.95,3.17,3.01.75.78,2.85,3.56,1.22,1.2.81,1.16,1.6,2.32,2.31,3.54.28.49,1.84,3.63,1.09,1.93s.63,2,.79,2.62c.14.53.18,1.19.39,1.69.63,1.59,0-3.24-.02.01,0,1.14-.09,2.33-.04,3.47-.12-2.76.02-.55-.44,1.23-.15.59-.38,1.16-.57,1.73.14-.42,1.22-2.1.2-.61-.42.6-.73,1.35-1.11,1.98-2.11,3.57.67-.5-.94,1.11-1.29,1.28.01.23.16.04.05-.06-2.07,1.55-.82.6,1.37-1.05-2.31.61-.17.15,1.64-.36-.23,0-.61-.02-.45-.03-2.17-.47-.57-.01,1.97.56-.51-.29-.53-.3,1.75,1.53.68.38-.08-.08s-1.58-.93-2.34-1.45c1.88,1.28-.81-.81-1.35-1.35-.7-.7-1.36-1.43-2.02-2.17,0,0-1.49-1.92-.7-.85s-.6-.97-.59-.95c-.5-.88-1.08-1.71-1.58-2.6-.37-.66-.73-1.33-1.07-2-.12-.23-1.29-2.8-.79-1.59.56,1.34-.28-.87-.3-.93-.3-.98-.65-1.95-.94-2.93-.45-1.48-.86-2.97-1.23-4.47-.44-1.76-.81-3.53-1.14-5.31-.14-.76-.27-1.53-.39-2.3.26,1.64.02.17-.06-.64-.33-3.6-.5-7.21-.38-10.83.05-1.54.16-3.07.29-4.61,0-.05.32-2.54.1-1.05-.23,1.59.42-2.19.49-2.52.67-3.22,1.59-6.37,2.72-9.46.6-1.62.06-.21-.08.09.31-.69.64-1.37.98-2.04.91-1.81,1.91-3.56,3.01-5.25.41-.64.84-1.27,1.28-1.89-.34.47-1.42,1.56.34-.41.87-.98,1.75-1.94,2.7-2.85.53-.51,3.54-3.01,2.48-2.23-1.33.99.46-.28.61-.37.75-.45,1.47-.96,2.22-1.41,1.33-.79,2.7-1.46,4.07-2.17,1.52-.79-.33.1-.56.19.61-.24,1.23-.48,1.85-.69,1.46-.48,2.92-.95,4.41-1.32.75-.19,4.65-.92,3.14-.7-1.67.24,2.48-.15,3.18-.17,1.29-.03,2.57.05,3.86.08,2.83.06.45-.01-.18-.12.62.1,1.25.2,1.87.35,1.6.37,3.27,1.09,4.86,1.35s-.32-.17-.66-.34c.57.27,1.15.53,1.69.84,1.29.73,2.56,1.47,3.78,2.31-2.1-1.46.13.37.92.96.86.65,1.03,1.97-.26-.53.33.64.76,1.3,1.15,1.91,1.34,2.1-.23-1.86.16.61.1.66.32,1.52.5,2.19,0,0-.53-2.98-.24-1.26.09.53-.05,1.07,0,1.6-.04-.45.81-3.43.09-.97-.67,2.29,1.96-2.69,1.45-2.17-1.13,1.13,1.28-1.02,1.23-.98.92-.57,2.15-1.03,3.27-1.07.14,0,2.99.53,2.59.85-.28.22-3.16-3.26-3.63-3.73-1.16-1.17.4.52.52.7-.43-.65-.91-1.28-1.34-1.93-.74-1.13-1.44-2.3-2.08-3.49-.42-.78-2.06-4.49-.7-1.09-.99-2.48-1.81-5.02-2.41-7.62-.26-1.11-.39-2.26-.67-3.37.71,2.87.06.52-.06-1.14-.19-2.69-.19-5.4-.01-8.1.04-.56.36-4.12.14-2.07s.37-2.02.5-2.64c.55-2.7,1.27-5.38,2.14-8,.44-1.32.98-2.6,1.43-3.91.55-1.61-.28.69-.35.84.27-.53.49-1.09.75-1.62,1.26-2.5,2.55-4.95,4.04-7.32.75-1.18,1.56-2.31,2.33-3.47,1.57-2.36-1.3,1.38.57-.75,1.97-2.24,3.93-4.45,6.13-6.47.87-.8,1.84-1.51,2.68-2.34,1.18-1.15-.55.4-.71.52.64-.45,1.27-.93,1.92-1.37,2.28-1.56,4.66-2.96,7.14-4.17,1.22-.6,3.21-1.15.76-.39,1.33-.41,2.62-.95,3.95-1.35s2.61-.73,3.93-1.03c.9-.2,1.79-.39,2.7-.55.3-.06,3.11-.43,1.39-.24-1.45.16,2.86-.18,3.43-.21,1.36-.06,2.72-.07,4.07-.05,1.58.03,3.16.12,4.74.26.68.06,1.35.13,2.02.21-1.49-.17-1.35-.22.04.06,2.9.58,5.77,1.2,8.61,2.05,1.53.46,3.05.97,4.55,1.52.64.24,1.28.49,1.92.74,2.31.91-3.04-1.53.84.4,2.69,1.34,5.35,2.68,7.93,4.24,1.19.72,2.36,1.46,3.52,2.24.58.39,1.15.78,1.72,1.18-.08-.05,3.1,2.31,1.84,1.33-.84-.66,1.76,1.49,2.26,1.93,1.23,1.07,2.44,2.17,3.61,3.31,2.35,2.28,4.52,4.71,6.65,7.19.07.08,1.5,1.88.57.67-1.04-1.34.71.99.92,1.28.81,1.14,1.59,2.3,2.35,3.47,1.76,2.74,3.35,5.58,4.77,8.51.3.63.59,1.26.89,1.89-1.09-2.31-.07-.21.11.27.49,1.3.98,2.61,1.41,3.93.99,3.03,1.78,6.12,2.37,9.26.17.9.32,1.81.46,2.72-.04-.25-.26-2.34-.11-.56.14,1.61.28,3.21.34,4.83.12,3.22-.02,6.42-.27,9.63-.23,2.93.38-1.44-.21,1.42-.32,1.55-.62,3.09-1.02,4.62-.34,1.3-.72,2.58-1.14,3.86-.28.84-.59,1.67-.9,2.51-.81,2.14,1-1.96-.06.06-1.33,2.53-2.67,4.99-4.32,7.33,1.56-2.21-.76.81-1.4,1.48-1.06,1.11-2.18,2.15-3.34,3.16,2.05-1.78-.98.65-1.75,1.12-.48.29-3.54,1.89-1.74,1.06s-1.83.58-2.46.74c-1.34.36-5.16.36-1.58.44-1.13-.03-2.27.15-3.41.14-.6,0-4.77-.15-2.57-.04,2.04.1-1.33-.27-1.96-.41-1.5-.34-2.95-.79-4.41-1.26-.55-.17-1.07-.41-1.61-.59.26.09,2.23,1.28.97.38-1.04-.75-2.38-1.2-3.49-1.86-.96-.58-1.87-1.22-2.79-1.85,2.65,1.83-.22-.29-1.13-1.21-.76-.76-1.45-1.58-2.15-2.39,2.44,2.78.23-.02-.32-.89-1.73-2.78.16,1.57-.39-.7-.15-.64-1.16-4.3-.66-2.08.47,2.1.08-1.43.06-2.28-.07-2.54-.8,2.25.18-.71.29-.88.5-1.77.81-2.64-.09.27-.94,1.96-.14.45.75-1.41,1.54-2.8,2.5-4.07-1.59,2.09,1.25-1.1,1.78-1.6s1.03-.94,1.56-1.4c-.49.43-2.12,1.37.33-.21,1.2-.77,2.39-1.55,3.64-2.24.74-.41,5.28-2.29,2.92-1.47,2.91-1.02,5.81-1.78,8.83-2.39,1.74-.36-.35,0-.61.04.68-.08,1.36-.14,2.04-.19,1.81-.14,3.63-.2,5.44-.17,1.36.02,2.72.09,4.08.2.44.04,3.27.41,1.39.12-1.74-.27.5.11.7.15,3.13.65,6.21,1.39,9.24,2.43.65.22,1.28.47,1.93.7,2.23.79-1.94-.92.21.06,1.25.57,2.48,1.16,3.7,1.8,2.84,1.49,5.53,3.2,8.15,5.04,1.93,1.35-1.59-1.35.22.16.53.44,1.05.87,1.57,1.32,1.03.9,2.03,1.83,3,2.79,1.13,1.12,2.22,2.28,3.26,3.49.45.51.88,1.04,1.32,1.56-1.35-1.63-.08-.08.51.78,1.69,2.45,3.05,5.03,4.47,7.63,1.3,2.4-.23-1.15.64,1.44.57,1.72,1.17,3.42,1.63,5.17.34,1.3.6,2.62.88,3.94.6,2.86.13.63.06,0,.07.67.14,1.33.19,2,.25,3.12.26,6.26.03,9.38-.05.67-.14,1.34-.17,2.01.17-2.85.11-.66,0,.01-.25,1.33-.49,2.65-.79,3.96-.71,3.08-1.68,6.06-2.78,9.02-.2.53-1.21,2.55-.06.15-.29.61-.57,1.22-.87,1.83-.6,1.21-1.23,2.4-1.9,3.58-.78,1.37-1.6,2.71-2.48,4.02-.37.56-.77,1.11-1.15,1.66-1.38,1.99,2.22-2.5-.52.7-1.9,2.21-3.86,4.34-6.02,6.31-.46.42-3.08,2.62-2.08,1.84,1.27-.99-.5.34-.63.43-.93.62-1.85,1.26-2.8,1.85-1.15.71-2.32,1.38-3.51,2-.34.18-2.88,1.36-1.31.7,1.45-.61-.72.23-.84.26-1.06.28-3.71,1.6-1.54.58-3.55,1.67-.06-1-.03.27l-1.26-.35,3.21,1.86c.35.43.45,1.14.77,1.53,1.19,1.46-.56-2.01-.19-.14.32,1.6-.06-.57-.06-.81-.01-.72-.02-1.43,0-2.14.03-.9.59-5.14.11-2.28.27-1.6.58-3.18.97-4.76.71-2.9,1.62-5.78,2.76-8.54-1.04,2.53.76-1.42,1.1-2.06.74-1.43,1.54-2.84,2.38-4.22s1.77-2.71,2.68-4.05-.09.02-.26.26c.56-.73,1.17-1.45,1.76-2.15,2.11-2.47,4.39-4.81,6.8-6.99,1.04-.93,2.1-1.84,3.19-2.71-2.03,1.65,1.41-.97,2.02-1.38,2.69-1.82,5.5-3.46,8.42-4.91.66-.33,4.64-1.99,2.13-1.03,1.3-.49,2.59-.98,3.91-1.41,3.08-1,6.21-1.73,9.39-2.33.59-.11,2.9-.27.12-.03.69-.06,1.38-.13,2.07-.18,1.38-.1,2.77-.15,4.15-.15,1.63,0,3.24.09,4.86.18.18,0,2.49.22.77.03-1.85-.2,2.14.39,2.1.38,2.91.58,5.77,1.38,8.56,2.38.64.23,1.28.47,1.92.72-.25-.1-2.01-.91-.45-.17,1.65.78,3.27,1.59,4.86,2.48,2.58,1.45,5.08,3.07,7.44,4.85-1.93-1.46.64.59,1.23,1.11,1.38,1.21,2.71,2.47,4,3.77.97.98,1.9,1.99,2.81,3.02.61.69,1.19,1.4,1.78,2.1-.17-.21-1.25-1.69-.23-.32,1.92,2.58,3.67,5.28,5.24,8.08.79,1.4,1.46,2.85,2.22,4.27,1.3,2.45-.29-1.14.66,1.46,1.1,3,2.1,6.02,2.84,9.14.37,1.55.66,3.12.92,4.69.3,1.76-.06-.37-.08-.61.08.91.17,1.81.23,2.72.2,3.2.11,6.38-.15,9.57-.23,2.87.39-1.41-.26,1.56-.37,1.68-.71,3.35-1.16,5.01-.38,1.41-.81,2.81-1.28,4.2-.31.92-.65,1.83-1,2.75-.87,2.3.85-1.77-.19.45-1.34,2.87-2.82,5.67-4.49,8.37-.9,1.46-1.85,2.88-2.84,4.28-.42.6-.85,1.2-1.3,1.79.96-1.27.12-.16-.4.44-2.1,2.43-4.24,4.82-6.54,7.06-1.97,1.92-5.86,5.31-6.92,6.13s-4.79,3.37-7.05,4.76c-3.2,1.97-6.51,3.76-9.9,5.38-11.92,5.66-28.85,9.43-41.69,10.66-7.95.76-15.95,1.06-23.93,1.05-3.57,0-7.15-.05-10.72-.24-1.82-.1-3.64-.23-5.45-.43.34.04,1.89.3.13,0-1.27-.22-2.53-.45-3.78-.75-1.48-.35-2.94-.8-4.39-1.27-.04-.01-2.27-.96-1-.37,1.45.67-1.27-.75-1.55-.92-.64-.38-1.29-.76-1.9-1.19.29.21,1.33,1.16.09,0-.45-.42-.89-.93-1.37-1.33-2.22-1.85.45,1.24-.06,0-.2-.48-2.03-3.43-1.04-1.51s-.42-1.58-.63-2.21c-.88-2.58-.04,2.53-.11-.21-.04-1.45-.03-2.86.02-4.31.1-2.61-.78,2.73.24-.89.3-1.08.61-2.15.93-3.23.16-.54.4-1.06.58-1.59-.99,3-.55,1.19-.13.46.67-1.16,1.25-2.36,1.97-3.5.77-1.22,2.64-3.17.7-1.16.8-.83,1.51-1.74,2.33-2.56.34-.34,3.42-3.05,1.93-1.86s.04-.02.32-.19c.82-.49,1.59-1.03,2.42-1.5.52-.29,3.6-1.63,1.8-.95s1.82-.42,2.53-.63c2.6-.8-2.44-.04.83-.15,1.88-.06,3.73-.06,5.62.05-2.55-.14.5.09,1.49.31,1.58.36,3.11.87,4.65,1.35s-.08-.12-.36-.24c.64.27,1.27.58,1.89.89,1.68.83,3.3,1.77,4.87,2.79.61.4,3.9,2.97,2.11,1.45,1.09.93,2.17,1.88,3.21,2.88,1.21,1.17,2.37,2.4,3.49,3.67.48.55.95,1.1,1.41,1.66-1-1.22-.18-.27.3.44,1.77,2.63,3.45,5.28,4.89,8.11.32.64,1.96,4.6,1.14,2.37.65,1.77,1.26,3.55,1.77,5.37.36,1.28.68,2.58.96,3.88.15.69.79,4.84.61,3.21s.13,1.98.17,2.57c.1,1.74.13,3.48.1,5.22-.03,1.3-.09,2.61-.19,3.91-.09,1.13-.75,4.72-.15,1.84-.63,3-1.15,5.99-2,8.93-.36,1.26-.76,2.52-1.19,3.76-.18.53-1.66,4.44-1.13,3.13s-1.18,2.52-1.42,3.03c-.68,1.39-1.41,2.75-2.17,4.1-1.41,2.51-2.95,4.95-4.6,7.31-.51.73-1.03,1.45-1.56,2.16.15-.2,1.38-1.73.3-.4-.98,1.21-1.98,2.4-3.02,3.56-2.07,2.31-4.26,4.52-6.57,6.61-.99.89-2.01,1.73-3.01,2.61-.13.11-1.85,1.48-.56.48,1.46-1.14-1.39.99-1.67,1.19-2.34,1.64-4.76,3.16-7.26,4.55-1.15.64-2.31,1.25-3.49,1.83-.78.39-1.58.75-2.37,1.12-2.08.97,2.12-.78-.04,0-2.66.97-5.32,1.9-8.07,2.61-1.48.38-2.96.68-4.46.99-.64.13-1.29.21-1.93.34,1.38-.27,1.66-.16.09-.04-2.86.22-5.69.37-8.56.26-1.55-.06-3.12-.13-4.66-.33.32.04,2.2.46.54-.02-.97-.28-1.94-1.02-1.47-.35.32.46,1.46.8,1.94,1.36.91,1.08,1.49,3.54,1.64,4.94.02.15-.79,2.89-.23,1.28s-.41.79-.46.87c.48-.69.83-1.46,1.33-2.13-.22.29-1.39,1.59-.18.47.51-.47,1-.98,1.5-1.47,1.8-1.77-.33.07.92-.74s2.4-1.53,3.67-2.2c.61-.32,1.23-.63,1.86-.91-1.85.83.99-.34,1.12-.39,4.12-1.54,8.2-3.17,12.35-4.62,15.72-5.53,30.73-9.54,47.05-8.43,3.43.23,5.68.59,9.38,1.59,1.39.37,2.77.8,4.12,1.28.68.24,1.36.49,2.03.76,2.28.9-1.79-.88.41.22,2.82,1.42,5.57,2.91,8.19,4.68.55.37,3.31,2.53,1.61,1.12,1.29,1.07,2.55,2.19,3.75,3.36,1.02,1,2.01,2.03,2.96,3.1.47.53.93,1.07,1.38,1.62-1.53-1.86-.05-.04.2.34.77,1.17,1.54,2.32,2.24,3.53.46.8.87,1.63,1.31,2.44.07.13,1.01,2.2.38.71-.48-1.14.7,2.08.88,2.7.45,1.53.8,3.07,1.09,4.64-.47-2.58-.03.44,0,1.46.02.71-.4,5.89.03,2.98l18.45-10.48c3.77,1.44.16-.11-.69-.51-3.22-1.53,1.19,1.52-.68-.37-.71-.72-1.43-1.45-2.16-2.16-2.25-2.21,1.41,2.56-.13-.21-.51-.92-1.09-2.35-1.79-3.13-.49-1.01-.34-.6.45,1.22-.26-.65-.5-1.3-.72-1.96-.33-1-.62-2.01-.86-3.03-.22-.92-.53-4.27-.2-.17-.19-2.32-.21-4.54-.17-6.86.06-3.88-.7,2.17.08-.7.28-1,.46-2.03.76-3.03.57-1.9.95-2.33-.07-.28.53-1.07,1.14-2.1,1.67-3.16,1.61-3.22-1.57,1.27.36-.65.72-.72,1.44-1.45,2.16-2.17,2.14-2.14-2.48,1.2.29-.13,1.2-.57,2.72-1.33.56-.53,1.33-.49,2.81-.64,4.11-1.14,1.13-.21.79-.15-1.01.16.8-.05,1.6-.06,2.4-.04,3.51-.17-2.64-.81.79.02,1.18.29,2.34.65,3.52.94,1.59.59,1.54.53-.16-.17.56.25,1.12.53,1.66.82,1.25.74,2.49,1.47,3.72,2.24,2.55,1.59-1.37-1.63.87.75.83.88,1.76,1.8,2.64,2.64,2.35,2.25-.83-1.7.71.86.85,1.41,1.68,2.78,2.44,4.24-1.17-2.25-.18-.42.21.93.24.84.61,4.33.39.72.08,1.21.06,2.4.11,3.61-.14,1.73-.1,1.61.1-.35-.16.82-.37,1.63-.61,2.42h28.93c-.38-1.29-.73-2.58-.94-3.91.42,2.67.28-.09.19-1.24-.2-2.71-.5.94-.04-.53.32-1.03.45-2.13.76-3.17.83-2.8,2.75-5.93,4.86-8.16.94-.99,1.93-1.89,2.94-2.81,2.8-2.54-2.01.92,1.29-.92.98-.55,1.91-1.19,2.91-1.72s2.71-1.23.7-.46c1.25-.48,2.53-.9,3.83-1.23.69-.18,4.44-.48,1.28-.38,1.12-.04,2.23-.13,3.35-.11.68,0,1.35.04,2.02.1-1.54-.24-1.76-.26-.67-.06,1.08.23,2.14.46,3.2.77.44.13,4.24,1.69,1.3.32,2.18,1.01,4.2,2.24,6.18,3.6,1.33.91-1.36-1.43.54.51.92.94,1.92,1.79,2.82,2.76.45.48,2.87,3.48,1.04,1.03.66.89,1.28,1.81,1.87,2.75,1.31,2.06,2.5,4.23,3.45,6.48-1.03-2.43.11.6.36,1.43.33,1.06.62,2.14.88,3.23s.46,2.18.65,3.28c-.6-3.34-.02.83,0,1.32.05,1.34-.06,2.66-.03,4,.07,3.23.49-2.17-.1,1.31,9.82,1.33,19.64,2.66,29.46,3.99,0-.58.57-4.9.08-2.88-.52,2.15.73-2.29.82-2.7.68-2.91-1.3,1.95.31-.86.6-1.05,1.13-2.12,1.79-3.14.44-.68.9-1.34,1.38-1.99-.99,1.27-1.13,1.5-.43.68,1.08-.71,2.01-2.17,2.99-3.06.59-.54,3.51-2.6.78-.74,1.02-.69,2.03-1.38,3.1-2.01s2.17-1.16,3.26-1.72c-3.1,1.59.75-.24,1.55-.49,1.36-.42,2.74-.71,4.13-1.04,3.03-.73-2.56-.16.81-.05,1.19.04,2.42.03,3.6.01,1.73.16,1.6.12-.41-.12.59.1,1.18.23,1.77.38.73.24,4.84,1.72,1.59.26,1.08.48,2.12,1.04,3.13,1.66s2.79,2.6.64.32c.77.81,1.67,1.51,2.44,2.33.51.55,1,1.11,1.48,1.69-1.07-1.41-1.3-1.67-.67-.78.37,1.13,1.46,2.31,2.03,3.39.49.94,1.18,3.77.34.57.29,1.1.75,2.16,1.06,3.26.35,1.27.45,2.68.87,3.92.19,1.13.14.75-.14-1.14.08.76.13,1.53.17,2.3.05,1.15.06,2.3,0,3.45-.03.83-.64,4.4.1.58-.51,2.64-1.14,5.14-2.03,7.68.81-2.33.42-.95-.38.5-.55.99-1.18,1.9-1.77,2.87,1.83-2.98.18-.25-.49.46-.56.59-4.33,3.64-1.28,1.39-6.01,4.42-9.35,11.42-6.14,18.73,2.89,6.58,10.44,10.98,17.7,8.68,2.84-.9,5.69-1.59,8.61-2.16,3.14-.62-1.62-.07,1.88-.23,1.23-.06,2.46-.17,3.69-.2,2.73-.08,5.41.08,8.13.25,3.5.22-1.26-.38,1.88.25,1.46.29,2.91.57,4.35.92,2.88.71,5.71,1.61,8.48,2.66-1.93-.73.44.18,1.18.53,1.34.64,2.65,1.31,3.95,2.03,2.36,1.32,4.67,2.77,6.84,4.39-2.03-1.51,1.52,1.33,1.57,1.37,1.11.98,2.18,2.01,3.22,3.07s2,2.18,2.98,3.29c1.65,1.87-.01-.15.82,1.06,1.55,2.23,3,4.51,4.29,6.9.7,1.3,1.36,2.63,1.97,3.97-1.1-2.4.68,1.81.71,1.91.99,2.79,1.81,5.65,2.44,8.55.26,1.21.49,2.42.69,3.64.17,1.08.16.98-.03-.32.08.74.15,1.47.2,2.21.21,2.71.26,5.42.14,8.14-.07,1.48-.18,2.95-.34,4.42.32-2.93-.34,1.67-.38,1.85-.59,2.91-1.42,5.74-2.39,8.55-2.56,7.43,2.92,16.73,10.48,18.45,8.35,1.9,15.71-2.53,18.45-10.48,9.79-28.42,2.12-61.87-18.83-83.37-20.98-21.53-54.37-29.62-82.96-20.59,3.85,9.14,7.71,18.28,11.56,27.42,10.45-7.69,17.82-18.39,19.83-31.4,1.98-12.83.22-26.21-6.61-37.46-14.73-24.23-47.09-28.32-69.36-11.9-12.89,9.51-21.55,23.53-21.59,39.87-.02,7.48,5.72,13.75,13.01,14.73,6.75.91,15.2-3.38,16.46-10.74,5.34-31.24-13.91-65.82-47.08-70.27-33.11-4.45-65.11,29.09-55.44,62.08,4.15,14.14,24.89,14.4,28.93,0,7.99-28.51-17.99-58.69-47.11-57.62-29.07,1.06-44.3,30.44-38.08,56.66,3.47,14.65,13.61,25.78,27.53,31.09,6.95,2.65,17.34-2.99,18.45-10.48,6.03-40.57-29.06-70.93-67.06-74.34-21.15-1.9-42.54,3.97-62.18,11.28-9.86,3.67-19.25,7.19-27.29,14.18-7.76,6.75-13.16,17.28-10.62,27.71,5.29,21.66,33.11,21,50.35,17.58,15.87-3.14,30.47-11.5,42.53-22.09,24.54-21.55,38.01-55.35,31.79-87.72s-41.01-67.32-77.08-56.64c-30.27,8.96-50.21,52.86-24.01,76.88,15.14,13.88,36.6,14.3,55.99,13.91,20.04-.41,40.61-2.81,59.58-9.54,33.62-11.94,65.42-38.74,71.95-75.48,6.11-34.36-11.05-69.61-40.81-87.55-31.13-18.77-69.77-12.01-96.13,11.79-12.35,11.15-22,26.64-25.41,43.02-2.02,9.71-3.16,21.12,2.16,30.06,6.45,10.84,18.61,14.38,30.47,11.79,16.76-3.66,31.34-17.35,40.3-31.4,8.77-13.74,13.56-30.99,12.44-47.3-2.39-34.84-29.95-64.37-64.4-70.14-17.57-2.94-36.57-.6-51.35,10.02s-25.15,29.18-19.04,47.62c5.06,15.3,18.34,26.05,33.5,30.6,16.35,4.91,33.25,1.51,46.41-9.2,27.35-22.26,27.13-64.23,12.91-93.58-14.8-30.54-46.33-52.2-80.01-55.17-31.59-2.79-61.42,15.42-74.99,43.79-12.73,26.62-13.26,64.25,11.67,84.48,9.86,8,24.01,9.84,33.81.56,7.06-6.68,8.3-16.5,6.9-25.61-2.63-17.05-18.89-28.98-35.13-31.7-18.05-3.02-35.98,1.87-50.29,13.21s-22.13,30.12-24.14,48.47c-1.94,17.68,1.35,38.28,10.72,53.6,10.65,17.39,31.99,30.72,51.64,18.49,16.03-9.98,21.46-31.94,14.64-48.96s-20.19-28.19-36.66-33.73c-35.55-11.96-66.75,17.75-76.27,49.78-4.74,15.96-5.68,34.96-.29,50.89,6.58,19.42,23.23,33.09,44.4,29.15,8.41-1.56,16.42-7,20.58-14.53,5.83-10.52,3.42-22.34-.39-33.05-5.86-16.52-13.32-33.12-27.89-43.72-15.61-11.35-37.02-10.41-52.53.64-17.62,12.55-25.66,32.15-26.41,53.39-1.17,33.19,10.79,73.59,39.51,93.03,14.49,9.81,33.74,10.52,48.97,1.96,15.21-8.55,25.04-25.62,27.66-42.55,5.51-35.63-15.05-70.02-45.43-87.79-31.93-18.68-71.01-15.73-102.79,1.71-33.2,18.22-55.67,50.55-66.18,86.45-5.36,18.3-7.78,37.65-7.91,56.7-.12,16.67,1.2,34.16,7.37,49.8,6.86,17.39,18.77,31.69,36.94,37.77s38.91,1.16,54.27-9.07c26.33-17.52,38.89-49.47,35.63-80.46-3.26-31.02-18.45-59.78-44.16-77.92-29.35-20.71-68.19-23.9-102.4-16.06-34.44,7.89-67.06,27.83-89.05,55.58-23.27,29.38-35.21,66.15-25.63,103.29,9.04,35.03,34.43,64.22,64.41,83.44,31.91,20.47,69.19,30.7,105.78,39.11,7.63,1.75,16.6-2.35,18.45-10.48,1.74-7.64-2.3-16.57-10.48-18.45h0Z"/></svg>