<?xml version="1.0" encoding="UTF-8"?>
<svg xmlns="http://www.w3.org/2000/svg" viewBox="0 0 1920 540">
  <defs>
    <style>
      .cls-1 {
        fill: #c4f200;
      }

      .cls-1, .cls-2, .cls-3, .cls-4, .cls-5, .cls-6, .cls-7, .cls-8 {
        stroke-width: 0px;
      }

      .cls-2 {
        fill: #5d62fe;
      }

      .cls-3 {
        fill: #5dfdfe;
      }

      .cls-4 {
        fill: #44c4f5;
      }

      .cls-5 {
        fill: #fe3465;
      }

      .cls-6 {
        fill: #fff;
      }

      .cls-7 {
        fill: #fd4c94;
      }

      .cls-8 {
        fill: #9980f5;
      }
    </style>
  </defs>
  <g id="Layer_2" data-name="Layer 2">
    <circle class="cls-4" cx="1508.55" cy="296.19" r="96.61"/>
    <circle class="cls-4" cx="1665.66" cy="290.99" r="106.32"/>
    <circle class="cls-4" cx="1362.64" cy="352.22" r="100.35"/>
    <circle class="cls-4" cx="1198.45" cy="337.56" r="96.61"/>
    <circle class="cls-4" cx="1347.83" cy="138.63" r="24.71"/>
    <circle class="cls-4" cx="355.87" cy="64.96" r="23.29"/>
    <circle class="cls-4" cx="240.69" cy="275.45" r="24.71"/>
    <circle class="cls-4" cx="804.25" cy="283.42" r="39.4"/>
    <circle class="cls-4" cx="1411.39" cy="227.71" r="51.56"/>
    <circle class="cls-4" cx="464.37" cy="231.1" r="96.83"/>
    <circle class="cls-4" cx="874.72" cy="199.74" r="102.66"/>
    <circle class="cls-4" cx="1052.98" cy="239.28" r="104.18"/>
    <circle class="cls-4" cx="728.76" cy="225.11" r="102.59"/>
    <circle class="cls-4" cx="593.39" cy="178.1" r="93.22"/>
    <circle class="cls-4" cx="305.95" cy="212.51" r="93.22"/>
  </g>
  <g id="Layer_4" data-name="Layer 4">
    <circle class="cls-4" cx="1251.25" cy="130.09" r="24.71"/>
    <circle class="cls-4" cx="1226.84" cy="124.54" r="24.71"/>
    <circle class="cls-4" cx="1226.84" cy="95.68" r="24.71"/>
    <circle class="cls-4" cx="1255.69" cy="95.68" r="24.71"/>
    <circle class="cls-4" cx="1269.01" cy="118.99" r="24.71"/>
    <ellipse class="cls-6" cx="1224.31" cy="101.97" rx="12.2" ry="12.21"/>
    <ellipse class="cls-6" cx="1269.4" cy="118.61" rx="12.2" ry="12.21"/>
    <circle class="cls-4" cx="1224.15" cy="102.13" r="10.14"/>
    <circle class="cls-4" cx="1269.01" cy="118.99" r="10.14"/>
  </g>
  <g id="Layer_3" data-name="Layer 3">
    <circle class="cls-4" cx="1108.98" cy="402.73" r="24.71"/>
    <circle class="cls-4" cx="1089.03" cy="417.86" r="24.71"/>
    <circle class="cls-4" cx="1066.93" cy="399.32" r="24.71"/>
    <circle class="cls-4" cx="1085.48" cy="377.21" r="24.71"/>
    <ellipse class="cls-6" cx="1054.58" cy="411.95" rx="12.2" ry="12.21" transform="translate(61.13 954.99) rotate(-50)"/>
    <ellipse class="cls-6" cx="1114.07" cy="402.53" rx="12.2" ry="12.21" transform="translate(89.6 997.2) rotate(-50)"/>
    <circle class="cls-4" cx="1054.6" cy="412.17" r="10.14" transform="translate(60.97 955.09) rotate(-50)"/>
    <circle class="cls-4" cx="1114.11" cy="403.08" r="10.14" transform="translate(89.19 997.43) rotate(-50)"/>
  </g>
  <g id="Layer_1" data-name="Layer 1">
    <circle class="cls-3" cx="464.93" cy="211.56" r="96.83"/>
    <circle class="cls-7" cx="875.28" cy="180.21" r="102.66"/>
    <circle class="cls-2" cx="1053.54" cy="219.74" r="104.18"/>
    <circle class="cls-8" cx="729.31" cy="205.57" r="102.59"/>
    <circle class="cls-1" cx="593.94" cy="158.57" r="93.22"/>
    <path class="cls-6" d="m485.72,224.89l17.09,39h-35.58l-7.92-22.84c-.47-1.4-1.71-2.02-2.95-2.02-2.17,0-3.73,1.24-3.73,3.73v21.13h-29.52v-109.84h45.21c22.53,0,38.38,14.14,38.38,37.13,0,16.62-6.99,27.81-20.97,33.71Zm-27.34-29.52c-7.92,0-13.67,5.9-13.67,13.67s5.75,13.67,13.67,13.67,13.67-5.9,13.67-13.67-5.9-13.67-13.67-13.67Z"/>
    <path class="cls-6" d="m632.91,206.17h-90.89l25.95-109.84h39.77l25.17,109.84Zm-45.21-41.17c-7.61,0-13.83,6.06-13.83,13.67s6.21,13.83,13.83,13.83,13.83-6.06,13.83-13.83-5.9-13.67-13.83-13.67Z"/>
    <path class="cls-6" d="m783.51,257.31h-86.07c-15.69,0-26.88-9.17-26.88-25.01v-84.83h29.05v72.87c0,4.35,2.33,6.37,6.84,6.37s6.84-2.02,6.84-6.37v-72.87h27.5v72.87c0,4.35,2.33,6.37,6.84,6.37s6.99-2.02,6.99-6.37v-72.87h28.9v109.84Z"/>
    <path class="cls-6" d="m937.47,167.34h-18.95c-2.18,0-3.26,1.09-3.26,3.26v74.42h-31.85v-74.42c0-2.17-1.09-3.26-3.11-3.26h-18.95v-32.16h76.13v32.16Z"/>
    <path class="cls-6" d="m1037.41,280.57c-34.34,0-57.17-25.95-57.17-57.02s23.3-57.02,57.17-57.02,57.02,25.32,57.02,57.02-22.84,57.02-57.02,57.02Zm0-57.02c-10.41,0-18.49,8.23-18.49,18.18s8.08,18.49,18.49,18.49,18.18-8.08,18.18-18.49-8.23-18.18-18.18-18.18Z"/>
    <circle class="cls-5" cx="1199.03" cy="317.31" r="96.61"/>
    <circle class="cls-3" cx="1363.21" cy="331.98" r="100.35"/>
    <circle class="cls-1" cx="1666.23" cy="270.75" r="106.32"/>
    <ellipse class="cls-7" cx="1499.62" cy="275.4" rx="97.58" ry="97.35"/>
    <path class="cls-6" d="m1234.85,370.19h-66.34v-113.85h32.04v76.97c0,2.42,1.29,3.54,3.54,3.54h30.76v33.33Z"/>
    <path class="cls-6" d="m1372.13,391.02h-32.16v-109.84h32.16v109.84Z"/>
    <path class="cls-6" d="m1533.95,285.15h-32.21c-3.87,0-5.31,2.25-5.31,5.64v32.37h-33.17v-113.85h71.17v33.33h-34.62c-3.86,0-5.8,2.42-5.8,6.92,0,4.83,1.93,7.41,5.8,7.41h34.14v28.18Z"/>
    <path class="cls-6" d="m1704.6,333.57h-71.17v-113.85h71.17v29.63h-34.3c-4.19,0-6.76,3.06-6.76,6.92s2.25,7.41,6.76,7.41h34.3v22.38h-33.65c-4.19,0-7.41,2.74-7.41,7.25s2.58,6.92,7.41,6.92h33.65v33.33Z"/>
    <g>
      <path class="cls-2" d="m255.35,424.93c0,1.52-.29,2.9-.87,4.15-.58,1.25-1.37,2.31-2.37,3.19-1,.88-2.17,1.57-3.51,2.05-1.34.49-2.77.73-4.29.73h-5.86v5.82c0,.25-.08.45-.25.62s-.37.25-.62.25-.45-.08-.62-.25-.25-.37-.25-.62v-25.67c0-.09-.01-.17-.04-.26-.03-.09-.04-.17-.04-.26,0-.12.06-.2.17-.26.12-.06.35-.09.69-.09h6.82c1.52,0,2.95.27,4.29.8,1.34.54,2.51,1.27,3.51,2.22s1.79,2.06,2.37,3.35c.58,1.3.87,2.7.87,4.22Zm-1.74,0c0-1.27-.25-2.45-.74-3.53-.49-1.08-1.16-2.01-2.01-2.8-.85-.79-1.83-1.41-2.95-1.86-1.12-.45-2.32-.67-3.59-.67h-5.86v17.24h5.86c1.27,0,2.47-.2,3.59-.59,1.12-.39,2.11-.95,2.95-1.68.85-.73,1.52-1.61,2.01-2.64.49-1.03.74-2.19.74-3.47Z"/>
      <path class="cls-2" d="m276.94,431.27c0,1.45-.25,2.81-.76,4.08-.51,1.27-1.21,2.39-2.11,3.34-.9.96-1.96,1.71-3.19,2.26-1.23.55-2.57.83-4.02.83s-2.81-.27-4.08-.83c-1.27-.55-2.39-1.3-3.34-2.26s-1.71-2.07-2.26-3.34c-.55-1.27-.83-2.63-.83-4.08s.27-2.81.83-4.08c.55-1.27,1.3-2.39,2.26-3.34s2.07-1.71,3.34-2.26c1.27-.55,2.63-.83,4.08-.83s2.79.27,4.02.83,2.29,1.3,3.19,2.26c.9.96,1.6,2.07,2.11,3.34.51,1.27.76,2.64.76,4.08Zm-1.39,0c0-1.23-.22-2.38-.67-3.46-.45-1.08-1.06-2.02-1.85-2.82-.78-.8-1.7-1.44-2.76-1.91-1.06-.47-2.19-.71-3.41-.71s-2.35.24-3.41.71c-1.06.47-1.98,1.11-2.76,1.91-.78.8-1.4,1.74-1.85,2.82-.45,1.08-.67,2.23-.67,3.46s.22,2.39.67,3.46c.45,1.08,1.06,2.02,1.85,2.82.78.8,1.7,1.44,2.76,1.91,1.06.47,2.19.71,3.41.71s2.35-.24,3.41-.71c1.06-.47,1.98-1.11,2.76-1.91.78-.8,1.4-1.74,1.85-2.82.45-1.08.67-2.23.67-3.46Zm1.82,1.39c0,.25-.08.45-.24.62-.16.17-.37.25-.63.25-.25,0-.45-.08-.62-.25s-.25-.37-.25-.62v-9.25c0-.54.04-.97.12-1.3.08-.33.18-.6.31-.79.13-.2.27-.33.42-.4.15-.07.3-.11.44-.11.29,0,.43.15.43.43v11.42Zm0,8.14c0,.32-.08.56-.25.73s-.36.25-.58.25c-.29,0-.51-.08-.67-.25s-.24-.41-.24-.73v-9.45c0-.25.08-.45.25-.62.17-.17.37-.25.62-.25.26,0,.47.08.63.25.16.17.24.37.24.62v9.45Z"/>
      <path class="cls-2" d="m282.58,421.15c0-.29.14-.43.43-.43.14,0,.29.04.45.11.15.07.29.21.42.4s.24.46.31.79c.08.33.12.77.12,1.3v17.55c0,.25-.08.45-.25.62s-.37.25-.62.25c-.26,0-.47-.08-.63-.25-.16-.17-.24-.37-.24-.62v-19.72Zm14.38,9.73c0-1.19-.08-2.3-.24-3.33-.16-1.04-.46-1.94-.89-2.71-.43-.77-1.04-1.39-1.8-1.83-.77-.45-1.76-.67-2.98-.67s-2.16.24-3,.71c-.84.47-1.54,1.1-2.1,1.9-.56.8-.97,1.72-1.24,2.76s-.4,2.14-.4,3.28l-.7-4c.15-.52.38-1.14.7-1.85.32-.71.77-1.39,1.36-2.04.59-.65,1.32-1.2,2.19-1.65s1.94-.67,3.18-.67c1.59,0,2.89.27,3.89.83s1.78,1.3,2.33,2.25c.56.95.93,2.06,1.13,3.32.2,1.27.29,2.62.29,4.07v9.64c0,.07-.01.16-.04.25-.03.09-.08.19-.14.28-.07.09-.16.17-.27.24-.12.06-.25.1-.41.1-.26,0-.47-.09-.63-.26-.16-.17-.24-.39-.24-.65v-9.95Zm14.33,0c0-1.19-.08-2.3-.24-3.33-.16-1.04-.46-1.94-.89-2.71-.43-.77-1.04-1.39-1.8-1.83-.77-.45-1.76-.67-2.97-.67s-2.16.24-3,.71c-.84.47-1.54,1.1-2.1,1.9-.56.8-.97,1.72-1.24,2.76-.27,1.04-.4,2.14-.4,3.28l-.61-4.43c.14-.52.37-1.11.68-1.78.31-.67.75-1.3,1.32-1.89s1.29-1.09,2.16-1.5c.87-.41,1.93-.61,3.17-.61,1.59,0,2.89.27,3.89.83,1,.55,1.78,1.3,2.33,2.25.56.95.93,2.06,1.13,3.32.2,1.27.29,2.62.29,4.07v9.64c0,.06-.01.13-.04.23-.03.09-.08.19-.14.28-.06.09-.15.18-.26.25-.11.07-.25.11-.42.11-.26,0-.47-.09-.63-.26-.16-.17-.24-.39-.24-.65v-9.95Z"/>
      <path class="cls-2" d="m318.21,440.07c.36,0,.64.13.83.38.19.25.25.58.18.99-.2.59-.42,1.08-.67,1.46-.24.38-.47.67-.68.89-.21.22-.39.37-.54.45-.15.08-.24.12-.27.12-.16,0-.33-.07-.51-.21s-.27-.4-.27-.79c0-.03.04-.2.13-.52.09-.32.2-.69.33-1.11.13-.42.31-.8.54-1.14s.54-.51.93-.51Z"/>
      <path class="cls-2" d="m334.31,440.7c0,.1-.01.21-.04.33-.03.12-.08.23-.14.34-.06.11-.15.2-.26.27-.11.07-.25.11-.42.11-.19,0-.34-.04-.46-.13-.12-.09-.2-.19-.26-.3-.06-.12-.1-.23-.12-.35-.02-.12-.03-.2-.03-.26v-25.45c0-.09-.01-.17-.04-.26-.03-.09-.04-.17-.04-.26,0-.12.06-.2.17-.26.12-.06.35-.09.69-.09s.58.08.73.25c.15.17.23.37.23.62v25.45Z"/>
      <path class="cls-2" d="m339.52,421.15c0-.29.14-.43.43-.43.14,0,.29.04.45.11.15.07.29.21.42.4s.24.46.31.79c.08.33.12.77.12,1.3v17.55c0,.25-.08.45-.25.62s-.37.25-.62.25c-.26,0-.47-.08-.63-.25-.16-.17-.24-.37-.24-.62v-19.72Zm19.28,10.12c0-1.23-.21-2.38-.63-3.46-.42-1.08-1-2.02-1.74-2.82-.74-.8-1.62-1.44-2.64-1.91-1.02-.47-2.13-.71-3.33-.71-.8,0-1.58.11-2.35.34-.77.22-1.49.54-2.17.94-.68.41-1.31.89-1.88,1.44-.57.56-1.07,1.17-1.49,1.83-.42.67-.75,1.38-.98,2.13s-.35,1.52-.35,2.3v-5.04c.19-.54.55-1.13,1.1-1.78.54-.65,1.22-1.26,2.02-1.81.8-.56,1.72-1.02,2.76-1.4,1.03-.38,2.15-.56,3.33-.56,1.45,0,2.79.27,4.02.83,1.23.55,2.29,1.3,3.19,2.25s1.6,2.06,2.11,3.32c.51,1.27.76,2.62.76,4.07v9.6c0,.07-.01.16-.04.27-.03.11-.08.21-.14.3-.07.09-.16.17-.27.24-.12.06-.25.1-.41.1-.26,0-.47-.09-.63-.26-.16-.17-.24-.39-.24-.65v-9.55Z"/>
      <path class="cls-2" d="m385.1,431.27c0,1.45-.25,2.81-.76,4.08-.51,1.27-1.21,2.39-2.11,3.34-.9.96-1.96,1.71-3.19,2.26-1.23.55-2.57.83-4.02.83s-2.81-.27-4.08-.83c-1.27-.55-2.39-1.3-3.34-2.26s-1.71-2.07-2.26-3.34c-.55-1.27-.83-2.63-.83-4.08s.27-2.81.83-4.08c.55-1.27,1.3-2.39,2.26-3.34s2.07-1.71,3.34-2.26c1.27-.55,2.63-.83,4.08-.83s2.79.27,4.02.83,2.29,1.3,3.19,2.26c.9.96,1.6,2.07,2.11,3.34.51,1.27.76,2.64.76,4.08Zm-1.39,0c0-1.23-.22-2.38-.67-3.46-.45-1.08-1.06-2.02-1.85-2.82-.78-.8-1.7-1.44-2.76-1.91-1.06-.47-2.19-.71-3.41-.71s-2.35.24-3.41.71c-1.06.47-1.98,1.11-2.76,1.91-.78.8-1.4,1.74-1.85,2.82-.45,1.08-.67,2.23-.67,3.46s.22,2.39.67,3.46c.45,1.08,1.06,2.02,1.85,2.82.78.8,1.7,1.44,2.76,1.91,1.06.47,2.19.71,3.41.71s2.35-.24,3.41-.71c1.06-.47,1.98-1.11,2.76-1.91.78-.8,1.4-1.74,1.85-2.82.45-1.08.67-2.23.67-3.46Zm1.82,1.39c0,.25-.08.45-.24.62-.16.17-.37.25-.63.25-.25,0-.45-.08-.62-.25s-.25-.37-.25-.62v-9.25c0-.54.04-.97.12-1.3.08-.33.18-.6.31-.79.13-.2.27-.33.42-.4.15-.07.3-.11.44-.11.29,0,.43.15.43.43v11.42Zm0,8.14c0,.32-.08.56-.25.73s-.36.25-.58.25c-.29,0-.51-.08-.67-.25s-.24-.41-.24-.73v-9.45c0-.25.08-.45.25-.62.17-.17.37-.25.62-.25.26,0,.47.08.63.25.16.17.24.37.24.62v9.45Z"/>
      <path class="cls-2" d="m390.75,421.15c0-.29.14-.43.43-.43.14,0,.29.04.45.11.15.07.29.21.42.4s.24.46.31.79c.08.33.12.77.12,1.3v17.55c0,.25-.08.45-.25.62s-.37.25-.62.25c-.26,0-.47-.08-.63-.25-.16-.17-.24-.37-.24-.62v-19.72Zm19.28,10.12c0-1.23-.21-2.38-.63-3.46-.42-1.08-1-2.02-1.74-2.82-.74-.8-1.62-1.44-2.64-1.91-1.02-.47-2.13-.71-3.33-.71-.8,0-1.58.11-2.35.34-.77.22-1.49.54-2.17.94-.68.41-1.31.89-1.88,1.44-.57.56-1.07,1.17-1.49,1.83-.42.67-.75,1.38-.98,2.13s-.35,1.52-.35,2.3v-5.04c.19-.54.55-1.13,1.1-1.78.54-.65,1.22-1.26,2.02-1.81.8-.56,1.72-1.02,2.76-1.4,1.03-.38,2.15-.56,3.33-.56,1.45,0,2.79.27,4.02.83,1.23.55,2.29,1.3,3.19,2.25s1.6,2.06,2.11,3.32c.51,1.27.76,2.62.76,4.07v9.6c0,.07-.01.16-.04.27-.03.11-.08.21-.14.3-.07.09-.16.17-.27.24-.12.06-.25.1-.41.1-.26,0-.47-.09-.63-.26-.16-.17-.24-.39-.24-.65v-9.55Z"/>
      <path class="cls-2" d="m416.98,421.15c0-.29.14-.43.43-.43.14,0,.29.04.45.11.15.07.29.21.42.4s.24.46.31.79c.08.33.12.77.12,1.3v17.55c0,.25-.08.45-.25.62s-.37.25-.62.25c-.26,0-.47-.08-.63-.25-.16-.17-.24-.37-.24-.62v-19.72Zm19.28,10.12c0-1.23-.21-2.38-.63-3.46-.42-1.08-1-2.02-1.74-2.82-.74-.8-1.62-1.44-2.64-1.91-1.02-.47-2.13-.71-3.33-.71-.8,0-1.58.11-2.35.34-.77.22-1.49.54-2.17.94-.68.41-1.31.89-1.88,1.44-.57.56-1.07,1.17-1.49,1.83-.42.67-.75,1.38-.98,2.13s-.35,1.52-.35,2.3v-5.04c.19-.54.55-1.13,1.1-1.78.54-.65,1.22-1.26,2.02-1.81.8-.56,1.72-1.02,2.76-1.4,1.03-.38,2.15-.56,3.33-.56,1.45,0,2.79.27,4.02.83,1.23.55,2.29,1.3,3.19,2.25s1.6,2.06,2.11,3.32c.51,1.27.76,2.62.76,4.07v9.6c0,.07-.01.16-.04.27-.03.11-.08.21-.14.3-.07.09-.16.17-.27.24-.12.06-.25.1-.41.1-.26,0-.47-.09-.63-.26-.16-.17-.24-.39-.24-.65v-9.55Z"/>
      <path class="cls-2" d="m462.56,431.27c0,1.45-.25,2.81-.76,4.08-.51,1.27-1.21,2.39-2.11,3.34-.9.96-1.96,1.71-3.19,2.26-1.23.55-2.57.83-4.02.83s-2.81-.27-4.08-.83c-1.27-.55-2.39-1.3-3.34-2.26s-1.71-2.07-2.26-3.34c-.55-1.27-.83-2.63-.83-4.08s.27-2.81.83-4.08c.55-1.27,1.3-2.39,2.26-3.34s2.07-1.71,3.34-2.26c1.27-.55,2.63-.83,4.08-.83s2.79.27,4.02.83,2.29,1.3,3.19,2.26c.9.96,1.6,2.07,2.11,3.34.51,1.27.76,2.64.76,4.08Zm-1.39,0c0-1.23-.22-2.38-.67-3.46-.45-1.08-1.06-2.02-1.85-2.82-.78-.8-1.7-1.44-2.76-1.91-1.06-.47-2.19-.71-3.41-.71s-2.35.24-3.41.71c-1.06.47-1.98,1.11-2.76,1.91-.78.8-1.4,1.74-1.85,2.82-.45,1.08-.67,2.23-.67,3.46s.22,2.39.67,3.46c.45,1.08,1.06,2.02,1.85,2.82.78.8,1.7,1.44,2.76,1.91,1.06.47,2.19.71,3.41.71s2.35-.24,3.41-.71c1.06-.47,1.98-1.11,2.76-1.91.78-.8,1.4-1.74,1.85-2.82.45-1.08.67-2.23.67-3.46Zm1.82,1.39c0,.25-.08.45-.24.62-.16.17-.37.25-.63.25-.25,0-.45-.08-.62-.25s-.25-.37-.25-.62v-9.25c0-.54.04-.97.12-1.3.08-.33.18-.6.31-.79.13-.2.27-.33.42-.4.15-.07.3-.11.44-.11.29,0,.43.15.43.43v11.42Zm0,8.14c0,.32-.08.56-.25.73s-.36.25-.58.25c-.29,0-.51-.08-.67-.25s-.24-.41-.24-.73v-9.45c0-.25.08-.45.25-.62.17-.17.37-.25.62-.25.26,0,.47.08.63.25.16.17.24.37.24.62v9.45Z"/>
      <path class="cls-2" d="m468.17,440.07c.36,0,.64.13.83.38.19.25.25.58.18.99-.2.59-.42,1.08-.67,1.46-.24.38-.47.67-.68.89-.21.22-.39.37-.54.45-.15.08-.24.12-.27.12-.16,0-.33-.07-.51-.21s-.27-.4-.27-.79c0-.03.04-.2.13-.52.09-.32.2-.69.33-1.11.13-.42.31-.8.54-1.14s.54-.51.93-.51Z"/>
      <path class="cls-2" d="m480.54,415.38c-.07-.22-.06-.43.03-.63.09-.2.27-.35.53-.46.22-.07.43-.06.64.03s.36.26.45.49l9.12,25.19.22.56c.09.22.07.43-.05.65-.12.22-.29.36-.51.43-.25.07-.47.06-.67-.03-.2-.09-.34-.26-.41-.49l-9.34-25.75Zm11.03,25.75c-.09.23-.23.39-.42.49-.2.09-.42.11-.66.03-.23-.07-.41-.22-.52-.43-.12-.22-.13-.43-.04-.65l.22-.56,9.12-25.19c.07-.23.22-.39.43-.49.22-.09.43-.1.65-.03.26.1.44.25.53.46s.1.41.03.63l-9.34,25.75Z"/>
      <path class="cls-2" d="m509.72,441.74c-1.45,0-2.81-.27-4.08-.83-1.27-.55-2.39-1.3-3.34-2.25-.96-.95-1.71-2.06-2.26-3.32s-.83-2.62-.83-4.07c0-1.62.29-3.08.88-4.39.59-1.3,1.38-2.41,2.37-3.32s2.14-1.61,3.45-2.11,2.7-.74,4.16-.74,2.79.27,4.04.8,2.32,1.27,3.24,2.21c.91.94,1.63,2.05,2.15,3.32.52,1.27.78,2.65.78,4.13v.41c0,.12-.04.21-.11.27-.07.06-.2.11-.39.14-.19.03-.47.04-.85.04h-17.89c.09,1.13.37,2.19.86,3.17.48.98,1.11,1.84,1.89,2.56.77.72,1.67,1.3,2.68,1.72,1.01.42,2.1.63,3.26.63,1.07,0,2.12-.19,3.16-.58,1.04-.38,1.94-.96,2.7-1.73.13-.13.28-.21.46-.24s.34-.01.51.05c.17.06.31.17.42.31s.17.33.17.56c0,.3-.22.64-.67,1.02-.45.38-1.03.73-1.75,1.05-.72.33-1.52.6-2.4.81-.88.22-1.75.33-2.61.33Zm.35-19.41c-1.17,0-2.28.21-3.31.63-1.04.42-1.95.99-2.76,1.72-.8.72-1.46,1.58-1.98,2.56-.51.98-.83,2.04-.94,3.17h17.42c-.09-1.13-.35-2.19-.8-3.17-.45-.98-1.04-1.84-1.78-2.56-.74-.72-1.6-1.3-2.59-1.72-.99-.42-2.07-.63-3.25-.63Z"/>
      <path class="cls-2" d="m534.3,447.91c1.55-.06,2.85-.32,3.9-.78,1.05-.46,1.88-1.17,2.5-2.11.61-.94,1.03-2.14,1.26-3.58.22-1.45.29-3.18.21-5.21-.26.72-.69,1.42-1.28,2.1-.59.67-1.3,1.27-2.12,1.78-.82.51-1.73.92-2.73,1.23s-2.03.46-3.08.46c-1.45,0-2.79-.27-4.02-.83-1.23-.55-2.29-1.3-3.19-2.26-.9-.96-1.6-2.07-2.11-3.34-.51-1.27-.76-2.63-.76-4.08s.25-2.81.76-4.08c.51-1.27,1.21-2.39,2.11-3.34.9-.96,1.96-1.71,3.19-2.26s2.57-.83,4.02-.83c1.19,0,2.3.19,3.33.56,1.03.38,1.95.84,2.76,1.4.8.56,1.47,1.16,2.01,1.81s.9,1.25,1.11,1.78c0-1.9.07-3.29.21-4.18.14-.89.49-1.34,1.05-1.34.17,0,.29.1.36.29.06.2.11.43.13.71.02.27.02.56.01.87-.01.3-.02.56-.02.78v16.63c0,1.4-.24,2.7-.71,3.88-.47,1.18-1.12,2.2-1.94,3.06s-1.81,1.53-2.95,2.02-2.39.73-3.73.73c-.33,0-.77-.03-1.3-.08-.54-.05-1.05-.13-1.55-.25-.5-.12-.93-.27-1.29-.47-.36-.2-.54-.44-.54-.73,0-.38.14-.63.43-.76.29-.13.59-.15.91-.06.55.16,1.08.29,1.59.38.51.09,1.01.13,1.5.1Zm-9.55-16.63c0,1.23.2,2.39.6,3.46.4,1.08.96,2.02,1.67,2.82.72.8,1.58,1.44,2.58,1.91,1.01.47,2.12.71,3.35.71s2.4-.24,3.5-.71c1.1-.47,2.07-1.11,2.9-1.91.83-.8,1.49-1.74,1.99-2.82.49-1.08.74-2.23.74-3.46s-.25-2.32-.76-3.4c-.51-1.08-1.18-2.03-2.03-2.84-.85-.82-1.82-1.47-2.91-1.94-1.09-.48-2.23-.72-3.42-.72s-2.35.24-3.35.71c-1.01.47-1.87,1.11-2.58,1.91-.72.8-1.27,1.74-1.67,2.82-.4,1.08-.6,2.23-.6,3.46Z"/>
      <path class="cls-2" d="m568.53,431.27c0,1.45-.25,2.81-.76,4.08-.51,1.27-1.21,2.39-2.11,3.34-.9.96-1.96,1.71-3.19,2.26-1.23.55-2.57.83-4.02.83s-2.81-.27-4.08-.83c-1.27-.55-2.39-1.3-3.34-2.26s-1.71-2.07-2.26-3.34c-.55-1.27-.83-2.63-.83-4.08s.27-2.81.83-4.08c.55-1.27,1.3-2.39,2.26-3.34s2.07-1.71,3.34-2.26c1.27-.55,2.63-.83,4.08-.83s2.79.27,4.02.83,2.29,1.3,3.19,2.26c.9.96,1.6,2.07,2.11,3.34.51,1.27.76,2.64.76,4.08Zm-1.39,0c0-1.23-.22-2.38-.67-3.46-.45-1.08-1.06-2.02-1.85-2.82-.78-.8-1.7-1.44-2.76-1.91-1.06-.47-2.19-.71-3.41-.71s-2.35.24-3.41.71c-1.06.47-1.98,1.11-2.76,1.91-.78.8-1.4,1.74-1.85,2.82-.45,1.08-.67,2.23-.67,3.46s.22,2.39.67,3.46c.45,1.08,1.06,2.02,1.85,2.82.78.8,1.7,1.44,2.76,1.91,1.06.47,2.19.71,3.41.71s2.35-.24,3.41-.71c1.06-.47,1.98-1.11,2.76-1.91.78-.8,1.4-1.74,1.85-2.82.45-1.08.67-2.23.67-3.46Zm1.82,1.39c0,.25-.08.45-.24.62-.16.17-.37.25-.63.25-.25,0-.45-.08-.62-.25s-.25-.37-.25-.62v-9.25c0-.54.04-.97.12-1.3.08-.33.18-.6.31-.79.13-.2.27-.33.42-.4.15-.07.3-.11.44-.11.29,0,.43.15.43.43v11.42Zm0,8.14c0,.32-.08.56-.25.73s-.36.25-.58.25c-.29,0-.51-.08-.67-.25s-.24-.41-.24-.73v-9.45c0-.25.08-.45.25-.62.17-.17.37-.25.62-.25.26,0,.47.08.63.25.16.17.24.37.24.62v9.45Z"/>
      <path class="cls-2" d="m574.14,440.07c.36,0,.64.13.83.38.19.25.25.58.18.99-.2.59-.42,1.08-.67,1.46-.24.38-.47.67-.68.89-.21.22-.39.37-.54.45-.15.08-.24.12-.27.12-.16,0-.33-.07-.51-.21s-.27-.4-.27-.79c0-.03.04-.2.13-.52.09-.32.2-.69.33-1.11.13-.42.31-.8.54-1.14s.54-.51.93-.51Z"/>
      <path class="cls-2" d="m607.35,440.87c0,.33-.13.56-.38.68-.25.12-.53.18-.84.18h-16.03c-.61,0-1.02-.14-1.24-.42-.22-.28-.33-.71-.33-1.27v-24.54c0-.12-.02-.24-.07-.38-.04-.14-.06-.27-.06-.4,0-.12.04-.21.12-.28.08-.07.23-.11.45-.11h17.29c.36,0,.63.09.79.27.17.18.25.38.25.6s-.09.42-.26.6-.42.27-.74.27h-16.03v11.07h13.2c.26,0,.5.06.72.17.22.12.33.35.33.69,0,.26-.09.47-.28.63-.19.16-.43.24-.72.24h-13.25v11.12h15.77c.33,0,.63.05.9.14.27.09.4.34.4.73Z"/>
      <path class="cls-2" d="m610.52,415.25c0-.25.08-.45.24-.62.16-.17.37-.25.63-.25.25,0,.45.08.62.25.17.17.25.37.25.62v25.62c0,.25-.08.45-.25.62s-.37.25-.62.25c-.26,0-.47-.08-.63-.25-.16-.17-.24-.37-.24-.62v-25.62Z"/>
      <path class="cls-2" d="m625.38,441.22c-.06.13-.14.24-.25.34-.11.09-.21.16-.31.18-.25.09-.47.08-.66-.03-.2-.11-.35-.27-.47-.49l-8.08-19.28c-.09-.22-.09-.43-.02-.64.07-.21.24-.37.5-.49.22-.09.43-.08.64.03.21.11.37.27.49.49l7.3,17.42,7.38-17.5c.12-.22.28-.38.49-.48.21-.1.42-.09.64.04.25.09.41.24.5.45.09.21.09.42.02.64l-8.17,19.33Z"/>
      <path class="cls-2" d="m655.1,431.27c0,1.45-.25,2.81-.76,4.08-.51,1.27-1.21,2.39-2.11,3.34-.9.96-1.96,1.71-3.19,2.26-1.23.55-2.57.83-4.02.83s-2.81-.27-4.08-.83c-1.27-.55-2.39-1.3-3.34-2.26s-1.71-2.07-2.26-3.34c-.55-1.27-.83-2.63-.83-4.08s.27-2.81.83-4.08c.55-1.27,1.3-2.39,2.26-3.34s2.07-1.71,3.34-2.26c1.27-.55,2.63-.83,4.08-.83s2.79.27,4.02.83,2.29,1.3,3.19,2.26c.9.96,1.6,2.07,2.11,3.34.51,1.27.76,2.64.76,4.08Zm-1.39,0c0-1.23-.22-2.38-.67-3.46-.45-1.08-1.06-2.02-1.85-2.82-.78-.8-1.7-1.44-2.76-1.91-1.06-.47-2.19-.71-3.41-.71s-2.35.24-3.41.71c-1.06.47-1.98,1.11-2.76,1.91-.78.8-1.4,1.74-1.85,2.82-.45,1.08-.67,2.23-.67,3.46s.22,2.39.67,3.46c.45,1.08,1.06,2.02,1.85,2.82.78.8,1.7,1.44,2.76,1.91,1.06.47,2.19.71,3.41.71s2.35-.24,3.41-.71c1.06-.47,1.98-1.11,2.76-1.91.78-.8,1.4-1.74,1.85-2.82.45-1.08.67-2.23.67-3.46Zm1.82,1.39c0,.25-.08.45-.24.62-.16.17-.37.25-.63.25-.25,0-.45-.08-.62-.25s-.25-.37-.25-.62v-9.25c0-.54.04-.97.12-1.3.08-.33.18-.6.31-.79.13-.2.27-.33.42-.4.15-.07.3-.11.44-.11.29,0,.43.15.43.43v11.42Zm0,8.14c0,.32-.08.56-.25.73s-.36.25-.58.25c-.29,0-.51-.08-.67-.25s-.24-.41-.24-.73v-9.45c0-.25.08-.45.25-.62.17-.17.37-.25.62-.25.26,0,.47.08.63.25.16.17.24.37.24.62v9.45Z"/>
      <path class="cls-2" d="m660.72,440.07c.36,0,.64.13.83.38.19.25.25.58.18.99-.2.59-.42,1.08-.67,1.46-.24.38-.47.67-.68.89-.21.22-.39.37-.54.45-.15.08-.24.12-.27.12-.16,0-.33-.07-.51-.21s-.27-.4-.27-.79c0-.03.04-.2.13-.52.09-.32.2-.69.33-1.11.13-.42.31-.8.54-1.14s.54-.51.93-.51Z"/>
      <path class="cls-2" d="m694.5,415.2c0,.58-.36.87-1.09.87h-8.77v24.8c0,.25-.07.45-.22.62-.15.17-.36.25-.65.25-.26,0-.47-.08-.63-.24s-.24-.37-.24-.63v-24.8h-8.82c-.3,0-.55-.07-.75-.21-.2-.14-.29-.36-.29-.66,0-.2.09-.4.26-.59.17-.19.43-.28.78-.28h19.28c.33,0,.6.06.81.18.21.12.31.35.31.68Z"/>
      <path class="cls-2" d="m701.1,441.74c-1.45,0-2.81-.27-4.08-.83-1.27-.55-2.39-1.3-3.34-2.25-.96-.95-1.71-2.06-2.26-3.32s-.83-2.62-.83-4.07c0-1.62.29-3.08.88-4.39.59-1.3,1.38-2.41,2.37-3.32s2.14-1.61,3.45-2.11,2.7-.74,4.16-.74,2.79.27,4.04.8,2.32,1.27,3.24,2.21c.91.94,1.63,2.05,2.15,3.32.52,1.27.78,2.65.78,4.13v.41c0,.12-.04.21-.11.27-.07.06-.2.11-.39.14-.19.03-.47.04-.85.04h-17.89c.09,1.13.37,2.19.86,3.17.48.98,1.11,1.84,1.89,2.56.77.72,1.67,1.3,2.68,1.72,1.01.42,2.1.63,3.26.63,1.07,0,2.12-.19,3.16-.58,1.04-.38,1.94-.96,2.7-1.73.13-.13.28-.21.46-.24s.34-.01.51.05c.17.06.31.17.42.31s.17.33.17.56c0,.3-.22.64-.67,1.02-.45.38-1.03.73-1.75,1.05-.72.33-1.52.6-2.4.81-.88.22-1.75.33-2.61.33Zm.35-19.41c-1.17,0-2.28.21-3.31.63-1.04.42-1.95.99-2.76,1.72-.8.72-1.46,1.58-1.98,2.56-.51.98-.83,2.04-.94,3.17h17.42c-.09-1.13-.35-2.19-.8-3.17-.45-.98-1.04-1.84-1.78-2.56-.74-.72-1.6-1.3-2.59-1.72-.99-.42-2.07-.63-3.25-.63Z"/>
      <path class="cls-2" d="m715.56,421.15c0-.29.14-.43.43-.43.14,0,.29.04.45.11.15.07.29.21.42.4s.24.46.31.79c.08.33.12.77.12,1.3v17.55c0,.25-.08.45-.25.62s-.37.25-.62.25c-.26,0-.47-.08-.63-.25-.16-.17-.24-.37-.24-.62v-19.72Zm1.74,4.99c.1-.35.33-.77.68-1.27.35-.5.81-1,1.36-1.51s1.19-.98,1.92-1.41c.73-.43,1.54-.76,2.42-.98.22-.06.5-.1.84-.14.34-.04.7-.06,1.09-.07.38,0,.76,0,1.14.04s.72.11,1.03.21c.31.1.56.24.75.4.19.17.28.38.28.64s-.1.47-.29.63c-.2.16-.42.24-.66.24-.15,0-.27-.02-.37-.06-.1-.04-.22-.09-.35-.15-.13-.06-.29-.11-.48-.16-.19-.05-.44-.08-.76-.1-.74-.04-1.52.06-2.35.3-.77.23-1.5.58-2.19,1.03s-1.32,1-1.88,1.64c-.56.64-1.03,1.35-1.41,2.15-.38.8-.64,1.65-.77,2.56v-4Z"/>
      <path class="cls-2" d="m732.3,421.15c0-.29.14-.43.43-.43.14,0,.29.04.45.11.15.07.29.21.42.4s.24.46.31.79c.08.33.12.77.12,1.3v17.55c0,.25-.08.45-.25.62s-.37.25-.62.25c-.26,0-.47-.08-.63-.25-.16-.17-.24-.37-.24-.62v-19.72Zm1.74,4.99c.1-.35.33-.77.68-1.27.35-.5.81-1,1.36-1.51s1.19-.98,1.92-1.41c.73-.43,1.54-.76,2.42-.98.22-.06.5-.1.84-.14.34-.04.7-.06,1.09-.07.38,0,.76,0,1.14.04s.72.11,1.03.21c.31.1.56.24.75.4.19.17.28.38.28.64s-.1.47-.29.63c-.2.16-.42.24-.66.24-.15,0-.27-.02-.37-.06-.1-.04-.22-.09-.35-.15-.13-.06-.29-.11-.48-.16-.19-.05-.44-.08-.76-.1-.74-.04-1.52.06-2.35.3-.77.23-1.5.58-2.19,1.03s-1.32,1-1.88,1.64c-.56.64-1.03,1.35-1.41,2.15-.38.8-.64,1.65-.77,2.56v-4Z"/>
      <path class="cls-2" d="m748.65,415.59c0-.35.12-.64.35-.89.23-.25.52-.37.87-.37s.64.12.89.37.37.54.37.89-.12.64-.37.87c-.25.23-.54.35-.89.35s-.64-.12-.87-.35c-.23-.23-.35-.52-.35-.87Zm.39,5.99c0-.25.08-.45.24-.62.16-.17.37-.25.63-.25.25,0,.45.08.62.25.17.17.25.37.25.62v19.28c0,.25-.08.45-.25.62s-.37.25-.62.25c-.26,0-.47-.08-.63-.25-.16-.17-.24-.37-.24-.62v-19.28Z"/>
    </g>
    <g>
      <path class="cls-2" d="m262,356.09c0,.58-.11,1.1-.32,1.56-.21.47-.5.88-.87,1.23-.37.36-.8.63-1.3.82-.5.19-1.04.28-1.61.28h-9.79l-.1,31.06c0,.56-.09,1.07-.28,1.55-.19.48-.45.89-.78,1.25s-.74.63-1.22.83c-.48.2-.99.3-1.55.3s-1.1-.1-1.58-.3c-.48-.2-.88-.48-1.22-.83s-.59-.77-.78-1.25c-.19-.48-.28-.99-.28-1.55l-.07-31.06h-9.92c-.58,0-1.11-.09-1.6-.28-.49-.19-.91-.45-1.27-.8-.35-.34-.64-.75-.85-1.23-.21-.48-.32-1-.32-1.58,0-.53.1-1.04.3-1.51.2-.48.48-.89.83-1.25.35-.35.78-.64,1.28-.85.5-.21,1.04-.32,1.61-.32h27.53c.55,0,1.09.09,1.6.28.51.19.95.46,1.32.8.37.34.66.76.88,1.25.22.49.33,1.02.33,1.6Z"/>
      <path class="cls-2" d="m264.07,355.85c0-.53.1-1.04.3-1.52.2-.48.48-.89.83-1.25s.77-.63,1.25-.83c.48-.2.99-.3,1.55-.3s1.04.1,1.51.3c.48.2.89.48,1.25.83s.64.77.85,1.25c.21.48.32.98.32,1.52v35.19c0,.56-.11,1.07-.32,1.55-.21.48-.49.89-.85,1.25s-.77.63-1.25.83c-.48.2-.98.3-1.51.3s-1.07-.1-1.55-.3c-.48-.2-.89-.48-1.25-.83s-.63-.77-.83-1.25c-.2-.48-.3-.99-.3-1.55v-35.19Zm25.07,31v-8.39c0-1.2-.21-2.34-.62-3.41-.41-1.08-.98-2.01-1.71-2.81-.73-.8-1.6-1.43-2.6-1.9-1-.47-2.1-.7-3.3-.7s-2.38.27-3.46.82c-1.09.54-2.04,1.27-2.86,2.16-.82.9-1.47,1.91-1.95,3.05-.48,1.13-.72,2.29-.72,3.46l-.3-10.55c.22-.67.65-1.38,1.28-2.15.63-.77,1.42-1.47,2.35-2.11.93-.64,1.98-1.18,3.13-1.61,1.15-.43,2.39-.65,3.7-.65,2.22,0,4.25.43,6.09,1.3,1.84.87,3.41,2.04,4.71,3.51s2.31,3.21,3.03,5.19c.72,1.99,1.08,4.11,1.08,6.38v9.59l-7.86-1.17Zm7.86-.87v4.99c0,.51-.1,1.01-.3,1.5-.2.49-.47.92-.82,1.28-.34.37-.76.66-1.25.88-.49.22-1.01.33-1.56.33-.67,0-1.24-.13-1.73-.38s-.89-.59-1.21-1c-.32-.41-.57-.88-.73-1.42-.17-.53-.25-1.09-.25-1.66v-4.79l7.86.27Z"/>
      <path class="cls-2" d="m319.14,394.98c-2.26,0-4.39-.43-6.38-1.3-1.99-.87-3.73-2.04-5.23-3.51-1.5-1.48-2.68-3.21-3.55-5.21-.87-2-1.3-4.13-1.3-6.39,0-2.4.44-4.6,1.33-6.61.89-2.01,2.1-3.74,3.63-5.19,1.53-1.45,3.31-2.59,5.33-3.41,2.02-.82,4.16-1.23,6.43-1.23s4.38.4,6.34,1.2c1.96.8,3.68,1.91,5.14,3.33,1.46,1.42,2.62,3.11,3.46,5.06.84,1.95,1.27,4.07,1.27,6.36,0,1.11-.29,1.85-.87,2.23-.58.38-1.56.57-2.96.57h-21.04c.09,1.02.37,1.99.85,2.91.48.92,1.09,1.73,1.85,2.43.75.7,1.62,1.26,2.6,1.68.98.42,2.02.63,3.13.63s2.1-.18,3.1-.55c1-.37,1.9-.89,2.7-1.58.47-.27,1.02-.41,1.66-.43.64-.02,1.27.08,1.86.3.6.22,1.11.58,1.53,1.08.42.5.63,1.13.63,1.88,0,.87-.36,1.65-1.07,2.36s-1.62,1.31-2.73,1.81c-1.11.5-2.35.89-3.73,1.17-1.38.28-2.71.42-4,.42Zm.27-26.47c-1.09,0-2.13.19-3.13.57-1,.38-1.89.9-2.66,1.56-.78.67-1.43,1.45-1.95,2.35-.52.9-.85,1.88-.98,2.95h17.01c-.09-1.07-.37-2.05-.85-2.95-.48-.9-1.09-1.68-1.83-2.35-.74-.67-1.6-1.19-2.56-1.56-.97-.38-1.98-.57-3.05-.57Z"/>
      <path class="cls-2" d="m376.3,387.38c1.07,0,2.12-.22,3.16-.65,1.04-.43,2.01-1.02,2.9-1.75.89-.73,1.65-1.58,2.28-2.53.63-.95,1.08-1.96,1.35-3.03.75-.6,1.48-.96,2.16-1.08.69-.12,1.29-.08,1.81.12.52.2.94.53,1.27,1s.5.99.55,1.56-.07,1.17-.33,1.78c-.27.61-.72,1.17-1.37,1.68-.36.98-.93,2.08-1.71,3.3-.79,1.22-1.78,2.36-2.96,3.43-1.19,1.07-2.56,1.96-4.13,2.68-1.56.72-3.29,1.08-5.18,1.08-2.95,0-5.72-.56-8.29-1.68-2.58-1.12-4.81-2.65-6.71-4.59-1.9-1.94-3.4-4.21-4.49-6.81-1.1-2.6-1.65-5.37-1.65-8.32,0-1.95.25-3.84.77-5.66.51-1.82,1.23-3.52,2.16-5.11s2.05-3.03,3.35-4.33,2.74-2.41,4.33-3.35c1.59-.93,3.29-1.65,5.11-2.16,1.82-.51,3.72-.77,5.69-.77,1.73,0,3.32.15,4.76.45,1.44.3,2.79.75,4.04,1.35,1.25.6,2.44,1.35,3.56,2.26,1.12.91,2.24,1.96,3.35,3.16.35.4.63.83.83,1.28.2.46.3.95.3,1.48,0,.78-.22,1.47-.67,2.08-.44.61-.99,1.06-1.63,1.35-.58.24-1.18.36-1.8.35s-1.22-.19-1.8-.55c-.91-.71-1.75-1.4-2.53-2.06s-1.58-1.25-2.41-1.75c-.83-.5-1.73-.9-2.68-1.2-.95-.3-2.06-.45-3.33-.45-1.86,0-3.62.36-5.28,1.08-1.65.72-3.09,1.71-4.31,2.96s-2.19,2.71-2.9,4.36c-.71,1.65-1.07,3.41-1.07,5.28,0,1.98.34,3.8,1.03,5.48.69,1.68,1.64,3.12,2.86,4.34,1.22,1.22,2.65,2.18,4.28,2.88,1.63.7,3.4,1.05,5.31,1.05Zm10.65-5.66h-6.92c-.51,0-.97-.1-1.37-.3s-.75-.45-1.05-.75-.53-.63-.7-.98c-.17-.35-.25-.71-.25-1.07-.02-.38.05-.76.22-1.15.17-.39.4-.74.72-1.05s.69-.57,1.15-.77.97-.3,1.55-.3h10.92c.93.02,1.68.3,2.25.83s.85,1.46.85,2.8v12.79c0,.91-.29,1.66-.88,2.25s-1.37.88-2.35.88-1.76-.32-2.3-.95c-.53-.63-.8-1.46-.8-2.48v-9.75h-1.03Z"/>
      <path class="cls-2" d="m415.45,394.98c-2.26,0-4.39-.43-6.38-1.3-1.99-.87-3.73-2.04-5.23-3.51-1.5-1.48-2.68-3.21-3.55-5.21-.87-2-1.3-4.13-1.3-6.39,0-2.4.44-4.6,1.33-6.61.89-2.01,2.1-3.74,3.63-5.19,1.53-1.45,3.31-2.59,5.33-3.41,2.02-.82,4.16-1.23,6.43-1.23s4.38.4,6.34,1.2c1.96.8,3.68,1.91,5.14,3.33,1.46,1.42,2.62,3.11,3.46,5.06.84,1.95,1.27,4.07,1.27,6.36,0,1.11-.29,1.85-.87,2.23-.58.38-1.56.57-2.96.57h-21.04c.09,1.02.37,1.99.85,2.91.48.92,1.09,1.73,1.85,2.43.75.7,1.62,1.26,2.6,1.68.98.42,2.02.63,3.13.63s2.1-.18,3.1-.55c1-.37,1.9-.89,2.7-1.58.47-.27,1.02-.41,1.66-.43.64-.02,1.27.08,1.86.3.6.22,1.11.58,1.53,1.08.42.5.63,1.13.63,1.88,0,.87-.36,1.65-1.07,2.36s-1.62,1.31-2.73,1.81c-1.11.5-2.35.89-3.73,1.17-1.38.28-2.71.42-4,.42Zm.27-26.47c-1.09,0-2.13.19-3.13.57-1,.38-1.89.9-2.66,1.56-.78.67-1.43,1.45-1.95,2.35-.52.9-.85,1.88-.98,2.95h17.01c-.09-1.07-.37-2.05-.85-2.95-.48-.9-1.09-1.68-1.83-2.35-.74-.67-1.6-1.19-2.56-1.56-.97-.38-1.98-.57-3.05-.57Z"/>
      <path class="cls-2" d="m437.7,364.25c0-1.42.71-2.13,2.13-2.13.82,0,1.53.28,2.13.85.6.57,1.04,1.57,1.33,3.01l1.43,6.06.83.47v18.54c0,.56-.11,1.07-.32,1.55-.21.48-.49.89-.85,1.25s-.77.63-1.25.83c-.48.2-.98.3-1.51.3s-1.07-.1-1.55-.3c-.48-.2-.89-.48-1.25-.83s-.63-.77-.83-1.25c-.2-.48-.3-.99-.3-1.55v-26.8Zm5.26,3.76c.4-.53.91-1.1,1.53-1.7.62-.6,1.33-1.17,2.13-1.7.8-.53,1.68-1,2.63-1.42.95-.41,1.98-.7,3.06-.88.78-.07,1.66-.06,2.65.03.99.09,1.92.29,2.8.6.88.31,1.61.77,2.21,1.36s.9,1.37.9,2.3c0,.62-.16,1.18-.48,1.68-.32.5-.72.88-1.18,1.15-.49.29-.99.46-1.5.52-.51.06-1.22.06-2.13.02-.73-.02-1.48-.06-2.25-.12-.77-.06-1.53.04-2.28.28-.73.24-1.42.6-2.05,1.07-.63.47-1.19,1.03-1.66,1.68-.48.66-.87,1.39-1.18,2.21-.31.82-.51,1.69-.6,2.6l-2.6-9.69Z"/>
      <path class="cls-2" d="m466.03,364.25c0-1.42.71-2.13,2.13-2.13.82,0,1.54.3,2.15.9.61.6,1.05,1.59,1.31,2.96l1.43,5.06.83.47v19.54c0,.56-.11,1.07-.32,1.55-.21.48-.49.89-.85,1.25s-.77.63-1.25.83c-.48.2-.98.3-1.51.3s-1.07-.1-1.55-.3c-.48-.2-.89-.48-1.25-.83s-.63-.77-.83-1.25c-.2-.48-.3-.99-.3-1.55v-26.8Zm19.91,13.78c0-1.18-.09-2.27-.27-3.28-.18-1.01-.49-1.88-.93-2.61-.44-.73-1.03-1.31-1.76-1.73-.73-.42-1.64-.63-2.73-.63s-1.96.22-2.75.65c-.79.43-1.45,1.03-1.98,1.78-.53.75-.94,1.64-1.22,2.65-.28,1.01-.42,2.09-.42,3.25l-3.7-9.22c.29-.6.74-1.29,1.37-2.06.62-.78,1.38-1.51,2.28-2.2.9-.69,1.94-1.27,3.13-1.75,1.19-.48,2.5-.72,3.95-.72,2.38,0,4.38.41,6.01,1.23,1.63.82,2.96,1.95,3.98,3.4,1.02,1.44,1.75,3.14,2.2,5.09.44,1.95.67,4.06.67,6.33v12.88c0,.49-.09.97-.28,1.43s-.46.88-.82,1.25c-.36.37-.77.66-1.25.88-.48.22-.99.33-1.55.33s-1.07-.11-1.55-.32c-.48-.21-.89-.49-1.25-.85-.36-.35-.63-.77-.83-1.25-.2-.48-.3-.98-.3-1.51v-13.02Zm19.84,0c0-1.18-.09-2.27-.27-3.28-.18-1.01-.48-1.88-.92-2.61-.43-.73-1.02-1.31-1.75-1.73-.73-.42-1.64-.63-2.73-.63s-1.96.22-2.76.65c-.8.43-1.46,1.03-2,1.78-.53.75-.94,1.64-1.22,2.65-.28,1.01-.42,2.09-.42,3.25l-3.6-9.56c.29-.6.73-1.27,1.33-2.01.6-.74,1.35-1.44,2.25-2.08.9-.64,1.94-1.19,3.11-1.63,1.18-.44,2.49-.67,3.93-.67,2.38,0,4.38.43,6.03,1.3,1.64.87,2.97,2.04,3.98,3.51,1.01,1.48,1.74,3.21,2.18,5.19.44,1.99.67,4.11.67,6.38v12.55c0,.49-.09.97-.28,1.43s-.45.88-.78,1.25-.74.66-1.22.88c-.48.22-1,.33-1.58.33s-1.07-.11-1.55-.32c-.48-.21-.89-.49-1.25-.85-.36-.35-.64-.77-.85-1.25-.21-.48-.32-.98-.32-1.51v-13.02Z"/>
      <path class="cls-2" d="m520.66,353.56c0-.58.1-1.12.32-1.63.21-.51.5-.95.88-1.31s.82-.65,1.33-.87c.51-.21,1.07-.32,1.66-.32s1.12.11,1.63.32c.51.21.96.5,1.35.87.39.37.69.8.92,1.31.22.51.33,1.05.33,1.63s-.11,1.15-.33,1.65c-.22.5-.53.93-.92,1.3-.39.37-.84.65-1.35.87-.51.21-1.05.32-1.63.32s-1.15-.1-1.66-.32c-.51-.21-.95-.5-1.33-.87s-.67-.8-.88-1.3c-.21-.5-.32-1.05-.32-1.65Zm.4,12.42c0-.53.1-1.04.3-1.52.2-.48.47-.89.82-1.25.34-.35.75-.63,1.23-.83.48-.2.99-.3,1.55-.3s1.04.1,1.51.3c.48.2.89.48,1.25.83.35.36.64.77.85,1.25.21.48.32.98.32,1.52v25.07c0,.56-.11,1.07-.32,1.55-.21.48-.49.89-.85,1.25-.36.35-.77.63-1.25.83-.48.2-.98.3-1.51.3s-1.07-.1-1.55-.3c-.48-.2-.89-.48-1.23-.83-.34-.35-.62-.77-.82-1.25-.2-.48-.3-.99-.3-1.55v-25.07Z"/>
      <path class="cls-2" d="m536.34,364.25c0-1.42.71-2.13,2.13-2.13.82,0,1.53.28,2.13.85.6.57,1.04,1.57,1.33,3.01l1.43,6.06.83.47v18.54c0,.56-.11,1.07-.32,1.55-.21.48-.49.89-.85,1.25s-.77.63-1.25.83c-.48.2-.98.3-1.51.3s-1.07-.1-1.55-.3c-.48-.2-.89-.48-1.25-.83s-.63-.77-.83-1.25c-.2-.48-.3-.99-.3-1.55v-26.8Zm25.07,14.32c0-1.2-.21-2.34-.62-3.41-.41-1.08-.98-2.01-1.71-2.81-.73-.8-1.6-1.43-2.6-1.9-1-.47-2.1-.7-3.3-.7s-2.31.24-3.4.73c-1.09.49-2.05,1.14-2.88,1.95-.83.81-1.49,1.75-1.98,2.83-.49,1.08-.73,2.2-.73,3.38l-2.83-10.25c.75-.91,1.63-1.75,2.61-2.51.99-.77,2.04-1.42,3.16-1.96,1.12-.54,2.28-.97,3.48-1.28,1.2-.31,2.39-.47,3.56-.47,2.26,0,4.32.43,6.18,1.3,1.85.87,3.44,2.04,4.76,3.51,1.32,1.48,2.34,3.21,3.06,5.19.72,1.99,1.08,4.11,1.08,6.38v12.52c0,.51-.09,1-.28,1.46-.19.47-.46.88-.82,1.25-.36.37-.77.66-1.25.88-.48.22-.99.33-1.55.33s-1.07-.11-1.55-.32c-.48-.21-.89-.49-1.25-.85-.36-.35-.64-.77-.85-1.25-.21-.48-.32-.98-.32-1.51v-12.49Z"/>
      <path class="cls-2" d="m606.03,378.56c0,2.26-.33,4.4-.98,6.39s-1.6,3.74-2.85,5.23c-1.24,1.49-2.76,2.66-4.54,3.53-1.79.87-3.81,1.3-6.08,1.3s-4.39-.43-6.38-1.3c-1.99-.87-3.73-2.04-5.23-3.53-1.5-1.49-2.68-3.23-3.55-5.23s-1.3-4.13-1.3-6.39.43-4.39,1.3-6.38c.87-1.99,2.05-3.72,3.55-5.21,1.5-1.49,3.24-2.66,5.23-3.53,1.99-.87,4.11-1.3,6.38-1.3s4.29.43,6.08,1.3c1.79.87,3.3,2.04,4.54,3.53,1.24,1.49,2.19,3.22,2.85,5.21.65,1.99.98,4.11.98,6.38Zm-5.93,0c0-1.2-.22-2.34-.67-3.41-.44-1.08-1.05-2.01-1.81-2.81-.77-.8-1.67-1.43-2.7-1.9-1.03-.47-2.15-.7-3.35-.7s-2.32.23-3.36.7c-1.04.47-1.95,1.1-2.71,1.9-.77.8-1.37,1.74-1.8,2.81-.43,1.08-.65,2.21-.65,3.41s.22,2.37.65,3.45c.43,1.08,1.03,2.01,1.8,2.81.77.8,1.67,1.43,2.71,1.9,1.04.47,2.16.7,3.36.7s2.31-.23,3.35-.7c1.03-.47,1.93-1.1,2.7-1.9.77-.8,1.37-1.74,1.81-2.81.44-1.08.67-2.22.67-3.45Zm7.92,1.03c0,.56-.1,1.07-.3,1.55-.2.48-.48.89-.83,1.25s-.77.63-1.25.83c-.48.2-.99.3-1.55.3s-1.04-.1-1.51-.3c-.48-.2-.89-.48-1.25-.83-.36-.35-.64-.77-.85-1.25-.21-.48-.32-.99-.32-1.55v-8.72l.83-.47,1.43-4.39c.27-1.4.7-2.39,1.31-2.98.61-.59,1.33-.88,2.15-.88,1.42,0,2.13.71,2.13,2.13v15.32Zm0,12.88c0,.82-.21,1.45-.63,1.88-.42.43-1.02.65-1.8.65-.82,0-1.49-.24-2.01-.72-.52-.48-.9-1.1-1.15-1.88l-1.43-5.69-.83-.43v-7.66c0-.55.1-1.07.32-1.53.21-.47.49-.88.85-1.23.35-.35.77-.63,1.25-.83.48-.2.98-.3,1.51-.3s1.07.1,1.55.3c.48.2.89.48,1.25.83.35.36.63.77.83,1.23.2.47.3.98.3,1.53v13.85Z"/>
      <path class="cls-2" d="m631.26,362.75c.53,0,1.03.09,1.5.28.47.19.87.46,1.21.8s.62.75.82,1.21c.2.47.3.98.3,1.53s-.1,1.03-.3,1.48c-.2.46-.47.86-.82,1.22-.34.36-.75.63-1.21.83-.47.2-.97.3-1.5.3h-14.32c-.53,0-1.03-.1-1.5-.3-.47-.2-.87-.48-1.22-.83-.34-.35-.62-.76-.82-1.22-.2-.45-.3-.95-.3-1.48s.1-1.07.3-1.53c.2-.47.47-.87.82-1.21.34-.34.75-.61,1.22-.8.47-.19.97-.28,1.5-.28h14.32Zm-11.15-6.89c0-.53.1-1.04.3-1.52.2-.48.47-.89.82-1.25.34-.35.75-.63,1.23-.83.48-.2.99-.3,1.55-.3s1.04.1,1.51.3c.48.2.89.48,1.25.83.35.35.64.77.85,1.25.21.48.32.98.32,1.52v35.19c0,.56-.11,1.07-.32,1.55-.21.48-.49.89-.85,1.25-.36.35-.77.63-1.25.83-.48.2-.98.3-1.51.3s-1.07-.1-1.55-.3c-.48-.2-.89-.48-1.23-.83-.34-.35-.62-.77-.82-1.25-.2-.48-.3-.99-.3-1.55v-35.19Z"/>
      <path class="cls-2" d="m639.35,353.56c0-.58.1-1.12.32-1.63.21-.51.5-.95.88-1.31s.82-.65,1.33-.87c.51-.21,1.07-.32,1.66-.32s1.12.11,1.63.32c.51.21.96.5,1.35.87.39.37.69.8.92,1.31.22.51.33,1.05.33,1.63s-.11,1.15-.33,1.65c-.22.5-.53.93-.92,1.3-.39.37-.84.65-1.35.87-.51.21-1.05.32-1.63.32s-1.15-.1-1.66-.32c-.51-.21-.95-.5-1.33-.87s-.67-.8-.88-1.3c-.21-.5-.32-1.05-.32-1.65Zm.4,12.42c0-.53.1-1.04.3-1.52.2-.48.47-.89.82-1.25.34-.35.75-.63,1.23-.83.48-.2.99-.3,1.55-.3s1.04.1,1.51.3c.48.2.89.48,1.25.83.35.36.64.77.85,1.25.21.48.32.98.32,1.52v25.07c0,.56-.11,1.07-.32,1.55-.21.48-.49.89-.85,1.25-.36.35-.77.63-1.25.83-.48.2-.98.3-1.51.3s-1.07-.1-1.55-.3c-.48-.2-.89-.48-1.23-.83-.34-.35-.62-.77-.82-1.25-.2-.48-.3-.99-.3-1.55v-25.07Z"/>
      <path class="cls-2" d="m653.34,378.53c0-2.26.43-4.39,1.3-6.38.87-1.99,2.05-3.72,3.55-5.21,1.5-1.49,3.24-2.66,5.23-3.53,1.99-.87,4.11-1.3,6.38-1.3s4.39.43,6.38,1.3c1.99.87,3.73,2.04,5.23,3.53,1.5,1.49,2.68,3.22,3.55,5.21.87,1.99,1.3,4.11,1.3,6.38s-.43,4.39-1.3,6.39c-.87,2-2.05,3.74-3.55,5.23-1.5,1.49-3.24,2.66-5.23,3.53-1.99.87-4.11,1.3-6.38,1.3s-4.39-.43-6.38-1.3c-1.99-.87-3.73-2.04-5.23-3.53-1.5-1.49-2.68-3.23-3.55-5.23-.87-2-1.3-4.13-1.3-6.39Zm7.92,0c0,1.22.22,2.37.65,3.45.43,1.08,1.03,2.01,1.8,2.81.77.8,1.67,1.43,2.71,1.9,1.04.47,2.16.7,3.36.7s2.31-.23,3.35-.7c1.03-.47,1.93-1.1,2.7-1.9.77-.8,1.37-1.74,1.81-2.81.44-1.08.67-2.23.67-3.45s-.22-2.34-.67-3.41c-.44-1.08-1.05-2.01-1.81-2.81s-1.66-1.43-2.7-1.9c-1.03-.47-2.15-.7-3.35-.7s-2.32.23-3.36.7c-1.04.47-1.95,1.1-2.71,1.9-.77.8-1.36,1.74-1.8,2.81-.43,1.08-.65,2.21-.65,3.41Z"/>
      <path class="cls-2" d="m691.99,364.25c0-1.42.71-2.13,2.13-2.13.82,0,1.53.28,2.13.85.6.57,1.04,1.57,1.33,3.01l1.43,6.06.83.47v18.54c0,.56-.11,1.07-.32,1.55-.21.48-.49.89-.85,1.25s-.77.63-1.25.83c-.48.2-.98.3-1.51.3s-1.07-.1-1.55-.3c-.48-.2-.89-.48-1.25-.83s-.63-.77-.83-1.25c-.2-.48-.3-.99-.3-1.55v-26.8Zm25.07,14.32c0-1.2-.21-2.34-.62-3.41-.41-1.08-.98-2.01-1.71-2.81-.73-.8-1.6-1.43-2.6-1.9-1-.47-2.1-.7-3.3-.7s-2.31.24-3.4.73c-1.09.49-2.05,1.14-2.88,1.95-.83.81-1.49,1.75-1.98,2.83-.49,1.08-.73,2.2-.73,3.38l-2.83-10.25c.75-.91,1.63-1.75,2.61-2.51.99-.77,2.04-1.42,3.16-1.96,1.12-.54,2.28-.97,3.48-1.28,1.2-.31,2.39-.47,3.56-.47,2.26,0,4.32.43,6.18,1.3,1.85.87,3.44,2.04,4.76,3.51,1.32,1.48,2.34,3.21,3.06,5.19.72,1.99,1.08,4.11,1.08,6.38v12.52c0,.51-.09,1-.28,1.46-.19.47-.46.88-.82,1.25-.36.37-.77.66-1.25.88-.48.22-.99.33-1.55.33s-1.07-.11-1.55-.32c-.48-.21-.89-.49-1.25-.85-.36-.35-.64-.77-.85-1.25-.21-.48-.32-.98-.32-1.51v-12.49Z"/>
      <path class="cls-2" d="m755.82,364.38c0,4.95,0,9.67.02,14.15.01,4.48.02,8.66.02,12.52,0,.53-.09,1.04-.28,1.51-.19.48-.46.89-.82,1.25s-.77.64-1.25.85c-.48.21-1,.32-1.58.32s-1.07-.1-1.55-.3c-.48-.2-.89-.48-1.23-.83-.34-.35-.62-.77-.82-1.25-.2-.48-.3-.99-.3-1.55v-26.25c0-2.98-.01-5.8-.03-8.44,0-.47-.06-.89-.18-1.28-.12-.39-.18-.82-.18-1.28,0-.24.03-.47.1-.67.07-.2.2-.37.4-.52.2-.14.48-.25.83-.33.35-.08.83-.12,1.43-.12.64,0,1.19.01,1.63.03.44.02.84.08,1.18.17.34.09.66.23.95.42.29.19.59.45.9.78l13.78,16.85c1.89-2.31,3.52-4.31,4.89-5.99,1.38-1.69,2.55-3.13,3.51-4.34.97-1.21,1.75-2.2,2.36-2.98.61-.78,1.09-1.4,1.45-1.88.35-.48.61-.83.77-1.07.15-.23.28-.4.37-.52.13-.2.28-.39.43-.58.16-.19.36-.35.62-.48.25-.13.57-.23.93-.3.37-.07.83-.1,1.38-.1,1.09,0,1.91.23,2.48.68.57.46.97,1.05,1.22,1.78.24.73.37,1.57.38,2.51.01.94.02,1.89.02,2.85v31.06c0,.53-.09,1.04-.28,1.51-.19.48-.46.89-.8,1.25-.34.36-.76.64-1.25.85-.49.21-1.02.32-1.6.32-.4,0-.83-.08-1.28-.23-.46-.16-.88-.39-1.27-.72-.39-.32-.71-.73-.95-1.22-.24-.49-.37-1.08-.37-1.76v-26.6l-9.72,12.52c-.51.62-1.02,1.15-1.53,1.58-.51.43-1.07.65-1.66.65-.67,0-1.22-.19-1.66-.58-.44-.39-.97-.94-1.56-1.65l-9.89-12.58Z"/>
      <path class="cls-2" d="m826.3,378.56c0,2.26-.33,4.4-.98,6.39s-1.6,3.74-2.85,5.23c-1.24,1.49-2.76,2.66-4.54,3.53-1.79.87-3.81,1.3-6.08,1.3s-4.39-.43-6.38-1.3c-1.99-.87-3.73-2.04-5.23-3.53-1.5-1.49-2.68-3.23-3.55-5.23s-1.3-4.13-1.3-6.39.43-4.39,1.3-6.38c.87-1.99,2.05-3.72,3.55-5.21,1.5-1.49,3.24-2.66,5.23-3.53,1.99-.87,4.11-1.3,6.38-1.3s4.29.43,6.08,1.3c1.79.87,3.3,2.04,4.54,3.53,1.24,1.49,2.19,3.22,2.85,5.21.65,1.99.98,4.11.98,6.38Zm-5.93,0c0-1.2-.22-2.34-.67-3.41-.44-1.08-1.05-2.01-1.81-2.81-.77-.8-1.67-1.43-2.7-1.9-1.03-.47-2.15-.7-3.35-.7s-2.32.23-3.36.7c-1.04.47-1.95,1.1-2.71,1.9-.77.8-1.37,1.74-1.8,2.81-.43,1.08-.65,2.21-.65,3.41s.22,2.37.65,3.45c.43,1.08,1.03,2.01,1.8,2.81.77.8,1.67,1.43,2.71,1.9,1.04.47,2.16.7,3.36.7s2.31-.23,3.35-.7c1.03-.47,1.93-1.1,2.7-1.9.77-.8,1.37-1.74,1.81-2.81.44-1.08.67-2.22.67-3.45Zm7.92,1.03c0,.56-.1,1.07-.3,1.55-.2.48-.48.89-.83,1.25s-.77.63-1.25.83c-.48.2-.99.3-1.55.3s-1.04-.1-1.51-.3c-.48-.2-.89-.48-1.25-.83-.36-.35-.64-.77-.85-1.25-.21-.48-.32-.99-.32-1.55v-8.72l.83-.47,1.43-4.39c.27-1.4.7-2.39,1.31-2.98.61-.59,1.33-.88,2.15-.88,1.42,0,2.13.71,2.13,2.13v15.32Zm0,12.88c0,.82-.21,1.45-.63,1.88-.42.43-1.02.65-1.8.65-.82,0-1.49-.24-2.01-.72-.52-.48-.9-1.1-1.15-1.88l-1.43-5.69-.83-.43v-7.66c0-.55.1-1.07.32-1.53.21-.47.49-.88.85-1.23.35-.35.77-.63,1.25-.83.48-.2.98-.3,1.51-.3s1.07.1,1.55.3c.48.2.89.48,1.25.83.35.36.63.77.83,1.23.2.47.3.98.3,1.53v13.85Z"/>
      <path class="cls-2" d="m862.52,366.68c.84.91,1.27,1.84,1.27,2.8,0,.53-.11,1.04-.33,1.52-.22.48-.52.88-.9,1.2-.38.32-.82.56-1.33.7-.51.14-1.04.16-1.6.05-1.13-.55-2.28-1.1-3.43-1.65-1.15-.54-2.4-.94-3.73-1.18-1.27-.16-2.51-.08-3.73.23-1.22.31-2.31.83-3.26,1.56-.95.73-1.72,1.66-2.3,2.78-.58,1.12-.87,2.41-.87,3.88s.27,2.69.82,3.81c.54,1.12,1.28,2.05,2.21,2.8.93.74,2.01,1.28,3.23,1.61,1.22.33,2.52.41,3.9.23,1.06-.11,2.1-.38,3.11-.8,1.01-.42,1.9-.99,2.68-1.7.51-.27,1.08-.43,1.71-.5.63-.07,1.24.02,1.81.27.62.24,1.12.66,1.5,1.25.38.59.57,1.27.57,2.05,0,.89-.34,1.78-1.03,2.66-.69.89-1.63,1.68-2.81,2.38-1.19.7-2.58,1.27-4.16,1.71-1.59.44-3.27.67-5.04.67-2.26,0-4.39-.43-6.38-1.3-1.99-.87-3.72-2.04-5.21-3.53-1.49-1.49-2.66-3.23-3.53-5.23-.87-2-1.3-4.13-1.3-6.39s.43-4.39,1.3-6.38c.87-1.99,2.04-3.72,3.53-5.21s3.22-2.66,5.21-3.53c1.99-.87,4.11-1.3,6.38-1.3,1.11,0,2.22.1,3.33.3,1.11.2,2.18.49,3.21.88,1.03.39,1.99.86,2.88,1.42.89.56,1.65,1.2,2.3,1.93Z"/>
      <path class="cls-2" d="m869.65,355.85c0-.53.1-1.04.3-1.52.2-.48.48-.89.83-1.25s.77-.63,1.25-.83c.48-.2.99-.3,1.55-.3s1.04.1,1.51.3c.48.2.89.48,1.25.83s.64.77.85,1.25c.21.48.32.98.32,1.52v35.19c0,.56-.11,1.07-.32,1.55-.21.48-.49.89-.85,1.25s-.77.63-1.25.83c-.48.2-.98.3-1.51.3s-1.07-.1-1.55-.3c-.48-.2-.89-.48-1.25-.83s-.63-.77-.83-1.25c-.2-.48-.3-.99-.3-1.55v-35.19Zm25.07,31v-8.39c0-1.2-.21-2.34-.62-3.41-.41-1.08-.98-2.01-1.71-2.81-.73-.8-1.6-1.43-2.6-1.9-1-.47-2.1-.7-3.3-.7s-2.38.27-3.46.82c-1.09.54-2.04,1.27-2.86,2.16-.82.9-1.47,1.91-1.95,3.05-.48,1.13-.72,2.29-.72,3.46l-.3-10.55c.22-.67.65-1.38,1.28-2.15.63-.77,1.42-1.47,2.35-2.11.93-.64,1.98-1.18,3.13-1.61,1.15-.43,2.39-.65,3.7-.65,2.22,0,4.25.43,6.09,1.3,1.84.87,3.41,2.04,4.71,3.51s2.31,3.21,3.03,5.19c.72,1.99,1.08,4.11,1.08,6.38v9.59l-7.86-1.17Zm7.86-.87v4.99c0,.51-.1,1.01-.3,1.5-.2.49-.47.92-.82,1.28-.34.37-.76.66-1.25.88-.49.22-1.01.33-1.56.33-.67,0-1.24-.13-1.73-.38s-.89-.59-1.21-1c-.32-.41-.57-.88-.73-1.42-.17-.53-.25-1.09-.25-1.66v-4.79l7.86.27Z"/>
      <path class="cls-2" d="m909.57,353.56c0-.58.1-1.12.32-1.63.21-.51.5-.95.88-1.31s.82-.65,1.33-.87c.51-.21,1.07-.32,1.66-.32s1.12.11,1.63.32c.51.21.96.5,1.35.87.39.37.69.8.92,1.31.22.51.33,1.05.33,1.63s-.11,1.15-.33,1.65c-.22.5-.53.93-.92,1.3-.39.37-.84.65-1.35.87-.51.21-1.05.32-1.63.32s-1.15-.1-1.66-.32c-.51-.21-.95-.5-1.33-.87s-.67-.8-.88-1.3c-.21-.5-.32-1.05-.32-1.65Zm.4,12.42c0-.53.1-1.04.3-1.52.2-.48.47-.89.82-1.25.34-.35.75-.63,1.23-.83.48-.2.99-.3,1.55-.3s1.04.1,1.51.3c.48.2.89.48,1.25.83.35.36.64.77.85,1.25.21.48.32.98.32,1.52v25.07c0,.56-.11,1.07-.32,1.55-.21.48-.49.89-.85,1.25-.36.35-.77.63-1.25.83-.48.2-.98.3-1.51.3s-1.07-.1-1.55-.3c-.48-.2-.89-.48-1.23-.83-.34-.35-.62-.77-.82-1.25-.2-.48-.3-.99-.3-1.55v-25.07Z"/>
      <path class="cls-2" d="m925.25,364.25c0-1.42.71-2.13,2.13-2.13.82,0,1.53.28,2.13.85.6.57,1.04,1.57,1.33,3.01l1.43,6.06.83.47v18.54c0,.56-.11,1.07-.32,1.55-.21.48-.49.89-.85,1.25s-.77.63-1.25.83c-.48.2-.98.3-1.51.3s-1.07-.1-1.55-.3c-.48-.2-.89-.48-1.25-.83s-.63-.77-.83-1.25c-.2-.48-.3-.99-.3-1.55v-26.8Zm25.07,14.32c0-1.2-.21-2.34-.62-3.41-.41-1.08-.98-2.01-1.71-2.81-.73-.8-1.6-1.43-2.6-1.9-1-.47-2.1-.7-3.3-.7s-2.31.24-3.4.73c-1.09.49-2.05,1.14-2.88,1.95-.83.81-1.49,1.75-1.98,2.83-.49,1.08-.73,2.2-.73,3.38l-2.83-10.25c.75-.91,1.63-1.75,2.61-2.51.99-.77,2.04-1.42,3.16-1.96,1.12-.54,2.28-.97,3.48-1.28,1.2-.31,2.39-.47,3.56-.47,2.26,0,4.32.43,6.18,1.3,1.85.87,3.44,2.04,4.76,3.51,1.32,1.48,2.34,3.21,3.06,5.19.72,1.99,1.08,4.11,1.08,6.38v12.52c0,.51-.09,1-.28,1.46-.19.47-.46.88-.82,1.25-.36.37-.77.66-1.25.88-.48.22-.99.33-1.55.33s-1.07-.11-1.55-.32c-.48-.21-.89-.49-1.25-.85-.36-.35-.64-.77-.85-1.25-.21-.48-.32-.98-.32-1.51v-12.49Z"/>
      <path class="cls-2" d="m980.38,394.98c-2.26,0-4.39-.43-6.38-1.3-1.99-.87-3.73-2.04-5.23-3.51-1.5-1.48-2.68-3.21-3.55-5.21s-1.3-4.13-1.3-6.39c0-2.4.44-4.6,1.33-6.61.89-2.01,2.1-3.74,3.63-5.19,1.53-1.45,3.31-2.59,5.33-3.41,2.02-.82,4.16-1.23,6.43-1.23s4.38.4,6.34,1.2c1.96.8,3.68,1.91,5.14,3.33,1.46,1.42,2.62,3.11,3.46,5.06.84,1.95,1.26,4.07,1.26,6.36,0,1.11-.29,1.85-.87,2.23s-1.56.57-2.96.57h-21.04c.09,1.02.37,1.99.85,2.91.48.92,1.09,1.73,1.85,2.43.75.7,1.62,1.26,2.6,1.68.98.42,2.02.63,3.13.63s2.1-.18,3.1-.55c1-.37,1.9-.89,2.7-1.58.47-.27,1.02-.41,1.67-.43.64-.02,1.26.08,1.86.3.6.22,1.11.58,1.53,1.08.42.5.63,1.13.63,1.88,0,.87-.36,1.65-1.07,2.36-.71.71-1.62,1.31-2.73,1.81s-2.35.89-3.73,1.17c-1.38.28-2.71.42-4,.42Zm.27-26.47c-1.09,0-2.13.19-3.13.57-1,.38-1.89.9-2.66,1.56-.78.67-1.43,1.45-1.95,2.35-.52.9-.85,1.88-.98,2.95h17.01c-.09-1.07-.37-2.05-.85-2.95-.48-.9-1.09-1.68-1.83-2.35-.74-.67-1.6-1.19-2.56-1.56-.97-.38-1.98-.57-3.05-.57Z"/>
    </g>
    <circle class="cls-5" cx="306.5" cy="192.97" r="93.22"/>
    <path class="cls-6" d="m304.97,248.43h-45.68v-109.84h45.68c32.94,0,54.84,24.39,54.84,55s-21.91,54.84-54.84,54.84Zm0-54.84c-10.1,0-18.33,8.23-18.33,18.18s8.23,18.49,18.33,18.49,18.33-8.08,18.33-18.49-8.23-18.18-18.33-18.18Z"/>
  </g>
</svg>