<?xml version="1.0" encoding="UTF-8"?>
<svg xmlns="http://www.w3.org/2000/svg" viewBox="0 0 1920 540">
  <defs>
    <style>
      .cls-1 {
        fill: #c4f200;
      }

      .cls-1, .cls-2, .cls-3, .cls-4, .cls-5, .cls-6, .cls-7, .cls-8 {
        stroke-width: 0px;
      }

      .cls-2 {
        fill: #5d62fe;
      }

      .cls-3 {
        fill: #5dfdfe;
      }

      .cls-4 {
        fill: #44c4f5;
      }

      .cls-5 {
        fill: #fe3465;
      }

      .cls-6 {
        fill: #fff;
      }

      .cls-7 {
        fill: #fd4c94;
      }

      .cls-8 {
        fill: #9980f5;
      }
    </style>
  </defs>
  <g id="Layer_2_copy" data-name="Layer 2 copy">
    <circle class="cls-4" cx="1497.29" cy="269.62" r="96.61"/>
    <circle class="cls-4" cx="1654.39" cy="294.39" r="106.32"/>
    <circle class="cls-4" cx="1351.37" cy="325.65" r="100.35"/>
    <circle class="cls-4" cx="1187.19" cy="310.99" r="96.61"/>
    <circle class="cls-4" cx="1295.5" cy="173.09" r="24.71"/>
    <circle class="cls-4" cx="317.97" cy="141.6" r="23.29"/>
    <circle class="cls-4" cx="202.79" cy="352.09" r="24.71"/>
    <circle class="cls-4" cx="773.01" cy="341.19" r="39.4"/>
    <circle class="cls-4" cx="1400.13" cy="201.14" r="51.56"/>
    <circle class="cls-4" cx="426.47" cy="307.73" r="96.83"/>
    <circle class="cls-4" cx="843.48" cy="257.52" r="102.66"/>
    <circle class="cls-4" cx="1021.74" cy="297.05" r="104.18"/>
    <circle class="cls-4" cx="690.86" cy="289.54" r="102.59"/>
    <circle class="cls-4" cx="555.49" cy="251.41" r="93.22"/>
    <circle class="cls-4" cx="268.05" cy="289.15" r="93.22"/>
  </g>
  <g id="Layer_4_copy" data-name="Layer 4 copy">
    <circle class="cls-4" cx="1190.04" cy="142.36" r="24.71"/>
    <circle class="cls-4" cx="1165.63" cy="136.81" r="24.71"/>
    <circle class="cls-4" cx="1165.63" cy="107.95" r="24.71"/>
    <circle class="cls-4" cx="1194.48" cy="107.95" r="24.71"/>
    <circle class="cls-4" cx="1207.8" cy="131.26" r="24.71"/>
    <ellipse class="cls-6" cx="1163.11" cy="114.24" rx="12.2" ry="12.21"/>
    <ellipse class="cls-6" cx="1208.2" cy="130.88" rx="12.2" ry="12.21"/>
    <circle class="cls-4" cx="1162.95" cy="114.4" r="10.14"/>
    <circle class="cls-4" cx="1207.8" cy="131.26" r="10.14"/>
  </g>
  <g id="Layer_3_copy" data-name="Layer 3 copy">
    <circle class="cls-4" cx="636.03" cy="392.8" r="24.71"/>
    <circle class="cls-4" cx="616.09" cy="407.94" r="24.71"/>
    <circle class="cls-4" cx="593.98" cy="389.39" r="24.71"/>
    <circle class="cls-4" cx="612.53" cy="367.29" r="24.71"/>
    <ellipse class="cls-6" cx="581.64" cy="402.02" rx="12.2" ry="12.21" transform="translate(-100.2 589.16) rotate(-50)"/>
    <ellipse class="cls-6" cx="641.13" cy="392.61" rx="12.2" ry="12.21" transform="translate(-71.74 631.37) rotate(-50)"/>
    <circle class="cls-4" cx="581.66" cy="402.25" r="10.14" transform="translate(-100.37 589.25) rotate(-50)"/>
    <circle class="cls-4" cx="641.17" cy="393.15" r="10.14" transform="translate(-72.14 631.59) rotate(-50)"/>
  </g>
  <g id="Layer_1_copy" data-name="Layer 1 copy">
    <circle class="cls-3" cx="427.03" cy="288.2" r="96.83"/>
    <circle class="cls-7" cx="844.03" cy="237.98" r="102.66"/>
    <circle class="cls-2" cx="1022.3" cy="277.52" r="104.18"/>
    <circle class="cls-8" cx="691.41" cy="270" r="102.59"/>
    <circle class="cls-1" cx="556.04" cy="231.88" r="93.22"/>
    <path class="cls-6" d="m447.82,301.53l17.09,39h-35.58l-7.92-22.84c-.47-1.4-1.71-2.02-2.95-2.02-2.17,0-3.73,1.24-3.73,3.73v21.13h-29.52v-109.84h45.21c22.53,0,38.38,14.14,38.38,37.13,0,16.62-6.99,27.81-20.97,33.71Zm-27.34-29.52c-7.92,0-13.67,5.9-13.67,13.67s5.75,13.67,13.67,13.67,13.67-5.9,13.67-13.67-5.9-13.67-13.67-13.67Z"/>
    <path class="cls-6" d="m595.01,279.48h-90.89l25.95-109.84h39.77l25.17,109.84Zm-45.21-41.17c-7.61,0-13.83,6.06-13.83,13.67s6.21,13.83,13.83,13.83,13.83-6.06,13.83-13.83-5.9-13.67-13.83-13.67Z"/>
    <path class="cls-6" d="m745.61,321.74h-86.07c-15.69,0-26.88-9.17-26.88-25.01v-84.83h29.05v72.87c0,4.35,2.33,6.37,6.84,6.37s6.84-2.02,6.84-6.37v-72.87h27.5v72.87c0,4.35,2.33,6.37,6.84,6.37s6.99-2.02,6.99-6.37v-72.87h28.9v109.84Z"/>
    <path class="cls-6" d="m906.23,225.11h-18.95c-2.18,0-3.26,1.09-3.26,3.26v74.42h-31.85v-74.42c0-2.17-1.09-3.26-3.11-3.26h-18.95v-32.16h76.13v32.16Z"/>
    <path class="cls-6" d="m1006.17,338.35c-34.33,0-57.17-25.95-57.17-57.02s23.3-57.02,57.17-57.02,57.02,25.33,57.02,57.02-22.84,57.02-57.02,57.02Zm0-57.02c-10.41,0-18.49,8.23-18.49,18.18s8.08,18.49,18.49,18.49,18.18-8.08,18.18-18.49-8.23-18.18-18.18-18.18Z"/>
    <circle class="cls-5" cx="1187.76" cy="290.74" r="96.61"/>
    <circle class="cls-3" cx="1351.95" cy="305.4" r="100.35"/>
    <circle class="cls-1" cx="1654.97" cy="274.14" r="106.32"/>
    <ellipse class="cls-7" cx="1488.36" cy="248.83" rx="97.58" ry="97.35"/>
    <path class="cls-6" d="m1223.58,343.62h-66.34v-113.85h32.04v76.97c0,2.42,1.29,3.54,3.54,3.54h30.76v33.33Z"/>
    <path class="cls-6" d="m1360.86,364.45h-32.16v-109.84h32.16v109.84Z"/>
    <path class="cls-6" d="m1522.68,258.58h-32.21c-3.87,0-5.31,2.25-5.31,5.64v32.37h-33.17v-113.85h71.17v33.33h-34.62c-3.86,0-5.8,2.42-5.8,6.92,0,4.83,1.93,7.41,5.8,7.41h34.14v28.18Z"/>
    <path class="cls-6" d="m1693.34,336.96h-71.17v-113.85h71.17v29.63h-34.3c-4.19,0-6.76,3.06-6.76,6.92s2.25,7.41,6.76,7.41h34.3v22.38h-33.65c-4.19,0-7.41,2.74-7.41,7.25s2.58,6.92,7.41,6.92h33.65v33.33Z"/>
    <text/>
    <circle class="cls-5" cx="268.6" cy="269.61" r="93.22"/>
    <path class="cls-6" d="m267.07,325.07h-45.68v-109.84h45.68c32.94,0,54.84,24.39,54.84,55s-21.91,54.84-54.84,54.84Zm0-54.84c-10.1,0-18.33,8.23-18.33,18.18s8.23,18.49,18.33,18.49,18.33-8.08,18.33-18.49-8.23-18.18-18.33-18.18Z"/>
  </g>
</svg>